<?xml version="1.0" encoding="UTF-8" standalone="no"?>
<!DOCTYPE svg PUBLIC "-//W3C//DTD SVG 1.1//EN" "http://www.w3.org/Graphics/SVG/1.1/DTD/svg11.dtd">
<!-- Created with Vectornator (http://vectornator.io/) -->
<svg height="100%" stroke-miterlimit="10" style="fill-rule:nonzero;clip-rule:evenodd;stroke-linecap:round;stroke-linejoin:round;" version="1.1" viewBox="0 0 1000 1000" width="100%" xml:space="preserve" xmlns="http://www.w3.org/2000/svg" xmlns:vectornator="http://vectornator.io" xmlns:xlink="http://www.w3.org/1999/xlink">
<defs/>
<clipPath id="ArtboardFrame">
<rect height="1000" width="1000" x="0" y="0"/>
</clipPath>
<g clip-path="url(#ArtboardFrame)" id="BG" vectornator:layerName="BG">
<path d="M2 0L998 0C999.105 0 1000 0.895431 1000 2L1000 998C1000 999.105 999.105 1000 998 1000L2 1000C0.895431 1000 0 999.105 0 998L0 2C0 0.895431 0.895431 0 2 0Z" fill="#ffa8a8" fill-rule="nonzero" opacity="1" stroke="#ffa8a8" stroke-linecap="butt" stroke-linejoin="round" stroke-opacity="0.00869647" stroke-width="0.25"/>
</g>
<g id="Untitled" vectornator:layerName="Untitled">
<path d="M510.812 114.438C281.107 114.438 94.9062 300.639 94.9062 530.344C94.9062 760.049 281.107 946.281 510.812 946.281C740.518 946.281 926.719 760.049 926.719 530.344C926.719 300.639 740.518 114.438 510.812 114.438ZM522.875 210.156C577.038 210.753 623.123 222.127 660.625 244C681.4 224.751 708.163 213.5 736.312 213.5C750.377 213.5 764.013 216.373 776.844 222C831.328 245.895 854.632 313.296 828.781 372.25C816.691 399.814 795.818 421.225 770.875 433.312C773.656 459.152 773.059 479.152 772.594 486.344C777.655 495.905 792.952 529.095 784.469 567.25C772.529 620.955 713.381 652.241 650.719 669.844C670.493 710.399 690.69 768.066 678.531 818.594C657.295 906.87 615.51 938.312 583.5 938.312C579.413 938.311 575.345 937.84 571.375 936.875C543.053 929.987 529.059 902.058 523.312 888.75C515.836 889.256 508.261 889.263 500.75 888.812C495.014 901.974 480.969 930.02 452.781 936.875C448.808 937.84 444.712 938.312 440.625 938.312C408.612 938.312 366.834 906.87 345.594 818.594C333.908 770.026 352.125 714.793 371.125 674.562C364.695 673.007 358.256 671.413 351.875 669.531C282.512 649.076 242.81 615.916 233.906 570.938C225.919 530.589 239.983 499.461 244.969 490.094C244.355 482.427 243.459 460.751 246.344 432.938C221.755 420.784 201.212 399.526 189.25 372.25C163.397 313.296 186.701 245.896 241.188 222C254.019 216.372 267.655 213.5 281.719 213.5C309.796 213.5 336.498 224.686 357.25 243.844C396.138 221.554 444.207 210.25 501.031 210.25C502.863 210.25 504.734 210.257 506.594 210.281C512.103 210.13 517.523 210.097 522.875 210.156Z" fill="#fefefe" fill-rule="nonzero" opacity="1" stroke="none"/>
<g opacity="1">
<path d="M505.969 440.5C472.114 440.733 446.756 462.69 434.656 475.75C416.698 495.136 405.205 519.045 405.344 536.656L405.438 550.844C405.705 584.699 450.902 612.249 506.188 612.25L507.344 612.25C534.854 612.061 560.594 605.174 579.812 592.844C598.279 580.995 608.376 565.585 608.25 549.469L608.125 535.281C607.987 517.742 596.185 494.068 578.031 474.969C565.8 462.103 540.233 440.5 506.5 440.5L505.969 440.5ZM506.094 455.125C529.352 454.953 548.26 464.083 548.344 475.531C548.424 486.431 533.252 505.116 511.719 507.031L511.781 516C516.433 528.499 523.093 536.325 531.688 539C547.529 543.933 565.321 531.068 565.5 530.938C567.855 529.212 571.18 529.741 572.906 532.094C574.633 534.449 574.104 537.743 571.75 539.469C571.241 539.842 564.164 544.835 554.406 548.031C545.641 565.612 527.471 580.908 506.812 581.062L506.469 581.062C485.983 581.063 467.742 566.084 458.75 548.75C448.938 545.696 441.763 540.803 441.25 540.438C438.87 538.748 438.339 535.441 440.031 533.062C441.721 530.685 444.994 530.129 447.375 531.812C447.659 532.014 465.735 544.53 481.375 539.375C489.916 536.561 496.444 528.632 500.906 516.062C500.926 515.65 501.074 515.266 501.188 514.875L501.125 506.688C480.99 503.27 464.2 486.37 464.125 476.156C464.041 464.709 482.833 455.294 506.094 455.125Z" fill="#fefefe" fill-rule="nonzero" opacity="1" stroke="none"/>
<path d="M506.438 529.844C500.985 539.874 493.696 546.466 484.625 549.438C480.831 550.677 477.003 551.187 473.281 551.188C473.016 551.188 472.765 551.13 472.5 551.125C480.566 561.971 493.03 570.469 506.469 570.469L506.719 570.469C520.981 570.362 533.004 561.416 540.656 550.594C540.203 550.609 539.769 550.687 539.312 550.688C535.777 550.688 532.143 550.218 528.531 549.094C519.417 546.256 512.036 539.793 506.438 529.844Z" fill="#fefefe" fill-rule="nonzero" opacity="1" stroke="none"/>
</g>
<path d="M376.517 439.496C376.517 429.624 384.519 421.622 394.391 421.622C404.263 421.622 412.265 429.624 412.265 439.496C412.265 449.368 404.263 457.37 394.391 457.37C384.519 457.37 376.517 449.368 376.517 439.496Z" fill="#fefefe" fill-rule="nonzero" opacity="1" stroke="none"/>
<path d="M604.95 439.496C604.95 429.625 612.952 421.623 622.823 421.623C632.694 421.623 640.696 429.625 640.696 439.496C640.696 449.367 632.694 457.369 622.823 457.369C612.952 457.369 604.95 449.367 604.95 439.496Z" fill="#fefefe" fill-rule="nonzero" opacity="1" stroke="none"/>
<path d="M522.156 228.625C517.149 228.575 512.094 228.638 506.938 228.781C506.811 228.785 506.662 228.783 506.531 228.781C504.69 228.758 502.845 228.75 501.031 228.75C441.38 228.75 392.207 241.743 354.219 267.469C335.888 245.339 309.563 232 281.719 232C270.228 232 259.069 234.345 248.594 238.938C203.451 258.736 184.432 315.202 206.188 364.812C218.247 392.312 240.437 412.567 266.344 421.188C260.518 460.567 263.591 490.537 263.656 491.125C263.885 493.192 263.414 495.266 262.312 497.031C262.147 497.302 244.126 527.253 252.062 567.344C259.524 605.033 294.859 633.458 357.094 651.812C370.889 655.88 384.914 659.018 398.656 661.594C378.276 699.267 351.106 762.383 363.594 814.281C382.34 892.19 416.803 919.813 440.625 919.812C443.241 919.812 445.864 919.525 448.406 918.906C470.294 913.583 481.093 887.912 485.156 878.25C485.736 876.871 486.189 875.776 486.531 875.062C488.216 871.558 491.91 869.482 495.781 869.875C506.483 870.938 517.6 870.904 528.219 869.75C528.554 869.713 528.887 869.687 529.219 869.688C532.758 869.688 536.018 871.719 537.562 874.969C537.884 875.648 538.321 876.693 538.875 878.031C542.518 886.808 553.587 913.524 575.719 918.906C578.259 919.524 580.881 919.81 583.5 919.812C607.321 919.815 641.784 892.194 660.531 814.281C673.476 760.485 643.856 694.681 623.312 657.625C635.306 654.883 647.312 651.775 658.969 648.062C702.45 634.212 756.394 608.257 766.406 563.219C774.627 526.246 755.445 493.483 755.25 493.156C754.24 491.467 753.781 489.489 753.969 487.531C754.021 486.968 756.398 458.852 750.719 421.5C777.035 413.06 799.636 392.643 811.844 364.812C833.599 315.201 814.55 258.733 769.406 238.938C758.93 234.344 747.804 232 736.312 232C708.332 232 681.872 245.456 663.531 267.781C626.692 242.358 579.34 229.192 522.156 228.625ZM257.812 292.844C274.023 292.549 291.895 300.58 306.125 315.219C284.81 345.816 273.712 380.157 268.156 410.406C255.541 405.54 243.275 396.33 233.656 383.469C211.8 354.245 211.949 317.179 234 300.688C240.891 295.534 249.109 293.002 257.812 292.844ZM760.188 292.875C768.891 293.033 777.109 295.566 784 300.719C806.051 317.208 806.228 354.274 784.375 383.5C774.497 396.707 761.813 405.999 748.844 410.75C743.246 380.832 732.187 346.605 711.156 315.938C725.494 300.835 743.71 292.576 760.188 292.875ZM376.531 396.656C403.699 396.656 425.719 421.598 425.719 452.375C425.719 460.438 424.126 468.05 421.406 474.969C423.191 472.796 424.981 470.641 426.906 468.562C449.803 443.847 477.864 430.131 505.906 429.938L506.5 429.938C534.427 429.938 562.554 443.319 585.688 467.656C605.59 488.594 618.561 515.111 618.719 535.188L618.812 549.375C618.969 569.252 607.134 587.87 585.5 601.75C564.62 615.147 536.891 622.608 507.406 622.812L506.188 622.844C476.957 622.844 449.412 615.636 428.594 602.562C407.012 589.009 395.029 570.671 394.875 550.938L394.75 536.719C394.654 524.499 399.32 509.874 407.344 495.5C398.891 503.263 388.263 508.094 376.531 508.094C349.364 508.094 327.312 483.152 327.312 452.375C327.312 421.598 349.364 396.656 376.531 396.656ZM640.688 396.656C667.855 396.656 689.906 421.598 689.906 452.375C689.906 483.152 667.855 508.094 640.688 508.094C613.52 508.094 591.5 483.152 591.5 452.375C591.5 421.598 613.519 396.656 640.688 396.656ZM463.031 653.406C471.499 653.393 478.247 655.735 483.219 660.438C488.953 665.859 492.292 674.065 493.094 683.906C493.138 684.431 493.158 684.966 493.188 685.5C493.283 687.324 493.297 689.2 493.219 691.125C493.196 691.698 493.194 692.263 493.156 692.844C492.993 695.279 492.721 697.749 492.281 700.312C488.552 722.021 473.331 752.186 442.656 765.781C441.612 766.243 440.511 766.469 439.438 766.469C436.396 766.469 433.499 764.709 432.188 761.75C430.856 758.747 431.543 755.349 433.656 753.094C434.361 752.342 435.218 751.725 436.219 751.281C459.562 740.935 473.349 716.88 476.656 697.625C478.622 686.173 476.978 676.318 472.344 671.938C471.625 671.258 470.733 670.764 469.75 670.344C467.073 669.2 463.381 669.095 459.219 669.562C459.199 669.561 459.176 669.564 459.156 669.562C448.954 670.723 435.455 675.971 423.562 682.031C422.755 682.445 421.946 682.861 421.156 683.281C417.545 685.193 414.048 687.158 410.969 689.094C407.261 691.424 402.362 690.302 400.031 686.594C398.86 684.732 398.569 682.581 399.031 680.594C399.258 679.604 399.66 678.658 400.25 677.812C400.84 676.967 401.604 676.239 402.531 675.656C402.774 675.503 405.788 673.688 410 671.344C413.267 669.507 416.509 667.752 421.469 665.375C421.494 665.363 421.506 665.356 421.531 665.344C424.961 663.701 428.656 662.046 432.531 660.5C444.376 655.772 454.563 653.42 463.031 653.406ZM559.125 653.406C567.592 653.42 577.779 655.772 589.625 660.5C591.804 661.37 593.754 662.299 595.812 663.219C595.864 663.242 595.918 663.258 595.969 663.281C602.908 666.39 608.007 669.017 612.25 671.406C612.298 671.433 612.389 671.474 612.438 671.5C615.966 673.494 619.404 675.517 619.625 675.656C623.333 677.987 624.456 682.888 622.125 686.594C619.794 690.302 614.895 691.424 611.188 689.094C591.917 676.998 559.078 663.176 549.812 671.938C545.177 676.32 543.533 686.175 545.5 697.625C548.807 716.882 562.592 740.935 585.938 751.281C589.942 753.055 591.744 757.746 589.969 761.75C588.656 764.709 585.76 766.469 582.719 766.469C581.645 766.469 580.545 766.244 579.5 765.781C548.824 752.186 533.603 722.021 529.875 700.312C529.421 697.671 529.159 695.13 529 692.625C528.97 692.14 528.957 691.666 528.938 691.188C528.85 689.075 528.879 687.022 529 685.031C529.026 684.615 529.027 684.192 529.062 683.781C529.463 678.994 530.493 674.616 532.094 670.75C533.765 666.713 536.02 663.195 538.938 660.438C543.909 655.737 550.658 653.393 559.125 653.406Z" fill="#fefefe" fill-rule="nonzero" opacity="1" stroke="none"/>
</g>
</svg>
