<?xml version="1.0" encoding="utf-8"?>
<!-- Generator: Adobe Illustrator 16.0.0, SVG Export Plug-In . SVG Version: 6.00 Build 0)  -->
<!DOCTYPE svg PUBLIC "-//W3C//DTD SVG 1.1//EN" "http://www.w3.org/Graphics/SVG/1.1/DTD/svg11.dtd">
<svg version="1.1" id="Layer_1" xmlns="http://www.w3.org/2000/svg" xmlns:xlink="http://www.w3.org/1999/xlink" x="0px" y="0px"
	 width="1000px" height="1000px" viewBox="0 0 1000 1000" enable-background="new 0 0 1000 1000" xml:space="preserve">
<g>
	<g>
		<circle fill="#FEFEFE" cx="507.213" cy="521.961" r="415.918"/>
		<g>
			<path fill="#0B0B0B" d="M507.213,947.13c-113.566,0-220.336-44.225-300.64-124.528S82.044,635.528,82.044,521.961
				c0-113.566,44.226-220.335,124.529-300.64c80.304-80.304,187.073-124.529,300.64-124.529
				c113.567,0,220.336,44.225,300.64,124.529c80.304,80.303,124.529,187.073,124.529,300.64
				c0,113.567-44.226,220.337-124.529,300.641S620.78,947.13,507.213,947.13z M507.213,115.294
				c-224.236,0-406.666,182.43-406.666,406.667c0,224.237,182.43,406.667,406.666,406.667s406.666-182.43,406.666-406.667
				C913.879,297.724,731.449,115.294,507.213,115.294z"/>
		</g>
	</g>
	<g>
		<g>
			<path fill="#FFFFFE" d="M613.295,623.303h-97.459h-7.53h-97.46c0,0-76.492,108.98-56.244,193.131
				c20.248,84.153,61.494,119.833,95.99,111.447c29.487-7.171,41.432-42.877,44.281-48.805c5.319,0.528,10.836,0.813,16.5,0.813
				c6.139,0,12.103-0.336,17.829-0.957c2.723,5.732,14.621,41.721,44.347,48.948c34.498,8.386,75.743-27.294,95.991-111.447
				C689.789,732.283,613.295,623.303,613.295,623.303z"/>
			<g>
				<defs>
					<path id="SVGID_1_" d="M613.295,623.303h-97.459h-7.53h-97.46c0,0-76.492,108.98-56.244,193.131
						c20.248,84.153,61.494,119.833,95.99,111.447c29.487-7.171,41.432-42.877,44.281-48.805c5.319,0.528,10.836,0.813,16.5,0.813
						c6.139,0,12.103-0.336,17.829-0.957c2.723,5.732,14.621,41.721,44.347,48.948c34.498,8.386,75.743-27.294,95.991-111.447
						C689.789,732.283,613.295,623.303,613.295,623.303z"/>
				</defs>
				<clipPath id="SVGID_2_">
					<use xlink:href="#SVGID_1_"  overflow="visible"/>
				</clipPath>
			</g>
			<g>
				<path fill="#0B0B0B" d="M583.514,938.325c-0.003,0-0.004,0-0.007,0c-4.087-0.001-8.174-0.49-12.144-1.455
					c-28.322-6.888-42.305-34.826-48.051-48.134c-7.476,0.506-15.048,0.536-22.559,0.085c-5.736,13.161-19.788,41.194-47.976,48.049
					c-3.973,0.965-8.059,1.455-12.146,1.455c-32.013,0-73.786-31.452-95.026-119.728c-20.983-87.207,54.446-196.02,57.668-200.609
					c1.731-2.468,4.557-3.937,7.571-3.937h202.449c3.015,0,5.84,1.469,7.572,3.937c3.222,4.59,78.651,113.402,57.667,200.609
					C657.296,906.873,615.524,938.325,583.514,938.325z M529.206,869.682c3.539,0,6.808,2.031,8.352,5.281
					c0.322,0.679,0.763,1.722,1.317,3.06c3.643,8.777,14.727,35.486,36.859,40.869c2.54,0.618,5.156,0.93,7.775,0.932
					c23.821,0.002,58.289-27.641,77.036-105.554c16.939-70.397-39.17-161.789-52.191-181.715H415.786
					c-13.02,19.925-69.129,111.317-52.19,181.715c18.746,77.909,53.215,105.554,77.037,105.554c2.616,0,5.231-0.313,7.773-0.932
					c21.888-5.323,32.682-30.99,36.745-40.652c0.58-1.379,1.042-2.459,1.384-3.172c1.685-3.504,5.381-5.59,9.252-5.197
					c10.702,1.063,21.799,1.019,32.418-0.135C528.54,869.699,528.874,869.682,529.206,869.682z"/>
			</g>
		</g>
		<g>
			<g>
				<g>
					<path fill="#EC008C" d="M773.132,230.458c-49.894-21.883-109.672,4.453-133.513,58.821
						c-23.848,54.37-2.728,116.183,47.165,138.065c49.895,21.882,109.674-4.455,133.519-58.822
						C844.145,314.152,823.028,252.339,773.132,230.458z"/>
					<path fill="#FEFEFE" d="M773.132,230.458c-49.894-21.883-109.672,4.453-133.513,58.821
						c-23.848,54.37-2.728,116.183,47.165,138.065c49.895,21.882,109.674-4.455,133.519-58.822
						C844.145,314.152,823.028,252.339,773.132,230.458z"/>
				</g>
			</g>
			<path fill="#0B0B0B" d="M704.51,323.77c-21.854,29.225-21.694,66.285,0.357,82.775c22.054,16.492,57.646,6.168,79.504-23.057
				c21.853-29.226,21.691-66.288-0.36-82.777C761.958,284.221,726.363,294.543,704.51,323.77z"/>
			<g>
				<path fill="#0B0B0B" d="M723.604,444.298C723.601,444.298,723.604,444.298,723.604,444.298
					c-14.066-0.001-27.704-2.854-40.535-8.481c-26.532-11.637-46.518-33.773-56.273-62.332c-9.66-28.275-8.114-59.5,4.353-87.921
					c19.194-43.775,60.476-72.06,105.165-72.06c14.065,0,27.704,2.854,40.535,8.481c54.485,23.895,77.779,91.297,51.928,150.251
					C809.577,416.01,768.292,444.298,723.604,444.298z M736.313,232.006c-37.346,0-71.976,23.939-88.221,60.988
					c-10.601,24.168-11.946,50.63-3.788,74.509c8.061,23.595,24.467,41.838,46.196,51.368c10.474,4.593,21.612,6.923,33.103,6.923
					c37.348,0.001,71.978-23.939,88.229-60.989c21.755-49.611,2.729-106.08-42.415-125.876
					C758.941,234.336,747.804,232.006,736.313,232.006z"/>
			</g>
		</g>
		<g>
			<g>
				
					<ellipse transform="matrix(0.9158 -0.4016 0.4016 0.9158 -107.8439 143.3924)" fill="#FEFEFE" cx="288.064" cy="328.9" rx="98.649" ry="107.493"/>
				
					<ellipse transform="matrix(0.9158 -0.4016 0.4016 0.9158 -107.8439 143.3924)" fill="#FEFEFE" cx="288.064" cy="328.9" rx="98.649" ry="107.493"/>
			</g>
			
				<ellipse transform="matrix(0.8008 -0.5989 0.5989 0.8008 -157.2927 234.2684)" fill="#0B0B0B" cx="273.584" cy="353.629" rx="49.859" ry="66.077"/>
			<g>
				<path fill="#0B0B0B" d="M294.421,444.298c-44.69,0-85.974-28.286-105.172-72.061c-25.853-58.954-2.559-126.356,51.927-150.252
					c12.832-5.628,26.471-8.481,40.535-8.481c44.689,0,85.971,28.285,105.168,72.06c25.856,58.953,2.563,126.355-51.924,150.253
					C322.123,441.444,308.485,444.298,294.421,444.298z M281.711,232.006c-11.491,0-22.629,2.33-33.104,6.923
					c-45.143,19.798-64.169,76.266-42.413,125.876c16.248,37.05,50.88,60.989,88.227,60.989c11.491,0,22.629-2.33,33.103-6.923
					c45.144-19.799,64.169-76.267,42.411-125.877C353.687,255.946,319.057,232.006,281.711,232.006z"/>
			</g>
		</g>
		<path fill="#FEFEFE" d="M763.17,488.404c0,0,26.261-276.741-256.506-268.87C223.811,215.813,254.45,492.137,254.45,492.137
			s-20.27,32.511-11.463,76.997c19.125,96.608,196.106,112.263,267.063,111.741c70.953-0.52,245.219-24.904,265.393-115.647
			C784.617,523.957,763.17,488.404,763.17,488.404z"/>
		<g>
			<path fill="#0B0B0B" d="M506.646,690.139c-19.929-0.001-89.986-1.487-154.781-20.596
				c-69.363-20.455-109.048-53.634-117.952-98.613c-7.987-40.348,6.077-71.455,11.063-80.822c-0.705-8.806-2.146-35.591,2.67-69.583
				c5.377-37.951,19.952-92.313,58.853-135.77c44.257-49.441,109.707-74.51,194.533-74.51c1.832,0,3.705,0.012,5.565,0.036
				c88.143-2.416,156.241,22.063,202.243,72.632c39.001,42.875,54.195,96.709,60.075,134.322c5.284,33.804,4.248,60.45,3.688,69.101
				c5.061,9.561,20.353,42.745,11.87,80.9c-22.083,99.328-205.533,122.387-274.355,122.89
				C508.982,690.134,507.833,690.139,506.646,690.139z M501.031,228.748c-79.339,0-140.15,22.995-180.746,68.347
				c-68.757,76.81-56.769,192.857-56.64,194.02c0.229,2.067-0.244,4.151-1.345,5.916c-0.166,0.271-18.175,30.215-10.238,70.306
				c7.461,37.689,42.8,66.105,105.035,84.46c62.418,18.405,130.247,19.838,149.549,19.84c1.142,0,2.244-0.006,3.335-0.014
				c35.434-0.259,95.718-6.583,149-23.553c43.481-13.85,97.418-39.813,107.43-84.851c8.221-36.973-10.979-69.729-11.174-70.056
				c-1.01-1.689-1.464-3.676-1.277-5.634c0.106-1.15,10.013-116.62-58.897-192.266c-42.251-46.381-105.634-68.771-188.141-66.483
				c-0.126,0.004-0.249,0.005-0.38,0.003C504.701,228.76,502.845,228.748,501.031,228.748z"/>
		</g>
		<g>
			<path fill="#0B0B0B" d="M506.193,622.831c-29.23,0-56.792-7.201-77.61-20.275c-21.582-13.554-33.555-31.887-33.709-51.62
				l-0.111-14.207c-0.158-20.158,12.461-46.917,32.151-68.169c22.897-24.716,50.951-38.434,78.993-38.628l0.597-0.002
				c27.927,0,56.047,13.403,79.181,37.74c19.902,20.938,32.863,47.438,33.021,67.515l0.112,14.205
				c0.156,19.877-11.671,38.467-33.305,52.347c-20.88,13.397-48.616,20.887-78.101,21.091L506.193,622.831z M506.504,440.503
				l-0.523,0.002c-33.855,0.233-59.211,22.179-71.311,35.239c-17.958,19.386-29.473,43.29-29.334,60.901l0.11,14.209
				c0.267,33.855,45.461,61.402,100.747,61.403l1.146-0.004c27.51-0.189,53.245-7.086,72.464-19.416
				c18.467-11.849,28.567-27.25,28.441-43.366l-0.112-14.205c-0.138-17.539-11.957-41.213-30.111-60.312
				C565.79,462.088,540.237,440.503,506.504,440.503z"/>
		</g>
		<g>
			<path fill="#FEFEFE" d="M554.889,526.624c0.152,20.928-21.348,48.94-48.125,49.141c-26.772,0.196-48.68-27.504-48.834-48.428
				c-0.153-20.929,21.425-38.053,48.198-38.248C532.905,488.891,554.732,505.698,554.889,526.624z"/>
			<g>
				<path fill="#0B0B0B" d="M506.481,581.053c-28.782,0-53.66-29.515-53.839-53.677c-0.085-11.784,5.598-22.821,16.002-31.079
					c10.023-7.954,23.321-12.392,37.444-12.495l0.508-0.002c29.367,0,53.401,19.193,53.578,42.784
					c0.177,24.337-24.416,54.251-53.371,54.468L506.481,581.053z M506.597,494.373l-0.43,0.002
					c-11.775,0.086-22.766,3.71-30.949,10.204c-7.802,6.19-12.063,14.26-12.002,22.72c0.14,19.033,20.539,43.181,43.266,43.181
					l0.244-0.001c24.645-0.185,43.001-26.707,42.876-43.816C549.469,508.858,530.177,494.373,506.597,494.373z"/>
			</g>
			
				<ellipse transform="matrix(1 -0.0073 0.0073 1 -3.7903 3.4689)" fill="#FEFEFE" cx="471.323" cy="518.798" rx="32.506" ry="27.107"/>
			<path fill="#FEFEFE" d="M573.876,518.045c0.11,14.972-14.354,27.214-32.306,27.346c-17.954,0.135-32.596-11.896-32.705-26.868
				c-0.11-14.97,14.354-27.212,32.306-27.345C559.123,491.046,573.766,503.074,573.876,518.045z"/>
			<g>
				<path fill="#0B0B0B" d="M506.551,528.127c-2.902,0-5.265-2.341-5.286-5.247l-0.324-44.313c-0.021-2.92,2.328-5.304,5.248-5.325
					c0.013,0,0.026,0,0.039,0c2.902,0,5.265,2.341,5.286,5.247l0.324,44.313c0.021,2.92-2.329,5.305-5.248,5.325
					C506.577,528.127,506.563,528.127,506.551,528.127z"/>
			</g>
			<path fill="#0B0B0B" d="M548.357,475.543c0.084,11.444-16.575,31.66-39.834,31.83s-44.311-19.767-44.395-31.214
				s18.703-20.863,41.964-21.032C529.35,454.955,548.273,464.095,548.357,475.543z"/>
			<g>
				<path fill="#0B0B0B" d="M473.279,551.178c-16.659,0-31.271-10.222-32.016-10.752c-2.38-1.69-2.938-4.992-1.246-7.371
					c1.69-2.377,4.985-2.934,7.366-1.25c0.284,0.201,18.347,12.714,33.987,7.559c8.884-2.927,15.651-11.242,20.115-24.716
					c0.918-2.771,3.907-4.276,6.68-3.355c2.772,0.918,4.274,3.909,3.356,6.681c-5.583,16.853-14.635,27.435-26.902,31.453
					C480.825,550.667,477.001,551.178,473.279,551.178z"/>
			</g>
			<g>
				<path fill="#0B0B0B" d="M539.313,550.69c-3.535,0-7.161-0.466-10.773-1.59c-12.326-3.838-21.531-14.285-27.362-31.055
					c-0.958-2.758,0.5-5.771,3.258-6.729c2.756-0.956,5.771,0.5,6.729,3.258c4.667,13.426,11.571,21.646,20.519,24.431
					c15.841,4.933,33.646-7.933,33.825-8.063c2.355-1.725,5.663-1.216,7.389,1.137c1.727,2.355,1.217,5.663-1.137,7.389
					C571.013,540.016,556.218,550.69,539.313,550.69z"/>
			</g>
		</g>
		<g>
			<ellipse fill="#0A0B09" cx="376.517" cy="452.371" rx="49.191" ry="55.726"/>
			<circle fill="#FEFEFE" cx="394.391" cy="439.496" r="17.874"/>
		</g>
		<g>
			<ellipse fill="#0A0B09" cx="640.699" cy="452.371" rx="49.192" ry="55.726"/>
			<circle fill="#FEFEFE" cx="622.823" cy="439.496" r="17.873"/>
		</g>
		<g>
			<g>
				<path fill="#FFFFFE" d="M406.747,682.38c0,0,52.95-33.295,71.037-16.192c18.09,17.101,3.482,73.803-38.345,92.34"/>
			</g>
			<g>
				<g>
					<path fill="#0A0B09" d="M439.444,766.46c-3.042,0-5.943-1.761-7.254-4.72c-1.775-4.004,0.032-8.688,4.036-10.462
						c23.343-10.346,37.129-34.406,40.436-53.661c1.966-11.452,0.309-21.287-4.325-25.667c-9.291-8.788-42.113,5.034-61.369,17.143
						c-3.708,2.33-8.603,1.215-10.934-2.493c-2.331-3.706-1.216-8.602,2.492-10.933c0.564-0.356,14.032-8.781,30.018-15.161
						c23.69-9.456,40.745-9.485,50.688-0.08c8.697,8.222,12,22.757,9.061,39.874c-3.729,21.709-18.966,51.883-49.641,65.478
						C441.608,766.24,440.518,766.46,439.444,766.46z"/>
				</g>
			</g>
		</g>
		<g>
			<g>
				<path fill="#FFFFFE" d="M615.406,682.38c0,0-52.952-33.295-71.037-16.192c-18.089,17.101-3.481,73.803,38.347,92.34"/>
			</g>
			<g>
				<g>
					<path fill="#0A0B09" d="M582.712,766.46c-1.074,0-2.164-0.22-3.209-0.683c-30.676-13.595-45.914-43.769-49.642-65.478
						c-2.94-17.119,0.362-31.652,9.061-39.875c9.944-9.4,26.995-9.375,50.688,0.081c15.985,6.38,29.452,14.805,30.018,15.161
						c3.708,2.331,4.823,7.227,2.492,10.933c-2.331,3.708-7.224,4.825-10.931,2.495l0,0c-19.271-12.096-52.104-25.908-61.37-17.146
						c-4.636,4.382-6.293,14.217-4.326,25.667c3.307,19.257,17.092,43.317,40.437,53.663c4.004,1.774,5.812,6.458,4.037,10.462
						C588.654,764.699,585.753,766.46,582.712,766.46z"/>
				</g>
			</g>
		</g>
	</g>
</g>
</svg>
