<?xml version="1.0" encoding="utf-8"?>
<!-- Generator: Adobe Illustrator 16.0.0, SVG Export Plug-In . SVG Version: 6.00 Build 0)  -->
<!DOCTYPE svg PUBLIC "-//W3C//DTD SVG 1.1//EN" "http://www.w3.org/Graphics/SVG/1.1/DTD/svg11.dtd">
<svg version="1.1" id="Layer_1" xmlns="http://www.w3.org/2000/svg" xmlns:xlink="http://www.w3.org/1999/xlink" x="0px" y="0px"
	 width="1000px" height="1000px" viewBox="0 0 1000 1000" enable-background="new 0 0 1000 1000" xml:space="preserve">
<g>
	<g>
		<circle fill="#FEFEFE" cx="499.989" cy="521.961" r="415.918"/>
		<g>
			<path fill="#0B0B0B" d="M499.989,947.13c-113.567,0-220.336-44.225-300.64-124.528C119.045,742.298,74.82,635.528,74.82,521.961
				c0-113.566,44.225-220.335,124.53-300.64c80.304-80.304,187.073-124.529,300.64-124.529c113.566,0,220.336,44.225,300.64,124.529
				s124.529,187.073,124.529,300.64c0,113.567-44.225,220.337-124.529,300.641S613.556,947.13,499.989,947.13z M499.989,115.294
				c-224.237,0-406.667,182.43-406.667,406.667c0,224.237,182.43,406.667,406.667,406.667s406.667-182.43,406.667-406.667
				C906.656,297.724,724.226,115.294,499.989,115.294z"/>
		</g>
	</g>
	<g>
		<g>
			<g>
				<g>
					
						<ellipse transform="matrix(0.4016 -0.9158 0.9158 0.4016 48.277 975.2643)" fill="#EC008C" cx="770.464" cy="450.688" rx="130.459" ry="119.723"/>
					
						<ellipse transform="matrix(0.4016 -0.9158 0.9158 0.4016 48.277 975.2643)" fill="#FEFEFE" cx="770.464" cy="450.688" rx="130.459" ry="119.723"/>
				</g>
			</g>
			
				<ellipse transform="matrix(-0.8008 -0.5989 0.5989 -0.8008 1131.2588 1337.5984)" fill="#0B0B0B" cx="788.039" cy="480.699" rx="60.512" ry="80.194"/>
			<g>
				<path fill="#0B0B0B" d="M762.753,588.761c-0.003,0,0,0-0.003,0c-16.795,0-33.08-3.408-48.4-10.125
					c-31.688-13.899-55.561-40.349-67.221-74.478c-11.563-33.847-9.709-71.233,5.22-105.272
					c22.982-52.408,72.372-86.272,125.825-86.272c16.795,0,33.08,3.408,48.401,10.128c65.128,28.562,92.943,109.195,62.005,179.747
					C865.597,554.896,816.203,588.761,762.753,588.761z M778.175,331.117c-46.109,0-88.847,29.518-108.88,75.2
					c-13.064,29.787-14.718,62.409-4.656,91.859c9.965,29.167,30.259,51.724,57.144,63.515c12.963,5.684,26.747,8.567,40.969,8.567
					c46.109,0.001,88.85-29.518,108.885-75.2c26.842-61.208,3.294-130.907-52.491-155.371
					C806.18,334,792.396,331.117,778.175,331.117z"/>
			</g>
		</g>
		<g>
			<g>
				<path fill="#FEFEFE" d="M343.806,402.602c-28.936-65.984-101.485-97.946-162.038-71.388
					c-60.554,26.556-86.184,101.574-57.248,167.559c28.938,65.983,101.488,97.946,162.042,71.39
					C347.115,543.604,372.747,468.586,343.806,402.602z"/>
				<path fill="#FEFEFE" d="M343.806,402.602c-28.936-65.984-101.485-97.946-162.038-71.388
					c-60.554,26.556-86.184,101.574-57.248,167.559c28.938,65.983,101.488,97.946,162.042,71.39
					C347.115,543.604,372.747,468.586,343.806,402.602z"/>
			</g>
			
				<ellipse transform="matrix(0.8008 -0.5989 0.5989 0.8008 -244.7422 225.4431)" fill="#0B0B0B" cx="216.589" cy="480.699" rx="60.512" ry="80.194"/>
			<g>
				<path fill="#0B0B0B" d="M241.877,588.761c-53.454,0-102.845-33.864-125.83-86.272c-30.938-70.552-3.123-151.185,62.004-179.747
					c15.322-6.72,31.606-10.128,48.402-10.128c53.453,0,102.842,33.864,125.825,86.272c14.93,34.039,16.783,71.425,5.22,105.272
					c-11.659,34.129-35.532,60.578-67.22,74.476C274.956,585.354,258.672,588.761,241.877,588.761z M226.454,331.117
					c-14.221,0-28.005,2.883-40.97,8.57c-55.785,24.464-79.333,94.163-52.491,155.371c20.035,45.682,62.775,75.2,108.885,75.2
					c14.221,0,28.004-2.882,40.969-8.567c26.885-11.791,47.179-34.348,57.143-63.515c10.062-29.45,8.408-62.072-4.656-91.859
					C315.301,360.635,272.563,331.117,226.454,331.117z"/>
			</g>
		</g>
		<path fill="#FEFEFE" d="M810.77,644.267c0,0,31.871-335.862-311.305-326.31c-343.282-4.516-306.096,330.84-306.096,330.84
			s-24.6,39.458-13.913,93.449c23.21,117.243,238.003,136.244,324.118,135.611c86.111-0.632,297.608-30.227,322.091-140.354
			C836.8,687.418,810.77,644.267,810.77,644.267z"/>
		<g>
			<path fill="#0B0B0B" d="M499.446,887.125c-24.118,0-108.901-1.798-187.288-24.912c-83.424-24.602-131.125-64.359-141.778-118.17
				c-9.737-49.19,7.848-86.847,13.506-97.292c-0.827-9.938-2.753-42.715,3.18-84.587c6.488-45.788,24.062-111.363,70.943-163.735
				c53.32-59.566,132.257-89.769,234.619-89.769c2.229,0,4.507,0.015,6.771,0.043c106.385-2.924,188.541,26.566,243.972,87.502
				c47.003,51.672,65.326,116.614,72.419,161.994c6.508,41.634,5.082,74.232,4.42,83.988c5.73,10.669,24.802,50.923,14.485,97.325
				c-6.197,27.876-23.713,52.68-52.063,73.722c-23.474,17.423-54.459,32.335-92.095,44.321
				c-66.847,21.291-142.458,29.227-186.896,29.554C502.273,887.119,500.876,887.125,499.446,887.125z M492.628,327.163
				c-96.815,0-171.084,28.096-220.743,83.507c-43.713,48.774-60.247,110.415-66.419,153.536
				c-6.757,47.201-2.941,83.218-2.901,83.575c0.226,2.063-0.247,4.149-1.345,5.91c-0.212,0.346-22.483,37.273-12.688,86.758
				c9.209,46.521,52.564,81.518,128.861,104.016c76.009,22.415,158.563,24.157,182.054,24.157c1.384,0,2.736-0.005,4.06-0.016
				c43.144-0.316,116.544-8.018,181.417-28.681c53.267-16.966,119.356-48.854,131.711-104.43
				c10.157-45.685-13.554-86.063-13.795-86.466c-1.011-1.69-1.465-3.676-1.279-5.637c0.033-0.35,3.245-36.103-4.137-82.89
				c-6.745-42.747-23.988-103.808-67.83-151.948c-51.682-56.748-129.123-84.152-229.871-81.352
				c-0.126,0.003-0.253,0.004-0.379,0.003C497.099,327.177,494.838,327.163,492.628,327.163z"/>
		</g>
		<g>
			<path fill="#0B0B0B" d="M498.897,855.158c-35.266-0.002-68.504-8.68-93.592-24.435c-25.857-16.237-40.199-38.15-40.384-61.7
				l-0.134-17.242c-0.19-24.193,15.007-56.363,38.719-81.957c15.97-17.237,49.554-46.204,95.048-46.518l0.717-0.002
				c33.577,0,67.412,16.142,95.274,45.452c23.969,25.215,39.579,57.075,39.769,81.167l0.135,17.242
				c0.187,23.722-13.984,45.942-39.9,62.57c-25.165,16.146-58.613,25.171-94.185,25.416L498.897,855.158z M499.271,633.877
				l-0.645,0.003c-41.513,0.286-72.556,27.145-87.365,43.131c-21.98,23.725-36.072,53.041-35.902,74.688l0.134,17.242
				c0.328,41.708,55.686,75.642,123.404,75.645l1.395-0.005c33.597-0.231,65.044-8.663,88.547-23.743
				c22.751-14.596,35.194-33.627,35.037-53.589l-0.135-17.241c-0.169-21.555-14.637-50.59-36.859-73.966
				C571.913,660.294,540.627,633.877,499.271,633.877z"/>
		</g>
		<g>
			<path fill="#FEFEFE" d="M557.991,739.526c0.186,25.397-25.907,59.398-58.404,59.639c-32.493,0.237-59.081-33.378-59.268-58.773
				c-0.186-25.4,26.002-46.182,58.496-46.42C531.311,693.732,557.803,714.13,557.991,739.526z"/>
			<g>
				<path fill="#0B0B0B" d="M499.244,804.452c-34.327,0-64-35.203-64.212-64.022c-0.102-13.946,6.644-27.024,18.993-36.825
					c11.968-9.497,27.861-14.795,44.75-14.919l0.606-0.003c35.025,0,63.688,22.792,63.895,50.806
					c0.212,29.028-29.117,64.707-63.652,64.963L499.244,804.452z M499.382,699.256l-0.529,0.003
					c-14.541,0.105-28.127,4.591-38.255,12.628c-9.746,7.734-15.071,17.844-14.993,28.466c0.174,23.595,25.464,53.527,53.639,53.527
					l0.304-0.002c28.337-0.209,53.331-30.547,53.156-54.313C552.54,717.339,528.62,699.256,499.382,699.256z"/>
			</g>
			
				<ellipse transform="matrix(1 -0.0074 0.0074 1 -5.3547 3.3763)" fill="#FEFEFE" cx="456.573" cy="730.029" rx="39.452" ry="32.897"/>
			
				<ellipse transform="matrix(1 -0.0073 0.0073 1 -5.3299 3.9879)" fill="#FEFEFE" cx="541.586" cy="729.405" rx="39.451" ry="32.898"/>
			<g>
				<path fill="#0B0B0B" d="M499.327,740.223c-2.902,0-5.265-2.342-5.286-5.248l-0.394-53.78c-0.021-2.919,2.328-5.303,5.248-5.324
					c0.013,0,0.026,0,0.039,0c2.902,0,5.265,2.341,5.286,5.247l0.394,53.78c0.021,2.919-2.329,5.303-5.248,5.325
					C499.354,740.223,499.34,740.223,499.327,740.223z"/>
			</g>
			<path fill="#0B0B0B" d="M550.066,677.532c0.102,13.89-20.119,38.424-48.345,38.631c-28.229,0.207-53.777-23.99-53.879-37.881
				c-0.102-13.895,22.7-25.321,50.929-25.526C526.998,652.547,549.965,663.64,550.066,677.532z"/>
			<g>
				<path fill="#0B0B0B" d="M458.922,768.201c-19.833,0-37.286-12.21-38.176-12.844c-2.38-1.69-2.938-4.99-1.246-7.37
					c1.691-2.379,4.988-2.937,7.366-1.25c0.294,0.207,22.694,15.762,42.245,9.325c11.145-3.668,19.604-14.004,25.141-30.718
					c0.918-2.771,3.91-4.274,6.681-3.355c2.771,0.918,4.274,3.909,3.355,6.681c-6.656,20.095-17.398,32.695-31.929,37.454
					C467.867,767.596,463.335,768.201,458.922,768.201z"/>
			</g>
			<g>
				<path fill="#0B0B0B" d="M539.112,767.612c-4.193,0-8.487-0.554-12.763-1.885c-14.599-4.544-25.525-16.985-32.477-36.98
					c-0.958-2.758,0.5-5.771,3.258-6.729c2.758-0.959,5.77,0.5,6.729,3.258c5.782,16.63,14.392,26.84,25.59,30.345
					c19.676,6.157,41.884-9.783,42.105-9.945c2.359-1.718,5.664-1.204,7.385,1.151s1.212,5.656-1.139,7.38
					C576.908,754.859,559.234,767.612,539.112,767.612z"/>
			</g>
		</g>
		<g>
			<ellipse fill="#0A0B09" cx="341.512" cy="616.828" rx="59.701" ry="67.63"/>
			<circle fill="#FEFEFE" cx="363.205" cy="601.202" r="21.693"/>
		</g>
		<g>
			<ellipse fill="#0A0B09" cx="662.133" cy="616.828" rx="59.701" ry="67.63"/>
			<circle fill="#FEFEFE" cx="640.44" cy="601.202" r="21.692"/>
		</g>
	</g>
</g>
</svg>
