<?xml version="1.0" encoding="UTF-8" standalone="no"?>
<!-- Created with Inkscape (http://www.inkscape.org/) -->

<svg
   width="19mm"
   height="21mm"
   viewBox="0 0 19 21"
   version="1.1"
   id="svg5"
   sodipodi:docname="bear-body_silk_16x16.svg"
   inkscape:version="1.1.2 (0a00cf5, 2022-02-04)"
   xmlns:inkscape="http://www.inkscape.org/namespaces/inkscape"
   xmlns:sodipodi="http://sodipodi.sourceforge.net/DTD/sodipodi-0.dtd"
   xmlns="http://www.w3.org/2000/svg"
   xmlns:svg="http://www.w3.org/2000/svg"
   xmlns:vectornator="http://vectornator.io">
  <sodipodi:namedview
     id="namedview7"
     pagecolor="#505050"
     bordercolor="#eeeeee"
     borderopacity="1"
     inkscape:pageshadow="0"
     inkscape:pageopacity="0"
     inkscape:pagecheckerboard="0"
     inkscape:document-units="mm"
     showgrid="false"
     inkscape:zoom="8.7988368"
     inkscape:cx="39.607508"
     inkscape:cy="34.03859"
     inkscape:window-width="1688"
     inkscape:window-height="1388"
     inkscape:window-x="65"
     inkscape:window-y="24"
     inkscape:window-maximized="0"
     inkscape:current-layer="g17" />
  <defs
     id="defs2" />
  <g
     inkscape:label="[fixed] BG"
     inkscape:groupmode="layer"
     id="g17">
    <rect
       x="0"
       y="0"
       width="19"
       height="21"
       style="fill:#ffffff;fill-opacity:1;stroke:none;stroke-width:1.24843"
       id="rect15" />
  </g>
  <g
     inkscape:label="F.Cu"
     inkscape:groupmode="layer"
     id="g19" />
  <g
     inkscape:label="F.Mask"
     inkscape:groupmode="layer"
     id="g21" />
  <g
     inkscape:label="F.SilkS"
     inkscape:groupmode="layer"
     id="g23"
     style="display:inline">
    <g
       id="Untitled"
       vectornator:layerName="Untitled"
       style="clip-rule:evenodd;fill:#000000;fill-rule:nonzero;stroke-linecap:round;stroke-linejoin:round"
       transform="matrix(0.02644826,0,0,0.0264473,-2.5101034,-3.0265755)">
      <path
         d="m 510.812,114.438 c -229.705,0 -415.9058,186.201 -415.9058,415.906 0,229.705 186.2008,415.937 415.9058,415.937 229.706,0 415.907,-186.232 415.907,-415.937 0,-229.705 -186.201,-415.906 -415.907,-415.906 z m 12.063,95.718 c 54.163,0.597 100.248,11.971 137.75,33.844 20.775,-19.249 47.538,-30.5 75.687,-30.5 14.065,0 27.701,2.873 40.532,8.5 54.484,23.895 77.788,91.296 51.937,150.25 -12.09,27.564 -32.963,48.975 -57.906,61.062 2.781,25.84 2.184,45.84 1.719,53.032 5.061,9.561 20.358,42.751 11.875,80.906 -11.94,53.705 -71.088,84.991 -133.75,102.594 19.774,40.555 39.971,98.222 27.812,148.75 -21.236,88.276 -63.021,119.718 -95.031,119.718 -4.087,-10e-4 -8.155,-0.472 -12.125,-1.437 -28.322,-6.888 -42.316,-34.817 -48.063,-48.125 -7.476,0.506 -15.051,0.513 -22.562,0.062 -5.736,13.162 -19.781,41.208 -47.969,48.063 -3.973,0.965 -8.069,1.437 -12.156,1.437 -32.013,0 -73.791,-31.442 -95.031,-119.718 -11.686,-48.568 6.531,-103.801 25.531,-144.032 -6.43,-1.555 -12.869,-3.149 -19.25,-5.031 -69.363,-20.455 -109.065,-53.615 -117.969,-98.593 -7.987,-40.349 6.077,-71.477 11.063,-80.844 -0.614,-7.667 -1.51,-29.343 1.375,-57.156 C 221.755,420.784 201.212,399.526 189.25,372.25 163.397,313.296 186.701,245.896 241.188,222 c 12.831,-5.628 26.467,-8.5 40.531,-8.5 28.077,0 54.779,11.186 75.531,30.344 38.888,-22.29 86.957,-33.594 143.781,-33.594 1.832,0 3.703,0.007 5.563,0.031 5.509,-0.151 10.929,-0.184 16.281,-0.125 z"
         fill="#fefefe"
         fill-rule="nonzero"
         opacity="1"
         stroke="none"
         id="path116"
         style="fill:#000000" />
      <g
         opacity="1"
         id="g122"
         style="fill:#000000">
        <path
           d="m 505.969,440.5 c -33.855,0.233 -59.213,22.19 -71.313,35.25 -17.958,19.386 -29.451,43.295 -29.312,60.906 l 0.094,14.188 c 0.267,33.855 45.464,61.405 100.75,61.406 h 1.156 c 27.51,-0.189 53.25,-7.076 72.468,-19.406 18.467,-11.849 28.564,-27.259 28.438,-43.375 l -0.125,-14.188 C 607.987,517.742 596.185,494.068 578.031,474.969 565.8,462.103 540.233,440.5 506.5,440.5 Z m 0.125,14.625 c 23.258,-0.172 42.166,8.958 42.25,20.406 0.08,10.9 -15.092,29.585 -36.625,31.5 l 0.062,8.969 c 4.652,12.499 11.312,20.325 19.907,23 15.841,4.933 33.633,-7.932 33.812,-8.062 2.355,-1.726 5.68,-1.197 7.406,1.156 1.727,2.355 1.198,5.649 -1.156,7.375 -0.509,0.373 -7.586,5.366 -17.344,8.562 -8.765,17.581 -26.935,32.877 -47.594,33.031 h -0.343 c -20.486,10e-4 -38.727,-14.978 -47.719,-32.312 -9.812,-3.054 -16.987,-7.947 -17.5,-8.312 -2.38,-1.69 -2.911,-4.997 -1.219,-7.376 1.69,-2.377 4.963,-2.933 7.344,-1.25 0.284,0.202 18.36,12.718 34,7.563 8.541,-2.814 15.069,-10.743 19.531,-23.313 0.02,-0.412 0.168,-0.796 0.282,-1.187 l -0.063,-8.187 c -20.135,-3.418 -36.925,-20.318 -37,-30.532 -0.084,-11.447 18.708,-20.862 41.969,-21.031 z"
           fill="#fefefe"
           fill-rule="nonzero"
           opacity="1"
           stroke="none"
           id="path118"
           style="fill:#000000" />
        <path
           d="m 506.438,529.844 c -5.453,10.03 -12.742,16.622 -21.813,19.594 -3.794,1.239 -7.622,1.749 -11.344,1.75 -0.265,0 -0.516,-0.058 -0.781,-0.063 8.066,10.846 20.53,19.344 33.969,19.344 h 0.25 c 14.262,-0.107 26.285,-9.053 33.937,-19.875 -0.453,0.015 -0.887,0.093 -1.344,0.094 -3.535,0 -7.169,-0.47 -10.781,-1.594 -9.114,-2.838 -16.495,-9.301 -22.093,-19.25 z"
           fill="#fefefe"
           fill-rule="nonzero"
           opacity="1"
           stroke="none"
           id="path120"
           style="fill:#000000" />
      </g>
      <path
         d="m 376.517,439.496 c 0,-9.872 8.002,-17.874 17.874,-17.874 9.872,0 17.874,8.002 17.874,17.874 0,9.872 -8.002,17.874 -17.874,17.874 -9.872,0 -17.874,-8.002 -17.874,-17.874 z"
         fill="#fefefe"
         fill-rule="nonzero"
         opacity="1"
         stroke="none"
         id="path124"
         style="fill:#000000" />
      <path
         d="m 604.95,439.496 c 0,-9.871 8.002,-17.873 17.873,-17.873 9.871,0 17.873,8.002 17.873,17.873 0,9.871 -8.002,17.873 -17.873,17.873 -9.871,0 -17.873,-8.002 -17.873,-17.873 z"
         fill="#fefefe"
         fill-rule="nonzero"
         opacity="1"
         stroke="none"
         id="path126"
         style="fill:#000000" />
      <path
         d="m 522.156,228.625 c -5.007,-0.05 -10.062,0.013 -15.218,0.156 -0.127,0.004 -0.276,0.002 -0.407,0 -1.841,-0.023 -3.686,-0.031 -5.5,-0.031 -59.651,0 -108.824,12.993 -146.812,38.719 C 335.888,245.339 309.563,232 281.719,232 c -11.491,0 -22.65,2.345 -33.125,6.938 -45.143,19.798 -64.162,76.264 -42.406,125.874 12.059,27.5 34.249,47.755 60.156,56.376 -5.826,39.379 -2.753,69.349 -2.688,69.937 0.229,2.067 -0.242,4.141 -1.344,5.906 -0.165,0.271 -18.186,30.222 -10.25,70.313 7.462,37.689 42.797,66.114 105.032,84.468 13.795,4.068 27.82,7.206 41.562,9.782 -20.38,37.673 -47.55,100.789 -35.062,152.687 18.746,77.909 53.209,105.532 77.031,105.531 2.616,0 5.239,-0.287 7.781,-0.906 21.888,-5.323 32.687,-30.994 36.75,-40.656 0.58,-1.379 1.033,-2.474 1.375,-3.188 1.685,-3.504 5.379,-5.58 9.25,-5.187 10.702,1.063 21.819,1.029 32.438,-0.125 0.335,-0.037 0.668,-0.063 1,-0.062 3.539,0 6.799,2.031 8.343,5.281 0.322,0.679 0.759,1.724 1.313,3.062 3.643,8.777 14.712,35.493 36.844,40.875 2.54,0.618 5.162,0.904 7.781,0.906 23.821,0.003 58.284,-27.618 77.031,-105.531 12.945,-53.796 -16.675,-119.6 -37.219,-156.656 11.994,-2.742 24,-5.85 35.657,-9.563 43.481,-13.85 97.425,-39.805 107.437,-84.843 8.221,-36.973 -10.961,-69.736 -11.156,-70.063 -1.01,-1.689 -1.469,-3.667 -1.281,-5.625 0.052,-0.563 2.429,-28.679 -3.25,-66.031 26.316,-8.44 48.917,-28.857 61.125,-56.688 C 833.599,315.201 814.55,258.733 769.406,238.938 758.93,234.344 747.804,232 736.312,232 c -27.98,0 -54.44,13.456 -72.781,35.781 -36.839,-25.423 -84.191,-38.589 -141.375,-39.156 z m -264.344,64.219 c 16.211,-0.295 34.083,7.736 48.313,22.375 -21.315,30.597 -32.413,64.938 -37.969,95.187 -12.615,-4.866 -24.881,-14.076 -34.5,-26.937 -21.856,-29.224 -21.707,-66.29 0.344,-82.781 6.891,-5.154 15.109,-7.686 23.812,-7.844 z m 502.376,0.031 c 8.703,0.158 16.921,2.691 23.812,7.844 22.051,16.489 22.228,53.555 0.375,82.781 -9.878,13.207 -22.562,22.499 -35.531,27.25 -5.598,-29.918 -16.657,-64.145 -37.688,-94.812 14.338,-15.103 32.554,-23.362 49.032,-23.063 z M 376.531,396.656 c 27.168,0 49.188,24.942 49.188,55.719 0,8.063 -1.593,15.675 -4.313,22.594 1.785,-2.173 3.575,-4.328 5.5,-6.407 22.897,-24.715 50.958,-38.431 79,-38.624 h 0.594 c 27.927,0 56.054,13.381 79.188,37.718 19.902,20.938 32.873,47.455 33.031,67.532 l 0.093,14.187 c 0.157,19.877 -11.678,38.495 -33.312,52.375 -20.88,13.397 -48.609,20.858 -78.094,21.062 l -1.218,0.032 c -29.231,0 -56.776,-7.208 -77.594,-20.282 -21.582,-13.553 -33.565,-31.891 -33.719,-51.624 l -0.125,-14.219 c -0.096,-12.22 4.57,-26.845 12.594,-41.219 -8.453,7.763 -19.081,12.594 -30.813,12.594 -27.167,0 -49.219,-24.942 -49.219,-55.719 0,-30.777 22.052,-55.719 49.219,-55.719 z m 264.157,0 c 27.167,0 49.218,24.942 49.218,55.719 0,30.777 -22.051,55.719 -49.218,55.719 -27.168,0 -49.188,-24.942 -49.188,-55.719 0,-30.777 22.019,-55.719 49.188,-55.719 z m -177.657,256.75 c 8.468,-0.013 15.216,2.329 20.188,7.032 5.734,5.421 9.073,13.627 9.875,23.468 0.044,0.525 0.064,1.06 0.094,1.594 0.095,1.824 0.109,3.7 0.031,5.625 -0.023,0.573 -0.025,1.138 -0.063,1.719 -0.163,2.435 -0.435,4.905 -0.875,7.468 -3.729,21.709 -18.95,51.874 -49.625,65.469 -1.044,0.462 -2.145,0.688 -3.218,0.688 -3.042,0 -5.939,-1.76 -7.25,-4.719 -1.332,-3.003 -0.645,-6.401 1.468,-8.656 0.705,-0.752 1.562,-1.369 2.563,-1.813 23.343,-10.346 37.13,-34.401 40.437,-53.656 1.966,-11.452 0.322,-21.307 -4.312,-25.687 -0.719,-0.68 -1.611,-1.174 -2.594,-1.594 -2.677,-1.144 -6.369,-1.249 -10.531,-0.782 -0.02,-10e-4 -0.043,0.002 -0.063,0 -10.202,1.161 -23.701,6.409 -35.594,12.469 -0.807,0.414 -1.616,0.83 -2.406,1.25 -3.611,1.912 -7.108,3.877 -10.187,5.813 -3.708,2.33 -8.607,1.208 -10.938,-2.5 -1.171,-1.862 -1.462,-4.013 -1,-6 0.227,-0.99 0.629,-1.936 1.219,-2.782 0.59,-0.845 1.354,-1.573 2.281,-2.156 0.243,-0.153 3.257,-1.968 7.469,-4.312 3.267,-1.837 6.509,-3.592 11.469,-5.969 0.025,-0.012 0.037,-0.019 0.062,-0.031 3.43,-1.643 7.125,-3.298 11,-4.844 11.845,-4.728 22.032,-7.08 30.5,-7.094 z m 96.094,0 c 8.467,0.014 18.654,2.366 30.5,7.094 2.179,0.87 4.129,1.799 6.187,2.719 0.052,0.023 0.106,0.039 0.157,0.062 6.939,3.109 12.038,5.736 16.281,8.125 0.048,0.027 0.139,0.068 0.188,0.094 3.528,1.994 6.966,4.017 7.187,4.156 3.708,2.331 4.831,7.232 2.5,10.938 -2.331,3.708 -7.23,4.83 -10.937,2.5 -19.271,-12.096 -52.11,-25.918 -61.376,-17.156 -4.635,4.382 -6.279,14.237 -4.312,25.687 3.307,19.257 17.092,43.31 40.438,53.656 4.004,1.774 5.806,6.465 4.031,10.469 -1.313,2.959 -4.209,4.719 -7.25,4.719 -1.074,0 -2.174,-0.225 -3.219,-0.688 -30.676,-13.595 -45.897,-43.76 -49.625,-65.469 -0.454,-2.641 -0.716,-5.182 -0.875,-7.687 -0.03,-0.485 -0.043,-0.959 -0.062,-1.437 -0.088,-2.113 -0.059,-4.166 0.062,-6.157 0.026,-0.416 0.027,-0.839 0.062,-1.25 0.401,-4.787 1.431,-9.165 3.032,-13.031 1.671,-4.037 3.926,-7.555 6.844,-10.312 4.971,-4.701 11.72,-7.045 20.187,-7.032 z"
         fill="#fefefe"
         fill-rule="nonzero"
         opacity="1"
         stroke="none"
         id="path128"
         style="fill:#000000" />
    </g>
  </g>
</svg>
