%TF.GenerationSoftware,KiCad,Pcbnew,5.1.7-a382d34a8~88~ubuntu18.04.1*%
%TF.CreationDate,2022-09-03T09:09:10-04:00*%
%TF.ProjectId,project-MS88SF3-breakout,70726f6a-6563-4742-9d4d-533838534633,rev?*%
%TF.SameCoordinates,Original*%
%TF.FileFunction,Legend,Top*%
%TF.FilePolarity,Positive*%
%FSLAX46Y46*%
G04 Gerber Fmt 4.6, Leading zero omitted, Abs format (unit mm)*
G04 Created by KiCad (PCBNEW 5.1.7-a382d34a8~88~ubuntu18.04.1) date 2022-09-03 09:09:10*
%MOMM*%
%LPD*%
G01*
G04 APERTURE LIST*
%ADD10C,0.150000*%
%ADD11C,0.120000*%
%ADD12C,0.500000*%
%ADD13C,0.127000*%
%ADD14C,0.200000*%
%ADD15C,0.100000*%
%ADD16C,0.300000*%
%ADD17R,1.300000X1.800000*%
%ADD18R,1.100000X0.350000*%
%ADD19R,0.350000X1.100000*%
%ADD20O,1.700000X1.700000*%
%ADD21R,1.700000X1.700000*%
%ADD22R,0.300000X1.150000*%
%ADD23R,0.600000X1.150000*%
%ADD24C,0.650000*%
%ADD25O,1.050000X2.100000*%
%ADD26O,1.000000X2.000000*%
%ADD27R,0.700000X0.350000*%
%ADD28R,0.600000X0.650000*%
%ADD29R,3.400000X1.500000*%
%ADD30R,3.500000X1.000000*%
%ADD31C,3.500000*%
%ADD32R,0.740000X2.400000*%
G04 APERTURE END LIST*
D10*
X39584380Y-116062000D02*
X39584380Y-115871523D01*
X39632000Y-115776285D01*
X39727238Y-115681047D01*
X39917714Y-115633428D01*
X40251047Y-115633428D01*
X40441523Y-115681047D01*
X40536761Y-115776285D01*
X40584380Y-115871523D01*
X40584380Y-116062000D01*
X40536761Y-116157238D01*
X40441523Y-116252476D01*
X40251047Y-116300095D01*
X39917714Y-116300095D01*
X39727238Y-116252476D01*
X39632000Y-116157238D01*
X39584380Y-116062000D01*
X39584380Y-115204857D02*
X40393904Y-115204857D01*
X40489142Y-115157238D01*
X40536761Y-115109619D01*
X40584380Y-115014380D01*
X40584380Y-114823904D01*
X40536761Y-114728666D01*
X40489142Y-114681047D01*
X40393904Y-114633428D01*
X39584380Y-114633428D01*
X39584380Y-114300095D02*
X39584380Y-113728666D01*
X40584380Y-114014380D02*
X39584380Y-114014380D01*
X40838380Y-90400095D02*
X39838380Y-90400095D01*
X39838380Y-90019142D01*
X39886000Y-89923904D01*
X39933619Y-89876285D01*
X40028857Y-89828666D01*
X40171714Y-89828666D01*
X40266952Y-89876285D01*
X40314571Y-89923904D01*
X40362190Y-90019142D01*
X40362190Y-90400095D01*
X40838380Y-88876285D02*
X40838380Y-89447714D01*
X40838380Y-89162000D02*
X39838380Y-89162000D01*
X39981238Y-89257238D01*
X40076476Y-89352476D01*
X40124095Y-89447714D01*
D11*
X39624000Y-90424000D02*
X39624000Y-86360000D01*
D10*
X39314380Y-87312476D02*
X39314380Y-87883904D01*
X39314380Y-87598190D02*
X38314380Y-87598190D01*
X38457238Y-87693428D01*
X38552476Y-87788666D01*
X38600095Y-87883904D01*
X38314380Y-86693428D02*
X38314380Y-86598190D01*
X38362000Y-86502952D01*
X38409619Y-86455333D01*
X38504857Y-86407714D01*
X38695333Y-86360095D01*
X38933428Y-86360095D01*
X39123904Y-86407714D01*
X39219142Y-86455333D01*
X39266761Y-86502952D01*
X39314380Y-86598190D01*
X39314380Y-86693428D01*
X39266761Y-86788666D01*
X39219142Y-86836285D01*
X39123904Y-86883904D01*
X38933428Y-86931523D01*
X38695333Y-86931523D01*
X38504857Y-86883904D01*
X38409619Y-86836285D01*
X38362000Y-86788666D01*
X38314380Y-86693428D01*
X39314380Y-89852476D02*
X39314380Y-90423904D01*
X39314380Y-90138190D02*
X38314380Y-90138190D01*
X38457238Y-90233428D01*
X38552476Y-90328666D01*
X38600095Y-90423904D01*
X38647714Y-88995333D02*
X39314380Y-88995333D01*
X38266761Y-89233428D02*
X38981047Y-89471523D01*
X38981047Y-88852476D01*
X39028666Y-92916285D02*
X39028666Y-92440095D01*
X39314380Y-93011523D02*
X38314380Y-92678190D01*
X39314380Y-92344857D01*
X39314380Y-91487714D02*
X39314380Y-92059142D01*
X39314380Y-91773428D02*
X38314380Y-91773428D01*
X38457238Y-91868666D01*
X38552476Y-91963904D01*
X38600095Y-92059142D01*
X39314380Y-94932476D02*
X39314380Y-95503904D01*
X39314380Y-95218190D02*
X38314380Y-95218190D01*
X38457238Y-95313428D01*
X38552476Y-95408666D01*
X38600095Y-95503904D01*
X38314380Y-94599142D02*
X38314380Y-93980095D01*
X38695333Y-94313428D01*
X38695333Y-94170571D01*
X38742952Y-94075333D01*
X38790571Y-94027714D01*
X38885809Y-93980095D01*
X39123904Y-93980095D01*
X39219142Y-94027714D01*
X39266761Y-94075333D01*
X39314380Y-94170571D01*
X39314380Y-94456285D01*
X39266761Y-94551523D01*
X39219142Y-94599142D01*
D11*
X39624000Y-98044000D02*
X39624000Y-93980000D01*
D10*
X40838380Y-98020095D02*
X39838380Y-98020095D01*
X39838380Y-97639142D01*
X39886000Y-97543904D01*
X39933619Y-97496285D01*
X40028857Y-97448666D01*
X40171714Y-97448666D01*
X40266952Y-97496285D01*
X40314571Y-97543904D01*
X40362190Y-97639142D01*
X40362190Y-98020095D01*
X40838380Y-96496285D02*
X40838380Y-97067714D01*
X40838380Y-96782000D02*
X39838380Y-96782000D01*
X39981238Y-96877238D01*
X40076476Y-96972476D01*
X40124095Y-97067714D01*
X39314380Y-97472476D02*
X39314380Y-98043904D01*
X39314380Y-97758190D02*
X38314380Y-97758190D01*
X38457238Y-97853428D01*
X38552476Y-97948666D01*
X38600095Y-98043904D01*
X38314380Y-96567714D02*
X38314380Y-97043904D01*
X38790571Y-97091523D01*
X38742952Y-97043904D01*
X38695333Y-96948666D01*
X38695333Y-96710571D01*
X38742952Y-96615333D01*
X38790571Y-96567714D01*
X38885809Y-96520095D01*
X39123904Y-96520095D01*
X39219142Y-96567714D01*
X39266761Y-96615333D01*
X39314380Y-96710571D01*
X39314380Y-96948666D01*
X39266761Y-97043904D01*
X39219142Y-97091523D01*
X39028666Y-100536285D02*
X39028666Y-100060095D01*
X39314380Y-100631523D02*
X38314380Y-100298190D01*
X39314380Y-99964857D01*
X38314380Y-99441047D02*
X38314380Y-99345809D01*
X38362000Y-99250571D01*
X38409619Y-99202952D01*
X38504857Y-99155333D01*
X38695333Y-99107714D01*
X38933428Y-99107714D01*
X39123904Y-99155333D01*
X39219142Y-99202952D01*
X39266761Y-99250571D01*
X39314380Y-99345809D01*
X39314380Y-99441047D01*
X39266761Y-99536285D01*
X39219142Y-99583904D01*
X39123904Y-99631523D01*
X38933428Y-99679142D01*
X38695333Y-99679142D01*
X38504857Y-99631523D01*
X38409619Y-99583904D01*
X38362000Y-99536285D01*
X38314380Y-99441047D01*
X39028666Y-103076285D02*
X39028666Y-102600095D01*
X39314380Y-103171523D02*
X38314380Y-102838190D01*
X39314380Y-102504857D01*
X38314380Y-101695333D02*
X38314380Y-102171523D01*
X38790571Y-102219142D01*
X38742952Y-102171523D01*
X38695333Y-102076285D01*
X38695333Y-101838190D01*
X38742952Y-101742952D01*
X38790571Y-101695333D01*
X38885809Y-101647714D01*
X39123904Y-101647714D01*
X39219142Y-101695333D01*
X39266761Y-101742952D01*
X39314380Y-101838190D01*
X39314380Y-102076285D01*
X39266761Y-102171523D01*
X39219142Y-102219142D01*
X39028666Y-105616285D02*
X39028666Y-105140095D01*
X39314380Y-105711523D02*
X38314380Y-105378190D01*
X39314380Y-105044857D01*
X38314380Y-104806761D02*
X38314380Y-104187714D01*
X38695333Y-104521047D01*
X38695333Y-104378190D01*
X38742952Y-104282952D01*
X38790571Y-104235333D01*
X38885809Y-104187714D01*
X39123904Y-104187714D01*
X39219142Y-104235333D01*
X39266761Y-104282952D01*
X39314380Y-104378190D01*
X39314380Y-104663904D01*
X39266761Y-104759142D01*
X39219142Y-104806761D01*
X39028666Y-108156285D02*
X39028666Y-107680095D01*
X39314380Y-108251523D02*
X38314380Y-107918190D01*
X39314380Y-107584857D01*
X38409619Y-107299142D02*
X38362000Y-107251523D01*
X38314380Y-107156285D01*
X38314380Y-106918190D01*
X38362000Y-106822952D01*
X38409619Y-106775333D01*
X38504857Y-106727714D01*
X38600095Y-106727714D01*
X38742952Y-106775333D01*
X39314380Y-107346761D01*
X39314380Y-106727714D01*
X38314380Y-111243904D02*
X39123904Y-111243904D01*
X39219142Y-111196285D01*
X39266761Y-111148666D01*
X39314380Y-111053428D01*
X39314380Y-110862952D01*
X39266761Y-110767714D01*
X39219142Y-110720095D01*
X39123904Y-110672476D01*
X38314380Y-110672476D01*
X39266761Y-110243904D02*
X39314380Y-110101047D01*
X39314380Y-109862952D01*
X39266761Y-109767714D01*
X39219142Y-109720095D01*
X39123904Y-109672476D01*
X39028666Y-109672476D01*
X38933428Y-109720095D01*
X38885809Y-109767714D01*
X38838190Y-109862952D01*
X38790571Y-110053428D01*
X38742952Y-110148666D01*
X38695333Y-110196285D01*
X38600095Y-110243904D01*
X38504857Y-110243904D01*
X38409619Y-110196285D01*
X38362000Y-110148666D01*
X38314380Y-110053428D01*
X38314380Y-109815333D01*
X38362000Y-109672476D01*
X38790571Y-108910571D02*
X38838190Y-108767714D01*
X38885809Y-108720095D01*
X38981047Y-108672476D01*
X39123904Y-108672476D01*
X39219142Y-108720095D01*
X39266761Y-108767714D01*
X39314380Y-108862952D01*
X39314380Y-109243904D01*
X38314380Y-109243904D01*
X38314380Y-108910571D01*
X38362000Y-108815333D01*
X38409619Y-108767714D01*
X38504857Y-108720095D01*
X38600095Y-108720095D01*
X38695333Y-108767714D01*
X38742952Y-108815333D01*
X38790571Y-108910571D01*
X38790571Y-109243904D01*
X38933428Y-112902952D02*
X38933428Y-112141047D01*
X38314380Y-116395333D02*
X39314380Y-116062000D01*
X38314380Y-115728666D01*
X39314380Y-115395333D02*
X38314380Y-115395333D01*
X38314380Y-115157238D01*
X38362000Y-115014380D01*
X38457238Y-114919142D01*
X38552476Y-114871523D01*
X38742952Y-114823904D01*
X38885809Y-114823904D01*
X39076285Y-114871523D01*
X39171523Y-114919142D01*
X39266761Y-115014380D01*
X39314380Y-115157238D01*
X39314380Y-115395333D01*
X39314380Y-114395333D02*
X38314380Y-114395333D01*
X38314380Y-114157238D01*
X38362000Y-114014380D01*
X38457238Y-113919142D01*
X38552476Y-113871523D01*
X38742952Y-113823904D01*
X38885809Y-113823904D01*
X39076285Y-113871523D01*
X39171523Y-113919142D01*
X39266761Y-114014380D01*
X39314380Y-114157238D01*
X39314380Y-114395333D01*
X55681619Y-87883904D02*
X55634000Y-87836285D01*
X55586380Y-87741047D01*
X55586380Y-87502952D01*
X55634000Y-87407714D01*
X55681619Y-87360095D01*
X55776857Y-87312476D01*
X55872095Y-87312476D01*
X56014952Y-87360095D01*
X56586380Y-87931523D01*
X56586380Y-87312476D01*
X55586380Y-86407714D02*
X55586380Y-86883904D01*
X56062571Y-86931523D01*
X56014952Y-86883904D01*
X55967333Y-86788666D01*
X55967333Y-86550571D01*
X56014952Y-86455333D01*
X56062571Y-86407714D01*
X56157809Y-86360095D01*
X56395904Y-86360095D01*
X56491142Y-86407714D01*
X56538761Y-86455333D01*
X56586380Y-86550571D01*
X56586380Y-86788666D01*
X56538761Y-86883904D01*
X56491142Y-86931523D01*
X55586380Y-90185809D02*
X55586380Y-90090571D01*
X55634000Y-89995333D01*
X55681619Y-89947714D01*
X55776857Y-89900095D01*
X55967333Y-89852476D01*
X56205428Y-89852476D01*
X56395904Y-89900095D01*
X56491142Y-89947714D01*
X56538761Y-89995333D01*
X56586380Y-90090571D01*
X56586380Y-90185809D01*
X56538761Y-90281047D01*
X56491142Y-90328666D01*
X56395904Y-90376285D01*
X56205428Y-90423904D01*
X55967333Y-90423904D01*
X55776857Y-90376285D01*
X55681619Y-90328666D01*
X55634000Y-90281047D01*
X55586380Y-90185809D01*
X56586380Y-89376285D02*
X56586380Y-89185809D01*
X56538761Y-89090571D01*
X56491142Y-89042952D01*
X56348285Y-88947714D01*
X56157809Y-88900095D01*
X55776857Y-88900095D01*
X55681619Y-88947714D01*
X55634000Y-88995333D01*
X55586380Y-89090571D01*
X55586380Y-89281047D01*
X55634000Y-89376285D01*
X55681619Y-89423904D01*
X55776857Y-89471523D01*
X56014952Y-89471523D01*
X56110190Y-89423904D01*
X56157809Y-89376285D01*
X56205428Y-89281047D01*
X56205428Y-89090571D01*
X56157809Y-88995333D01*
X56110190Y-88947714D01*
X56014952Y-88900095D01*
X56586380Y-92392476D02*
X56586380Y-92963904D01*
X56586380Y-92678190D02*
X55586380Y-92678190D01*
X55729238Y-92773428D01*
X55824476Y-92868666D01*
X55872095Y-92963904D01*
X55586380Y-91773428D02*
X55586380Y-91678190D01*
X55634000Y-91582952D01*
X55681619Y-91535333D01*
X55776857Y-91487714D01*
X55967333Y-91440095D01*
X56205428Y-91440095D01*
X56395904Y-91487714D01*
X56491142Y-91535333D01*
X56538761Y-91582952D01*
X56586380Y-91678190D01*
X56586380Y-91773428D01*
X56538761Y-91868666D01*
X56491142Y-91916285D01*
X56395904Y-91963904D01*
X56205428Y-92011523D01*
X55967333Y-92011523D01*
X55776857Y-91963904D01*
X55681619Y-91916285D01*
X55634000Y-91868666D01*
X55586380Y-91773428D01*
X56586380Y-94908666D02*
X56110190Y-95242000D01*
X56586380Y-95480095D02*
X55586380Y-95480095D01*
X55586380Y-95099142D01*
X55634000Y-95003904D01*
X55681619Y-94956285D01*
X55776857Y-94908666D01*
X55919714Y-94908666D01*
X56014952Y-94956285D01*
X56062571Y-95003904D01*
X56110190Y-95099142D01*
X56110190Y-95480095D01*
X55586380Y-94575333D02*
X56586380Y-93908666D01*
X55586380Y-93908666D02*
X56586380Y-94575333D01*
X55586380Y-100583904D02*
X55586380Y-100012476D01*
X56586380Y-100298190D02*
X55586380Y-100298190D01*
X55586380Y-99774380D02*
X56586380Y-99107714D01*
X55586380Y-99107714D02*
X56586380Y-99774380D01*
X55681619Y-103123904D02*
X55634000Y-103076285D01*
X55586380Y-102981047D01*
X55586380Y-102742952D01*
X55634000Y-102647714D01*
X55681619Y-102600095D01*
X55776857Y-102552476D01*
X55872095Y-102552476D01*
X56014952Y-102600095D01*
X56586380Y-103171523D01*
X56586380Y-102552476D01*
X55586380Y-102219142D02*
X55586380Y-101600095D01*
X55967333Y-101933428D01*
X55967333Y-101790571D01*
X56014952Y-101695333D01*
X56062571Y-101647714D01*
X56157809Y-101600095D01*
X56395904Y-101600095D01*
X56491142Y-101647714D01*
X56538761Y-101695333D01*
X56586380Y-101790571D01*
X56586380Y-102076285D01*
X56538761Y-102171523D01*
X56491142Y-102219142D01*
X56586380Y-107632476D02*
X56586380Y-108203904D01*
X56586380Y-107918190D02*
X55586380Y-107918190D01*
X55729238Y-108013428D01*
X55824476Y-108108666D01*
X55872095Y-108203904D01*
X55586380Y-107299142D02*
X55586380Y-106680095D01*
X55967333Y-107013428D01*
X55967333Y-106870571D01*
X56014952Y-106775333D01*
X56062571Y-106727714D01*
X56157809Y-106680095D01*
X56395904Y-106680095D01*
X56491142Y-106727714D01*
X56538761Y-106775333D01*
X56586380Y-106870571D01*
X56586380Y-107156285D01*
X56538761Y-107251523D01*
X56491142Y-107299142D01*
X56586380Y-110172476D02*
X56586380Y-110743904D01*
X56586380Y-110458190D02*
X55586380Y-110458190D01*
X55729238Y-110553428D01*
X55824476Y-110648666D01*
X55872095Y-110743904D01*
X55586380Y-109267714D02*
X55586380Y-109743904D01*
X56062571Y-109791523D01*
X56014952Y-109743904D01*
X55967333Y-109648666D01*
X55967333Y-109410571D01*
X56014952Y-109315333D01*
X56062571Y-109267714D01*
X56157809Y-109220095D01*
X56395904Y-109220095D01*
X56491142Y-109267714D01*
X56538761Y-109315333D01*
X56586380Y-109410571D01*
X56586380Y-109648666D01*
X56538761Y-109743904D01*
X56491142Y-109791523D01*
X56586380Y-112712476D02*
X56586380Y-113283904D01*
X56586380Y-112998190D02*
X55586380Y-112998190D01*
X55729238Y-113093428D01*
X55824476Y-113188666D01*
X55872095Y-113283904D01*
X55586380Y-112379142D02*
X55586380Y-111712476D01*
X56586380Y-112141047D01*
X55681619Y-115823904D02*
X55634000Y-115776285D01*
X55586380Y-115681047D01*
X55586380Y-115442952D01*
X55634000Y-115347714D01*
X55681619Y-115300095D01*
X55776857Y-115252476D01*
X55872095Y-115252476D01*
X56014952Y-115300095D01*
X56586380Y-115871523D01*
X56586380Y-115252476D01*
X56586380Y-114300095D02*
X56586380Y-114871523D01*
X56586380Y-114585809D02*
X55586380Y-114585809D01*
X55729238Y-114681047D01*
X55824476Y-114776285D01*
X55872095Y-114871523D01*
X41410095Y-96162761D02*
X41552952Y-96210380D01*
X41791047Y-96210380D01*
X41886285Y-96162761D01*
X41933904Y-96115142D01*
X41981523Y-96019904D01*
X41981523Y-95924666D01*
X41933904Y-95829428D01*
X41886285Y-95781809D01*
X41791047Y-95734190D01*
X41600571Y-95686571D01*
X41505333Y-95638952D01*
X41457714Y-95591333D01*
X41410095Y-95496095D01*
X41410095Y-95400857D01*
X41457714Y-95305619D01*
X41505333Y-95258000D01*
X41600571Y-95210380D01*
X41838666Y-95210380D01*
X41981523Y-95258000D01*
X42743428Y-95686571D02*
X42886285Y-95734190D01*
X42933904Y-95781809D01*
X42981523Y-95877047D01*
X42981523Y-96019904D01*
X42933904Y-96115142D01*
X42886285Y-96162761D01*
X42791047Y-96210380D01*
X42410095Y-96210380D01*
X42410095Y-95210380D01*
X42743428Y-95210380D01*
X42838666Y-95258000D01*
X42886285Y-95305619D01*
X42933904Y-95400857D01*
X42933904Y-95496095D01*
X42886285Y-95591333D01*
X42838666Y-95638952D01*
X42743428Y-95686571D01*
X42410095Y-95686571D01*
X43933904Y-96210380D02*
X43362476Y-96210380D01*
X43648190Y-96210380D02*
X43648190Y-95210380D01*
X43552952Y-95353238D01*
X43457714Y-95448476D01*
X43362476Y-95496095D01*
X44458095Y-96162761D02*
X44600952Y-96210380D01*
X44839047Y-96210380D01*
X44934285Y-96162761D01*
X44981904Y-96115142D01*
X45029523Y-96019904D01*
X45029523Y-95924666D01*
X44981904Y-95829428D01*
X44934285Y-95781809D01*
X44839047Y-95734190D01*
X44648571Y-95686571D01*
X44553333Y-95638952D01*
X44505714Y-95591333D01*
X44458095Y-95496095D01*
X44458095Y-95400857D01*
X44505714Y-95305619D01*
X44553333Y-95258000D01*
X44648571Y-95210380D01*
X44886666Y-95210380D01*
X45029523Y-95258000D01*
X45791428Y-95686571D02*
X45934285Y-95734190D01*
X45981904Y-95781809D01*
X46029523Y-95877047D01*
X46029523Y-96019904D01*
X45981904Y-96115142D01*
X45934285Y-96162761D01*
X45839047Y-96210380D01*
X45458095Y-96210380D01*
X45458095Y-95210380D01*
X45791428Y-95210380D01*
X45886666Y-95258000D01*
X45934285Y-95305619D01*
X45981904Y-95400857D01*
X45981904Y-95496095D01*
X45934285Y-95591333D01*
X45886666Y-95638952D01*
X45791428Y-95686571D01*
X45458095Y-95686571D01*
X46410476Y-95305619D02*
X46458095Y-95258000D01*
X46553333Y-95210380D01*
X46791428Y-95210380D01*
X46886666Y-95258000D01*
X46934285Y-95305619D01*
X46981904Y-95400857D01*
X46981904Y-95496095D01*
X46934285Y-95638952D01*
X46362857Y-96210380D01*
X46981904Y-96210380D01*
X55681619Y-98043904D02*
X55634000Y-97996285D01*
X55586380Y-97901047D01*
X55586380Y-97662952D01*
X55634000Y-97567714D01*
X55681619Y-97520095D01*
X55776857Y-97472476D01*
X55872095Y-97472476D01*
X56014952Y-97520095D01*
X56586380Y-98091523D01*
X56586380Y-97472476D01*
X55681619Y-97091523D02*
X55634000Y-97043904D01*
X55586380Y-96948666D01*
X55586380Y-96710571D01*
X55634000Y-96615333D01*
X55681619Y-96567714D01*
X55776857Y-96520095D01*
X55872095Y-96520095D01*
X56014952Y-96567714D01*
X56586380Y-97139142D01*
X56586380Y-96520095D01*
X56586380Y-105092476D02*
X56586380Y-105663904D01*
X56586380Y-105378190D02*
X55586380Y-105378190D01*
X55729238Y-105473428D01*
X55824476Y-105568666D01*
X55872095Y-105663904D01*
X56586380Y-104616285D02*
X56586380Y-104425809D01*
X56538761Y-104330571D01*
X56491142Y-104282952D01*
X56348285Y-104187714D01*
X56157809Y-104140095D01*
X55776857Y-104140095D01*
X55681619Y-104187714D01*
X55634000Y-104235333D01*
X55586380Y-104330571D01*
X55586380Y-104521047D01*
X55634000Y-104616285D01*
X55681619Y-104663904D01*
X55776857Y-104711523D01*
X56014952Y-104711523D01*
X56110190Y-104663904D01*
X56157809Y-104616285D01*
X56205428Y-104521047D01*
X56205428Y-104330571D01*
X56157809Y-104235333D01*
X56110190Y-104187714D01*
X56014952Y-104140095D01*
D11*
X55372000Y-115824000D02*
X55372000Y-86360000D01*
D10*
X55062380Y-113260095D02*
X54062380Y-113260095D01*
X54062380Y-112879142D01*
X54110000Y-112783904D01*
X54157619Y-112736285D01*
X54252857Y-112688666D01*
X54395714Y-112688666D01*
X54490952Y-112736285D01*
X54538571Y-112783904D01*
X54586190Y-112879142D01*
X54586190Y-113260095D01*
X54062380Y-112069619D02*
X54062380Y-111974380D01*
X54110000Y-111879142D01*
X54157619Y-111831523D01*
X54252857Y-111783904D01*
X54443333Y-111736285D01*
X54681428Y-111736285D01*
X54871904Y-111783904D01*
X54967142Y-111831523D01*
X55014761Y-111879142D01*
X55062380Y-111974380D01*
X55062380Y-112069619D01*
X55014761Y-112164857D01*
X54967142Y-112212476D01*
X54871904Y-112260095D01*
X54681428Y-112307714D01*
X54443333Y-112307714D01*
X54252857Y-112260095D01*
X54157619Y-112212476D01*
X54110000Y-112164857D01*
X54062380Y-112069619D01*
X52220761Y-105243142D02*
X52268380Y-105100285D01*
X52268380Y-104862190D01*
X52220761Y-104766952D01*
X52173142Y-104719333D01*
X52077904Y-104671714D01*
X51982666Y-104671714D01*
X51887428Y-104719333D01*
X51839809Y-104766952D01*
X51792190Y-104862190D01*
X51744571Y-105052666D01*
X51696952Y-105147904D01*
X51649333Y-105195523D01*
X51554095Y-105243142D01*
X51458857Y-105243142D01*
X51363619Y-105195523D01*
X51316000Y-105147904D01*
X51268380Y-105052666D01*
X51268380Y-104814571D01*
X51316000Y-104671714D01*
X51268380Y-104338380D02*
X52268380Y-104100285D01*
X51554095Y-103909809D01*
X52268380Y-103719333D01*
X51268380Y-103481238D01*
X52268380Y-103100285D02*
X51268380Y-103100285D01*
X51268380Y-102862190D01*
X51316000Y-102719333D01*
X51411238Y-102624095D01*
X51506476Y-102576476D01*
X51696952Y-102528857D01*
X51839809Y-102528857D01*
X52030285Y-102576476D01*
X52125523Y-102624095D01*
X52220761Y-102719333D01*
X52268380Y-102862190D01*
X52268380Y-103100285D01*
X55586380Y-122412000D02*
X55586380Y-122221523D01*
X55634000Y-122126285D01*
X55729238Y-122031047D01*
X55919714Y-121983428D01*
X56253047Y-121983428D01*
X56443523Y-122031047D01*
X56538761Y-122126285D01*
X56586380Y-122221523D01*
X56586380Y-122412000D01*
X56538761Y-122507238D01*
X56443523Y-122602476D01*
X56253047Y-122650095D01*
X55919714Y-122650095D01*
X55729238Y-122602476D01*
X55634000Y-122507238D01*
X55586380Y-122412000D01*
X55586380Y-121554857D02*
X56395904Y-121554857D01*
X56491142Y-121507238D01*
X56538761Y-121459619D01*
X56586380Y-121364380D01*
X56586380Y-121173904D01*
X56538761Y-121078666D01*
X56491142Y-121031047D01*
X56395904Y-120983428D01*
X55586380Y-120983428D01*
X55586380Y-120650095D02*
X55586380Y-120078666D01*
X56586380Y-120364380D02*
X55586380Y-120364380D01*
D12*
X57658000Y-121920000D02*
X57658000Y-120904000D01*
D10*
X55634000Y-118617904D02*
X55586380Y-118713142D01*
X55586380Y-118856000D01*
X55634000Y-118998857D01*
X55729238Y-119094095D01*
X55824476Y-119141714D01*
X56014952Y-119189333D01*
X56157809Y-119189333D01*
X56348285Y-119141714D01*
X56443523Y-119094095D01*
X56538761Y-118998857D01*
X56586380Y-118856000D01*
X56586380Y-118760761D01*
X56538761Y-118617904D01*
X56491142Y-118570285D01*
X56157809Y-118570285D01*
X56157809Y-118760761D01*
X56586380Y-118141714D02*
X55586380Y-118141714D01*
X56586380Y-117570285D01*
X55586380Y-117570285D01*
X56586380Y-117094095D02*
X55586380Y-117094095D01*
X55586380Y-116856000D01*
X55634000Y-116713142D01*
X55729238Y-116617904D01*
X55824476Y-116570285D01*
X56014952Y-116522666D01*
X56157809Y-116522666D01*
X56348285Y-116570285D01*
X56443523Y-116617904D01*
X56538761Y-116713142D01*
X56586380Y-116856000D01*
X56586380Y-117094095D01*
X40965619Y-109418380D02*
X40632285Y-108942190D01*
X40394190Y-109418380D02*
X40394190Y-108418380D01*
X40775142Y-108418380D01*
X40870380Y-108466000D01*
X40918000Y-108513619D01*
X40965619Y-108608857D01*
X40965619Y-108751714D01*
X40918000Y-108846952D01*
X40870380Y-108894571D01*
X40775142Y-108942190D01*
X40394190Y-108942190D01*
X41394190Y-108894571D02*
X41727523Y-108894571D01*
X41870380Y-109418380D02*
X41394190Y-109418380D01*
X41394190Y-108418380D01*
X41870380Y-108418380D01*
X42251333Y-109370761D02*
X42394190Y-109418380D01*
X42632285Y-109418380D01*
X42727523Y-109370761D01*
X42775142Y-109323142D01*
X42822761Y-109227904D01*
X42822761Y-109132666D01*
X42775142Y-109037428D01*
X42727523Y-108989809D01*
X42632285Y-108942190D01*
X42441809Y-108894571D01*
X42346571Y-108846952D01*
X42298952Y-108799333D01*
X42251333Y-108704095D01*
X42251333Y-108608857D01*
X42298952Y-108513619D01*
X42346571Y-108466000D01*
X42441809Y-108418380D01*
X42679904Y-108418380D01*
X42822761Y-108466000D01*
X43251333Y-108894571D02*
X43584666Y-108894571D01*
X43727523Y-109418380D02*
X43251333Y-109418380D01*
X43251333Y-108418380D01*
X43727523Y-108418380D01*
X44013238Y-108418380D02*
X44584666Y-108418380D01*
X44298952Y-109418380D02*
X44298952Y-108418380D01*
X56586380Y-125769619D02*
X56110190Y-126102952D01*
X56586380Y-126341047D02*
X55586380Y-126341047D01*
X55586380Y-125960095D01*
X55634000Y-125864857D01*
X55681619Y-125817238D01*
X55776857Y-125769619D01*
X55919714Y-125769619D01*
X56014952Y-125817238D01*
X56062571Y-125864857D01*
X56110190Y-125960095D01*
X56110190Y-126341047D01*
X56538761Y-125388666D02*
X56586380Y-125245809D01*
X56586380Y-125007714D01*
X56538761Y-124912476D01*
X56491142Y-124864857D01*
X56395904Y-124817238D01*
X56300666Y-124817238D01*
X56205428Y-124864857D01*
X56157809Y-124912476D01*
X56110190Y-125007714D01*
X56062571Y-125198190D01*
X56014952Y-125293428D01*
X55967333Y-125341047D01*
X55872095Y-125388666D01*
X55776857Y-125388666D01*
X55681619Y-125341047D01*
X55634000Y-125293428D01*
X55586380Y-125198190D01*
X55586380Y-124960095D01*
X55634000Y-124817238D01*
X55586380Y-124531523D02*
X55586380Y-123960095D01*
X56586380Y-124245809D02*
X55586380Y-124245809D01*
X54316380Y-122745333D02*
X55316380Y-122412000D01*
X54316380Y-122078666D01*
X55316380Y-121745333D02*
X54316380Y-121745333D01*
X54316380Y-121507238D01*
X54364000Y-121364380D01*
X54459238Y-121269142D01*
X54554476Y-121221523D01*
X54744952Y-121173904D01*
X54887809Y-121173904D01*
X55078285Y-121221523D01*
X55173523Y-121269142D01*
X55268761Y-121364380D01*
X55316380Y-121507238D01*
X55316380Y-121745333D01*
X55316380Y-120745333D02*
X54316380Y-120745333D01*
X54316380Y-120507238D01*
X54364000Y-120364380D01*
X54459238Y-120269142D01*
X54554476Y-120221523D01*
X54744952Y-120173904D01*
X54887809Y-120173904D01*
X55078285Y-120221523D01*
X55173523Y-120269142D01*
X55268761Y-120364380D01*
X55316380Y-120507238D01*
X55316380Y-120745333D01*
D11*
%TO.C,C6*%
X53367000Y-96512748D02*
X53367000Y-97035252D01*
X54837000Y-96512748D02*
X54837000Y-97035252D01*
D13*
%TO.C,U1*%
X53748000Y-76221000D02*
X53748000Y-81821000D01*
X53748000Y-94721000D02*
X53748000Y-93271000D01*
X41803000Y-94721000D02*
X41248000Y-94721000D01*
X53748000Y-94721000D02*
X53193000Y-94721000D01*
X41248000Y-81821000D02*
X41248000Y-76221000D01*
X41248000Y-94721000D02*
X41248000Y-93271000D01*
X41248000Y-76221000D02*
X53748000Y-76221000D01*
D14*
X40748000Y-82371000D02*
G75*
G03*
X40748000Y-82371000I-100000J0D01*
G01*
%TO.C,J3*%
X42708000Y-131622000D02*
X42708000Y-132902000D01*
X42708000Y-132902000D02*
X52288000Y-132902000D01*
X52288000Y-132902000D02*
X52288000Y-131622000D01*
X42708000Y-127652000D02*
X42708000Y-128902000D01*
X52288000Y-127652000D02*
X52288000Y-128902000D01*
D15*
%TO.C,S1*%
X40764000Y-112760000D02*
X40764000Y-110760000D01*
X43564000Y-112760000D02*
X43564000Y-110760000D01*
X41314000Y-112776000D02*
G75*
G03*
X41314000Y-112776000I-50000J0D01*
G01*
D13*
%TO.C,J2*%
X44038000Y-124727000D02*
X44038000Y-122677000D01*
X44038000Y-118877000D02*
X44038000Y-116827000D01*
X44038000Y-116827000D02*
X40038000Y-116827000D01*
D16*
X45138000Y-118627000D02*
G75*
G03*
X45138000Y-118627000I-100000J0D01*
G01*
D13*
X36438000Y-118577000D02*
X36438000Y-122977000D01*
X40038000Y-124727000D02*
X44038000Y-124727000D01*
D11*
%TO.C,R7*%
X46721500Y-122444742D02*
X46721500Y-122919258D01*
X47766500Y-122444742D02*
X47766500Y-122919258D01*
%TO.C,R6*%
X48245500Y-122444742D02*
X48245500Y-122919258D01*
X49290500Y-122444742D02*
X49290500Y-122919258D01*
%TO.C,R5*%
X51830500Y-118347258D02*
X51830500Y-117872742D01*
X50785500Y-118347258D02*
X50785500Y-117872742D01*
%TO.C,R4*%
X50306500Y-118347258D02*
X50306500Y-117872742D01*
X49261500Y-118347258D02*
X49261500Y-117872742D01*
%TO.C,R3*%
X52846500Y-98789258D02*
X52846500Y-98314742D01*
X51801500Y-98789258D02*
X51801500Y-98314742D01*
%TO.C,R2*%
X54370500Y-118347258D02*
X54370500Y-117872742D01*
X53325500Y-118347258D02*
X53325500Y-117872742D01*
%TO.C,R1*%
X45480500Y-111235258D02*
X45480500Y-110760742D01*
X44435500Y-111235258D02*
X44435500Y-110760742D01*
%TO.C,L1*%
X51145221Y-96268000D02*
X51470779Y-96268000D01*
X51145221Y-95248000D02*
X51470779Y-95248000D01*
%TO.C,JP2*%
X41926000Y-98744000D02*
X41926000Y-97344000D01*
X42626000Y-96644000D02*
X43226000Y-96644000D01*
X43926000Y-97344000D02*
X43926000Y-98744000D01*
X43226000Y-99444000D02*
X42626000Y-99444000D01*
X42626000Y-99444000D02*
G75*
G02*
X41926000Y-98744000I0J700000D01*
G01*
X43926000Y-98744000D02*
G75*
G02*
X43226000Y-99444000I-700000J0D01*
G01*
X43226000Y-96644000D02*
G75*
G02*
X43926000Y-97344000I0J-700000D01*
G01*
X41926000Y-97344000D02*
G75*
G02*
X42626000Y-96644000I700000J0D01*
G01*
%TO.C,JP1*%
X44466000Y-98744000D02*
X44466000Y-97344000D01*
X45166000Y-96644000D02*
X45766000Y-96644000D01*
X46466000Y-97344000D02*
X46466000Y-98744000D01*
X45766000Y-99444000D02*
X45166000Y-99444000D01*
X45166000Y-99444000D02*
G75*
G02*
X44466000Y-98744000I0J700000D01*
G01*
X46466000Y-98744000D02*
G75*
G02*
X45766000Y-99444000I-700000J0D01*
G01*
X45766000Y-96644000D02*
G75*
G02*
X46466000Y-97344000I0J-700000D01*
G01*
X44466000Y-97344000D02*
G75*
G02*
X45166000Y-96644000I700000J0D01*
G01*
%TO.C,J1*%
X44328000Y-105651000D02*
X44263000Y-105651000D01*
X44328000Y-102121000D02*
X44263000Y-102121000D01*
X50733000Y-105651000D02*
X50668000Y-105651000D01*
X50733000Y-102121000D02*
X50668000Y-102121000D01*
X50668000Y-100796000D02*
X50668000Y-102121000D01*
X44263000Y-102121000D02*
X44263000Y-105651000D01*
X50733000Y-102121000D02*
X50733000Y-105651000D01*
%TO.C,D1*%
X54583000Y-127723000D02*
X54583000Y-125438000D01*
X53113000Y-127723000D02*
X54583000Y-127723000D01*
X53113000Y-125438000D02*
X53113000Y-127723000D01*
%TO.C,C5*%
X51675420Y-121668000D02*
X51956580Y-121668000D01*
X51675420Y-120648000D02*
X51956580Y-120648000D01*
%TO.C,C4*%
X51808748Y-123671000D02*
X52331252Y-123671000D01*
X51808748Y-122201000D02*
X52331252Y-122201000D01*
%TO.C,C2*%
X49791252Y-96801000D02*
X49268748Y-96801000D01*
X49791252Y-98271000D02*
X49268748Y-98271000D01*
%TO.C,C1*%
X45972000Y-110857420D02*
X45972000Y-111138580D01*
X46992000Y-110857420D02*
X46992000Y-111138580D01*
%TD*%
%LPC*%
%TO.C,C6*%
G36*
G01*
X53627000Y-97224000D02*
X54577000Y-97224000D01*
G75*
G02*
X54827000Y-97474000I0J-250000D01*
G01*
X54827000Y-97974000D01*
G75*
G02*
X54577000Y-98224000I-250000J0D01*
G01*
X53627000Y-98224000D01*
G75*
G02*
X53377000Y-97974000I0J250000D01*
G01*
X53377000Y-97474000D01*
G75*
G02*
X53627000Y-97224000I250000J0D01*
G01*
G37*
G36*
G01*
X53627000Y-95324000D02*
X54577000Y-95324000D01*
G75*
G02*
X54827000Y-95574000I0J-250000D01*
G01*
X54827000Y-96074000D01*
G75*
G02*
X54577000Y-96324000I-250000J0D01*
G01*
X53627000Y-96324000D01*
G75*
G02*
X53377000Y-96074000I0J250000D01*
G01*
X53377000Y-95574000D01*
G75*
G02*
X53627000Y-95324000I250000J0D01*
G01*
G37*
%TD*%
D17*
%TO.C,U1*%
X45948000Y-88721000D03*
X48748000Y-88721000D03*
X48748000Y-85871000D03*
X45948000Y-85871000D03*
D18*
X51398000Y-85621000D03*
X51398000Y-84971000D03*
X51398000Y-84321000D03*
X51398000Y-83671000D03*
D19*
X49448000Y-82471000D03*
X50098000Y-82471000D03*
X50748000Y-82471000D03*
X51398000Y-82471000D03*
X51998000Y-82471000D03*
D18*
X53098000Y-82371000D03*
X53098000Y-83021000D03*
X53098000Y-83671000D03*
X53098000Y-84321000D03*
X53098000Y-84971000D03*
X53098000Y-85621000D03*
X53098000Y-86271000D03*
X53098000Y-86921000D03*
X53098000Y-87571000D03*
X53098000Y-88221000D03*
X53098000Y-88871000D03*
X53098000Y-89521000D03*
X53098000Y-90171000D03*
X53098000Y-90821000D03*
X53098000Y-91471000D03*
X53098000Y-92121000D03*
X53098000Y-92771000D03*
D19*
X52698000Y-93971000D03*
X52048000Y-93971000D03*
X51398000Y-93971000D03*
X50748000Y-93971000D03*
X50098000Y-93971000D03*
X49448000Y-93971000D03*
X48798000Y-93971000D03*
X48148000Y-93971000D03*
X47498000Y-93971000D03*
X46848000Y-93971000D03*
X46198000Y-93971000D03*
X45548000Y-93971000D03*
X44898000Y-93971000D03*
X44248000Y-93971000D03*
X43598000Y-93971000D03*
X42948000Y-93971000D03*
X42298000Y-93971000D03*
D18*
X41898000Y-92771000D03*
X41898000Y-92121000D03*
X41898000Y-91471000D03*
X41898000Y-90821000D03*
X41898000Y-90171000D03*
X41898000Y-89521000D03*
X41898000Y-88871000D03*
X41898000Y-88221000D03*
X41898000Y-87571000D03*
X41898000Y-86921000D03*
X41898000Y-86271000D03*
X41898000Y-85621000D03*
X41898000Y-84971000D03*
X41898000Y-84321000D03*
X41898000Y-83671000D03*
X41898000Y-83021000D03*
X41898000Y-82371000D03*
%TD*%
D20*
%TO.C,J4*%
X37338000Y-115062000D03*
X37338000Y-112522000D03*
X37338000Y-109982000D03*
X37338000Y-107442000D03*
X37338000Y-104902000D03*
X37338000Y-102362000D03*
X37338000Y-99822000D03*
X37338000Y-97282000D03*
X37338000Y-94742000D03*
X37338000Y-92202000D03*
X37338000Y-89662000D03*
D21*
X37338000Y-87122000D03*
%TD*%
D22*
%TO.C,J3*%
X45748000Y-125547000D03*
X46248000Y-125547000D03*
X46748000Y-125547000D03*
X49248000Y-125547000D03*
X48748000Y-125547000D03*
X48248000Y-125547000D03*
X47248000Y-125547000D03*
X47748000Y-125547000D03*
D23*
X49898000Y-125547000D03*
X45098000Y-125547000D03*
X50698000Y-125547000D03*
X44298000Y-125547000D03*
D24*
X44608000Y-126622000D03*
X50388000Y-126622000D03*
D25*
X51818000Y-126122000D03*
X43178000Y-126122000D03*
D26*
X51818000Y-130302000D03*
X43178000Y-130302000D03*
%TD*%
D20*
%TO.C,J5*%
X57658000Y-125222000D03*
X57658000Y-122682000D03*
X57658000Y-120142000D03*
X57658000Y-117602000D03*
X57658000Y-115062000D03*
X57658000Y-112522000D03*
X57658000Y-109982000D03*
X57658000Y-107442000D03*
X57658000Y-104902000D03*
X57658000Y-102362000D03*
X57658000Y-99822000D03*
X57658000Y-97282000D03*
X57658000Y-94742000D03*
X57658000Y-92202000D03*
X57658000Y-89662000D03*
D21*
X57658000Y-87122000D03*
%TD*%
D27*
%TO.C,S1*%
X42164000Y-110035000D03*
X42164000Y-113485000D03*
D28*
X43014000Y-110185000D03*
X43014000Y-113335000D03*
X41314000Y-110185000D03*
X41314000Y-113335000D03*
%TD*%
D29*
%TO.C,J2*%
X37938000Y-117427000D03*
X37938000Y-124127000D03*
D30*
X43688000Y-119777000D03*
X43688000Y-121777000D03*
%TD*%
D31*
%TO.C,H2*%
X56388000Y-83312000D03*
%TD*%
%TO.C,H1*%
X38608000Y-83312000D03*
%TD*%
%TO.C,R7*%
G36*
G01*
X46969000Y-123107000D02*
X47519000Y-123107000D01*
G75*
G02*
X47719000Y-123307000I0J-200000D01*
G01*
X47719000Y-123707000D01*
G75*
G02*
X47519000Y-123907000I-200000J0D01*
G01*
X46969000Y-123907000D01*
G75*
G02*
X46769000Y-123707000I0J200000D01*
G01*
X46769000Y-123307000D01*
G75*
G02*
X46969000Y-123107000I200000J0D01*
G01*
G37*
G36*
G01*
X46969000Y-121457000D02*
X47519000Y-121457000D01*
G75*
G02*
X47719000Y-121657000I0J-200000D01*
G01*
X47719000Y-122057000D01*
G75*
G02*
X47519000Y-122257000I-200000J0D01*
G01*
X46969000Y-122257000D01*
G75*
G02*
X46769000Y-122057000I0J200000D01*
G01*
X46769000Y-121657000D01*
G75*
G02*
X46969000Y-121457000I200000J0D01*
G01*
G37*
%TD*%
%TO.C,R6*%
G36*
G01*
X48493000Y-123107000D02*
X49043000Y-123107000D01*
G75*
G02*
X49243000Y-123307000I0J-200000D01*
G01*
X49243000Y-123707000D01*
G75*
G02*
X49043000Y-123907000I-200000J0D01*
G01*
X48493000Y-123907000D01*
G75*
G02*
X48293000Y-123707000I0J200000D01*
G01*
X48293000Y-123307000D01*
G75*
G02*
X48493000Y-123107000I200000J0D01*
G01*
G37*
G36*
G01*
X48493000Y-121457000D02*
X49043000Y-121457000D01*
G75*
G02*
X49243000Y-121657000I0J-200000D01*
G01*
X49243000Y-122057000D01*
G75*
G02*
X49043000Y-122257000I-200000J0D01*
G01*
X48493000Y-122257000D01*
G75*
G02*
X48293000Y-122057000I0J200000D01*
G01*
X48293000Y-121657000D01*
G75*
G02*
X48493000Y-121457000I200000J0D01*
G01*
G37*
%TD*%
%TO.C,R5*%
G36*
G01*
X51583000Y-117685000D02*
X51033000Y-117685000D01*
G75*
G02*
X50833000Y-117485000I0J200000D01*
G01*
X50833000Y-117085000D01*
G75*
G02*
X51033000Y-116885000I200000J0D01*
G01*
X51583000Y-116885000D01*
G75*
G02*
X51783000Y-117085000I0J-200000D01*
G01*
X51783000Y-117485000D01*
G75*
G02*
X51583000Y-117685000I-200000J0D01*
G01*
G37*
G36*
G01*
X51583000Y-119335000D02*
X51033000Y-119335000D01*
G75*
G02*
X50833000Y-119135000I0J200000D01*
G01*
X50833000Y-118735000D01*
G75*
G02*
X51033000Y-118535000I200000J0D01*
G01*
X51583000Y-118535000D01*
G75*
G02*
X51783000Y-118735000I0J-200000D01*
G01*
X51783000Y-119135000D01*
G75*
G02*
X51583000Y-119335000I-200000J0D01*
G01*
G37*
%TD*%
%TO.C,R4*%
G36*
G01*
X50059000Y-117685000D02*
X49509000Y-117685000D01*
G75*
G02*
X49309000Y-117485000I0J200000D01*
G01*
X49309000Y-117085000D01*
G75*
G02*
X49509000Y-116885000I200000J0D01*
G01*
X50059000Y-116885000D01*
G75*
G02*
X50259000Y-117085000I0J-200000D01*
G01*
X50259000Y-117485000D01*
G75*
G02*
X50059000Y-117685000I-200000J0D01*
G01*
G37*
G36*
G01*
X50059000Y-119335000D02*
X49509000Y-119335000D01*
G75*
G02*
X49309000Y-119135000I0J200000D01*
G01*
X49309000Y-118735000D01*
G75*
G02*
X49509000Y-118535000I200000J0D01*
G01*
X50059000Y-118535000D01*
G75*
G02*
X50259000Y-118735000I0J-200000D01*
G01*
X50259000Y-119135000D01*
G75*
G02*
X50059000Y-119335000I-200000J0D01*
G01*
G37*
%TD*%
%TO.C,R3*%
G36*
G01*
X52599000Y-98127000D02*
X52049000Y-98127000D01*
G75*
G02*
X51849000Y-97927000I0J200000D01*
G01*
X51849000Y-97527000D01*
G75*
G02*
X52049000Y-97327000I200000J0D01*
G01*
X52599000Y-97327000D01*
G75*
G02*
X52799000Y-97527000I0J-200000D01*
G01*
X52799000Y-97927000D01*
G75*
G02*
X52599000Y-98127000I-200000J0D01*
G01*
G37*
G36*
G01*
X52599000Y-99777000D02*
X52049000Y-99777000D01*
G75*
G02*
X51849000Y-99577000I0J200000D01*
G01*
X51849000Y-99177000D01*
G75*
G02*
X52049000Y-98977000I200000J0D01*
G01*
X52599000Y-98977000D01*
G75*
G02*
X52799000Y-99177000I0J-200000D01*
G01*
X52799000Y-99577000D01*
G75*
G02*
X52599000Y-99777000I-200000J0D01*
G01*
G37*
%TD*%
%TO.C,R2*%
G36*
G01*
X54123000Y-117685000D02*
X53573000Y-117685000D01*
G75*
G02*
X53373000Y-117485000I0J200000D01*
G01*
X53373000Y-117085000D01*
G75*
G02*
X53573000Y-116885000I200000J0D01*
G01*
X54123000Y-116885000D01*
G75*
G02*
X54323000Y-117085000I0J-200000D01*
G01*
X54323000Y-117485000D01*
G75*
G02*
X54123000Y-117685000I-200000J0D01*
G01*
G37*
G36*
G01*
X54123000Y-119335000D02*
X53573000Y-119335000D01*
G75*
G02*
X53373000Y-119135000I0J200000D01*
G01*
X53373000Y-118735000D01*
G75*
G02*
X53573000Y-118535000I200000J0D01*
G01*
X54123000Y-118535000D01*
G75*
G02*
X54323000Y-118735000I0J-200000D01*
G01*
X54323000Y-119135000D01*
G75*
G02*
X54123000Y-119335000I-200000J0D01*
G01*
G37*
%TD*%
%TO.C,R1*%
G36*
G01*
X45233000Y-110573000D02*
X44683000Y-110573000D01*
G75*
G02*
X44483000Y-110373000I0J200000D01*
G01*
X44483000Y-109973000D01*
G75*
G02*
X44683000Y-109773000I200000J0D01*
G01*
X45233000Y-109773000D01*
G75*
G02*
X45433000Y-109973000I0J-200000D01*
G01*
X45433000Y-110373000D01*
G75*
G02*
X45233000Y-110573000I-200000J0D01*
G01*
G37*
G36*
G01*
X45233000Y-112223000D02*
X44683000Y-112223000D01*
G75*
G02*
X44483000Y-112023000I0J200000D01*
G01*
X44483000Y-111623000D01*
G75*
G02*
X44683000Y-111423000I200000J0D01*
G01*
X45233000Y-111423000D01*
G75*
G02*
X45433000Y-111623000I0J-200000D01*
G01*
X45433000Y-112023000D01*
G75*
G02*
X45233000Y-112223000I-200000J0D01*
G01*
G37*
%TD*%
%TO.C,L1*%
G36*
G01*
X51658000Y-96014250D02*
X51658000Y-95501750D01*
G75*
G02*
X51876750Y-95283000I218750J0D01*
G01*
X52314250Y-95283000D01*
G75*
G02*
X52533000Y-95501750I0J-218750D01*
G01*
X52533000Y-96014250D01*
G75*
G02*
X52314250Y-96233000I-218750J0D01*
G01*
X51876750Y-96233000D01*
G75*
G02*
X51658000Y-96014250I0J218750D01*
G01*
G37*
G36*
G01*
X50083000Y-96014250D02*
X50083000Y-95501750D01*
G75*
G02*
X50301750Y-95283000I218750J0D01*
G01*
X50739250Y-95283000D01*
G75*
G02*
X50958000Y-95501750I0J-218750D01*
G01*
X50958000Y-96014250D01*
G75*
G02*
X50739250Y-96233000I-218750J0D01*
G01*
X50301750Y-96233000D01*
G75*
G02*
X50083000Y-96014250I0J218750D01*
G01*
G37*
%TD*%
D15*
%TO.C,JP2*%
G36*
X42176602Y-97394000D02*
G01*
X42176602Y-97369466D01*
X42181412Y-97320635D01*
X42190984Y-97272510D01*
X42205228Y-97225555D01*
X42224005Y-97180222D01*
X42247136Y-97136949D01*
X42274396Y-97096150D01*
X42305524Y-97058221D01*
X42340221Y-97023524D01*
X42378150Y-96992396D01*
X42418949Y-96965136D01*
X42462222Y-96942005D01*
X42507555Y-96923228D01*
X42554510Y-96908984D01*
X42602635Y-96899412D01*
X42651466Y-96894602D01*
X42676000Y-96894602D01*
X42676000Y-96894000D01*
X43176000Y-96894000D01*
X43176000Y-96894602D01*
X43200534Y-96894602D01*
X43249365Y-96899412D01*
X43297490Y-96908984D01*
X43344445Y-96923228D01*
X43389778Y-96942005D01*
X43433051Y-96965136D01*
X43473850Y-96992396D01*
X43511779Y-97023524D01*
X43546476Y-97058221D01*
X43577604Y-97096150D01*
X43604864Y-97136949D01*
X43627995Y-97180222D01*
X43646772Y-97225555D01*
X43661016Y-97272510D01*
X43670588Y-97320635D01*
X43675398Y-97369466D01*
X43675398Y-97394000D01*
X43676000Y-97394000D01*
X43676000Y-97894000D01*
X42176000Y-97894000D01*
X42176000Y-97394000D01*
X42176602Y-97394000D01*
G37*
G36*
X43676000Y-98194000D02*
G01*
X43676000Y-98694000D01*
X43675398Y-98694000D01*
X43675398Y-98718534D01*
X43670588Y-98767365D01*
X43661016Y-98815490D01*
X43646772Y-98862445D01*
X43627995Y-98907778D01*
X43604864Y-98951051D01*
X43577604Y-98991850D01*
X43546476Y-99029779D01*
X43511779Y-99064476D01*
X43473850Y-99095604D01*
X43433051Y-99122864D01*
X43389778Y-99145995D01*
X43344445Y-99164772D01*
X43297490Y-99179016D01*
X43249365Y-99188588D01*
X43200534Y-99193398D01*
X43176000Y-99193398D01*
X43176000Y-99194000D01*
X42676000Y-99194000D01*
X42676000Y-99193398D01*
X42651466Y-99193398D01*
X42602635Y-99188588D01*
X42554510Y-99179016D01*
X42507555Y-99164772D01*
X42462222Y-99145995D01*
X42418949Y-99122864D01*
X42378150Y-99095604D01*
X42340221Y-99064476D01*
X42305524Y-99029779D01*
X42274396Y-98991850D01*
X42247136Y-98951051D01*
X42224005Y-98907778D01*
X42205228Y-98862445D01*
X42190984Y-98815490D01*
X42181412Y-98767365D01*
X42176602Y-98718534D01*
X42176602Y-98694000D01*
X42176000Y-98694000D01*
X42176000Y-98194000D01*
X43676000Y-98194000D01*
G37*
%TD*%
%TO.C,JP1*%
G36*
X46216000Y-98194000D02*
G01*
X46216000Y-98694000D01*
X46215398Y-98694000D01*
X46215398Y-98718534D01*
X46210588Y-98767365D01*
X46201016Y-98815490D01*
X46186772Y-98862445D01*
X46167995Y-98907778D01*
X46144864Y-98951051D01*
X46117604Y-98991850D01*
X46086476Y-99029779D01*
X46051779Y-99064476D01*
X46013850Y-99095604D01*
X45973051Y-99122864D01*
X45929778Y-99145995D01*
X45884445Y-99164772D01*
X45837490Y-99179016D01*
X45789365Y-99188588D01*
X45740534Y-99193398D01*
X45716000Y-99193398D01*
X45716000Y-99194000D01*
X45216000Y-99194000D01*
X45216000Y-99193398D01*
X45191466Y-99193398D01*
X45142635Y-99188588D01*
X45094510Y-99179016D01*
X45047555Y-99164772D01*
X45002222Y-99145995D01*
X44958949Y-99122864D01*
X44918150Y-99095604D01*
X44880221Y-99064476D01*
X44845524Y-99029779D01*
X44814396Y-98991850D01*
X44787136Y-98951051D01*
X44764005Y-98907778D01*
X44745228Y-98862445D01*
X44730984Y-98815490D01*
X44721412Y-98767365D01*
X44716602Y-98718534D01*
X44716602Y-98694000D01*
X44716000Y-98694000D01*
X44716000Y-98194000D01*
X46216000Y-98194000D01*
G37*
G36*
X44716602Y-97394000D02*
G01*
X44716602Y-97369466D01*
X44721412Y-97320635D01*
X44730984Y-97272510D01*
X44745228Y-97225555D01*
X44764005Y-97180222D01*
X44787136Y-97136949D01*
X44814396Y-97096150D01*
X44845524Y-97058221D01*
X44880221Y-97023524D01*
X44918150Y-96992396D01*
X44958949Y-96965136D01*
X45002222Y-96942005D01*
X45047555Y-96923228D01*
X45094510Y-96908984D01*
X45142635Y-96899412D01*
X45191466Y-96894602D01*
X45216000Y-96894602D01*
X45216000Y-96894000D01*
X45716000Y-96894000D01*
X45716000Y-96894602D01*
X45740534Y-96894602D01*
X45789365Y-96899412D01*
X45837490Y-96908984D01*
X45884445Y-96923228D01*
X45929778Y-96942005D01*
X45973051Y-96965136D01*
X46013850Y-96992396D01*
X46051779Y-97023524D01*
X46086476Y-97058221D01*
X46117604Y-97096150D01*
X46144864Y-97136949D01*
X46167995Y-97180222D01*
X46186772Y-97225555D01*
X46201016Y-97272510D01*
X46210588Y-97320635D01*
X46215398Y-97369466D01*
X46215398Y-97394000D01*
X46216000Y-97394000D01*
X46216000Y-97894000D01*
X44716000Y-97894000D01*
X44716000Y-97394000D01*
X44716602Y-97394000D01*
G37*
%TD*%
D32*
%TO.C,J1*%
X44958000Y-105836000D03*
X44958000Y-101936000D03*
X46228000Y-105836000D03*
X46228000Y-101936000D03*
X47498000Y-105836000D03*
X47498000Y-101936000D03*
X48768000Y-105836000D03*
X48768000Y-101936000D03*
X50038000Y-105836000D03*
X50038000Y-101936000D03*
%TD*%
D31*
%TO.C,H4*%
X56388000Y-129032000D03*
%TD*%
%TO.C,H3*%
X38608000Y-129032000D03*
%TD*%
%TO.C,D1*%
G36*
G01*
X54104250Y-125888000D02*
X53591750Y-125888000D01*
G75*
G02*
X53373000Y-125669250I0J218750D01*
G01*
X53373000Y-125231750D01*
G75*
G02*
X53591750Y-125013000I218750J0D01*
G01*
X54104250Y-125013000D01*
G75*
G02*
X54323000Y-125231750I0J-218750D01*
G01*
X54323000Y-125669250D01*
G75*
G02*
X54104250Y-125888000I-218750J0D01*
G01*
G37*
G36*
G01*
X54104250Y-127463000D02*
X53591750Y-127463000D01*
G75*
G02*
X53373000Y-127244250I0J218750D01*
G01*
X53373000Y-126806750D01*
G75*
G02*
X53591750Y-126588000I218750J0D01*
G01*
X54104250Y-126588000D01*
G75*
G02*
X54323000Y-126806750I0J-218750D01*
G01*
X54323000Y-127244250D01*
G75*
G02*
X54104250Y-127463000I-218750J0D01*
G01*
G37*
%TD*%
%TO.C,C5*%
G36*
G01*
X52141000Y-121408000D02*
X52141000Y-120908000D01*
G75*
G02*
X52366000Y-120683000I225000J0D01*
G01*
X52816000Y-120683000D01*
G75*
G02*
X53041000Y-120908000I0J-225000D01*
G01*
X53041000Y-121408000D01*
G75*
G02*
X52816000Y-121633000I-225000J0D01*
G01*
X52366000Y-121633000D01*
G75*
G02*
X52141000Y-121408000I0J225000D01*
G01*
G37*
G36*
G01*
X50591000Y-121408000D02*
X50591000Y-120908000D01*
G75*
G02*
X50816000Y-120683000I225000J0D01*
G01*
X51266000Y-120683000D01*
G75*
G02*
X51491000Y-120908000I0J-225000D01*
G01*
X51491000Y-121408000D01*
G75*
G02*
X51266000Y-121633000I-225000J0D01*
G01*
X50816000Y-121633000D01*
G75*
G02*
X50591000Y-121408000I0J225000D01*
G01*
G37*
%TD*%
%TO.C,C4*%
G36*
G01*
X52520000Y-123411000D02*
X52520000Y-122461000D01*
G75*
G02*
X52770000Y-122211000I250000J0D01*
G01*
X53270000Y-122211000D01*
G75*
G02*
X53520000Y-122461000I0J-250000D01*
G01*
X53520000Y-123411000D01*
G75*
G02*
X53270000Y-123661000I-250000J0D01*
G01*
X52770000Y-123661000D01*
G75*
G02*
X52520000Y-123411000I0J250000D01*
G01*
G37*
G36*
G01*
X50620000Y-123411000D02*
X50620000Y-122461000D01*
G75*
G02*
X50870000Y-122211000I250000J0D01*
G01*
X51370000Y-122211000D01*
G75*
G02*
X51620000Y-122461000I0J-250000D01*
G01*
X51620000Y-123411000D01*
G75*
G02*
X51370000Y-123661000I-250000J0D01*
G01*
X50870000Y-123661000D01*
G75*
G02*
X50620000Y-123411000I0J250000D01*
G01*
G37*
%TD*%
%TO.C,C2*%
G36*
G01*
X49080000Y-97061000D02*
X49080000Y-98011000D01*
G75*
G02*
X48830000Y-98261000I-250000J0D01*
G01*
X48330000Y-98261000D01*
G75*
G02*
X48080000Y-98011000I0J250000D01*
G01*
X48080000Y-97061000D01*
G75*
G02*
X48330000Y-96811000I250000J0D01*
G01*
X48830000Y-96811000D01*
G75*
G02*
X49080000Y-97061000I0J-250000D01*
G01*
G37*
G36*
G01*
X50980000Y-97061000D02*
X50980000Y-98011000D01*
G75*
G02*
X50730000Y-98261000I-250000J0D01*
G01*
X50230000Y-98261000D01*
G75*
G02*
X49980000Y-98011000I0J250000D01*
G01*
X49980000Y-97061000D01*
G75*
G02*
X50230000Y-96811000I250000J0D01*
G01*
X50730000Y-96811000D01*
G75*
G02*
X50980000Y-97061000I0J-250000D01*
G01*
G37*
%TD*%
%TO.C,C1*%
G36*
G01*
X46232000Y-111323000D02*
X46732000Y-111323000D01*
G75*
G02*
X46957000Y-111548000I0J-225000D01*
G01*
X46957000Y-111998000D01*
G75*
G02*
X46732000Y-112223000I-225000J0D01*
G01*
X46232000Y-112223000D01*
G75*
G02*
X46007000Y-111998000I0J225000D01*
G01*
X46007000Y-111548000D01*
G75*
G02*
X46232000Y-111323000I225000J0D01*
G01*
G37*
G36*
G01*
X46232000Y-109773000D02*
X46732000Y-109773000D01*
G75*
G02*
X46957000Y-109998000I0J-225000D01*
G01*
X46957000Y-110448000D01*
G75*
G02*
X46732000Y-110673000I-225000J0D01*
G01*
X46232000Y-110673000D01*
G75*
G02*
X46007000Y-110448000I0J225000D01*
G01*
X46007000Y-109998000D01*
G75*
G02*
X46232000Y-109773000I225000J0D01*
G01*
G37*
%TD*%
M02*
