%TF.GenerationSoftware,KiCad,Pcbnew,5.1.7-a382d34a8~88~ubuntu18.04.1*%
%TF.CreationDate,2022-09-03T09:09:10-04:00*%
%TF.ProjectId,project-MS88SF3-breakout,70726f6a-6563-4742-9d4d-533838534633,rev?*%
%TF.SameCoordinates,Original*%
%TF.FileFunction,Paste,Top*%
%TF.FilePolarity,Positive*%
%FSLAX46Y46*%
G04 Gerber Fmt 4.6, Leading zero omitted, Abs format (unit mm)*
G04 Created by KiCad (PCBNEW 5.1.7-a382d34a8~88~ubuntu18.04.1) date 2022-09-03 09:09:10*
%MOMM*%
%LPD*%
G01*
G04 APERTURE LIST*
%ADD10R,1.300000X1.800000*%
%ADD11R,1.100000X0.350000*%
%ADD12R,0.350000X1.100000*%
%ADD13R,0.300000X1.150000*%
%ADD14R,0.600000X1.150000*%
%ADD15R,0.700000X0.350000*%
%ADD16R,0.600000X0.650000*%
%ADD17R,3.400000X1.500000*%
%ADD18R,3.500000X1.000000*%
%ADD19R,0.740000X2.400000*%
G04 APERTURE END LIST*
%TO.C,C6*%
G36*
G01*
X53627000Y-97224000D02*
X54577000Y-97224000D01*
G75*
G02*
X54827000Y-97474000I0J-250000D01*
G01*
X54827000Y-97974000D01*
G75*
G02*
X54577000Y-98224000I-250000J0D01*
G01*
X53627000Y-98224000D01*
G75*
G02*
X53377000Y-97974000I0J250000D01*
G01*
X53377000Y-97474000D01*
G75*
G02*
X53627000Y-97224000I250000J0D01*
G01*
G37*
G36*
G01*
X53627000Y-95324000D02*
X54577000Y-95324000D01*
G75*
G02*
X54827000Y-95574000I0J-250000D01*
G01*
X54827000Y-96074000D01*
G75*
G02*
X54577000Y-96324000I-250000J0D01*
G01*
X53627000Y-96324000D01*
G75*
G02*
X53377000Y-96074000I0J250000D01*
G01*
X53377000Y-95574000D01*
G75*
G02*
X53627000Y-95324000I250000J0D01*
G01*
G37*
%TD*%
D10*
%TO.C,U1*%
X45948000Y-88721000D03*
X48748000Y-88721000D03*
X48748000Y-85871000D03*
X45948000Y-85871000D03*
D11*
X51398000Y-85621000D03*
X51398000Y-84971000D03*
X51398000Y-84321000D03*
X51398000Y-83671000D03*
D12*
X49448000Y-82471000D03*
X50098000Y-82471000D03*
X50748000Y-82471000D03*
X51398000Y-82471000D03*
X51998000Y-82471000D03*
D11*
X53098000Y-82371000D03*
X53098000Y-83021000D03*
X53098000Y-83671000D03*
X53098000Y-84321000D03*
X53098000Y-84971000D03*
X53098000Y-85621000D03*
X53098000Y-86271000D03*
X53098000Y-86921000D03*
X53098000Y-87571000D03*
X53098000Y-88221000D03*
X53098000Y-88871000D03*
X53098000Y-89521000D03*
X53098000Y-90171000D03*
X53098000Y-90821000D03*
X53098000Y-91471000D03*
X53098000Y-92121000D03*
X53098000Y-92771000D03*
D12*
X52698000Y-93971000D03*
X52048000Y-93971000D03*
X51398000Y-93971000D03*
X50748000Y-93971000D03*
X50098000Y-93971000D03*
X49448000Y-93971000D03*
X48798000Y-93971000D03*
X48148000Y-93971000D03*
X47498000Y-93971000D03*
X46848000Y-93971000D03*
X46198000Y-93971000D03*
X45548000Y-93971000D03*
X44898000Y-93971000D03*
X44248000Y-93971000D03*
X43598000Y-93971000D03*
X42948000Y-93971000D03*
X42298000Y-93971000D03*
D11*
X41898000Y-92771000D03*
X41898000Y-92121000D03*
X41898000Y-91471000D03*
X41898000Y-90821000D03*
X41898000Y-90171000D03*
X41898000Y-89521000D03*
X41898000Y-88871000D03*
X41898000Y-88221000D03*
X41898000Y-87571000D03*
X41898000Y-86921000D03*
X41898000Y-86271000D03*
X41898000Y-85621000D03*
X41898000Y-84971000D03*
X41898000Y-84321000D03*
X41898000Y-83671000D03*
X41898000Y-83021000D03*
X41898000Y-82371000D03*
%TD*%
D13*
%TO.C,J3*%
X45748000Y-125547000D03*
X46248000Y-125547000D03*
X46748000Y-125547000D03*
X49248000Y-125547000D03*
X48748000Y-125547000D03*
X48248000Y-125547000D03*
X47248000Y-125547000D03*
X47748000Y-125547000D03*
D14*
X49898000Y-125547000D03*
X45098000Y-125547000D03*
X50698000Y-125547000D03*
X44298000Y-125547000D03*
%TD*%
D15*
%TO.C,S1*%
X42164000Y-110035000D03*
X42164000Y-113485000D03*
D16*
X43014000Y-110185000D03*
X43014000Y-113335000D03*
X41314000Y-110185000D03*
X41314000Y-113335000D03*
%TD*%
D17*
%TO.C,J2*%
X37938000Y-117427000D03*
X37938000Y-124127000D03*
D18*
X43688000Y-119777000D03*
X43688000Y-121777000D03*
%TD*%
%TO.C,R7*%
G36*
G01*
X46969000Y-123107000D02*
X47519000Y-123107000D01*
G75*
G02*
X47719000Y-123307000I0J-200000D01*
G01*
X47719000Y-123707000D01*
G75*
G02*
X47519000Y-123907000I-200000J0D01*
G01*
X46969000Y-123907000D01*
G75*
G02*
X46769000Y-123707000I0J200000D01*
G01*
X46769000Y-123307000D01*
G75*
G02*
X46969000Y-123107000I200000J0D01*
G01*
G37*
G36*
G01*
X46969000Y-121457000D02*
X47519000Y-121457000D01*
G75*
G02*
X47719000Y-121657000I0J-200000D01*
G01*
X47719000Y-122057000D01*
G75*
G02*
X47519000Y-122257000I-200000J0D01*
G01*
X46969000Y-122257000D01*
G75*
G02*
X46769000Y-122057000I0J200000D01*
G01*
X46769000Y-121657000D01*
G75*
G02*
X46969000Y-121457000I200000J0D01*
G01*
G37*
%TD*%
%TO.C,R6*%
G36*
G01*
X48493000Y-123107000D02*
X49043000Y-123107000D01*
G75*
G02*
X49243000Y-123307000I0J-200000D01*
G01*
X49243000Y-123707000D01*
G75*
G02*
X49043000Y-123907000I-200000J0D01*
G01*
X48493000Y-123907000D01*
G75*
G02*
X48293000Y-123707000I0J200000D01*
G01*
X48293000Y-123307000D01*
G75*
G02*
X48493000Y-123107000I200000J0D01*
G01*
G37*
G36*
G01*
X48493000Y-121457000D02*
X49043000Y-121457000D01*
G75*
G02*
X49243000Y-121657000I0J-200000D01*
G01*
X49243000Y-122057000D01*
G75*
G02*
X49043000Y-122257000I-200000J0D01*
G01*
X48493000Y-122257000D01*
G75*
G02*
X48293000Y-122057000I0J200000D01*
G01*
X48293000Y-121657000D01*
G75*
G02*
X48493000Y-121457000I200000J0D01*
G01*
G37*
%TD*%
%TO.C,R5*%
G36*
G01*
X51583000Y-117685000D02*
X51033000Y-117685000D01*
G75*
G02*
X50833000Y-117485000I0J200000D01*
G01*
X50833000Y-117085000D01*
G75*
G02*
X51033000Y-116885000I200000J0D01*
G01*
X51583000Y-116885000D01*
G75*
G02*
X51783000Y-117085000I0J-200000D01*
G01*
X51783000Y-117485000D01*
G75*
G02*
X51583000Y-117685000I-200000J0D01*
G01*
G37*
G36*
G01*
X51583000Y-119335000D02*
X51033000Y-119335000D01*
G75*
G02*
X50833000Y-119135000I0J200000D01*
G01*
X50833000Y-118735000D01*
G75*
G02*
X51033000Y-118535000I200000J0D01*
G01*
X51583000Y-118535000D01*
G75*
G02*
X51783000Y-118735000I0J-200000D01*
G01*
X51783000Y-119135000D01*
G75*
G02*
X51583000Y-119335000I-200000J0D01*
G01*
G37*
%TD*%
%TO.C,R4*%
G36*
G01*
X50059000Y-117685000D02*
X49509000Y-117685000D01*
G75*
G02*
X49309000Y-117485000I0J200000D01*
G01*
X49309000Y-117085000D01*
G75*
G02*
X49509000Y-116885000I200000J0D01*
G01*
X50059000Y-116885000D01*
G75*
G02*
X50259000Y-117085000I0J-200000D01*
G01*
X50259000Y-117485000D01*
G75*
G02*
X50059000Y-117685000I-200000J0D01*
G01*
G37*
G36*
G01*
X50059000Y-119335000D02*
X49509000Y-119335000D01*
G75*
G02*
X49309000Y-119135000I0J200000D01*
G01*
X49309000Y-118735000D01*
G75*
G02*
X49509000Y-118535000I200000J0D01*
G01*
X50059000Y-118535000D01*
G75*
G02*
X50259000Y-118735000I0J-200000D01*
G01*
X50259000Y-119135000D01*
G75*
G02*
X50059000Y-119335000I-200000J0D01*
G01*
G37*
%TD*%
%TO.C,R3*%
G36*
G01*
X52599000Y-98127000D02*
X52049000Y-98127000D01*
G75*
G02*
X51849000Y-97927000I0J200000D01*
G01*
X51849000Y-97527000D01*
G75*
G02*
X52049000Y-97327000I200000J0D01*
G01*
X52599000Y-97327000D01*
G75*
G02*
X52799000Y-97527000I0J-200000D01*
G01*
X52799000Y-97927000D01*
G75*
G02*
X52599000Y-98127000I-200000J0D01*
G01*
G37*
G36*
G01*
X52599000Y-99777000D02*
X52049000Y-99777000D01*
G75*
G02*
X51849000Y-99577000I0J200000D01*
G01*
X51849000Y-99177000D01*
G75*
G02*
X52049000Y-98977000I200000J0D01*
G01*
X52599000Y-98977000D01*
G75*
G02*
X52799000Y-99177000I0J-200000D01*
G01*
X52799000Y-99577000D01*
G75*
G02*
X52599000Y-99777000I-200000J0D01*
G01*
G37*
%TD*%
%TO.C,R2*%
G36*
G01*
X54123000Y-117685000D02*
X53573000Y-117685000D01*
G75*
G02*
X53373000Y-117485000I0J200000D01*
G01*
X53373000Y-117085000D01*
G75*
G02*
X53573000Y-116885000I200000J0D01*
G01*
X54123000Y-116885000D01*
G75*
G02*
X54323000Y-117085000I0J-200000D01*
G01*
X54323000Y-117485000D01*
G75*
G02*
X54123000Y-117685000I-200000J0D01*
G01*
G37*
G36*
G01*
X54123000Y-119335000D02*
X53573000Y-119335000D01*
G75*
G02*
X53373000Y-119135000I0J200000D01*
G01*
X53373000Y-118735000D01*
G75*
G02*
X53573000Y-118535000I200000J0D01*
G01*
X54123000Y-118535000D01*
G75*
G02*
X54323000Y-118735000I0J-200000D01*
G01*
X54323000Y-119135000D01*
G75*
G02*
X54123000Y-119335000I-200000J0D01*
G01*
G37*
%TD*%
%TO.C,R1*%
G36*
G01*
X45233000Y-110573000D02*
X44683000Y-110573000D01*
G75*
G02*
X44483000Y-110373000I0J200000D01*
G01*
X44483000Y-109973000D01*
G75*
G02*
X44683000Y-109773000I200000J0D01*
G01*
X45233000Y-109773000D01*
G75*
G02*
X45433000Y-109973000I0J-200000D01*
G01*
X45433000Y-110373000D01*
G75*
G02*
X45233000Y-110573000I-200000J0D01*
G01*
G37*
G36*
G01*
X45233000Y-112223000D02*
X44683000Y-112223000D01*
G75*
G02*
X44483000Y-112023000I0J200000D01*
G01*
X44483000Y-111623000D01*
G75*
G02*
X44683000Y-111423000I200000J0D01*
G01*
X45233000Y-111423000D01*
G75*
G02*
X45433000Y-111623000I0J-200000D01*
G01*
X45433000Y-112023000D01*
G75*
G02*
X45233000Y-112223000I-200000J0D01*
G01*
G37*
%TD*%
%TO.C,L1*%
G36*
G01*
X51658000Y-96014250D02*
X51658000Y-95501750D01*
G75*
G02*
X51876750Y-95283000I218750J0D01*
G01*
X52314250Y-95283000D01*
G75*
G02*
X52533000Y-95501750I0J-218750D01*
G01*
X52533000Y-96014250D01*
G75*
G02*
X52314250Y-96233000I-218750J0D01*
G01*
X51876750Y-96233000D01*
G75*
G02*
X51658000Y-96014250I0J218750D01*
G01*
G37*
G36*
G01*
X50083000Y-96014250D02*
X50083000Y-95501750D01*
G75*
G02*
X50301750Y-95283000I218750J0D01*
G01*
X50739250Y-95283000D01*
G75*
G02*
X50958000Y-95501750I0J-218750D01*
G01*
X50958000Y-96014250D01*
G75*
G02*
X50739250Y-96233000I-218750J0D01*
G01*
X50301750Y-96233000D01*
G75*
G02*
X50083000Y-96014250I0J218750D01*
G01*
G37*
%TD*%
D19*
%TO.C,J1*%
X44958000Y-105836000D03*
X44958000Y-101936000D03*
X46228000Y-105836000D03*
X46228000Y-101936000D03*
X47498000Y-105836000D03*
X47498000Y-101936000D03*
X48768000Y-105836000D03*
X48768000Y-101936000D03*
X50038000Y-105836000D03*
X50038000Y-101936000D03*
%TD*%
%TO.C,D1*%
G36*
G01*
X54104250Y-125888000D02*
X53591750Y-125888000D01*
G75*
G02*
X53373000Y-125669250I0J218750D01*
G01*
X53373000Y-125231750D01*
G75*
G02*
X53591750Y-125013000I218750J0D01*
G01*
X54104250Y-125013000D01*
G75*
G02*
X54323000Y-125231750I0J-218750D01*
G01*
X54323000Y-125669250D01*
G75*
G02*
X54104250Y-125888000I-218750J0D01*
G01*
G37*
G36*
G01*
X54104250Y-127463000D02*
X53591750Y-127463000D01*
G75*
G02*
X53373000Y-127244250I0J218750D01*
G01*
X53373000Y-126806750D01*
G75*
G02*
X53591750Y-126588000I218750J0D01*
G01*
X54104250Y-126588000D01*
G75*
G02*
X54323000Y-126806750I0J-218750D01*
G01*
X54323000Y-127244250D01*
G75*
G02*
X54104250Y-127463000I-218750J0D01*
G01*
G37*
%TD*%
%TO.C,C5*%
G36*
G01*
X52141000Y-121408000D02*
X52141000Y-120908000D01*
G75*
G02*
X52366000Y-120683000I225000J0D01*
G01*
X52816000Y-120683000D01*
G75*
G02*
X53041000Y-120908000I0J-225000D01*
G01*
X53041000Y-121408000D01*
G75*
G02*
X52816000Y-121633000I-225000J0D01*
G01*
X52366000Y-121633000D01*
G75*
G02*
X52141000Y-121408000I0J225000D01*
G01*
G37*
G36*
G01*
X50591000Y-121408000D02*
X50591000Y-120908000D01*
G75*
G02*
X50816000Y-120683000I225000J0D01*
G01*
X51266000Y-120683000D01*
G75*
G02*
X51491000Y-120908000I0J-225000D01*
G01*
X51491000Y-121408000D01*
G75*
G02*
X51266000Y-121633000I-225000J0D01*
G01*
X50816000Y-121633000D01*
G75*
G02*
X50591000Y-121408000I0J225000D01*
G01*
G37*
%TD*%
%TO.C,C4*%
G36*
G01*
X52520000Y-123411000D02*
X52520000Y-122461000D01*
G75*
G02*
X52770000Y-122211000I250000J0D01*
G01*
X53270000Y-122211000D01*
G75*
G02*
X53520000Y-122461000I0J-250000D01*
G01*
X53520000Y-123411000D01*
G75*
G02*
X53270000Y-123661000I-250000J0D01*
G01*
X52770000Y-123661000D01*
G75*
G02*
X52520000Y-123411000I0J250000D01*
G01*
G37*
G36*
G01*
X50620000Y-123411000D02*
X50620000Y-122461000D01*
G75*
G02*
X50870000Y-122211000I250000J0D01*
G01*
X51370000Y-122211000D01*
G75*
G02*
X51620000Y-122461000I0J-250000D01*
G01*
X51620000Y-123411000D01*
G75*
G02*
X51370000Y-123661000I-250000J0D01*
G01*
X50870000Y-123661000D01*
G75*
G02*
X50620000Y-123411000I0J250000D01*
G01*
G37*
%TD*%
%TO.C,C2*%
G36*
G01*
X49080000Y-97061000D02*
X49080000Y-98011000D01*
G75*
G02*
X48830000Y-98261000I-250000J0D01*
G01*
X48330000Y-98261000D01*
G75*
G02*
X48080000Y-98011000I0J250000D01*
G01*
X48080000Y-97061000D01*
G75*
G02*
X48330000Y-96811000I250000J0D01*
G01*
X48830000Y-96811000D01*
G75*
G02*
X49080000Y-97061000I0J-250000D01*
G01*
G37*
G36*
G01*
X50980000Y-97061000D02*
X50980000Y-98011000D01*
G75*
G02*
X50730000Y-98261000I-250000J0D01*
G01*
X50230000Y-98261000D01*
G75*
G02*
X49980000Y-98011000I0J250000D01*
G01*
X49980000Y-97061000D01*
G75*
G02*
X50230000Y-96811000I250000J0D01*
G01*
X50730000Y-96811000D01*
G75*
G02*
X50980000Y-97061000I0J-250000D01*
G01*
G37*
%TD*%
%TO.C,C1*%
G36*
G01*
X46232000Y-111323000D02*
X46732000Y-111323000D01*
G75*
G02*
X46957000Y-111548000I0J-225000D01*
G01*
X46957000Y-111998000D01*
G75*
G02*
X46732000Y-112223000I-225000J0D01*
G01*
X46232000Y-112223000D01*
G75*
G02*
X46007000Y-111998000I0J225000D01*
G01*
X46007000Y-111548000D01*
G75*
G02*
X46232000Y-111323000I225000J0D01*
G01*
G37*
G36*
G01*
X46232000Y-109773000D02*
X46732000Y-109773000D01*
G75*
G02*
X46957000Y-109998000I0J-225000D01*
G01*
X46957000Y-110448000D01*
G75*
G02*
X46732000Y-110673000I-225000J0D01*
G01*
X46232000Y-110673000D01*
G75*
G02*
X46007000Y-110448000I0J225000D01*
G01*
X46007000Y-109998000D01*
G75*
G02*
X46232000Y-109773000I225000J0D01*
G01*
G37*
%TD*%
M02*
