%TF.GenerationSoftware,KiCad,Pcbnew,5.1.7-a382d34a8~88~ubuntu18.04.1*%
%TF.CreationDate,2022-09-03T09:09:10-04:00*%
%TF.ProjectId,project-MS88SF3-breakout,70726f6a-6563-4742-9d4d-533838534633,rev?*%
%TF.SameCoordinates,Original*%
%TF.FileFunction,Copper,L3,Inr*%
%TF.FilePolarity,Positive*%
%FSLAX46Y46*%
G04 Gerber Fmt 4.6, Leading zero omitted, Abs format (unit mm)*
G04 Created by KiCad (PCBNEW 5.1.7-a382d34a8~88~ubuntu18.04.1) date 2022-09-03 09:09:10*
%MOMM*%
%LPD*%
G01*
G04 APERTURE LIST*
%TA.AperFunction,ComponentPad*%
%ADD10O,1.700000X1.700000*%
%TD*%
%TA.AperFunction,ComponentPad*%
%ADD11R,1.700000X1.700000*%
%TD*%
%TA.AperFunction,ComponentPad*%
%ADD12O,1.050000X2.100000*%
%TD*%
%TA.AperFunction,ComponentPad*%
%ADD13O,1.000000X2.000000*%
%TD*%
%TA.AperFunction,ComponentPad*%
%ADD14C,3.500000*%
%TD*%
%TA.AperFunction,ViaPad*%
%ADD15C,0.800000*%
%TD*%
%TA.AperFunction,ViaPad*%
%ADD16C,0.554000*%
%TD*%
%TA.AperFunction,Conductor*%
%ADD17C,0.500000*%
%TD*%
%TA.AperFunction,Conductor*%
%ADD18C,0.254000*%
%TD*%
%TA.AperFunction,Conductor*%
%ADD19C,0.100000*%
%TD*%
G04 APERTURE END LIST*
D10*
%TO.N,/VDD_nRF*%
%TO.C,J4*%
X37338000Y-115062000D03*
%TO.N,Net-(J4-Pad11)*%
X37338000Y-112522000D03*
%TO.N,/VBUS*%
X37338000Y-109982000D03*
%TO.N,/AIN2*%
X37338000Y-107442000D03*
%TO.N,/AIN3*%
X37338000Y-104902000D03*
%TO.N,/AIN5*%
X37338000Y-102362000D03*
%TO.N,/AIN0*%
X37338000Y-99822000D03*
%TO.N,/P1.15*%
X37338000Y-97282000D03*
%TO.N,/P1.13*%
X37338000Y-94742000D03*
%TO.N,/AIN1*%
X37338000Y-92202000D03*
%TO.N,/P1.14*%
X37338000Y-89662000D03*
D11*
%TO.N,/P1.10*%
X37338000Y-87122000D03*
%TD*%
D12*
%TO.N,GND*%
%TO.C,J3*%
X51818000Y-126122000D03*
X43178000Y-126122000D03*
D13*
X51818000Y-130302000D03*
X43178000Y-130302000D03*
%TD*%
D10*
%TO.N,/RESET*%
%TO.C,J5*%
X57658000Y-125222000D03*
%TO.N,/VDD_nRF*%
X57658000Y-122682000D03*
X57658000Y-120142000D03*
%TO.N,GND*%
X57658000Y-117602000D03*
%TO.N,/P0.21*%
X57658000Y-115062000D03*
%TO.N,/P0.17*%
X57658000Y-112522000D03*
%TO.N,/P0.15*%
X57658000Y-109982000D03*
%TO.N,/P0.13*%
X57658000Y-107442000D03*
%TO.N,/P0.19*%
X57658000Y-104902000D03*
%TO.N,/P0.23*%
X57658000Y-102362000D03*
%TO.N,/TX*%
X57658000Y-99822000D03*
%TO.N,/P0.22*%
X57658000Y-97282000D03*
%TO.N,/RX*%
X57658000Y-94742000D03*
%TO.N,/NFC2*%
X57658000Y-92202000D03*
%TO.N,/NFC1*%
X57658000Y-89662000D03*
D11*
%TO.N,/P0.25*%
X57658000Y-87122000D03*
%TD*%
D14*
%TO.N,GND*%
%TO.C,H2*%
X56388000Y-83312000D03*
%TD*%
%TO.N,GND*%
%TO.C,H1*%
X38608000Y-83312000D03*
%TD*%
%TO.N,GND*%
%TO.C,H4*%
X56388000Y-129032000D03*
%TD*%
%TO.N,GND*%
%TO.C,H3*%
X38608000Y-129032000D03*
%TD*%
D15*
%TO.N,/VBUS_nRF*%
X45466000Y-99822000D03*
X49784048Y-99822000D03*
%TO.N,GND*%
X54102000Y-98806000D03*
X48768000Y-96266000D03*
X43180000Y-122936000D03*
X38100000Y-118872000D03*
X38100000Y-122682000D03*
X53594000Y-121158000D03*
X52832000Y-124206000D03*
X49784000Y-116332000D03*
X51308000Y-116332000D03*
X45974000Y-90170000D03*
X53340000Y-94234000D03*
X42075019Y-94234000D03*
X44958000Y-103886000D03*
X49530000Y-103886000D03*
D16*
X47696870Y-103664044D03*
X42164000Y-112522000D03*
X42164000Y-110998000D03*
X46482000Y-112776000D03*
D15*
X48768000Y-90170000D03*
X44704000Y-85852000D03*
X50037976Y-86868000D03*
X41402014Y-81534000D03*
D16*
%TO.N,/RX*%
X54356000Y-99822000D03*
%TO.N,/TX*%
X53815486Y-101124514D03*
%TO.N,/RESET*%
X51562000Y-110490000D03*
D15*
%TO.N,/VDD_nRF*%
X43180000Y-118618000D03*
X42926000Y-99822000D03*
X49530000Y-98552000D03*
D16*
X44958000Y-112776000D03*
D15*
%TO.N,/VBUS*%
X49276000Y-127762000D03*
X45720000Y-127762000D03*
X50038000Y-108204000D03*
X53594000Y-115570000D03*
X41528995Y-115442995D03*
D16*
%TO.N,/CC1*%
X49022000Y-119888000D03*
X46736000Y-120650000D03*
D15*
%TO.N,/VDDH*%
X45466000Y-92820998D03*
X44704000Y-96520000D03*
X44698077Y-92821516D03*
X43799934Y-96520000D03*
D16*
%TO.N,/SWCLK*%
X47728743Y-95536510D03*
X47752000Y-91948000D03*
%TO.N,/SWDIO*%
X46864485Y-96648485D03*
X46736000Y-91948000D03*
%TO.N,/P0.19*%
X52070988Y-91596720D03*
%TO.N,/P0.13*%
X51918249Y-90669376D03*
%TO.N,/P0.15*%
X51562000Y-89916000D03*
%TO.N,/P0.17*%
X51206167Y-89052167D03*
%TO.N,/P0.21*%
X50545988Y-88392000D03*
%TO.N,/NFC2*%
X51562000Y-87630000D03*
%TO.N,/NFC1*%
X51563199Y-86612801D03*
%TD*%
D17*
%TO.N,/VDDH*%
X45466000Y-95758000D02*
X44704000Y-96520000D01*
X45466000Y-92820998D02*
X45466000Y-95758000D01*
X44698077Y-95621857D02*
X43799934Y-96520000D01*
X44698077Y-92821516D02*
X44698077Y-95621857D01*
%TD*%
D18*
%TO.N,/VDD_nRF*%
X54867651Y-81459450D02*
X54535450Y-81791651D01*
X54274440Y-82182279D01*
X54094654Y-82616321D01*
X54003000Y-83077098D01*
X54003000Y-83546902D01*
X54094654Y-84007679D01*
X54274440Y-84441721D01*
X54535450Y-84832349D01*
X54867651Y-85164550D01*
X55258279Y-85425560D01*
X55692321Y-85605346D01*
X56153098Y-85697000D01*
X56536689Y-85697000D01*
X56453506Y-85741463D01*
X56356815Y-85820815D01*
X56277463Y-85917506D01*
X56218498Y-86027820D01*
X56182188Y-86147518D01*
X56169928Y-86272000D01*
X56169928Y-87972000D01*
X56182188Y-88096482D01*
X56218498Y-88216180D01*
X56277463Y-88326494D01*
X56356815Y-88423185D01*
X56453506Y-88502537D01*
X56563820Y-88561502D01*
X56636380Y-88583513D01*
X56504525Y-88715368D01*
X56342010Y-88958589D01*
X56230068Y-89228842D01*
X56173000Y-89515740D01*
X56173000Y-89808260D01*
X56230068Y-90095158D01*
X56342010Y-90365411D01*
X56504525Y-90608632D01*
X56711368Y-90815475D01*
X56885760Y-90932000D01*
X56711368Y-91048525D01*
X56504525Y-91255368D01*
X56342010Y-91498589D01*
X56230068Y-91768842D01*
X56173000Y-92055740D01*
X56173000Y-92348260D01*
X56230068Y-92635158D01*
X56342010Y-92905411D01*
X56504525Y-93148632D01*
X56711368Y-93355475D01*
X56885760Y-93472000D01*
X56711368Y-93588525D01*
X56504525Y-93795368D01*
X56342010Y-94038589D01*
X56230068Y-94308842D01*
X56173000Y-94595740D01*
X56173000Y-94888260D01*
X56230068Y-95175158D01*
X56342010Y-95445411D01*
X56504525Y-95688632D01*
X56711368Y-95895475D01*
X56885760Y-96012000D01*
X56711368Y-96128525D01*
X56504525Y-96335368D01*
X56342010Y-96578589D01*
X56230068Y-96848842D01*
X56173000Y-97135740D01*
X56173000Y-97428260D01*
X56230068Y-97715158D01*
X56342010Y-97985411D01*
X56504525Y-98228632D01*
X56711368Y-98435475D01*
X56885760Y-98552000D01*
X56711368Y-98668525D01*
X56504525Y-98875368D01*
X56342010Y-99118589D01*
X56230068Y-99388842D01*
X56173000Y-99675740D01*
X56173000Y-99968260D01*
X56230068Y-100255158D01*
X56342010Y-100525411D01*
X56504525Y-100768632D01*
X56711368Y-100975475D01*
X56885760Y-101092000D01*
X56711368Y-101208525D01*
X56504525Y-101415368D01*
X56342010Y-101658589D01*
X56230068Y-101928842D01*
X56173000Y-102215740D01*
X56173000Y-102508260D01*
X56230068Y-102795158D01*
X56342010Y-103065411D01*
X56504525Y-103308632D01*
X56711368Y-103515475D01*
X56885760Y-103632000D01*
X56711368Y-103748525D01*
X56504525Y-103955368D01*
X56342010Y-104198589D01*
X56230068Y-104468842D01*
X56173000Y-104755740D01*
X56173000Y-105048260D01*
X56230068Y-105335158D01*
X56342010Y-105605411D01*
X56504525Y-105848632D01*
X56711368Y-106055475D01*
X56885760Y-106172000D01*
X56711368Y-106288525D01*
X56504525Y-106495368D01*
X56342010Y-106738589D01*
X56230068Y-107008842D01*
X56173000Y-107295740D01*
X56173000Y-107588260D01*
X56230068Y-107875158D01*
X56342010Y-108145411D01*
X56504525Y-108388632D01*
X56711368Y-108595475D01*
X56885760Y-108712000D01*
X56711368Y-108828525D01*
X56504525Y-109035368D01*
X56342010Y-109278589D01*
X56230068Y-109548842D01*
X56173000Y-109835740D01*
X56173000Y-110128260D01*
X56230068Y-110415158D01*
X56342010Y-110685411D01*
X56504525Y-110928632D01*
X56711368Y-111135475D01*
X56885760Y-111252000D01*
X56711368Y-111368525D01*
X56504525Y-111575368D01*
X56342010Y-111818589D01*
X56230068Y-112088842D01*
X56173000Y-112375740D01*
X56173000Y-112668260D01*
X56230068Y-112955158D01*
X56342010Y-113225411D01*
X56504525Y-113468632D01*
X56711368Y-113675475D01*
X56885760Y-113792000D01*
X56711368Y-113908525D01*
X56504525Y-114115368D01*
X56342010Y-114358589D01*
X56230068Y-114628842D01*
X56173000Y-114915740D01*
X56173000Y-115208260D01*
X56230068Y-115495158D01*
X56342010Y-115765411D01*
X56504525Y-116008632D01*
X56711368Y-116215475D01*
X56885760Y-116332000D01*
X56711368Y-116448525D01*
X56504525Y-116655368D01*
X56342010Y-116898589D01*
X56230068Y-117168842D01*
X56173000Y-117455740D01*
X56173000Y-117748260D01*
X56230068Y-118035158D01*
X56342010Y-118305411D01*
X56504525Y-118548632D01*
X56711368Y-118755475D01*
X56893534Y-118877195D01*
X56776645Y-118946822D01*
X56560412Y-119141731D01*
X56386359Y-119375080D01*
X56261175Y-119637901D01*
X56216524Y-119785110D01*
X56337845Y-120015000D01*
X57531000Y-120015000D01*
X57531000Y-119995000D01*
X57785000Y-119995000D01*
X57785000Y-120015000D01*
X57805000Y-120015000D01*
X57805000Y-120269000D01*
X57785000Y-120269000D01*
X57785000Y-122555000D01*
X57805000Y-122555000D01*
X57805000Y-122809000D01*
X57785000Y-122809000D01*
X57785000Y-122829000D01*
X57531000Y-122829000D01*
X57531000Y-122809000D01*
X56337845Y-122809000D01*
X56216524Y-123038890D01*
X56261175Y-123186099D01*
X56386359Y-123448920D01*
X56560412Y-123682269D01*
X56776645Y-123877178D01*
X56893534Y-123946805D01*
X56711368Y-124068525D01*
X56504525Y-124275368D01*
X56342010Y-124518589D01*
X56230068Y-124788842D01*
X56173000Y-125075740D01*
X56173000Y-125368260D01*
X56230068Y-125655158D01*
X56342010Y-125925411D01*
X56504525Y-126168632D01*
X56711368Y-126375475D01*
X56954589Y-126537990D01*
X57224842Y-126649932D01*
X57511740Y-126707000D01*
X57804260Y-126707000D01*
X58091158Y-126649932D01*
X58268001Y-126576682D01*
X58268001Y-127552734D01*
X58240550Y-127511651D01*
X57908349Y-127179450D01*
X57517721Y-126918440D01*
X57083679Y-126738654D01*
X56622902Y-126647000D01*
X56153098Y-126647000D01*
X55692321Y-126738654D01*
X55258279Y-126918440D01*
X54867651Y-127179450D01*
X54535450Y-127511651D01*
X54274440Y-127902279D01*
X54094654Y-128336321D01*
X54003000Y-128797098D01*
X54003000Y-129266902D01*
X54094654Y-129727679D01*
X54274440Y-130161721D01*
X54535450Y-130552349D01*
X54867651Y-130884550D01*
X54908733Y-130912000D01*
X52947657Y-130912000D01*
X52953000Y-130857752D01*
X52953000Y-129746248D01*
X52936577Y-129579501D01*
X52871676Y-129365553D01*
X52766284Y-129168377D01*
X52624449Y-128995551D01*
X52451623Y-128853716D01*
X52254446Y-128748324D01*
X52040498Y-128683423D01*
X51818000Y-128661509D01*
X51595501Y-128683423D01*
X51381553Y-128748324D01*
X51184377Y-128853716D01*
X51011551Y-128995551D01*
X50869716Y-129168377D01*
X50764324Y-129365554D01*
X50699423Y-129579502D01*
X50683000Y-129746249D01*
X50683000Y-130857752D01*
X50688343Y-130912000D01*
X44307657Y-130912000D01*
X44313000Y-130857752D01*
X44313000Y-129746248D01*
X44296577Y-129579501D01*
X44231676Y-129365553D01*
X44126284Y-129168377D01*
X43984449Y-128995551D01*
X43811623Y-128853716D01*
X43614446Y-128748324D01*
X43400498Y-128683423D01*
X43178000Y-128661509D01*
X42955501Y-128683423D01*
X42741553Y-128748324D01*
X42544377Y-128853716D01*
X42371551Y-128995551D01*
X42229716Y-129168377D01*
X42124324Y-129365554D01*
X42059423Y-129579502D01*
X42043000Y-129746249D01*
X42043000Y-130857752D01*
X42048343Y-130912000D01*
X40087267Y-130912000D01*
X40128349Y-130884550D01*
X40460550Y-130552349D01*
X40721560Y-130161721D01*
X40901346Y-129727679D01*
X40993000Y-129266902D01*
X40993000Y-128797098D01*
X40901346Y-128336321D01*
X40721560Y-127902279D01*
X40460550Y-127511651D01*
X40128349Y-127179450D01*
X39737721Y-126918440D01*
X39303679Y-126738654D01*
X38842902Y-126647000D01*
X38373098Y-126647000D01*
X37912321Y-126738654D01*
X37478279Y-126918440D01*
X37087651Y-127179450D01*
X36755450Y-127511651D01*
X36728000Y-127552733D01*
X36728000Y-125540022D01*
X42018000Y-125540022D01*
X42018000Y-126703979D01*
X42034785Y-126874400D01*
X42101115Y-127093060D01*
X42208830Y-127294579D01*
X42353789Y-127471212D01*
X42530422Y-127616171D01*
X42731941Y-127723885D01*
X42950601Y-127790215D01*
X43178000Y-127812612D01*
X43405400Y-127790215D01*
X43624060Y-127723885D01*
X43825579Y-127616171D01*
X44002212Y-127471212D01*
X44054899Y-127407012D01*
X44153269Y-127472741D01*
X44327978Y-127545108D01*
X44513448Y-127582000D01*
X44700527Y-127582000D01*
X44685000Y-127660061D01*
X44685000Y-127863939D01*
X44724774Y-128063898D01*
X44802795Y-128252256D01*
X44916063Y-128421774D01*
X45060226Y-128565937D01*
X45229744Y-128679205D01*
X45418102Y-128757226D01*
X45618061Y-128797000D01*
X45821939Y-128797000D01*
X46021898Y-128757226D01*
X46210256Y-128679205D01*
X46379774Y-128565937D01*
X46523937Y-128421774D01*
X46637205Y-128252256D01*
X46715226Y-128063898D01*
X46755000Y-127863939D01*
X46755000Y-127660061D01*
X48241000Y-127660061D01*
X48241000Y-127863939D01*
X48280774Y-128063898D01*
X48358795Y-128252256D01*
X48472063Y-128421774D01*
X48616226Y-128565937D01*
X48785744Y-128679205D01*
X48974102Y-128757226D01*
X49174061Y-128797000D01*
X49377939Y-128797000D01*
X49577898Y-128757226D01*
X49766256Y-128679205D01*
X49935774Y-128565937D01*
X50079937Y-128421774D01*
X50193205Y-128252256D01*
X50271226Y-128063898D01*
X50311000Y-127863939D01*
X50311000Y-127660061D01*
X50295473Y-127582000D01*
X50482552Y-127582000D01*
X50668022Y-127545108D01*
X50842731Y-127472741D01*
X50941101Y-127407012D01*
X50993789Y-127471212D01*
X51170422Y-127616171D01*
X51371941Y-127723885D01*
X51590601Y-127790215D01*
X51818000Y-127812612D01*
X52045400Y-127790215D01*
X52264060Y-127723885D01*
X52465579Y-127616171D01*
X52642212Y-127471212D01*
X52787171Y-127294579D01*
X52894885Y-127093060D01*
X52961215Y-126874400D01*
X52978000Y-126703979D01*
X52978000Y-125540021D01*
X52961215Y-125369600D01*
X52922204Y-125241000D01*
X52933939Y-125241000D01*
X53133898Y-125201226D01*
X53322256Y-125123205D01*
X53491774Y-125009937D01*
X53635937Y-124865774D01*
X53749205Y-124696256D01*
X53827226Y-124507898D01*
X53867000Y-124307939D01*
X53867000Y-124104061D01*
X53827226Y-123904102D01*
X53749205Y-123715744D01*
X53635937Y-123546226D01*
X53491774Y-123402063D01*
X53322256Y-123288795D01*
X53133898Y-123210774D01*
X52933939Y-123171000D01*
X52730061Y-123171000D01*
X52530102Y-123210774D01*
X52341744Y-123288795D01*
X52172226Y-123402063D01*
X52028063Y-123546226D01*
X51914795Y-123715744D01*
X51836774Y-123904102D01*
X51797000Y-124104061D01*
X51797000Y-124307939D01*
X51821626Y-124431745D01*
X51818000Y-124431388D01*
X51590600Y-124453785D01*
X51371940Y-124520115D01*
X51170421Y-124627829D01*
X50993788Y-124772788D01*
X50848829Y-124949422D01*
X50741115Y-125150941D01*
X50674785Y-125369601D01*
X50658000Y-125540022D01*
X50658000Y-125696899D01*
X50482552Y-125662000D01*
X50293448Y-125662000D01*
X50107978Y-125698892D01*
X49933269Y-125771259D01*
X49776036Y-125876319D01*
X49642319Y-126010036D01*
X49537259Y-126167269D01*
X49464892Y-126341978D01*
X49428000Y-126527448D01*
X49428000Y-126716552D01*
X49432226Y-126737798D01*
X49377939Y-126727000D01*
X49174061Y-126727000D01*
X48974102Y-126766774D01*
X48785744Y-126844795D01*
X48616226Y-126958063D01*
X48472063Y-127102226D01*
X48358795Y-127271744D01*
X48280774Y-127460102D01*
X48241000Y-127660061D01*
X46755000Y-127660061D01*
X46715226Y-127460102D01*
X46637205Y-127271744D01*
X46523937Y-127102226D01*
X46379774Y-126958063D01*
X46210256Y-126844795D01*
X46021898Y-126766774D01*
X45821939Y-126727000D01*
X45618061Y-126727000D01*
X45563774Y-126737798D01*
X45568000Y-126716552D01*
X45568000Y-126527448D01*
X45531108Y-126341978D01*
X45458741Y-126167269D01*
X45353681Y-126010036D01*
X45219964Y-125876319D01*
X45062731Y-125771259D01*
X44888022Y-125698892D01*
X44702552Y-125662000D01*
X44513448Y-125662000D01*
X44338000Y-125696899D01*
X44338000Y-125540021D01*
X44321215Y-125369600D01*
X44254885Y-125150940D01*
X44147171Y-124949421D01*
X44002212Y-124772788D01*
X43825578Y-124627829D01*
X43624059Y-124520115D01*
X43405399Y-124453785D01*
X43178000Y-124431388D01*
X42950600Y-124453785D01*
X42731940Y-124520115D01*
X42530421Y-124627829D01*
X42353788Y-124772788D01*
X42208829Y-124949422D01*
X42101115Y-125150941D01*
X42034785Y-125369601D01*
X42018000Y-125540022D01*
X36728000Y-125540022D01*
X36728000Y-122580061D01*
X37065000Y-122580061D01*
X37065000Y-122783939D01*
X37104774Y-122983898D01*
X37182795Y-123172256D01*
X37296063Y-123341774D01*
X37440226Y-123485937D01*
X37609744Y-123599205D01*
X37798102Y-123677226D01*
X37998061Y-123717000D01*
X38201939Y-123717000D01*
X38401898Y-123677226D01*
X38590256Y-123599205D01*
X38759774Y-123485937D01*
X38903937Y-123341774D01*
X39017205Y-123172256D01*
X39095226Y-122983898D01*
X39125030Y-122834061D01*
X42145000Y-122834061D01*
X42145000Y-123037939D01*
X42184774Y-123237898D01*
X42262795Y-123426256D01*
X42376063Y-123595774D01*
X42520226Y-123739937D01*
X42689744Y-123853205D01*
X42878102Y-123931226D01*
X43078061Y-123971000D01*
X43281939Y-123971000D01*
X43481898Y-123931226D01*
X43670256Y-123853205D01*
X43839774Y-123739937D01*
X43983937Y-123595774D01*
X44097205Y-123426256D01*
X44175226Y-123237898D01*
X44215000Y-123037939D01*
X44215000Y-122834061D01*
X44175226Y-122634102D01*
X44097205Y-122445744D01*
X43983937Y-122276226D01*
X43839774Y-122132063D01*
X43670256Y-122018795D01*
X43481898Y-121940774D01*
X43281939Y-121901000D01*
X43078061Y-121901000D01*
X42878102Y-121940774D01*
X42689744Y-122018795D01*
X42520226Y-122132063D01*
X42376063Y-122276226D01*
X42262795Y-122445744D01*
X42184774Y-122634102D01*
X42145000Y-122834061D01*
X39125030Y-122834061D01*
X39135000Y-122783939D01*
X39135000Y-122580061D01*
X39095226Y-122380102D01*
X39017205Y-122191744D01*
X38903937Y-122022226D01*
X38759774Y-121878063D01*
X38590256Y-121764795D01*
X38401898Y-121686774D01*
X38201939Y-121647000D01*
X37998061Y-121647000D01*
X37798102Y-121686774D01*
X37609744Y-121764795D01*
X37440226Y-121878063D01*
X37296063Y-122022226D01*
X37182795Y-122191744D01*
X37104774Y-122380102D01*
X37065000Y-122580061D01*
X36728000Y-122580061D01*
X36728000Y-120560176D01*
X45824000Y-120560176D01*
X45824000Y-120739824D01*
X45859047Y-120916021D01*
X45927796Y-121081994D01*
X46027603Y-121231366D01*
X46154634Y-121358397D01*
X46304006Y-121458204D01*
X46469979Y-121526953D01*
X46646176Y-121562000D01*
X46825824Y-121562000D01*
X47002021Y-121526953D01*
X47167994Y-121458204D01*
X47317366Y-121358397D01*
X47444397Y-121231366D01*
X47544204Y-121081994D01*
X47554945Y-121056061D01*
X52559000Y-121056061D01*
X52559000Y-121259939D01*
X52598774Y-121459898D01*
X52676795Y-121648256D01*
X52790063Y-121817774D01*
X52934226Y-121961937D01*
X53103744Y-122075205D01*
X53292102Y-122153226D01*
X53492061Y-122193000D01*
X53695939Y-122193000D01*
X53895898Y-122153226D01*
X54084256Y-122075205D01*
X54253774Y-121961937D01*
X54397937Y-121817774D01*
X54511205Y-121648256D01*
X54589226Y-121459898D01*
X54629000Y-121259939D01*
X54629000Y-121056061D01*
X54589226Y-120856102D01*
X54511205Y-120667744D01*
X54398381Y-120498890D01*
X56216524Y-120498890D01*
X56261175Y-120646099D01*
X56386359Y-120908920D01*
X56560412Y-121142269D01*
X56776645Y-121337178D01*
X56902255Y-121412000D01*
X56776645Y-121486822D01*
X56560412Y-121681731D01*
X56386359Y-121915080D01*
X56261175Y-122177901D01*
X56216524Y-122325110D01*
X56337845Y-122555000D01*
X57531000Y-122555000D01*
X57531000Y-120269000D01*
X56337845Y-120269000D01*
X56216524Y-120498890D01*
X54398381Y-120498890D01*
X54397937Y-120498226D01*
X54253774Y-120354063D01*
X54084256Y-120240795D01*
X53895898Y-120162774D01*
X53695939Y-120123000D01*
X53492061Y-120123000D01*
X53292102Y-120162774D01*
X53103744Y-120240795D01*
X52934226Y-120354063D01*
X52790063Y-120498226D01*
X52676795Y-120667744D01*
X52598774Y-120856102D01*
X52559000Y-121056061D01*
X47554945Y-121056061D01*
X47612953Y-120916021D01*
X47648000Y-120739824D01*
X47648000Y-120560176D01*
X47612953Y-120383979D01*
X47544204Y-120218006D01*
X47444397Y-120068634D01*
X47317366Y-119941603D01*
X47167994Y-119841796D01*
X47062688Y-119798176D01*
X48110000Y-119798176D01*
X48110000Y-119977824D01*
X48145047Y-120154021D01*
X48213796Y-120319994D01*
X48313603Y-120469366D01*
X48440634Y-120596397D01*
X48590006Y-120696204D01*
X48755979Y-120764953D01*
X48932176Y-120800000D01*
X49111824Y-120800000D01*
X49288021Y-120764953D01*
X49453994Y-120696204D01*
X49603366Y-120596397D01*
X49730397Y-120469366D01*
X49830204Y-120319994D01*
X49898953Y-120154021D01*
X49934000Y-119977824D01*
X49934000Y-119798176D01*
X49898953Y-119621979D01*
X49830204Y-119456006D01*
X49730397Y-119306634D01*
X49603366Y-119179603D01*
X49453994Y-119079796D01*
X49288021Y-119011047D01*
X49111824Y-118976000D01*
X48932176Y-118976000D01*
X48755979Y-119011047D01*
X48590006Y-119079796D01*
X48440634Y-119179603D01*
X48313603Y-119306634D01*
X48213796Y-119456006D01*
X48145047Y-119621979D01*
X48110000Y-119798176D01*
X47062688Y-119798176D01*
X47002021Y-119773047D01*
X46825824Y-119738000D01*
X46646176Y-119738000D01*
X46469979Y-119773047D01*
X46304006Y-119841796D01*
X46154634Y-119941603D01*
X46027603Y-120068634D01*
X45927796Y-120218006D01*
X45859047Y-120383979D01*
X45824000Y-120560176D01*
X36728000Y-120560176D01*
X36728000Y-118770061D01*
X37065000Y-118770061D01*
X37065000Y-118973939D01*
X37104774Y-119173898D01*
X37182795Y-119362256D01*
X37296063Y-119531774D01*
X37440226Y-119675937D01*
X37609744Y-119789205D01*
X37798102Y-119867226D01*
X37998061Y-119907000D01*
X38201939Y-119907000D01*
X38401898Y-119867226D01*
X38590256Y-119789205D01*
X38759774Y-119675937D01*
X38903937Y-119531774D01*
X39017205Y-119362256D01*
X39095226Y-119173898D01*
X39135000Y-118973939D01*
X39135000Y-118770061D01*
X39095226Y-118570102D01*
X39017205Y-118381744D01*
X38903937Y-118212226D01*
X38759774Y-118068063D01*
X38590256Y-117954795D01*
X38401898Y-117876774D01*
X38201939Y-117837000D01*
X37998061Y-117837000D01*
X37798102Y-117876774D01*
X37609744Y-117954795D01*
X37440226Y-118068063D01*
X37296063Y-118212226D01*
X37182795Y-118381744D01*
X37104774Y-118570102D01*
X37065000Y-118770061D01*
X36728000Y-118770061D01*
X36728000Y-116413696D01*
X36981109Y-116503481D01*
X37211000Y-116382814D01*
X37211000Y-115189000D01*
X37465000Y-115189000D01*
X37465000Y-116382814D01*
X37694891Y-116503481D01*
X37969252Y-116406157D01*
X38219355Y-116257178D01*
X38435588Y-116062269D01*
X38609641Y-115828920D01*
X38734825Y-115566099D01*
X38779476Y-115418890D01*
X38738401Y-115341056D01*
X40493995Y-115341056D01*
X40493995Y-115544934D01*
X40533769Y-115744893D01*
X40611790Y-115933251D01*
X40725058Y-116102769D01*
X40869221Y-116246932D01*
X41038739Y-116360200D01*
X41227097Y-116438221D01*
X41427056Y-116477995D01*
X41630934Y-116477995D01*
X41830893Y-116438221D01*
X42019251Y-116360200D01*
X42188769Y-116246932D01*
X42205640Y-116230061D01*
X48749000Y-116230061D01*
X48749000Y-116433939D01*
X48788774Y-116633898D01*
X48866795Y-116822256D01*
X48980063Y-116991774D01*
X49124226Y-117135937D01*
X49293744Y-117249205D01*
X49482102Y-117327226D01*
X49682061Y-117367000D01*
X49885939Y-117367000D01*
X50085898Y-117327226D01*
X50274256Y-117249205D01*
X50443774Y-117135937D01*
X50546000Y-117033711D01*
X50648226Y-117135937D01*
X50817744Y-117249205D01*
X51006102Y-117327226D01*
X51206061Y-117367000D01*
X51409939Y-117367000D01*
X51609898Y-117327226D01*
X51798256Y-117249205D01*
X51967774Y-117135937D01*
X52111937Y-116991774D01*
X52225205Y-116822256D01*
X52303226Y-116633898D01*
X52343000Y-116433939D01*
X52343000Y-116230061D01*
X52303226Y-116030102D01*
X52225205Y-115841744D01*
X52111937Y-115672226D01*
X51967774Y-115528063D01*
X51877975Y-115468061D01*
X52559000Y-115468061D01*
X52559000Y-115671939D01*
X52598774Y-115871898D01*
X52676795Y-116060256D01*
X52790063Y-116229774D01*
X52934226Y-116373937D01*
X53103744Y-116487205D01*
X53292102Y-116565226D01*
X53492061Y-116605000D01*
X53695939Y-116605000D01*
X53895898Y-116565226D01*
X54084256Y-116487205D01*
X54253774Y-116373937D01*
X54397937Y-116229774D01*
X54511205Y-116060256D01*
X54589226Y-115871898D01*
X54629000Y-115671939D01*
X54629000Y-115468061D01*
X54589226Y-115268102D01*
X54511205Y-115079744D01*
X54397937Y-114910226D01*
X54253774Y-114766063D01*
X54084256Y-114652795D01*
X53895898Y-114574774D01*
X53695939Y-114535000D01*
X53492061Y-114535000D01*
X53292102Y-114574774D01*
X53103744Y-114652795D01*
X52934226Y-114766063D01*
X52790063Y-114910226D01*
X52676795Y-115079744D01*
X52598774Y-115268102D01*
X52559000Y-115468061D01*
X51877975Y-115468061D01*
X51798256Y-115414795D01*
X51609898Y-115336774D01*
X51409939Y-115297000D01*
X51206061Y-115297000D01*
X51006102Y-115336774D01*
X50817744Y-115414795D01*
X50648226Y-115528063D01*
X50546000Y-115630289D01*
X50443774Y-115528063D01*
X50274256Y-115414795D01*
X50085898Y-115336774D01*
X49885939Y-115297000D01*
X49682061Y-115297000D01*
X49482102Y-115336774D01*
X49293744Y-115414795D01*
X49124226Y-115528063D01*
X48980063Y-115672226D01*
X48866795Y-115841744D01*
X48788774Y-116030102D01*
X48749000Y-116230061D01*
X42205640Y-116230061D01*
X42332932Y-116102769D01*
X42446200Y-115933251D01*
X42524221Y-115744893D01*
X42563995Y-115544934D01*
X42563995Y-115341056D01*
X42524221Y-115141097D01*
X42446200Y-114952739D01*
X42332932Y-114783221D01*
X42188769Y-114639058D01*
X42019251Y-114525790D01*
X41830893Y-114447769D01*
X41630934Y-114407995D01*
X41427056Y-114407995D01*
X41227097Y-114447769D01*
X41038739Y-114525790D01*
X40869221Y-114639058D01*
X40725058Y-114783221D01*
X40611790Y-114952739D01*
X40533769Y-115141097D01*
X40493995Y-115341056D01*
X38738401Y-115341056D01*
X38658155Y-115189000D01*
X37465000Y-115189000D01*
X37211000Y-115189000D01*
X37191000Y-115189000D01*
X37191000Y-114935000D01*
X37211000Y-114935000D01*
X37211000Y-114915000D01*
X37465000Y-114915000D01*
X37465000Y-114935000D01*
X38658155Y-114935000D01*
X38779476Y-114705110D01*
X38734825Y-114557901D01*
X38609641Y-114295080D01*
X38435588Y-114061731D01*
X38219355Y-113866822D01*
X38102466Y-113797195D01*
X38284632Y-113675475D01*
X38491475Y-113468632D01*
X38653990Y-113225411D01*
X38765932Y-112955158D01*
X38823000Y-112668260D01*
X38823000Y-112375740D01*
X38765932Y-112088842D01*
X38653990Y-111818589D01*
X38491475Y-111575368D01*
X38284632Y-111368525D01*
X38110240Y-111252000D01*
X38284632Y-111135475D01*
X38491475Y-110928632D01*
X38505143Y-110908176D01*
X41252000Y-110908176D01*
X41252000Y-111087824D01*
X41287047Y-111264021D01*
X41355796Y-111429994D01*
X41455603Y-111579366D01*
X41582634Y-111706397D01*
X41662857Y-111760000D01*
X41582634Y-111813603D01*
X41455603Y-111940634D01*
X41355796Y-112090006D01*
X41287047Y-112255979D01*
X41252000Y-112432176D01*
X41252000Y-112611824D01*
X41287047Y-112788021D01*
X41355796Y-112953994D01*
X41455603Y-113103366D01*
X41582634Y-113230397D01*
X41732006Y-113330204D01*
X41897979Y-113398953D01*
X42074176Y-113434000D01*
X42253824Y-113434000D01*
X42430021Y-113398953D01*
X42595994Y-113330204D01*
X42745366Y-113230397D01*
X42872397Y-113103366D01*
X42972204Y-112953994D01*
X43040953Y-112788021D01*
X43061210Y-112686176D01*
X45570000Y-112686176D01*
X45570000Y-112865824D01*
X45605047Y-113042021D01*
X45673796Y-113207994D01*
X45773603Y-113357366D01*
X45900634Y-113484397D01*
X46050006Y-113584204D01*
X46215979Y-113652953D01*
X46392176Y-113688000D01*
X46571824Y-113688000D01*
X46748021Y-113652953D01*
X46913994Y-113584204D01*
X47063366Y-113484397D01*
X47190397Y-113357366D01*
X47290204Y-113207994D01*
X47358953Y-113042021D01*
X47394000Y-112865824D01*
X47394000Y-112686176D01*
X47358953Y-112509979D01*
X47290204Y-112344006D01*
X47190397Y-112194634D01*
X47063366Y-112067603D01*
X46913994Y-111967796D01*
X46748021Y-111899047D01*
X46571824Y-111864000D01*
X46392176Y-111864000D01*
X46215979Y-111899047D01*
X46050006Y-111967796D01*
X45900634Y-112067603D01*
X45773603Y-112194634D01*
X45673796Y-112344006D01*
X45605047Y-112509979D01*
X45570000Y-112686176D01*
X43061210Y-112686176D01*
X43076000Y-112611824D01*
X43076000Y-112432176D01*
X43040953Y-112255979D01*
X42972204Y-112090006D01*
X42872397Y-111940634D01*
X42745366Y-111813603D01*
X42665143Y-111760000D01*
X42745366Y-111706397D01*
X42872397Y-111579366D01*
X42972204Y-111429994D01*
X43040953Y-111264021D01*
X43076000Y-111087824D01*
X43076000Y-110908176D01*
X43040953Y-110731979D01*
X42972204Y-110566006D01*
X42872397Y-110416634D01*
X42855939Y-110400176D01*
X50650000Y-110400176D01*
X50650000Y-110579824D01*
X50685047Y-110756021D01*
X50753796Y-110921994D01*
X50853603Y-111071366D01*
X50980634Y-111198397D01*
X51130006Y-111298204D01*
X51295979Y-111366953D01*
X51472176Y-111402000D01*
X51651824Y-111402000D01*
X51828021Y-111366953D01*
X51993994Y-111298204D01*
X52143366Y-111198397D01*
X52270397Y-111071366D01*
X52370204Y-110921994D01*
X52438953Y-110756021D01*
X52474000Y-110579824D01*
X52474000Y-110400176D01*
X52438953Y-110223979D01*
X52370204Y-110058006D01*
X52270397Y-109908634D01*
X52143366Y-109781603D01*
X51993994Y-109681796D01*
X51828021Y-109613047D01*
X51651824Y-109578000D01*
X51472176Y-109578000D01*
X51295979Y-109613047D01*
X51130006Y-109681796D01*
X50980634Y-109781603D01*
X50853603Y-109908634D01*
X50753796Y-110058006D01*
X50685047Y-110223979D01*
X50650000Y-110400176D01*
X42855939Y-110400176D01*
X42745366Y-110289603D01*
X42595994Y-110189796D01*
X42430021Y-110121047D01*
X42253824Y-110086000D01*
X42074176Y-110086000D01*
X41897979Y-110121047D01*
X41732006Y-110189796D01*
X41582634Y-110289603D01*
X41455603Y-110416634D01*
X41355796Y-110566006D01*
X41287047Y-110731979D01*
X41252000Y-110908176D01*
X38505143Y-110908176D01*
X38653990Y-110685411D01*
X38765932Y-110415158D01*
X38823000Y-110128260D01*
X38823000Y-109835740D01*
X38765932Y-109548842D01*
X38653990Y-109278589D01*
X38491475Y-109035368D01*
X38284632Y-108828525D01*
X38110240Y-108712000D01*
X38284632Y-108595475D01*
X38491475Y-108388632D01*
X38653990Y-108145411D01*
X38671946Y-108102061D01*
X49003000Y-108102061D01*
X49003000Y-108305939D01*
X49042774Y-108505898D01*
X49120795Y-108694256D01*
X49234063Y-108863774D01*
X49378226Y-109007937D01*
X49547744Y-109121205D01*
X49736102Y-109199226D01*
X49936061Y-109239000D01*
X50139939Y-109239000D01*
X50339898Y-109199226D01*
X50528256Y-109121205D01*
X50697774Y-109007937D01*
X50841937Y-108863774D01*
X50955205Y-108694256D01*
X51033226Y-108505898D01*
X51073000Y-108305939D01*
X51073000Y-108102061D01*
X51033226Y-107902102D01*
X50955205Y-107713744D01*
X50841937Y-107544226D01*
X50697774Y-107400063D01*
X50528256Y-107286795D01*
X50339898Y-107208774D01*
X50139939Y-107169000D01*
X49936061Y-107169000D01*
X49736102Y-107208774D01*
X49547744Y-107286795D01*
X49378226Y-107400063D01*
X49234063Y-107544226D01*
X49120795Y-107713744D01*
X49042774Y-107902102D01*
X49003000Y-108102061D01*
X38671946Y-108102061D01*
X38765932Y-107875158D01*
X38823000Y-107588260D01*
X38823000Y-107295740D01*
X38765932Y-107008842D01*
X38653990Y-106738589D01*
X38491475Y-106495368D01*
X38284632Y-106288525D01*
X38110240Y-106172000D01*
X38284632Y-106055475D01*
X38491475Y-105848632D01*
X38653990Y-105605411D01*
X38765932Y-105335158D01*
X38823000Y-105048260D01*
X38823000Y-104755740D01*
X38765932Y-104468842D01*
X38653990Y-104198589D01*
X38491475Y-103955368D01*
X38320168Y-103784061D01*
X43923000Y-103784061D01*
X43923000Y-103987939D01*
X43962774Y-104187898D01*
X44040795Y-104376256D01*
X44154063Y-104545774D01*
X44298226Y-104689937D01*
X44467744Y-104803205D01*
X44656102Y-104881226D01*
X44856061Y-104921000D01*
X45059939Y-104921000D01*
X45259898Y-104881226D01*
X45448256Y-104803205D01*
X45617774Y-104689937D01*
X45761937Y-104545774D01*
X45875205Y-104376256D01*
X45953226Y-104187898D01*
X45993000Y-103987939D01*
X45993000Y-103784061D01*
X45953226Y-103584102D01*
X45949133Y-103574220D01*
X46784870Y-103574220D01*
X46784870Y-103753868D01*
X46819917Y-103930065D01*
X46888666Y-104096038D01*
X46988473Y-104245410D01*
X47115504Y-104372441D01*
X47264876Y-104472248D01*
X47430849Y-104540997D01*
X47607046Y-104576044D01*
X47786694Y-104576044D01*
X47962891Y-104540997D01*
X48128864Y-104472248D01*
X48278236Y-104372441D01*
X48405267Y-104245410D01*
X48505074Y-104096038D01*
X48512795Y-104077399D01*
X48534774Y-104187898D01*
X48612795Y-104376256D01*
X48726063Y-104545774D01*
X48870226Y-104689937D01*
X49039744Y-104803205D01*
X49228102Y-104881226D01*
X49428061Y-104921000D01*
X49631939Y-104921000D01*
X49831898Y-104881226D01*
X50020256Y-104803205D01*
X50189774Y-104689937D01*
X50333937Y-104545774D01*
X50447205Y-104376256D01*
X50525226Y-104187898D01*
X50565000Y-103987939D01*
X50565000Y-103784061D01*
X50525226Y-103584102D01*
X50447205Y-103395744D01*
X50333937Y-103226226D01*
X50189774Y-103082063D01*
X50020256Y-102968795D01*
X49831898Y-102890774D01*
X49631939Y-102851000D01*
X49428061Y-102851000D01*
X49228102Y-102890774D01*
X49039744Y-102968795D01*
X48870226Y-103082063D01*
X48726063Y-103226226D01*
X48612795Y-103395744D01*
X48586160Y-103460046D01*
X48573823Y-103398023D01*
X48505074Y-103232050D01*
X48405267Y-103082678D01*
X48278236Y-102955647D01*
X48128864Y-102855840D01*
X47962891Y-102787091D01*
X47786694Y-102752044D01*
X47607046Y-102752044D01*
X47430849Y-102787091D01*
X47264876Y-102855840D01*
X47115504Y-102955647D01*
X46988473Y-103082678D01*
X46888666Y-103232050D01*
X46819917Y-103398023D01*
X46784870Y-103574220D01*
X45949133Y-103574220D01*
X45875205Y-103395744D01*
X45761937Y-103226226D01*
X45617774Y-103082063D01*
X45448256Y-102968795D01*
X45259898Y-102890774D01*
X45059939Y-102851000D01*
X44856061Y-102851000D01*
X44656102Y-102890774D01*
X44467744Y-102968795D01*
X44298226Y-103082063D01*
X44154063Y-103226226D01*
X44040795Y-103395744D01*
X43962774Y-103584102D01*
X43923000Y-103784061D01*
X38320168Y-103784061D01*
X38284632Y-103748525D01*
X38110240Y-103632000D01*
X38284632Y-103515475D01*
X38491475Y-103308632D01*
X38653990Y-103065411D01*
X38765932Y-102795158D01*
X38823000Y-102508260D01*
X38823000Y-102215740D01*
X38765932Y-101928842D01*
X38653990Y-101658589D01*
X38491475Y-101415368D01*
X38284632Y-101208525D01*
X38110240Y-101092000D01*
X38196010Y-101034690D01*
X52903486Y-101034690D01*
X52903486Y-101214338D01*
X52938533Y-101390535D01*
X53007282Y-101556508D01*
X53107089Y-101705880D01*
X53234120Y-101832911D01*
X53383492Y-101932718D01*
X53549465Y-102001467D01*
X53725662Y-102036514D01*
X53905310Y-102036514D01*
X54081507Y-102001467D01*
X54247480Y-101932718D01*
X54396852Y-101832911D01*
X54523883Y-101705880D01*
X54623690Y-101556508D01*
X54692439Y-101390535D01*
X54727486Y-101214338D01*
X54727486Y-101034690D01*
X54692439Y-100858493D01*
X54625720Y-100697421D01*
X54787994Y-100630204D01*
X54937366Y-100530397D01*
X55064397Y-100403366D01*
X55164204Y-100253994D01*
X55232953Y-100088021D01*
X55268000Y-99911824D01*
X55268000Y-99732176D01*
X55232953Y-99555979D01*
X55164204Y-99390006D01*
X55064397Y-99240634D01*
X55048733Y-99224970D01*
X55097226Y-99107898D01*
X55137000Y-98907939D01*
X55137000Y-98704061D01*
X55097226Y-98504102D01*
X55019205Y-98315744D01*
X54905937Y-98146226D01*
X54761774Y-98002063D01*
X54592256Y-97888795D01*
X54403898Y-97810774D01*
X54203939Y-97771000D01*
X54000061Y-97771000D01*
X53800102Y-97810774D01*
X53611744Y-97888795D01*
X53442226Y-98002063D01*
X53298063Y-98146226D01*
X53184795Y-98315744D01*
X53106774Y-98504102D01*
X53067000Y-98704061D01*
X53067000Y-98907939D01*
X53106774Y-99107898D01*
X53184795Y-99296256D01*
X53298063Y-99465774D01*
X53442226Y-99609937D01*
X53465254Y-99625324D01*
X53444000Y-99732176D01*
X53444000Y-99911824D01*
X53479047Y-100088021D01*
X53545766Y-100249093D01*
X53383492Y-100316310D01*
X53234120Y-100416117D01*
X53107089Y-100543148D01*
X53007282Y-100692520D01*
X52938533Y-100858493D01*
X52903486Y-101034690D01*
X38196010Y-101034690D01*
X38284632Y-100975475D01*
X38491475Y-100768632D01*
X38653990Y-100525411D01*
X38765932Y-100255158D01*
X38823000Y-99968260D01*
X38823000Y-99720061D01*
X44431000Y-99720061D01*
X44431000Y-99923939D01*
X44470774Y-100123898D01*
X44548795Y-100312256D01*
X44662063Y-100481774D01*
X44806226Y-100625937D01*
X44975744Y-100739205D01*
X45164102Y-100817226D01*
X45364061Y-100857000D01*
X45567939Y-100857000D01*
X45767898Y-100817226D01*
X45956256Y-100739205D01*
X46125774Y-100625937D01*
X46269937Y-100481774D01*
X46383205Y-100312256D01*
X46461226Y-100123898D01*
X46501000Y-99923939D01*
X46501000Y-99720061D01*
X48749048Y-99720061D01*
X48749048Y-99923939D01*
X48788822Y-100123898D01*
X48866843Y-100312256D01*
X48980111Y-100481774D01*
X49124274Y-100625937D01*
X49293792Y-100739205D01*
X49482150Y-100817226D01*
X49682109Y-100857000D01*
X49885987Y-100857000D01*
X50085946Y-100817226D01*
X50274304Y-100739205D01*
X50443822Y-100625937D01*
X50587985Y-100481774D01*
X50701253Y-100312256D01*
X50779274Y-100123898D01*
X50819048Y-99923939D01*
X50819048Y-99720061D01*
X50779274Y-99520102D01*
X50701253Y-99331744D01*
X50587985Y-99162226D01*
X50443822Y-99018063D01*
X50274304Y-98904795D01*
X50085946Y-98826774D01*
X49885987Y-98787000D01*
X49682109Y-98787000D01*
X49482150Y-98826774D01*
X49293792Y-98904795D01*
X49124274Y-99018063D01*
X48980111Y-99162226D01*
X48866843Y-99331744D01*
X48788822Y-99520102D01*
X48749048Y-99720061D01*
X46501000Y-99720061D01*
X46461226Y-99520102D01*
X46383205Y-99331744D01*
X46269937Y-99162226D01*
X46125774Y-99018063D01*
X45956256Y-98904795D01*
X45767898Y-98826774D01*
X45567939Y-98787000D01*
X45364061Y-98787000D01*
X45164102Y-98826774D01*
X44975744Y-98904795D01*
X44806226Y-99018063D01*
X44662063Y-99162226D01*
X44548795Y-99331744D01*
X44470774Y-99520102D01*
X44431000Y-99720061D01*
X38823000Y-99720061D01*
X38823000Y-99675740D01*
X38765932Y-99388842D01*
X38653990Y-99118589D01*
X38491475Y-98875368D01*
X38284632Y-98668525D01*
X38110240Y-98552000D01*
X38284632Y-98435475D01*
X38491475Y-98228632D01*
X38653990Y-97985411D01*
X38765932Y-97715158D01*
X38823000Y-97428260D01*
X38823000Y-97135740D01*
X38765932Y-96848842D01*
X38653990Y-96578589D01*
X38546729Y-96418061D01*
X42764934Y-96418061D01*
X42764934Y-96621939D01*
X42804708Y-96821898D01*
X42882729Y-97010256D01*
X42995997Y-97179774D01*
X43140160Y-97323937D01*
X43309678Y-97437205D01*
X43498036Y-97515226D01*
X43697995Y-97555000D01*
X43901873Y-97555000D01*
X44101832Y-97515226D01*
X44251967Y-97453038D01*
X44402102Y-97515226D01*
X44602061Y-97555000D01*
X44805939Y-97555000D01*
X45005898Y-97515226D01*
X45194256Y-97437205D01*
X45363774Y-97323937D01*
X45507937Y-97179774D01*
X45621205Y-97010256D01*
X45699226Y-96821898D01*
X45710535Y-96765044D01*
X45961316Y-96514263D01*
X45952485Y-96558661D01*
X45952485Y-96738309D01*
X45987532Y-96914506D01*
X46056281Y-97080479D01*
X46156088Y-97229851D01*
X46283119Y-97356882D01*
X46432491Y-97456689D01*
X46598464Y-97525438D01*
X46774661Y-97560485D01*
X46954309Y-97560485D01*
X47130506Y-97525438D01*
X47296479Y-97456689D01*
X47445851Y-97356882D01*
X47572882Y-97229851D01*
X47672689Y-97080479D01*
X47741438Y-96914506D01*
X47776485Y-96738309D01*
X47776485Y-96576857D01*
X47850795Y-96756256D01*
X47964063Y-96925774D01*
X48108226Y-97069937D01*
X48277744Y-97183205D01*
X48466102Y-97261226D01*
X48666061Y-97301000D01*
X48869939Y-97301000D01*
X49069898Y-97261226D01*
X49258256Y-97183205D01*
X49427774Y-97069937D01*
X49571937Y-96925774D01*
X49685205Y-96756256D01*
X49763226Y-96567898D01*
X49803000Y-96367939D01*
X49803000Y-96164061D01*
X49763226Y-95964102D01*
X49685205Y-95775744D01*
X49571937Y-95606226D01*
X49427774Y-95462063D01*
X49258256Y-95348795D01*
X49069898Y-95270774D01*
X48869939Y-95231000D01*
X48666061Y-95231000D01*
X48595179Y-95245099D01*
X48536947Y-95104516D01*
X48437140Y-94955144D01*
X48310109Y-94828113D01*
X48160737Y-94728306D01*
X47994764Y-94659557D01*
X47818567Y-94624510D01*
X47638919Y-94624510D01*
X47462722Y-94659557D01*
X47296749Y-94728306D01*
X47147377Y-94828113D01*
X47020346Y-94955144D01*
X46920539Y-95104516D01*
X46851790Y-95270489D01*
X46816743Y-95446686D01*
X46816743Y-95626334D01*
X46838653Y-95736485D01*
X46774661Y-95736485D01*
X46598464Y-95771532D01*
X46432491Y-95840281D01*
X46341168Y-95901301D01*
X46351000Y-95801477D01*
X46351000Y-95801469D01*
X46355281Y-95758000D01*
X46351000Y-95714531D01*
X46351000Y-94132061D01*
X52305000Y-94132061D01*
X52305000Y-94335939D01*
X52344774Y-94535898D01*
X52422795Y-94724256D01*
X52536063Y-94893774D01*
X52680226Y-95037937D01*
X52849744Y-95151205D01*
X53038102Y-95229226D01*
X53238061Y-95269000D01*
X53441939Y-95269000D01*
X53641898Y-95229226D01*
X53830256Y-95151205D01*
X53999774Y-95037937D01*
X54143937Y-94893774D01*
X54257205Y-94724256D01*
X54335226Y-94535898D01*
X54375000Y-94335939D01*
X54375000Y-94132061D01*
X54335226Y-93932102D01*
X54257205Y-93743744D01*
X54143937Y-93574226D01*
X53999774Y-93430063D01*
X53830256Y-93316795D01*
X53641898Y-93238774D01*
X53441939Y-93199000D01*
X53238061Y-93199000D01*
X53038102Y-93238774D01*
X52849744Y-93316795D01*
X52680226Y-93430063D01*
X52536063Y-93574226D01*
X52422795Y-93743744D01*
X52344774Y-93932102D01*
X52305000Y-94132061D01*
X46351000Y-94132061D01*
X46351000Y-93359452D01*
X46383205Y-93311254D01*
X46461226Y-93122896D01*
X46501000Y-92922937D01*
X46501000Y-92831123D01*
X46646176Y-92860000D01*
X46825824Y-92860000D01*
X47002021Y-92824953D01*
X47167994Y-92756204D01*
X47244000Y-92705419D01*
X47320006Y-92756204D01*
X47485979Y-92824953D01*
X47662176Y-92860000D01*
X47841824Y-92860000D01*
X48018021Y-92824953D01*
X48183994Y-92756204D01*
X48333366Y-92656397D01*
X48460397Y-92529366D01*
X48560204Y-92379994D01*
X48628953Y-92214021D01*
X48664000Y-92037824D01*
X48664000Y-91858176D01*
X48628953Y-91681979D01*
X48560204Y-91516006D01*
X48460397Y-91366634D01*
X48333366Y-91239603D01*
X48183994Y-91139796D01*
X48018021Y-91071047D01*
X47841824Y-91036000D01*
X47662176Y-91036000D01*
X47485979Y-91071047D01*
X47320006Y-91139796D01*
X47244000Y-91190581D01*
X47167994Y-91139796D01*
X47002021Y-91071047D01*
X46825824Y-91036000D01*
X46646176Y-91036000D01*
X46496262Y-91065819D01*
X46633774Y-90973937D01*
X46777937Y-90829774D01*
X46891205Y-90660256D01*
X46969226Y-90471898D01*
X47009000Y-90271939D01*
X47009000Y-90068061D01*
X47733000Y-90068061D01*
X47733000Y-90271939D01*
X47772774Y-90471898D01*
X47850795Y-90660256D01*
X47964063Y-90829774D01*
X48108226Y-90973937D01*
X48277744Y-91087205D01*
X48466102Y-91165226D01*
X48666061Y-91205000D01*
X48869939Y-91205000D01*
X49069898Y-91165226D01*
X49258256Y-91087205D01*
X49427774Y-90973937D01*
X49571937Y-90829774D01*
X49685205Y-90660256D01*
X49763226Y-90471898D01*
X49803000Y-90271939D01*
X49803000Y-90068061D01*
X49763226Y-89868102D01*
X49685205Y-89679744D01*
X49571937Y-89510226D01*
X49427774Y-89366063D01*
X49258256Y-89252795D01*
X49069898Y-89174774D01*
X48869939Y-89135000D01*
X48666061Y-89135000D01*
X48466102Y-89174774D01*
X48277744Y-89252795D01*
X48108226Y-89366063D01*
X47964063Y-89510226D01*
X47850795Y-89679744D01*
X47772774Y-89868102D01*
X47733000Y-90068061D01*
X47009000Y-90068061D01*
X46969226Y-89868102D01*
X46891205Y-89679744D01*
X46777937Y-89510226D01*
X46633774Y-89366063D01*
X46464256Y-89252795D01*
X46275898Y-89174774D01*
X46075939Y-89135000D01*
X45872061Y-89135000D01*
X45672102Y-89174774D01*
X45483744Y-89252795D01*
X45314226Y-89366063D01*
X45170063Y-89510226D01*
X45056795Y-89679744D01*
X44978774Y-89868102D01*
X44939000Y-90068061D01*
X44939000Y-90271939D01*
X44978774Y-90471898D01*
X45056795Y-90660256D01*
X45170063Y-90829774D01*
X45314226Y-90973937D01*
X45483744Y-91087205D01*
X45672102Y-91165226D01*
X45872061Y-91205000D01*
X46075939Y-91205000D01*
X46261729Y-91168044D01*
X46154634Y-91239603D01*
X46027603Y-91366634D01*
X45927796Y-91516006D01*
X45859047Y-91681979D01*
X45825684Y-91849708D01*
X45767898Y-91825772D01*
X45567939Y-91785998D01*
X45364061Y-91785998D01*
X45164102Y-91825772D01*
X45081413Y-91860023D01*
X44999975Y-91826290D01*
X44800016Y-91786516D01*
X44596138Y-91786516D01*
X44396179Y-91826290D01*
X44207821Y-91904311D01*
X44038303Y-92017579D01*
X43894140Y-92161742D01*
X43780872Y-92331260D01*
X43702851Y-92519618D01*
X43663077Y-92719577D01*
X43663077Y-92923455D01*
X43702851Y-93123414D01*
X43780872Y-93311772D01*
X43813077Y-93359971D01*
X43813078Y-95255277D01*
X43554891Y-95513465D01*
X43498036Y-95524774D01*
X43309678Y-95602795D01*
X43140160Y-95716063D01*
X42995997Y-95860226D01*
X42882729Y-96029744D01*
X42804708Y-96218102D01*
X42764934Y-96418061D01*
X38546729Y-96418061D01*
X38491475Y-96335368D01*
X38284632Y-96128525D01*
X38110240Y-96012000D01*
X38284632Y-95895475D01*
X38491475Y-95688632D01*
X38653990Y-95445411D01*
X38765932Y-95175158D01*
X38823000Y-94888260D01*
X38823000Y-94595740D01*
X38765932Y-94308842D01*
X38692708Y-94132061D01*
X41040019Y-94132061D01*
X41040019Y-94335939D01*
X41079793Y-94535898D01*
X41157814Y-94724256D01*
X41271082Y-94893774D01*
X41415245Y-95037937D01*
X41584763Y-95151205D01*
X41773121Y-95229226D01*
X41973080Y-95269000D01*
X42176958Y-95269000D01*
X42376917Y-95229226D01*
X42565275Y-95151205D01*
X42734793Y-95037937D01*
X42878956Y-94893774D01*
X42992224Y-94724256D01*
X43070245Y-94535898D01*
X43110019Y-94335939D01*
X43110019Y-94132061D01*
X43070245Y-93932102D01*
X42992224Y-93743744D01*
X42878956Y-93574226D01*
X42734793Y-93430063D01*
X42565275Y-93316795D01*
X42376917Y-93238774D01*
X42176958Y-93199000D01*
X41973080Y-93199000D01*
X41773121Y-93238774D01*
X41584763Y-93316795D01*
X41415245Y-93430063D01*
X41271082Y-93574226D01*
X41157814Y-93743744D01*
X41079793Y-93932102D01*
X41040019Y-94132061D01*
X38692708Y-94132061D01*
X38653990Y-94038589D01*
X38491475Y-93795368D01*
X38284632Y-93588525D01*
X38110240Y-93472000D01*
X38284632Y-93355475D01*
X38491475Y-93148632D01*
X38653990Y-92905411D01*
X38765932Y-92635158D01*
X38823000Y-92348260D01*
X38823000Y-92055740D01*
X38765932Y-91768842D01*
X38653990Y-91498589D01*
X38491475Y-91255368D01*
X38284632Y-91048525D01*
X38110240Y-90932000D01*
X38284632Y-90815475D01*
X38491475Y-90608632D01*
X38653990Y-90365411D01*
X38765932Y-90095158D01*
X38823000Y-89808260D01*
X38823000Y-89515740D01*
X38765932Y-89228842D01*
X38653990Y-88958589D01*
X38491475Y-88715368D01*
X38359620Y-88583513D01*
X38432180Y-88561502D01*
X38542494Y-88502537D01*
X38639185Y-88423185D01*
X38718537Y-88326494D01*
X38777502Y-88216180D01*
X38813812Y-88096482D01*
X38826072Y-87972000D01*
X38826072Y-86272000D01*
X38813812Y-86147518D01*
X38777502Y-86027820D01*
X38718537Y-85917506D01*
X38639185Y-85820815D01*
X38552971Y-85750061D01*
X43669000Y-85750061D01*
X43669000Y-85953939D01*
X43708774Y-86153898D01*
X43786795Y-86342256D01*
X43900063Y-86511774D01*
X44044226Y-86655937D01*
X44213744Y-86769205D01*
X44402102Y-86847226D01*
X44602061Y-86887000D01*
X44805939Y-86887000D01*
X45005898Y-86847226D01*
X45194256Y-86769205D01*
X45198961Y-86766061D01*
X49002976Y-86766061D01*
X49002976Y-86969939D01*
X49042750Y-87169898D01*
X49120771Y-87358256D01*
X49234039Y-87527774D01*
X49378202Y-87671937D01*
X49547720Y-87785205D01*
X49736078Y-87863226D01*
X49794664Y-87874879D01*
X49737784Y-87960006D01*
X49669035Y-88125979D01*
X49633988Y-88302176D01*
X49633988Y-88481824D01*
X49669035Y-88658021D01*
X49737784Y-88823994D01*
X49837591Y-88973366D01*
X49964622Y-89100397D01*
X50113994Y-89200204D01*
X50279967Y-89268953D01*
X50321046Y-89277124D01*
X50329214Y-89318188D01*
X50397963Y-89484161D01*
X50497770Y-89633533D01*
X50624801Y-89760564D01*
X50658564Y-89783123D01*
X50650000Y-89826176D01*
X50650000Y-90005824D01*
X50685047Y-90182021D01*
X50753796Y-90347994D01*
X50853603Y-90497366D01*
X50980634Y-90624397D01*
X51006249Y-90641512D01*
X51006249Y-90759200D01*
X51041296Y-90935397D01*
X51110045Y-91101370D01*
X51209852Y-91250742D01*
X51222087Y-91262977D01*
X51194035Y-91330699D01*
X51158988Y-91506896D01*
X51158988Y-91686544D01*
X51194035Y-91862741D01*
X51262784Y-92028714D01*
X51362591Y-92178086D01*
X51489622Y-92305117D01*
X51638994Y-92404924D01*
X51804967Y-92473673D01*
X51981164Y-92508720D01*
X52160812Y-92508720D01*
X52337009Y-92473673D01*
X52502982Y-92404924D01*
X52652354Y-92305117D01*
X52779385Y-92178086D01*
X52879192Y-92028714D01*
X52947941Y-91862741D01*
X52982988Y-91686544D01*
X52982988Y-91506896D01*
X52947941Y-91330699D01*
X52879192Y-91164726D01*
X52779385Y-91015354D01*
X52767150Y-91003119D01*
X52795202Y-90935397D01*
X52830249Y-90759200D01*
X52830249Y-90579552D01*
X52795202Y-90403355D01*
X52726453Y-90237382D01*
X52626646Y-90088010D01*
X52499615Y-89960979D01*
X52474000Y-89943864D01*
X52474000Y-89826176D01*
X52438953Y-89649979D01*
X52370204Y-89484006D01*
X52270397Y-89334634D01*
X52143366Y-89207603D01*
X52109603Y-89185044D01*
X52118167Y-89141991D01*
X52118167Y-88962343D01*
X52083120Y-88786146D01*
X52014371Y-88620173D01*
X51914723Y-88471039D01*
X51993994Y-88438204D01*
X52143366Y-88338397D01*
X52270397Y-88211366D01*
X52370204Y-88061994D01*
X52438953Y-87896021D01*
X52474000Y-87719824D01*
X52474000Y-87540176D01*
X52438953Y-87363979D01*
X52370204Y-87198006D01*
X52319617Y-87122298D01*
X52371403Y-87044795D01*
X52440152Y-86878822D01*
X52475199Y-86702625D01*
X52475199Y-86522977D01*
X52440152Y-86346780D01*
X52371403Y-86180807D01*
X52271596Y-86031435D01*
X52144565Y-85904404D01*
X51995193Y-85804597D01*
X51829220Y-85735848D01*
X51653023Y-85700801D01*
X51473375Y-85700801D01*
X51297178Y-85735848D01*
X51131205Y-85804597D01*
X50981833Y-85904404D01*
X50854802Y-86031435D01*
X50778827Y-86145140D01*
X50697750Y-86064063D01*
X50528232Y-85950795D01*
X50339874Y-85872774D01*
X50139915Y-85833000D01*
X49936037Y-85833000D01*
X49736078Y-85872774D01*
X49547720Y-85950795D01*
X49378202Y-86064063D01*
X49234039Y-86208226D01*
X49120771Y-86377744D01*
X49042750Y-86566102D01*
X49002976Y-86766061D01*
X45198961Y-86766061D01*
X45363774Y-86655937D01*
X45507937Y-86511774D01*
X45621205Y-86342256D01*
X45699226Y-86153898D01*
X45739000Y-85953939D01*
X45739000Y-85750061D01*
X45699226Y-85550102D01*
X45621205Y-85361744D01*
X45507937Y-85192226D01*
X45363774Y-85048063D01*
X45194256Y-84934795D01*
X45005898Y-84856774D01*
X44805939Y-84817000D01*
X44602061Y-84817000D01*
X44402102Y-84856774D01*
X44213744Y-84934795D01*
X44044226Y-85048063D01*
X43900063Y-85192226D01*
X43786795Y-85361744D01*
X43708774Y-85550102D01*
X43669000Y-85750061D01*
X38552971Y-85750061D01*
X38542494Y-85741463D01*
X38459311Y-85697000D01*
X38842902Y-85697000D01*
X39303679Y-85605346D01*
X39737721Y-85425560D01*
X40128349Y-85164550D01*
X40460550Y-84832349D01*
X40721560Y-84441721D01*
X40901346Y-84007679D01*
X40993000Y-83546902D01*
X40993000Y-83077098D01*
X40901346Y-82616321D01*
X40802795Y-82378399D01*
X40911758Y-82451205D01*
X41100116Y-82529226D01*
X41300075Y-82569000D01*
X41503953Y-82569000D01*
X41703912Y-82529226D01*
X41892270Y-82451205D01*
X42061788Y-82337937D01*
X42205951Y-82193774D01*
X42319219Y-82024256D01*
X42397240Y-81835898D01*
X42437014Y-81635939D01*
X42437014Y-81432061D01*
X42437002Y-81432000D01*
X54908733Y-81432000D01*
X54867651Y-81459450D01*
%TA.AperFunction,Conductor*%
D19*
G36*
X54867651Y-81459450D02*
G01*
X54535450Y-81791651D01*
X54274440Y-82182279D01*
X54094654Y-82616321D01*
X54003000Y-83077098D01*
X54003000Y-83546902D01*
X54094654Y-84007679D01*
X54274440Y-84441721D01*
X54535450Y-84832349D01*
X54867651Y-85164550D01*
X55258279Y-85425560D01*
X55692321Y-85605346D01*
X56153098Y-85697000D01*
X56536689Y-85697000D01*
X56453506Y-85741463D01*
X56356815Y-85820815D01*
X56277463Y-85917506D01*
X56218498Y-86027820D01*
X56182188Y-86147518D01*
X56169928Y-86272000D01*
X56169928Y-87972000D01*
X56182188Y-88096482D01*
X56218498Y-88216180D01*
X56277463Y-88326494D01*
X56356815Y-88423185D01*
X56453506Y-88502537D01*
X56563820Y-88561502D01*
X56636380Y-88583513D01*
X56504525Y-88715368D01*
X56342010Y-88958589D01*
X56230068Y-89228842D01*
X56173000Y-89515740D01*
X56173000Y-89808260D01*
X56230068Y-90095158D01*
X56342010Y-90365411D01*
X56504525Y-90608632D01*
X56711368Y-90815475D01*
X56885760Y-90932000D01*
X56711368Y-91048525D01*
X56504525Y-91255368D01*
X56342010Y-91498589D01*
X56230068Y-91768842D01*
X56173000Y-92055740D01*
X56173000Y-92348260D01*
X56230068Y-92635158D01*
X56342010Y-92905411D01*
X56504525Y-93148632D01*
X56711368Y-93355475D01*
X56885760Y-93472000D01*
X56711368Y-93588525D01*
X56504525Y-93795368D01*
X56342010Y-94038589D01*
X56230068Y-94308842D01*
X56173000Y-94595740D01*
X56173000Y-94888260D01*
X56230068Y-95175158D01*
X56342010Y-95445411D01*
X56504525Y-95688632D01*
X56711368Y-95895475D01*
X56885760Y-96012000D01*
X56711368Y-96128525D01*
X56504525Y-96335368D01*
X56342010Y-96578589D01*
X56230068Y-96848842D01*
X56173000Y-97135740D01*
X56173000Y-97428260D01*
X56230068Y-97715158D01*
X56342010Y-97985411D01*
X56504525Y-98228632D01*
X56711368Y-98435475D01*
X56885760Y-98552000D01*
X56711368Y-98668525D01*
X56504525Y-98875368D01*
X56342010Y-99118589D01*
X56230068Y-99388842D01*
X56173000Y-99675740D01*
X56173000Y-99968260D01*
X56230068Y-100255158D01*
X56342010Y-100525411D01*
X56504525Y-100768632D01*
X56711368Y-100975475D01*
X56885760Y-101092000D01*
X56711368Y-101208525D01*
X56504525Y-101415368D01*
X56342010Y-101658589D01*
X56230068Y-101928842D01*
X56173000Y-102215740D01*
X56173000Y-102508260D01*
X56230068Y-102795158D01*
X56342010Y-103065411D01*
X56504525Y-103308632D01*
X56711368Y-103515475D01*
X56885760Y-103632000D01*
X56711368Y-103748525D01*
X56504525Y-103955368D01*
X56342010Y-104198589D01*
X56230068Y-104468842D01*
X56173000Y-104755740D01*
X56173000Y-105048260D01*
X56230068Y-105335158D01*
X56342010Y-105605411D01*
X56504525Y-105848632D01*
X56711368Y-106055475D01*
X56885760Y-106172000D01*
X56711368Y-106288525D01*
X56504525Y-106495368D01*
X56342010Y-106738589D01*
X56230068Y-107008842D01*
X56173000Y-107295740D01*
X56173000Y-107588260D01*
X56230068Y-107875158D01*
X56342010Y-108145411D01*
X56504525Y-108388632D01*
X56711368Y-108595475D01*
X56885760Y-108712000D01*
X56711368Y-108828525D01*
X56504525Y-109035368D01*
X56342010Y-109278589D01*
X56230068Y-109548842D01*
X56173000Y-109835740D01*
X56173000Y-110128260D01*
X56230068Y-110415158D01*
X56342010Y-110685411D01*
X56504525Y-110928632D01*
X56711368Y-111135475D01*
X56885760Y-111252000D01*
X56711368Y-111368525D01*
X56504525Y-111575368D01*
X56342010Y-111818589D01*
X56230068Y-112088842D01*
X56173000Y-112375740D01*
X56173000Y-112668260D01*
X56230068Y-112955158D01*
X56342010Y-113225411D01*
X56504525Y-113468632D01*
X56711368Y-113675475D01*
X56885760Y-113792000D01*
X56711368Y-113908525D01*
X56504525Y-114115368D01*
X56342010Y-114358589D01*
X56230068Y-114628842D01*
X56173000Y-114915740D01*
X56173000Y-115208260D01*
X56230068Y-115495158D01*
X56342010Y-115765411D01*
X56504525Y-116008632D01*
X56711368Y-116215475D01*
X56885760Y-116332000D01*
X56711368Y-116448525D01*
X56504525Y-116655368D01*
X56342010Y-116898589D01*
X56230068Y-117168842D01*
X56173000Y-117455740D01*
X56173000Y-117748260D01*
X56230068Y-118035158D01*
X56342010Y-118305411D01*
X56504525Y-118548632D01*
X56711368Y-118755475D01*
X56893534Y-118877195D01*
X56776645Y-118946822D01*
X56560412Y-119141731D01*
X56386359Y-119375080D01*
X56261175Y-119637901D01*
X56216524Y-119785110D01*
X56337845Y-120015000D01*
X57531000Y-120015000D01*
X57531000Y-119995000D01*
X57785000Y-119995000D01*
X57785000Y-120015000D01*
X57805000Y-120015000D01*
X57805000Y-120269000D01*
X57785000Y-120269000D01*
X57785000Y-122555000D01*
X57805000Y-122555000D01*
X57805000Y-122809000D01*
X57785000Y-122809000D01*
X57785000Y-122829000D01*
X57531000Y-122829000D01*
X57531000Y-122809000D01*
X56337845Y-122809000D01*
X56216524Y-123038890D01*
X56261175Y-123186099D01*
X56386359Y-123448920D01*
X56560412Y-123682269D01*
X56776645Y-123877178D01*
X56893534Y-123946805D01*
X56711368Y-124068525D01*
X56504525Y-124275368D01*
X56342010Y-124518589D01*
X56230068Y-124788842D01*
X56173000Y-125075740D01*
X56173000Y-125368260D01*
X56230068Y-125655158D01*
X56342010Y-125925411D01*
X56504525Y-126168632D01*
X56711368Y-126375475D01*
X56954589Y-126537990D01*
X57224842Y-126649932D01*
X57511740Y-126707000D01*
X57804260Y-126707000D01*
X58091158Y-126649932D01*
X58268001Y-126576682D01*
X58268001Y-127552734D01*
X58240550Y-127511651D01*
X57908349Y-127179450D01*
X57517721Y-126918440D01*
X57083679Y-126738654D01*
X56622902Y-126647000D01*
X56153098Y-126647000D01*
X55692321Y-126738654D01*
X55258279Y-126918440D01*
X54867651Y-127179450D01*
X54535450Y-127511651D01*
X54274440Y-127902279D01*
X54094654Y-128336321D01*
X54003000Y-128797098D01*
X54003000Y-129266902D01*
X54094654Y-129727679D01*
X54274440Y-130161721D01*
X54535450Y-130552349D01*
X54867651Y-130884550D01*
X54908733Y-130912000D01*
X52947657Y-130912000D01*
X52953000Y-130857752D01*
X52953000Y-129746248D01*
X52936577Y-129579501D01*
X52871676Y-129365553D01*
X52766284Y-129168377D01*
X52624449Y-128995551D01*
X52451623Y-128853716D01*
X52254446Y-128748324D01*
X52040498Y-128683423D01*
X51818000Y-128661509D01*
X51595501Y-128683423D01*
X51381553Y-128748324D01*
X51184377Y-128853716D01*
X51011551Y-128995551D01*
X50869716Y-129168377D01*
X50764324Y-129365554D01*
X50699423Y-129579502D01*
X50683000Y-129746249D01*
X50683000Y-130857752D01*
X50688343Y-130912000D01*
X44307657Y-130912000D01*
X44313000Y-130857752D01*
X44313000Y-129746248D01*
X44296577Y-129579501D01*
X44231676Y-129365553D01*
X44126284Y-129168377D01*
X43984449Y-128995551D01*
X43811623Y-128853716D01*
X43614446Y-128748324D01*
X43400498Y-128683423D01*
X43178000Y-128661509D01*
X42955501Y-128683423D01*
X42741553Y-128748324D01*
X42544377Y-128853716D01*
X42371551Y-128995551D01*
X42229716Y-129168377D01*
X42124324Y-129365554D01*
X42059423Y-129579502D01*
X42043000Y-129746249D01*
X42043000Y-130857752D01*
X42048343Y-130912000D01*
X40087267Y-130912000D01*
X40128349Y-130884550D01*
X40460550Y-130552349D01*
X40721560Y-130161721D01*
X40901346Y-129727679D01*
X40993000Y-129266902D01*
X40993000Y-128797098D01*
X40901346Y-128336321D01*
X40721560Y-127902279D01*
X40460550Y-127511651D01*
X40128349Y-127179450D01*
X39737721Y-126918440D01*
X39303679Y-126738654D01*
X38842902Y-126647000D01*
X38373098Y-126647000D01*
X37912321Y-126738654D01*
X37478279Y-126918440D01*
X37087651Y-127179450D01*
X36755450Y-127511651D01*
X36728000Y-127552733D01*
X36728000Y-125540022D01*
X42018000Y-125540022D01*
X42018000Y-126703979D01*
X42034785Y-126874400D01*
X42101115Y-127093060D01*
X42208830Y-127294579D01*
X42353789Y-127471212D01*
X42530422Y-127616171D01*
X42731941Y-127723885D01*
X42950601Y-127790215D01*
X43178000Y-127812612D01*
X43405400Y-127790215D01*
X43624060Y-127723885D01*
X43825579Y-127616171D01*
X44002212Y-127471212D01*
X44054899Y-127407012D01*
X44153269Y-127472741D01*
X44327978Y-127545108D01*
X44513448Y-127582000D01*
X44700527Y-127582000D01*
X44685000Y-127660061D01*
X44685000Y-127863939D01*
X44724774Y-128063898D01*
X44802795Y-128252256D01*
X44916063Y-128421774D01*
X45060226Y-128565937D01*
X45229744Y-128679205D01*
X45418102Y-128757226D01*
X45618061Y-128797000D01*
X45821939Y-128797000D01*
X46021898Y-128757226D01*
X46210256Y-128679205D01*
X46379774Y-128565937D01*
X46523937Y-128421774D01*
X46637205Y-128252256D01*
X46715226Y-128063898D01*
X46755000Y-127863939D01*
X46755000Y-127660061D01*
X48241000Y-127660061D01*
X48241000Y-127863939D01*
X48280774Y-128063898D01*
X48358795Y-128252256D01*
X48472063Y-128421774D01*
X48616226Y-128565937D01*
X48785744Y-128679205D01*
X48974102Y-128757226D01*
X49174061Y-128797000D01*
X49377939Y-128797000D01*
X49577898Y-128757226D01*
X49766256Y-128679205D01*
X49935774Y-128565937D01*
X50079937Y-128421774D01*
X50193205Y-128252256D01*
X50271226Y-128063898D01*
X50311000Y-127863939D01*
X50311000Y-127660061D01*
X50295473Y-127582000D01*
X50482552Y-127582000D01*
X50668022Y-127545108D01*
X50842731Y-127472741D01*
X50941101Y-127407012D01*
X50993789Y-127471212D01*
X51170422Y-127616171D01*
X51371941Y-127723885D01*
X51590601Y-127790215D01*
X51818000Y-127812612D01*
X52045400Y-127790215D01*
X52264060Y-127723885D01*
X52465579Y-127616171D01*
X52642212Y-127471212D01*
X52787171Y-127294579D01*
X52894885Y-127093060D01*
X52961215Y-126874400D01*
X52978000Y-126703979D01*
X52978000Y-125540021D01*
X52961215Y-125369600D01*
X52922204Y-125241000D01*
X52933939Y-125241000D01*
X53133898Y-125201226D01*
X53322256Y-125123205D01*
X53491774Y-125009937D01*
X53635937Y-124865774D01*
X53749205Y-124696256D01*
X53827226Y-124507898D01*
X53867000Y-124307939D01*
X53867000Y-124104061D01*
X53827226Y-123904102D01*
X53749205Y-123715744D01*
X53635937Y-123546226D01*
X53491774Y-123402063D01*
X53322256Y-123288795D01*
X53133898Y-123210774D01*
X52933939Y-123171000D01*
X52730061Y-123171000D01*
X52530102Y-123210774D01*
X52341744Y-123288795D01*
X52172226Y-123402063D01*
X52028063Y-123546226D01*
X51914795Y-123715744D01*
X51836774Y-123904102D01*
X51797000Y-124104061D01*
X51797000Y-124307939D01*
X51821626Y-124431745D01*
X51818000Y-124431388D01*
X51590600Y-124453785D01*
X51371940Y-124520115D01*
X51170421Y-124627829D01*
X50993788Y-124772788D01*
X50848829Y-124949422D01*
X50741115Y-125150941D01*
X50674785Y-125369601D01*
X50658000Y-125540022D01*
X50658000Y-125696899D01*
X50482552Y-125662000D01*
X50293448Y-125662000D01*
X50107978Y-125698892D01*
X49933269Y-125771259D01*
X49776036Y-125876319D01*
X49642319Y-126010036D01*
X49537259Y-126167269D01*
X49464892Y-126341978D01*
X49428000Y-126527448D01*
X49428000Y-126716552D01*
X49432226Y-126737798D01*
X49377939Y-126727000D01*
X49174061Y-126727000D01*
X48974102Y-126766774D01*
X48785744Y-126844795D01*
X48616226Y-126958063D01*
X48472063Y-127102226D01*
X48358795Y-127271744D01*
X48280774Y-127460102D01*
X48241000Y-127660061D01*
X46755000Y-127660061D01*
X46715226Y-127460102D01*
X46637205Y-127271744D01*
X46523937Y-127102226D01*
X46379774Y-126958063D01*
X46210256Y-126844795D01*
X46021898Y-126766774D01*
X45821939Y-126727000D01*
X45618061Y-126727000D01*
X45563774Y-126737798D01*
X45568000Y-126716552D01*
X45568000Y-126527448D01*
X45531108Y-126341978D01*
X45458741Y-126167269D01*
X45353681Y-126010036D01*
X45219964Y-125876319D01*
X45062731Y-125771259D01*
X44888022Y-125698892D01*
X44702552Y-125662000D01*
X44513448Y-125662000D01*
X44338000Y-125696899D01*
X44338000Y-125540021D01*
X44321215Y-125369600D01*
X44254885Y-125150940D01*
X44147171Y-124949421D01*
X44002212Y-124772788D01*
X43825578Y-124627829D01*
X43624059Y-124520115D01*
X43405399Y-124453785D01*
X43178000Y-124431388D01*
X42950600Y-124453785D01*
X42731940Y-124520115D01*
X42530421Y-124627829D01*
X42353788Y-124772788D01*
X42208829Y-124949422D01*
X42101115Y-125150941D01*
X42034785Y-125369601D01*
X42018000Y-125540022D01*
X36728000Y-125540022D01*
X36728000Y-122580061D01*
X37065000Y-122580061D01*
X37065000Y-122783939D01*
X37104774Y-122983898D01*
X37182795Y-123172256D01*
X37296063Y-123341774D01*
X37440226Y-123485937D01*
X37609744Y-123599205D01*
X37798102Y-123677226D01*
X37998061Y-123717000D01*
X38201939Y-123717000D01*
X38401898Y-123677226D01*
X38590256Y-123599205D01*
X38759774Y-123485937D01*
X38903937Y-123341774D01*
X39017205Y-123172256D01*
X39095226Y-122983898D01*
X39125030Y-122834061D01*
X42145000Y-122834061D01*
X42145000Y-123037939D01*
X42184774Y-123237898D01*
X42262795Y-123426256D01*
X42376063Y-123595774D01*
X42520226Y-123739937D01*
X42689744Y-123853205D01*
X42878102Y-123931226D01*
X43078061Y-123971000D01*
X43281939Y-123971000D01*
X43481898Y-123931226D01*
X43670256Y-123853205D01*
X43839774Y-123739937D01*
X43983937Y-123595774D01*
X44097205Y-123426256D01*
X44175226Y-123237898D01*
X44215000Y-123037939D01*
X44215000Y-122834061D01*
X44175226Y-122634102D01*
X44097205Y-122445744D01*
X43983937Y-122276226D01*
X43839774Y-122132063D01*
X43670256Y-122018795D01*
X43481898Y-121940774D01*
X43281939Y-121901000D01*
X43078061Y-121901000D01*
X42878102Y-121940774D01*
X42689744Y-122018795D01*
X42520226Y-122132063D01*
X42376063Y-122276226D01*
X42262795Y-122445744D01*
X42184774Y-122634102D01*
X42145000Y-122834061D01*
X39125030Y-122834061D01*
X39135000Y-122783939D01*
X39135000Y-122580061D01*
X39095226Y-122380102D01*
X39017205Y-122191744D01*
X38903937Y-122022226D01*
X38759774Y-121878063D01*
X38590256Y-121764795D01*
X38401898Y-121686774D01*
X38201939Y-121647000D01*
X37998061Y-121647000D01*
X37798102Y-121686774D01*
X37609744Y-121764795D01*
X37440226Y-121878063D01*
X37296063Y-122022226D01*
X37182795Y-122191744D01*
X37104774Y-122380102D01*
X37065000Y-122580061D01*
X36728000Y-122580061D01*
X36728000Y-120560176D01*
X45824000Y-120560176D01*
X45824000Y-120739824D01*
X45859047Y-120916021D01*
X45927796Y-121081994D01*
X46027603Y-121231366D01*
X46154634Y-121358397D01*
X46304006Y-121458204D01*
X46469979Y-121526953D01*
X46646176Y-121562000D01*
X46825824Y-121562000D01*
X47002021Y-121526953D01*
X47167994Y-121458204D01*
X47317366Y-121358397D01*
X47444397Y-121231366D01*
X47544204Y-121081994D01*
X47554945Y-121056061D01*
X52559000Y-121056061D01*
X52559000Y-121259939D01*
X52598774Y-121459898D01*
X52676795Y-121648256D01*
X52790063Y-121817774D01*
X52934226Y-121961937D01*
X53103744Y-122075205D01*
X53292102Y-122153226D01*
X53492061Y-122193000D01*
X53695939Y-122193000D01*
X53895898Y-122153226D01*
X54084256Y-122075205D01*
X54253774Y-121961937D01*
X54397937Y-121817774D01*
X54511205Y-121648256D01*
X54589226Y-121459898D01*
X54629000Y-121259939D01*
X54629000Y-121056061D01*
X54589226Y-120856102D01*
X54511205Y-120667744D01*
X54398381Y-120498890D01*
X56216524Y-120498890D01*
X56261175Y-120646099D01*
X56386359Y-120908920D01*
X56560412Y-121142269D01*
X56776645Y-121337178D01*
X56902255Y-121412000D01*
X56776645Y-121486822D01*
X56560412Y-121681731D01*
X56386359Y-121915080D01*
X56261175Y-122177901D01*
X56216524Y-122325110D01*
X56337845Y-122555000D01*
X57531000Y-122555000D01*
X57531000Y-120269000D01*
X56337845Y-120269000D01*
X56216524Y-120498890D01*
X54398381Y-120498890D01*
X54397937Y-120498226D01*
X54253774Y-120354063D01*
X54084256Y-120240795D01*
X53895898Y-120162774D01*
X53695939Y-120123000D01*
X53492061Y-120123000D01*
X53292102Y-120162774D01*
X53103744Y-120240795D01*
X52934226Y-120354063D01*
X52790063Y-120498226D01*
X52676795Y-120667744D01*
X52598774Y-120856102D01*
X52559000Y-121056061D01*
X47554945Y-121056061D01*
X47612953Y-120916021D01*
X47648000Y-120739824D01*
X47648000Y-120560176D01*
X47612953Y-120383979D01*
X47544204Y-120218006D01*
X47444397Y-120068634D01*
X47317366Y-119941603D01*
X47167994Y-119841796D01*
X47062688Y-119798176D01*
X48110000Y-119798176D01*
X48110000Y-119977824D01*
X48145047Y-120154021D01*
X48213796Y-120319994D01*
X48313603Y-120469366D01*
X48440634Y-120596397D01*
X48590006Y-120696204D01*
X48755979Y-120764953D01*
X48932176Y-120800000D01*
X49111824Y-120800000D01*
X49288021Y-120764953D01*
X49453994Y-120696204D01*
X49603366Y-120596397D01*
X49730397Y-120469366D01*
X49830204Y-120319994D01*
X49898953Y-120154021D01*
X49934000Y-119977824D01*
X49934000Y-119798176D01*
X49898953Y-119621979D01*
X49830204Y-119456006D01*
X49730397Y-119306634D01*
X49603366Y-119179603D01*
X49453994Y-119079796D01*
X49288021Y-119011047D01*
X49111824Y-118976000D01*
X48932176Y-118976000D01*
X48755979Y-119011047D01*
X48590006Y-119079796D01*
X48440634Y-119179603D01*
X48313603Y-119306634D01*
X48213796Y-119456006D01*
X48145047Y-119621979D01*
X48110000Y-119798176D01*
X47062688Y-119798176D01*
X47002021Y-119773047D01*
X46825824Y-119738000D01*
X46646176Y-119738000D01*
X46469979Y-119773047D01*
X46304006Y-119841796D01*
X46154634Y-119941603D01*
X46027603Y-120068634D01*
X45927796Y-120218006D01*
X45859047Y-120383979D01*
X45824000Y-120560176D01*
X36728000Y-120560176D01*
X36728000Y-118770061D01*
X37065000Y-118770061D01*
X37065000Y-118973939D01*
X37104774Y-119173898D01*
X37182795Y-119362256D01*
X37296063Y-119531774D01*
X37440226Y-119675937D01*
X37609744Y-119789205D01*
X37798102Y-119867226D01*
X37998061Y-119907000D01*
X38201939Y-119907000D01*
X38401898Y-119867226D01*
X38590256Y-119789205D01*
X38759774Y-119675937D01*
X38903937Y-119531774D01*
X39017205Y-119362256D01*
X39095226Y-119173898D01*
X39135000Y-118973939D01*
X39135000Y-118770061D01*
X39095226Y-118570102D01*
X39017205Y-118381744D01*
X38903937Y-118212226D01*
X38759774Y-118068063D01*
X38590256Y-117954795D01*
X38401898Y-117876774D01*
X38201939Y-117837000D01*
X37998061Y-117837000D01*
X37798102Y-117876774D01*
X37609744Y-117954795D01*
X37440226Y-118068063D01*
X37296063Y-118212226D01*
X37182795Y-118381744D01*
X37104774Y-118570102D01*
X37065000Y-118770061D01*
X36728000Y-118770061D01*
X36728000Y-116413696D01*
X36981109Y-116503481D01*
X37211000Y-116382814D01*
X37211000Y-115189000D01*
X37465000Y-115189000D01*
X37465000Y-116382814D01*
X37694891Y-116503481D01*
X37969252Y-116406157D01*
X38219355Y-116257178D01*
X38435588Y-116062269D01*
X38609641Y-115828920D01*
X38734825Y-115566099D01*
X38779476Y-115418890D01*
X38738401Y-115341056D01*
X40493995Y-115341056D01*
X40493995Y-115544934D01*
X40533769Y-115744893D01*
X40611790Y-115933251D01*
X40725058Y-116102769D01*
X40869221Y-116246932D01*
X41038739Y-116360200D01*
X41227097Y-116438221D01*
X41427056Y-116477995D01*
X41630934Y-116477995D01*
X41830893Y-116438221D01*
X42019251Y-116360200D01*
X42188769Y-116246932D01*
X42205640Y-116230061D01*
X48749000Y-116230061D01*
X48749000Y-116433939D01*
X48788774Y-116633898D01*
X48866795Y-116822256D01*
X48980063Y-116991774D01*
X49124226Y-117135937D01*
X49293744Y-117249205D01*
X49482102Y-117327226D01*
X49682061Y-117367000D01*
X49885939Y-117367000D01*
X50085898Y-117327226D01*
X50274256Y-117249205D01*
X50443774Y-117135937D01*
X50546000Y-117033711D01*
X50648226Y-117135937D01*
X50817744Y-117249205D01*
X51006102Y-117327226D01*
X51206061Y-117367000D01*
X51409939Y-117367000D01*
X51609898Y-117327226D01*
X51798256Y-117249205D01*
X51967774Y-117135937D01*
X52111937Y-116991774D01*
X52225205Y-116822256D01*
X52303226Y-116633898D01*
X52343000Y-116433939D01*
X52343000Y-116230061D01*
X52303226Y-116030102D01*
X52225205Y-115841744D01*
X52111937Y-115672226D01*
X51967774Y-115528063D01*
X51877975Y-115468061D01*
X52559000Y-115468061D01*
X52559000Y-115671939D01*
X52598774Y-115871898D01*
X52676795Y-116060256D01*
X52790063Y-116229774D01*
X52934226Y-116373937D01*
X53103744Y-116487205D01*
X53292102Y-116565226D01*
X53492061Y-116605000D01*
X53695939Y-116605000D01*
X53895898Y-116565226D01*
X54084256Y-116487205D01*
X54253774Y-116373937D01*
X54397937Y-116229774D01*
X54511205Y-116060256D01*
X54589226Y-115871898D01*
X54629000Y-115671939D01*
X54629000Y-115468061D01*
X54589226Y-115268102D01*
X54511205Y-115079744D01*
X54397937Y-114910226D01*
X54253774Y-114766063D01*
X54084256Y-114652795D01*
X53895898Y-114574774D01*
X53695939Y-114535000D01*
X53492061Y-114535000D01*
X53292102Y-114574774D01*
X53103744Y-114652795D01*
X52934226Y-114766063D01*
X52790063Y-114910226D01*
X52676795Y-115079744D01*
X52598774Y-115268102D01*
X52559000Y-115468061D01*
X51877975Y-115468061D01*
X51798256Y-115414795D01*
X51609898Y-115336774D01*
X51409939Y-115297000D01*
X51206061Y-115297000D01*
X51006102Y-115336774D01*
X50817744Y-115414795D01*
X50648226Y-115528063D01*
X50546000Y-115630289D01*
X50443774Y-115528063D01*
X50274256Y-115414795D01*
X50085898Y-115336774D01*
X49885939Y-115297000D01*
X49682061Y-115297000D01*
X49482102Y-115336774D01*
X49293744Y-115414795D01*
X49124226Y-115528063D01*
X48980063Y-115672226D01*
X48866795Y-115841744D01*
X48788774Y-116030102D01*
X48749000Y-116230061D01*
X42205640Y-116230061D01*
X42332932Y-116102769D01*
X42446200Y-115933251D01*
X42524221Y-115744893D01*
X42563995Y-115544934D01*
X42563995Y-115341056D01*
X42524221Y-115141097D01*
X42446200Y-114952739D01*
X42332932Y-114783221D01*
X42188769Y-114639058D01*
X42019251Y-114525790D01*
X41830893Y-114447769D01*
X41630934Y-114407995D01*
X41427056Y-114407995D01*
X41227097Y-114447769D01*
X41038739Y-114525790D01*
X40869221Y-114639058D01*
X40725058Y-114783221D01*
X40611790Y-114952739D01*
X40533769Y-115141097D01*
X40493995Y-115341056D01*
X38738401Y-115341056D01*
X38658155Y-115189000D01*
X37465000Y-115189000D01*
X37211000Y-115189000D01*
X37191000Y-115189000D01*
X37191000Y-114935000D01*
X37211000Y-114935000D01*
X37211000Y-114915000D01*
X37465000Y-114915000D01*
X37465000Y-114935000D01*
X38658155Y-114935000D01*
X38779476Y-114705110D01*
X38734825Y-114557901D01*
X38609641Y-114295080D01*
X38435588Y-114061731D01*
X38219355Y-113866822D01*
X38102466Y-113797195D01*
X38284632Y-113675475D01*
X38491475Y-113468632D01*
X38653990Y-113225411D01*
X38765932Y-112955158D01*
X38823000Y-112668260D01*
X38823000Y-112375740D01*
X38765932Y-112088842D01*
X38653990Y-111818589D01*
X38491475Y-111575368D01*
X38284632Y-111368525D01*
X38110240Y-111252000D01*
X38284632Y-111135475D01*
X38491475Y-110928632D01*
X38505143Y-110908176D01*
X41252000Y-110908176D01*
X41252000Y-111087824D01*
X41287047Y-111264021D01*
X41355796Y-111429994D01*
X41455603Y-111579366D01*
X41582634Y-111706397D01*
X41662857Y-111760000D01*
X41582634Y-111813603D01*
X41455603Y-111940634D01*
X41355796Y-112090006D01*
X41287047Y-112255979D01*
X41252000Y-112432176D01*
X41252000Y-112611824D01*
X41287047Y-112788021D01*
X41355796Y-112953994D01*
X41455603Y-113103366D01*
X41582634Y-113230397D01*
X41732006Y-113330204D01*
X41897979Y-113398953D01*
X42074176Y-113434000D01*
X42253824Y-113434000D01*
X42430021Y-113398953D01*
X42595994Y-113330204D01*
X42745366Y-113230397D01*
X42872397Y-113103366D01*
X42972204Y-112953994D01*
X43040953Y-112788021D01*
X43061210Y-112686176D01*
X45570000Y-112686176D01*
X45570000Y-112865824D01*
X45605047Y-113042021D01*
X45673796Y-113207994D01*
X45773603Y-113357366D01*
X45900634Y-113484397D01*
X46050006Y-113584204D01*
X46215979Y-113652953D01*
X46392176Y-113688000D01*
X46571824Y-113688000D01*
X46748021Y-113652953D01*
X46913994Y-113584204D01*
X47063366Y-113484397D01*
X47190397Y-113357366D01*
X47290204Y-113207994D01*
X47358953Y-113042021D01*
X47394000Y-112865824D01*
X47394000Y-112686176D01*
X47358953Y-112509979D01*
X47290204Y-112344006D01*
X47190397Y-112194634D01*
X47063366Y-112067603D01*
X46913994Y-111967796D01*
X46748021Y-111899047D01*
X46571824Y-111864000D01*
X46392176Y-111864000D01*
X46215979Y-111899047D01*
X46050006Y-111967796D01*
X45900634Y-112067603D01*
X45773603Y-112194634D01*
X45673796Y-112344006D01*
X45605047Y-112509979D01*
X45570000Y-112686176D01*
X43061210Y-112686176D01*
X43076000Y-112611824D01*
X43076000Y-112432176D01*
X43040953Y-112255979D01*
X42972204Y-112090006D01*
X42872397Y-111940634D01*
X42745366Y-111813603D01*
X42665143Y-111760000D01*
X42745366Y-111706397D01*
X42872397Y-111579366D01*
X42972204Y-111429994D01*
X43040953Y-111264021D01*
X43076000Y-111087824D01*
X43076000Y-110908176D01*
X43040953Y-110731979D01*
X42972204Y-110566006D01*
X42872397Y-110416634D01*
X42855939Y-110400176D01*
X50650000Y-110400176D01*
X50650000Y-110579824D01*
X50685047Y-110756021D01*
X50753796Y-110921994D01*
X50853603Y-111071366D01*
X50980634Y-111198397D01*
X51130006Y-111298204D01*
X51295979Y-111366953D01*
X51472176Y-111402000D01*
X51651824Y-111402000D01*
X51828021Y-111366953D01*
X51993994Y-111298204D01*
X52143366Y-111198397D01*
X52270397Y-111071366D01*
X52370204Y-110921994D01*
X52438953Y-110756021D01*
X52474000Y-110579824D01*
X52474000Y-110400176D01*
X52438953Y-110223979D01*
X52370204Y-110058006D01*
X52270397Y-109908634D01*
X52143366Y-109781603D01*
X51993994Y-109681796D01*
X51828021Y-109613047D01*
X51651824Y-109578000D01*
X51472176Y-109578000D01*
X51295979Y-109613047D01*
X51130006Y-109681796D01*
X50980634Y-109781603D01*
X50853603Y-109908634D01*
X50753796Y-110058006D01*
X50685047Y-110223979D01*
X50650000Y-110400176D01*
X42855939Y-110400176D01*
X42745366Y-110289603D01*
X42595994Y-110189796D01*
X42430021Y-110121047D01*
X42253824Y-110086000D01*
X42074176Y-110086000D01*
X41897979Y-110121047D01*
X41732006Y-110189796D01*
X41582634Y-110289603D01*
X41455603Y-110416634D01*
X41355796Y-110566006D01*
X41287047Y-110731979D01*
X41252000Y-110908176D01*
X38505143Y-110908176D01*
X38653990Y-110685411D01*
X38765932Y-110415158D01*
X38823000Y-110128260D01*
X38823000Y-109835740D01*
X38765932Y-109548842D01*
X38653990Y-109278589D01*
X38491475Y-109035368D01*
X38284632Y-108828525D01*
X38110240Y-108712000D01*
X38284632Y-108595475D01*
X38491475Y-108388632D01*
X38653990Y-108145411D01*
X38671946Y-108102061D01*
X49003000Y-108102061D01*
X49003000Y-108305939D01*
X49042774Y-108505898D01*
X49120795Y-108694256D01*
X49234063Y-108863774D01*
X49378226Y-109007937D01*
X49547744Y-109121205D01*
X49736102Y-109199226D01*
X49936061Y-109239000D01*
X50139939Y-109239000D01*
X50339898Y-109199226D01*
X50528256Y-109121205D01*
X50697774Y-109007937D01*
X50841937Y-108863774D01*
X50955205Y-108694256D01*
X51033226Y-108505898D01*
X51073000Y-108305939D01*
X51073000Y-108102061D01*
X51033226Y-107902102D01*
X50955205Y-107713744D01*
X50841937Y-107544226D01*
X50697774Y-107400063D01*
X50528256Y-107286795D01*
X50339898Y-107208774D01*
X50139939Y-107169000D01*
X49936061Y-107169000D01*
X49736102Y-107208774D01*
X49547744Y-107286795D01*
X49378226Y-107400063D01*
X49234063Y-107544226D01*
X49120795Y-107713744D01*
X49042774Y-107902102D01*
X49003000Y-108102061D01*
X38671946Y-108102061D01*
X38765932Y-107875158D01*
X38823000Y-107588260D01*
X38823000Y-107295740D01*
X38765932Y-107008842D01*
X38653990Y-106738589D01*
X38491475Y-106495368D01*
X38284632Y-106288525D01*
X38110240Y-106172000D01*
X38284632Y-106055475D01*
X38491475Y-105848632D01*
X38653990Y-105605411D01*
X38765932Y-105335158D01*
X38823000Y-105048260D01*
X38823000Y-104755740D01*
X38765932Y-104468842D01*
X38653990Y-104198589D01*
X38491475Y-103955368D01*
X38320168Y-103784061D01*
X43923000Y-103784061D01*
X43923000Y-103987939D01*
X43962774Y-104187898D01*
X44040795Y-104376256D01*
X44154063Y-104545774D01*
X44298226Y-104689937D01*
X44467744Y-104803205D01*
X44656102Y-104881226D01*
X44856061Y-104921000D01*
X45059939Y-104921000D01*
X45259898Y-104881226D01*
X45448256Y-104803205D01*
X45617774Y-104689937D01*
X45761937Y-104545774D01*
X45875205Y-104376256D01*
X45953226Y-104187898D01*
X45993000Y-103987939D01*
X45993000Y-103784061D01*
X45953226Y-103584102D01*
X45949133Y-103574220D01*
X46784870Y-103574220D01*
X46784870Y-103753868D01*
X46819917Y-103930065D01*
X46888666Y-104096038D01*
X46988473Y-104245410D01*
X47115504Y-104372441D01*
X47264876Y-104472248D01*
X47430849Y-104540997D01*
X47607046Y-104576044D01*
X47786694Y-104576044D01*
X47962891Y-104540997D01*
X48128864Y-104472248D01*
X48278236Y-104372441D01*
X48405267Y-104245410D01*
X48505074Y-104096038D01*
X48512795Y-104077399D01*
X48534774Y-104187898D01*
X48612795Y-104376256D01*
X48726063Y-104545774D01*
X48870226Y-104689937D01*
X49039744Y-104803205D01*
X49228102Y-104881226D01*
X49428061Y-104921000D01*
X49631939Y-104921000D01*
X49831898Y-104881226D01*
X50020256Y-104803205D01*
X50189774Y-104689937D01*
X50333937Y-104545774D01*
X50447205Y-104376256D01*
X50525226Y-104187898D01*
X50565000Y-103987939D01*
X50565000Y-103784061D01*
X50525226Y-103584102D01*
X50447205Y-103395744D01*
X50333937Y-103226226D01*
X50189774Y-103082063D01*
X50020256Y-102968795D01*
X49831898Y-102890774D01*
X49631939Y-102851000D01*
X49428061Y-102851000D01*
X49228102Y-102890774D01*
X49039744Y-102968795D01*
X48870226Y-103082063D01*
X48726063Y-103226226D01*
X48612795Y-103395744D01*
X48586160Y-103460046D01*
X48573823Y-103398023D01*
X48505074Y-103232050D01*
X48405267Y-103082678D01*
X48278236Y-102955647D01*
X48128864Y-102855840D01*
X47962891Y-102787091D01*
X47786694Y-102752044D01*
X47607046Y-102752044D01*
X47430849Y-102787091D01*
X47264876Y-102855840D01*
X47115504Y-102955647D01*
X46988473Y-103082678D01*
X46888666Y-103232050D01*
X46819917Y-103398023D01*
X46784870Y-103574220D01*
X45949133Y-103574220D01*
X45875205Y-103395744D01*
X45761937Y-103226226D01*
X45617774Y-103082063D01*
X45448256Y-102968795D01*
X45259898Y-102890774D01*
X45059939Y-102851000D01*
X44856061Y-102851000D01*
X44656102Y-102890774D01*
X44467744Y-102968795D01*
X44298226Y-103082063D01*
X44154063Y-103226226D01*
X44040795Y-103395744D01*
X43962774Y-103584102D01*
X43923000Y-103784061D01*
X38320168Y-103784061D01*
X38284632Y-103748525D01*
X38110240Y-103632000D01*
X38284632Y-103515475D01*
X38491475Y-103308632D01*
X38653990Y-103065411D01*
X38765932Y-102795158D01*
X38823000Y-102508260D01*
X38823000Y-102215740D01*
X38765932Y-101928842D01*
X38653990Y-101658589D01*
X38491475Y-101415368D01*
X38284632Y-101208525D01*
X38110240Y-101092000D01*
X38196010Y-101034690D01*
X52903486Y-101034690D01*
X52903486Y-101214338D01*
X52938533Y-101390535D01*
X53007282Y-101556508D01*
X53107089Y-101705880D01*
X53234120Y-101832911D01*
X53383492Y-101932718D01*
X53549465Y-102001467D01*
X53725662Y-102036514D01*
X53905310Y-102036514D01*
X54081507Y-102001467D01*
X54247480Y-101932718D01*
X54396852Y-101832911D01*
X54523883Y-101705880D01*
X54623690Y-101556508D01*
X54692439Y-101390535D01*
X54727486Y-101214338D01*
X54727486Y-101034690D01*
X54692439Y-100858493D01*
X54625720Y-100697421D01*
X54787994Y-100630204D01*
X54937366Y-100530397D01*
X55064397Y-100403366D01*
X55164204Y-100253994D01*
X55232953Y-100088021D01*
X55268000Y-99911824D01*
X55268000Y-99732176D01*
X55232953Y-99555979D01*
X55164204Y-99390006D01*
X55064397Y-99240634D01*
X55048733Y-99224970D01*
X55097226Y-99107898D01*
X55137000Y-98907939D01*
X55137000Y-98704061D01*
X55097226Y-98504102D01*
X55019205Y-98315744D01*
X54905937Y-98146226D01*
X54761774Y-98002063D01*
X54592256Y-97888795D01*
X54403898Y-97810774D01*
X54203939Y-97771000D01*
X54000061Y-97771000D01*
X53800102Y-97810774D01*
X53611744Y-97888795D01*
X53442226Y-98002063D01*
X53298063Y-98146226D01*
X53184795Y-98315744D01*
X53106774Y-98504102D01*
X53067000Y-98704061D01*
X53067000Y-98907939D01*
X53106774Y-99107898D01*
X53184795Y-99296256D01*
X53298063Y-99465774D01*
X53442226Y-99609937D01*
X53465254Y-99625324D01*
X53444000Y-99732176D01*
X53444000Y-99911824D01*
X53479047Y-100088021D01*
X53545766Y-100249093D01*
X53383492Y-100316310D01*
X53234120Y-100416117D01*
X53107089Y-100543148D01*
X53007282Y-100692520D01*
X52938533Y-100858493D01*
X52903486Y-101034690D01*
X38196010Y-101034690D01*
X38284632Y-100975475D01*
X38491475Y-100768632D01*
X38653990Y-100525411D01*
X38765932Y-100255158D01*
X38823000Y-99968260D01*
X38823000Y-99720061D01*
X44431000Y-99720061D01*
X44431000Y-99923939D01*
X44470774Y-100123898D01*
X44548795Y-100312256D01*
X44662063Y-100481774D01*
X44806226Y-100625937D01*
X44975744Y-100739205D01*
X45164102Y-100817226D01*
X45364061Y-100857000D01*
X45567939Y-100857000D01*
X45767898Y-100817226D01*
X45956256Y-100739205D01*
X46125774Y-100625937D01*
X46269937Y-100481774D01*
X46383205Y-100312256D01*
X46461226Y-100123898D01*
X46501000Y-99923939D01*
X46501000Y-99720061D01*
X48749048Y-99720061D01*
X48749048Y-99923939D01*
X48788822Y-100123898D01*
X48866843Y-100312256D01*
X48980111Y-100481774D01*
X49124274Y-100625937D01*
X49293792Y-100739205D01*
X49482150Y-100817226D01*
X49682109Y-100857000D01*
X49885987Y-100857000D01*
X50085946Y-100817226D01*
X50274304Y-100739205D01*
X50443822Y-100625937D01*
X50587985Y-100481774D01*
X50701253Y-100312256D01*
X50779274Y-100123898D01*
X50819048Y-99923939D01*
X50819048Y-99720061D01*
X50779274Y-99520102D01*
X50701253Y-99331744D01*
X50587985Y-99162226D01*
X50443822Y-99018063D01*
X50274304Y-98904795D01*
X50085946Y-98826774D01*
X49885987Y-98787000D01*
X49682109Y-98787000D01*
X49482150Y-98826774D01*
X49293792Y-98904795D01*
X49124274Y-99018063D01*
X48980111Y-99162226D01*
X48866843Y-99331744D01*
X48788822Y-99520102D01*
X48749048Y-99720061D01*
X46501000Y-99720061D01*
X46461226Y-99520102D01*
X46383205Y-99331744D01*
X46269937Y-99162226D01*
X46125774Y-99018063D01*
X45956256Y-98904795D01*
X45767898Y-98826774D01*
X45567939Y-98787000D01*
X45364061Y-98787000D01*
X45164102Y-98826774D01*
X44975744Y-98904795D01*
X44806226Y-99018063D01*
X44662063Y-99162226D01*
X44548795Y-99331744D01*
X44470774Y-99520102D01*
X44431000Y-99720061D01*
X38823000Y-99720061D01*
X38823000Y-99675740D01*
X38765932Y-99388842D01*
X38653990Y-99118589D01*
X38491475Y-98875368D01*
X38284632Y-98668525D01*
X38110240Y-98552000D01*
X38284632Y-98435475D01*
X38491475Y-98228632D01*
X38653990Y-97985411D01*
X38765932Y-97715158D01*
X38823000Y-97428260D01*
X38823000Y-97135740D01*
X38765932Y-96848842D01*
X38653990Y-96578589D01*
X38546729Y-96418061D01*
X42764934Y-96418061D01*
X42764934Y-96621939D01*
X42804708Y-96821898D01*
X42882729Y-97010256D01*
X42995997Y-97179774D01*
X43140160Y-97323937D01*
X43309678Y-97437205D01*
X43498036Y-97515226D01*
X43697995Y-97555000D01*
X43901873Y-97555000D01*
X44101832Y-97515226D01*
X44251967Y-97453038D01*
X44402102Y-97515226D01*
X44602061Y-97555000D01*
X44805939Y-97555000D01*
X45005898Y-97515226D01*
X45194256Y-97437205D01*
X45363774Y-97323937D01*
X45507937Y-97179774D01*
X45621205Y-97010256D01*
X45699226Y-96821898D01*
X45710535Y-96765044D01*
X45961316Y-96514263D01*
X45952485Y-96558661D01*
X45952485Y-96738309D01*
X45987532Y-96914506D01*
X46056281Y-97080479D01*
X46156088Y-97229851D01*
X46283119Y-97356882D01*
X46432491Y-97456689D01*
X46598464Y-97525438D01*
X46774661Y-97560485D01*
X46954309Y-97560485D01*
X47130506Y-97525438D01*
X47296479Y-97456689D01*
X47445851Y-97356882D01*
X47572882Y-97229851D01*
X47672689Y-97080479D01*
X47741438Y-96914506D01*
X47776485Y-96738309D01*
X47776485Y-96576857D01*
X47850795Y-96756256D01*
X47964063Y-96925774D01*
X48108226Y-97069937D01*
X48277744Y-97183205D01*
X48466102Y-97261226D01*
X48666061Y-97301000D01*
X48869939Y-97301000D01*
X49069898Y-97261226D01*
X49258256Y-97183205D01*
X49427774Y-97069937D01*
X49571937Y-96925774D01*
X49685205Y-96756256D01*
X49763226Y-96567898D01*
X49803000Y-96367939D01*
X49803000Y-96164061D01*
X49763226Y-95964102D01*
X49685205Y-95775744D01*
X49571937Y-95606226D01*
X49427774Y-95462063D01*
X49258256Y-95348795D01*
X49069898Y-95270774D01*
X48869939Y-95231000D01*
X48666061Y-95231000D01*
X48595179Y-95245099D01*
X48536947Y-95104516D01*
X48437140Y-94955144D01*
X48310109Y-94828113D01*
X48160737Y-94728306D01*
X47994764Y-94659557D01*
X47818567Y-94624510D01*
X47638919Y-94624510D01*
X47462722Y-94659557D01*
X47296749Y-94728306D01*
X47147377Y-94828113D01*
X47020346Y-94955144D01*
X46920539Y-95104516D01*
X46851790Y-95270489D01*
X46816743Y-95446686D01*
X46816743Y-95626334D01*
X46838653Y-95736485D01*
X46774661Y-95736485D01*
X46598464Y-95771532D01*
X46432491Y-95840281D01*
X46341168Y-95901301D01*
X46351000Y-95801477D01*
X46351000Y-95801469D01*
X46355281Y-95758000D01*
X46351000Y-95714531D01*
X46351000Y-94132061D01*
X52305000Y-94132061D01*
X52305000Y-94335939D01*
X52344774Y-94535898D01*
X52422795Y-94724256D01*
X52536063Y-94893774D01*
X52680226Y-95037937D01*
X52849744Y-95151205D01*
X53038102Y-95229226D01*
X53238061Y-95269000D01*
X53441939Y-95269000D01*
X53641898Y-95229226D01*
X53830256Y-95151205D01*
X53999774Y-95037937D01*
X54143937Y-94893774D01*
X54257205Y-94724256D01*
X54335226Y-94535898D01*
X54375000Y-94335939D01*
X54375000Y-94132061D01*
X54335226Y-93932102D01*
X54257205Y-93743744D01*
X54143937Y-93574226D01*
X53999774Y-93430063D01*
X53830256Y-93316795D01*
X53641898Y-93238774D01*
X53441939Y-93199000D01*
X53238061Y-93199000D01*
X53038102Y-93238774D01*
X52849744Y-93316795D01*
X52680226Y-93430063D01*
X52536063Y-93574226D01*
X52422795Y-93743744D01*
X52344774Y-93932102D01*
X52305000Y-94132061D01*
X46351000Y-94132061D01*
X46351000Y-93359452D01*
X46383205Y-93311254D01*
X46461226Y-93122896D01*
X46501000Y-92922937D01*
X46501000Y-92831123D01*
X46646176Y-92860000D01*
X46825824Y-92860000D01*
X47002021Y-92824953D01*
X47167994Y-92756204D01*
X47244000Y-92705419D01*
X47320006Y-92756204D01*
X47485979Y-92824953D01*
X47662176Y-92860000D01*
X47841824Y-92860000D01*
X48018021Y-92824953D01*
X48183994Y-92756204D01*
X48333366Y-92656397D01*
X48460397Y-92529366D01*
X48560204Y-92379994D01*
X48628953Y-92214021D01*
X48664000Y-92037824D01*
X48664000Y-91858176D01*
X48628953Y-91681979D01*
X48560204Y-91516006D01*
X48460397Y-91366634D01*
X48333366Y-91239603D01*
X48183994Y-91139796D01*
X48018021Y-91071047D01*
X47841824Y-91036000D01*
X47662176Y-91036000D01*
X47485979Y-91071047D01*
X47320006Y-91139796D01*
X47244000Y-91190581D01*
X47167994Y-91139796D01*
X47002021Y-91071047D01*
X46825824Y-91036000D01*
X46646176Y-91036000D01*
X46496262Y-91065819D01*
X46633774Y-90973937D01*
X46777937Y-90829774D01*
X46891205Y-90660256D01*
X46969226Y-90471898D01*
X47009000Y-90271939D01*
X47009000Y-90068061D01*
X47733000Y-90068061D01*
X47733000Y-90271939D01*
X47772774Y-90471898D01*
X47850795Y-90660256D01*
X47964063Y-90829774D01*
X48108226Y-90973937D01*
X48277744Y-91087205D01*
X48466102Y-91165226D01*
X48666061Y-91205000D01*
X48869939Y-91205000D01*
X49069898Y-91165226D01*
X49258256Y-91087205D01*
X49427774Y-90973937D01*
X49571937Y-90829774D01*
X49685205Y-90660256D01*
X49763226Y-90471898D01*
X49803000Y-90271939D01*
X49803000Y-90068061D01*
X49763226Y-89868102D01*
X49685205Y-89679744D01*
X49571937Y-89510226D01*
X49427774Y-89366063D01*
X49258256Y-89252795D01*
X49069898Y-89174774D01*
X48869939Y-89135000D01*
X48666061Y-89135000D01*
X48466102Y-89174774D01*
X48277744Y-89252795D01*
X48108226Y-89366063D01*
X47964063Y-89510226D01*
X47850795Y-89679744D01*
X47772774Y-89868102D01*
X47733000Y-90068061D01*
X47009000Y-90068061D01*
X46969226Y-89868102D01*
X46891205Y-89679744D01*
X46777937Y-89510226D01*
X46633774Y-89366063D01*
X46464256Y-89252795D01*
X46275898Y-89174774D01*
X46075939Y-89135000D01*
X45872061Y-89135000D01*
X45672102Y-89174774D01*
X45483744Y-89252795D01*
X45314226Y-89366063D01*
X45170063Y-89510226D01*
X45056795Y-89679744D01*
X44978774Y-89868102D01*
X44939000Y-90068061D01*
X44939000Y-90271939D01*
X44978774Y-90471898D01*
X45056795Y-90660256D01*
X45170063Y-90829774D01*
X45314226Y-90973937D01*
X45483744Y-91087205D01*
X45672102Y-91165226D01*
X45872061Y-91205000D01*
X46075939Y-91205000D01*
X46261729Y-91168044D01*
X46154634Y-91239603D01*
X46027603Y-91366634D01*
X45927796Y-91516006D01*
X45859047Y-91681979D01*
X45825684Y-91849708D01*
X45767898Y-91825772D01*
X45567939Y-91785998D01*
X45364061Y-91785998D01*
X45164102Y-91825772D01*
X45081413Y-91860023D01*
X44999975Y-91826290D01*
X44800016Y-91786516D01*
X44596138Y-91786516D01*
X44396179Y-91826290D01*
X44207821Y-91904311D01*
X44038303Y-92017579D01*
X43894140Y-92161742D01*
X43780872Y-92331260D01*
X43702851Y-92519618D01*
X43663077Y-92719577D01*
X43663077Y-92923455D01*
X43702851Y-93123414D01*
X43780872Y-93311772D01*
X43813077Y-93359971D01*
X43813078Y-95255277D01*
X43554891Y-95513465D01*
X43498036Y-95524774D01*
X43309678Y-95602795D01*
X43140160Y-95716063D01*
X42995997Y-95860226D01*
X42882729Y-96029744D01*
X42804708Y-96218102D01*
X42764934Y-96418061D01*
X38546729Y-96418061D01*
X38491475Y-96335368D01*
X38284632Y-96128525D01*
X38110240Y-96012000D01*
X38284632Y-95895475D01*
X38491475Y-95688632D01*
X38653990Y-95445411D01*
X38765932Y-95175158D01*
X38823000Y-94888260D01*
X38823000Y-94595740D01*
X38765932Y-94308842D01*
X38692708Y-94132061D01*
X41040019Y-94132061D01*
X41040019Y-94335939D01*
X41079793Y-94535898D01*
X41157814Y-94724256D01*
X41271082Y-94893774D01*
X41415245Y-95037937D01*
X41584763Y-95151205D01*
X41773121Y-95229226D01*
X41973080Y-95269000D01*
X42176958Y-95269000D01*
X42376917Y-95229226D01*
X42565275Y-95151205D01*
X42734793Y-95037937D01*
X42878956Y-94893774D01*
X42992224Y-94724256D01*
X43070245Y-94535898D01*
X43110019Y-94335939D01*
X43110019Y-94132061D01*
X43070245Y-93932102D01*
X42992224Y-93743744D01*
X42878956Y-93574226D01*
X42734793Y-93430063D01*
X42565275Y-93316795D01*
X42376917Y-93238774D01*
X42176958Y-93199000D01*
X41973080Y-93199000D01*
X41773121Y-93238774D01*
X41584763Y-93316795D01*
X41415245Y-93430063D01*
X41271082Y-93574226D01*
X41157814Y-93743744D01*
X41079793Y-93932102D01*
X41040019Y-94132061D01*
X38692708Y-94132061D01*
X38653990Y-94038589D01*
X38491475Y-93795368D01*
X38284632Y-93588525D01*
X38110240Y-93472000D01*
X38284632Y-93355475D01*
X38491475Y-93148632D01*
X38653990Y-92905411D01*
X38765932Y-92635158D01*
X38823000Y-92348260D01*
X38823000Y-92055740D01*
X38765932Y-91768842D01*
X38653990Y-91498589D01*
X38491475Y-91255368D01*
X38284632Y-91048525D01*
X38110240Y-90932000D01*
X38284632Y-90815475D01*
X38491475Y-90608632D01*
X38653990Y-90365411D01*
X38765932Y-90095158D01*
X38823000Y-89808260D01*
X38823000Y-89515740D01*
X38765932Y-89228842D01*
X38653990Y-88958589D01*
X38491475Y-88715368D01*
X38359620Y-88583513D01*
X38432180Y-88561502D01*
X38542494Y-88502537D01*
X38639185Y-88423185D01*
X38718537Y-88326494D01*
X38777502Y-88216180D01*
X38813812Y-88096482D01*
X38826072Y-87972000D01*
X38826072Y-86272000D01*
X38813812Y-86147518D01*
X38777502Y-86027820D01*
X38718537Y-85917506D01*
X38639185Y-85820815D01*
X38552971Y-85750061D01*
X43669000Y-85750061D01*
X43669000Y-85953939D01*
X43708774Y-86153898D01*
X43786795Y-86342256D01*
X43900063Y-86511774D01*
X44044226Y-86655937D01*
X44213744Y-86769205D01*
X44402102Y-86847226D01*
X44602061Y-86887000D01*
X44805939Y-86887000D01*
X45005898Y-86847226D01*
X45194256Y-86769205D01*
X45198961Y-86766061D01*
X49002976Y-86766061D01*
X49002976Y-86969939D01*
X49042750Y-87169898D01*
X49120771Y-87358256D01*
X49234039Y-87527774D01*
X49378202Y-87671937D01*
X49547720Y-87785205D01*
X49736078Y-87863226D01*
X49794664Y-87874879D01*
X49737784Y-87960006D01*
X49669035Y-88125979D01*
X49633988Y-88302176D01*
X49633988Y-88481824D01*
X49669035Y-88658021D01*
X49737784Y-88823994D01*
X49837591Y-88973366D01*
X49964622Y-89100397D01*
X50113994Y-89200204D01*
X50279967Y-89268953D01*
X50321046Y-89277124D01*
X50329214Y-89318188D01*
X50397963Y-89484161D01*
X50497770Y-89633533D01*
X50624801Y-89760564D01*
X50658564Y-89783123D01*
X50650000Y-89826176D01*
X50650000Y-90005824D01*
X50685047Y-90182021D01*
X50753796Y-90347994D01*
X50853603Y-90497366D01*
X50980634Y-90624397D01*
X51006249Y-90641512D01*
X51006249Y-90759200D01*
X51041296Y-90935397D01*
X51110045Y-91101370D01*
X51209852Y-91250742D01*
X51222087Y-91262977D01*
X51194035Y-91330699D01*
X51158988Y-91506896D01*
X51158988Y-91686544D01*
X51194035Y-91862741D01*
X51262784Y-92028714D01*
X51362591Y-92178086D01*
X51489622Y-92305117D01*
X51638994Y-92404924D01*
X51804967Y-92473673D01*
X51981164Y-92508720D01*
X52160812Y-92508720D01*
X52337009Y-92473673D01*
X52502982Y-92404924D01*
X52652354Y-92305117D01*
X52779385Y-92178086D01*
X52879192Y-92028714D01*
X52947941Y-91862741D01*
X52982988Y-91686544D01*
X52982988Y-91506896D01*
X52947941Y-91330699D01*
X52879192Y-91164726D01*
X52779385Y-91015354D01*
X52767150Y-91003119D01*
X52795202Y-90935397D01*
X52830249Y-90759200D01*
X52830249Y-90579552D01*
X52795202Y-90403355D01*
X52726453Y-90237382D01*
X52626646Y-90088010D01*
X52499615Y-89960979D01*
X52474000Y-89943864D01*
X52474000Y-89826176D01*
X52438953Y-89649979D01*
X52370204Y-89484006D01*
X52270397Y-89334634D01*
X52143366Y-89207603D01*
X52109603Y-89185044D01*
X52118167Y-89141991D01*
X52118167Y-88962343D01*
X52083120Y-88786146D01*
X52014371Y-88620173D01*
X51914723Y-88471039D01*
X51993994Y-88438204D01*
X52143366Y-88338397D01*
X52270397Y-88211366D01*
X52370204Y-88061994D01*
X52438953Y-87896021D01*
X52474000Y-87719824D01*
X52474000Y-87540176D01*
X52438953Y-87363979D01*
X52370204Y-87198006D01*
X52319617Y-87122298D01*
X52371403Y-87044795D01*
X52440152Y-86878822D01*
X52475199Y-86702625D01*
X52475199Y-86522977D01*
X52440152Y-86346780D01*
X52371403Y-86180807D01*
X52271596Y-86031435D01*
X52144565Y-85904404D01*
X51995193Y-85804597D01*
X51829220Y-85735848D01*
X51653023Y-85700801D01*
X51473375Y-85700801D01*
X51297178Y-85735848D01*
X51131205Y-85804597D01*
X50981833Y-85904404D01*
X50854802Y-86031435D01*
X50778827Y-86145140D01*
X50697750Y-86064063D01*
X50528232Y-85950795D01*
X50339874Y-85872774D01*
X50139915Y-85833000D01*
X49936037Y-85833000D01*
X49736078Y-85872774D01*
X49547720Y-85950795D01*
X49378202Y-86064063D01*
X49234039Y-86208226D01*
X49120771Y-86377744D01*
X49042750Y-86566102D01*
X49002976Y-86766061D01*
X45198961Y-86766061D01*
X45363774Y-86655937D01*
X45507937Y-86511774D01*
X45621205Y-86342256D01*
X45699226Y-86153898D01*
X45739000Y-85953939D01*
X45739000Y-85750061D01*
X45699226Y-85550102D01*
X45621205Y-85361744D01*
X45507937Y-85192226D01*
X45363774Y-85048063D01*
X45194256Y-84934795D01*
X45005898Y-84856774D01*
X44805939Y-84817000D01*
X44602061Y-84817000D01*
X44402102Y-84856774D01*
X44213744Y-84934795D01*
X44044226Y-85048063D01*
X43900063Y-85192226D01*
X43786795Y-85361744D01*
X43708774Y-85550102D01*
X43669000Y-85750061D01*
X38552971Y-85750061D01*
X38542494Y-85741463D01*
X38459311Y-85697000D01*
X38842902Y-85697000D01*
X39303679Y-85605346D01*
X39737721Y-85425560D01*
X40128349Y-85164550D01*
X40460550Y-84832349D01*
X40721560Y-84441721D01*
X40901346Y-84007679D01*
X40993000Y-83546902D01*
X40993000Y-83077098D01*
X40901346Y-82616321D01*
X40802795Y-82378399D01*
X40911758Y-82451205D01*
X41100116Y-82529226D01*
X41300075Y-82569000D01*
X41503953Y-82569000D01*
X41703912Y-82529226D01*
X41892270Y-82451205D01*
X42061788Y-82337937D01*
X42205951Y-82193774D01*
X42319219Y-82024256D01*
X42397240Y-81835898D01*
X42437014Y-81635939D01*
X42437014Y-81432061D01*
X42437002Y-81432000D01*
X54908733Y-81432000D01*
X54867651Y-81459450D01*
G37*
%TD.AperFunction*%
%TD*%
M02*
