M48
INCH,TZ
T1C0.0118
T2C0.0157
T3C0.0236
T4C0.0394
T5C0.0866
%
G90
G05
T1
X16600Y-43700
X16600Y-44300
X17700Y-44400
X18300Y-44400
X18400Y-36200
X18400Y-47500
X18451Y-38051
X18778Y-40813
X18791Y-37613
X18800Y-36200
X19300Y-47200
X19900Y-34800
X20160Y-35060
X20300Y-34500
X20300Y-35400
X20300Y-43500
X20300Y-34100
X20440Y-35697
X20500Y-36062
X21187Y-39813
X21400Y-39300
T2
X15000Y-46800
X15000Y-48300
X16300Y-32100
X16350Y-45450
X16565Y-37100
X16900Y-39300
X17000Y-46700
X17000Y-48400
X17244Y-38000
X17598Y-36544
X17600Y-33800
X17600Y-38000
X17700Y-40900
X17900Y-36544
X17900Y-39300
X18000Y-50300
X18100Y-35500
X19200Y-35500
X19200Y-37900
X19400Y-50300
X19500Y-38800
X19500Y-40900
X19600Y-45800
X19600Y-39300
X19700Y-34200
X19700Y-42600
X20200Y-45800
X20800Y-48900
X21000Y-37100
X21100Y-45500
X21100Y-47700
X21300Y-38900
T4
X14700Y-34300
X14700Y-35300
X14700Y-36300
X14700Y-37300
X14700Y-38300
X14700Y-39300
X14700Y-40300
X14700Y-41300
X14700Y-42300
X14700Y-43300
X14700Y-44300
X14700Y-45300
X22700Y-34300
X22700Y-35300
X22700Y-36300
X22700Y-37300
X22700Y-38300
X22700Y-39300
X22700Y-40300
X22700Y-41300
X22700Y-42300
X22700Y-43300
X22700Y-44300
X22700Y-45300
X22700Y-46300
X22700Y-47300
X22700Y-48300
X22700Y-49300
T5
X22200Y-32800
X22200Y-50800
X15200Y-32800
X15200Y-50800
T3
G00X16999Y-49438
M15
G01X16999Y-49871
M16
G05
G00X16999Y-51143
M15
G01X16999Y-51457
M16
G05
G00X20401Y-49438
M15
G01X20401Y-49871
M16
G05
G00X20401Y-51143
M15
G01X20401Y-51457
M16
G05
T0
M30
