%TF.GenerationSoftware,KiCad,Pcbnew,5.1.7-a382d34a8~88~ubuntu18.04.1*%
%TF.CreationDate,2022-09-03T09:09:10-04:00*%
%TF.ProjectId,project-MS88SF3-breakout,70726f6a-6563-4742-9d4d-533838534633,rev?*%
%TF.SameCoordinates,Original*%
%TF.FileFunction,Copper,L2,Inr*%
%TF.FilePolarity,Positive*%
%FSLAX46Y46*%
G04 Gerber Fmt 4.6, Leading zero omitted, Abs format (unit mm)*
G04 Created by KiCad (PCBNEW 5.1.7-a382d34a8~88~ubuntu18.04.1) date 2022-09-03 09:09:10*
%MOMM*%
%LPD*%
G01*
G04 APERTURE LIST*
%TA.AperFunction,ComponentPad*%
%ADD10O,1.700000X1.700000*%
%TD*%
%TA.AperFunction,ComponentPad*%
%ADD11R,1.700000X1.700000*%
%TD*%
%TA.AperFunction,ComponentPad*%
%ADD12O,1.050000X2.100000*%
%TD*%
%TA.AperFunction,ComponentPad*%
%ADD13O,1.000000X2.000000*%
%TD*%
%TA.AperFunction,ComponentPad*%
%ADD14C,3.500000*%
%TD*%
%TA.AperFunction,ViaPad*%
%ADD15C,0.800000*%
%TD*%
%TA.AperFunction,ViaPad*%
%ADD16C,0.554000*%
%TD*%
%TA.AperFunction,Conductor*%
%ADD17C,0.254000*%
%TD*%
%TA.AperFunction,Conductor*%
%ADD18C,0.100000*%
%TD*%
G04 APERTURE END LIST*
D10*
%TO.N,/VDD_nRF*%
%TO.C,J4*%
X37338000Y-115062000D03*
%TO.N,Net-(J4-Pad11)*%
X37338000Y-112522000D03*
%TO.N,/VBUS*%
X37338000Y-109982000D03*
%TO.N,/AIN2*%
X37338000Y-107442000D03*
%TO.N,/AIN3*%
X37338000Y-104902000D03*
%TO.N,/AIN5*%
X37338000Y-102362000D03*
%TO.N,/AIN0*%
X37338000Y-99822000D03*
%TO.N,/P1.15*%
X37338000Y-97282000D03*
%TO.N,/P1.13*%
X37338000Y-94742000D03*
%TO.N,/AIN1*%
X37338000Y-92202000D03*
%TO.N,/P1.14*%
X37338000Y-89662000D03*
D11*
%TO.N,/P1.10*%
X37338000Y-87122000D03*
%TD*%
D12*
%TO.N,GND*%
%TO.C,J3*%
X51818000Y-126122000D03*
X43178000Y-126122000D03*
D13*
X51818000Y-130302000D03*
X43178000Y-130302000D03*
%TD*%
D10*
%TO.N,/RESET*%
%TO.C,J5*%
X57658000Y-125222000D03*
%TO.N,/VDD_nRF*%
X57658000Y-122682000D03*
X57658000Y-120142000D03*
%TO.N,GND*%
X57658000Y-117602000D03*
%TO.N,/P0.21*%
X57658000Y-115062000D03*
%TO.N,/P0.17*%
X57658000Y-112522000D03*
%TO.N,/P0.15*%
X57658000Y-109982000D03*
%TO.N,/P0.13*%
X57658000Y-107442000D03*
%TO.N,/P0.19*%
X57658000Y-104902000D03*
%TO.N,/P0.23*%
X57658000Y-102362000D03*
%TO.N,/TX*%
X57658000Y-99822000D03*
%TO.N,/P0.22*%
X57658000Y-97282000D03*
%TO.N,/RX*%
X57658000Y-94742000D03*
%TO.N,/NFC2*%
X57658000Y-92202000D03*
%TO.N,/NFC1*%
X57658000Y-89662000D03*
D11*
%TO.N,/P0.25*%
X57658000Y-87122000D03*
%TD*%
D14*
%TO.N,GND*%
%TO.C,H2*%
X56388000Y-83312000D03*
%TD*%
%TO.N,GND*%
%TO.C,H1*%
X38608000Y-83312000D03*
%TD*%
%TO.N,GND*%
%TO.C,H4*%
X56388000Y-129032000D03*
%TD*%
%TO.N,GND*%
%TO.C,H3*%
X38608000Y-129032000D03*
%TD*%
D15*
%TO.N,/VBUS_nRF*%
X45466000Y-99822000D03*
X49784048Y-99822000D03*
%TO.N,GND*%
X54102000Y-98806000D03*
X48768000Y-96266000D03*
X43180000Y-122936000D03*
X38100000Y-118872000D03*
X38100000Y-122682000D03*
X53594000Y-121158000D03*
X52832000Y-124206000D03*
X49784000Y-116332000D03*
X51308000Y-116332000D03*
X45974000Y-90170000D03*
X53340000Y-94234000D03*
X42075019Y-94234000D03*
X44958000Y-103886000D03*
X49530000Y-103886000D03*
D16*
X47696870Y-103664044D03*
X42164000Y-112522000D03*
X42164000Y-110998000D03*
X46482000Y-112776000D03*
D15*
X48768000Y-90170000D03*
X44704000Y-85852000D03*
X50037976Y-86868000D03*
X41402014Y-81534000D03*
D16*
%TO.N,/RX*%
X54356000Y-99822000D03*
%TO.N,/TX*%
X53815486Y-101124514D03*
%TO.N,/RESET*%
X51562000Y-110490000D03*
D15*
%TO.N,/VDD_nRF*%
X43180000Y-118618000D03*
X42926000Y-99822000D03*
X49530000Y-98552000D03*
D16*
X44958000Y-112776000D03*
D15*
%TO.N,/VBUS*%
X49276000Y-127762000D03*
X45720000Y-127762000D03*
X50038000Y-108204000D03*
X53594000Y-115570000D03*
X41528995Y-115442995D03*
D16*
%TO.N,/CC1*%
X49022000Y-119888000D03*
X46736000Y-120650000D03*
D15*
%TO.N,/VDDH*%
X45466000Y-92820998D03*
X44704000Y-96520000D03*
X44698077Y-92821516D03*
X43799934Y-96520000D03*
D16*
%TO.N,/SWCLK*%
X47728743Y-95536510D03*
X47752000Y-91948000D03*
%TO.N,/SWDIO*%
X46864485Y-96648485D03*
X46736000Y-91948000D03*
%TO.N,/P0.19*%
X52070988Y-91596720D03*
%TO.N,/P0.13*%
X51918249Y-90669376D03*
%TO.N,/P0.15*%
X51562000Y-89916000D03*
%TO.N,/P0.17*%
X51206167Y-89052167D03*
%TO.N,/P0.21*%
X50545988Y-88392000D03*
%TO.N,/NFC2*%
X51562000Y-87630000D03*
%TO.N,/NFC1*%
X51563199Y-86612801D03*
%TD*%
D17*
%TO.N,GND*%
X55084073Y-81301234D02*
X54897997Y-81642391D01*
X56388000Y-83132395D01*
X56402142Y-83118252D01*
X56581748Y-83297858D01*
X56567605Y-83312000D01*
X58057609Y-84802003D01*
X58398766Y-84615927D01*
X58522000Y-84377546D01*
X58522000Y-85890536D01*
X58508000Y-85889157D01*
X56808000Y-85889157D01*
X56733311Y-85896513D01*
X56661492Y-85918299D01*
X56595304Y-85953678D01*
X56537289Y-86001289D01*
X56489678Y-86059304D01*
X56454299Y-86125492D01*
X56432513Y-86197311D01*
X56425157Y-86272000D01*
X56425157Y-87972000D01*
X56432513Y-88046689D01*
X56454299Y-88118508D01*
X56489678Y-88184696D01*
X56537289Y-88242711D01*
X56595304Y-88290322D01*
X56661492Y-88325701D01*
X56733311Y-88347487D01*
X56808000Y-88354843D01*
X58508000Y-88354843D01*
X58522000Y-88353464D01*
X58522000Y-88785103D01*
X58442717Y-88705820D01*
X58241097Y-88571102D01*
X58017069Y-88478307D01*
X57779243Y-88431000D01*
X57536757Y-88431000D01*
X57298931Y-88478307D01*
X57074903Y-88571102D01*
X56873283Y-88705820D01*
X56701820Y-88877283D01*
X56567102Y-89078903D01*
X56474307Y-89302931D01*
X56427000Y-89540757D01*
X56427000Y-89783243D01*
X56474307Y-90021069D01*
X56567102Y-90245097D01*
X56701820Y-90446717D01*
X56873283Y-90618180D01*
X57074903Y-90752898D01*
X57298931Y-90845693D01*
X57536757Y-90893000D01*
X57779243Y-90893000D01*
X58017069Y-90845693D01*
X58241097Y-90752898D01*
X58442717Y-90618180D01*
X58522000Y-90538897D01*
X58522000Y-91325103D01*
X58442717Y-91245820D01*
X58241097Y-91111102D01*
X58017069Y-91018307D01*
X57779243Y-90971000D01*
X57536757Y-90971000D01*
X57298931Y-91018307D01*
X57074903Y-91111102D01*
X56873283Y-91245820D01*
X56701820Y-91417283D01*
X56567102Y-91618903D01*
X56474307Y-91842931D01*
X56427000Y-92080757D01*
X56427000Y-92323243D01*
X56474307Y-92561069D01*
X56567102Y-92785097D01*
X56701820Y-92986717D01*
X56873283Y-93158180D01*
X57074903Y-93292898D01*
X57298931Y-93385693D01*
X57536757Y-93433000D01*
X57779243Y-93433000D01*
X58017069Y-93385693D01*
X58241097Y-93292898D01*
X58442717Y-93158180D01*
X58522000Y-93078897D01*
X58522000Y-93865103D01*
X58442717Y-93785820D01*
X58241097Y-93651102D01*
X58017069Y-93558307D01*
X57779243Y-93511000D01*
X57536757Y-93511000D01*
X57298931Y-93558307D01*
X57074903Y-93651102D01*
X56873283Y-93785820D01*
X56701820Y-93957283D01*
X56567102Y-94158903D01*
X56474307Y-94382931D01*
X56427000Y-94620757D01*
X56427000Y-94863243D01*
X56474307Y-95101069D01*
X56567102Y-95325097D01*
X56701820Y-95526717D01*
X56873283Y-95698180D01*
X57074903Y-95832898D01*
X57298931Y-95925693D01*
X57536757Y-95973000D01*
X57779243Y-95973000D01*
X58017069Y-95925693D01*
X58241097Y-95832898D01*
X58442717Y-95698180D01*
X58522000Y-95618897D01*
X58522000Y-96405103D01*
X58442717Y-96325820D01*
X58241097Y-96191102D01*
X58017069Y-96098307D01*
X57779243Y-96051000D01*
X57536757Y-96051000D01*
X57298931Y-96098307D01*
X57074903Y-96191102D01*
X56873283Y-96325820D01*
X56701820Y-96497283D01*
X56567102Y-96698903D01*
X56474307Y-96922931D01*
X56427000Y-97160757D01*
X56427000Y-97403243D01*
X56474307Y-97641069D01*
X56567102Y-97865097D01*
X56701820Y-98066717D01*
X56873283Y-98238180D01*
X57074903Y-98372898D01*
X57298931Y-98465693D01*
X57536757Y-98513000D01*
X57779243Y-98513000D01*
X58017069Y-98465693D01*
X58241097Y-98372898D01*
X58442717Y-98238180D01*
X58522000Y-98158897D01*
X58522000Y-98945103D01*
X58442717Y-98865820D01*
X58241097Y-98731102D01*
X58017069Y-98638307D01*
X57779243Y-98591000D01*
X57536757Y-98591000D01*
X57298931Y-98638307D01*
X57074903Y-98731102D01*
X56873283Y-98865820D01*
X56701820Y-99037283D01*
X56567102Y-99238903D01*
X56474307Y-99462931D01*
X56427000Y-99700757D01*
X56427000Y-99943243D01*
X56474307Y-100181069D01*
X56567102Y-100405097D01*
X56701820Y-100606717D01*
X56873283Y-100778180D01*
X57074903Y-100912898D01*
X57298931Y-101005693D01*
X57536757Y-101053000D01*
X57779243Y-101053000D01*
X58017069Y-101005693D01*
X58241097Y-100912898D01*
X58442717Y-100778180D01*
X58522000Y-100698897D01*
X58522000Y-101485103D01*
X58442717Y-101405820D01*
X58241097Y-101271102D01*
X58017069Y-101178307D01*
X57779243Y-101131000D01*
X57536757Y-101131000D01*
X57298931Y-101178307D01*
X57074903Y-101271102D01*
X56873283Y-101405820D01*
X56701820Y-101577283D01*
X56567102Y-101778903D01*
X56474307Y-102002931D01*
X56427000Y-102240757D01*
X56427000Y-102483243D01*
X56474307Y-102721069D01*
X56567102Y-102945097D01*
X56701820Y-103146717D01*
X56873283Y-103318180D01*
X57074903Y-103452898D01*
X57298931Y-103545693D01*
X57536757Y-103593000D01*
X57779243Y-103593000D01*
X58017069Y-103545693D01*
X58241097Y-103452898D01*
X58442717Y-103318180D01*
X58522000Y-103238897D01*
X58522000Y-104025103D01*
X58442717Y-103945820D01*
X58241097Y-103811102D01*
X58017069Y-103718307D01*
X57779243Y-103671000D01*
X57536757Y-103671000D01*
X57298931Y-103718307D01*
X57074903Y-103811102D01*
X56873283Y-103945820D01*
X56701820Y-104117283D01*
X56567102Y-104318903D01*
X56474307Y-104542931D01*
X56427000Y-104780757D01*
X56427000Y-105023243D01*
X56474307Y-105261069D01*
X56567102Y-105485097D01*
X56701820Y-105686717D01*
X56873283Y-105858180D01*
X57074903Y-105992898D01*
X57298931Y-106085693D01*
X57536757Y-106133000D01*
X57779243Y-106133000D01*
X58017069Y-106085693D01*
X58241097Y-105992898D01*
X58442717Y-105858180D01*
X58522000Y-105778897D01*
X58522001Y-106565104D01*
X58442717Y-106485820D01*
X58241097Y-106351102D01*
X58017069Y-106258307D01*
X57779243Y-106211000D01*
X57536757Y-106211000D01*
X57298931Y-106258307D01*
X57074903Y-106351102D01*
X56873283Y-106485820D01*
X56701820Y-106657283D01*
X56567102Y-106858903D01*
X56474307Y-107082931D01*
X56427000Y-107320757D01*
X56427000Y-107563243D01*
X56474307Y-107801069D01*
X56567102Y-108025097D01*
X56701820Y-108226717D01*
X56873283Y-108398180D01*
X57074903Y-108532898D01*
X57298931Y-108625693D01*
X57536757Y-108673000D01*
X57779243Y-108673000D01*
X58017069Y-108625693D01*
X58241097Y-108532898D01*
X58442717Y-108398180D01*
X58522001Y-108318896D01*
X58522001Y-109105104D01*
X58442717Y-109025820D01*
X58241097Y-108891102D01*
X58017069Y-108798307D01*
X57779243Y-108751000D01*
X57536757Y-108751000D01*
X57298931Y-108798307D01*
X57074903Y-108891102D01*
X56873283Y-109025820D01*
X56701820Y-109197283D01*
X56567102Y-109398903D01*
X56474307Y-109622931D01*
X56427000Y-109860757D01*
X56427000Y-110103243D01*
X56474307Y-110341069D01*
X56567102Y-110565097D01*
X56701820Y-110766717D01*
X56873283Y-110938180D01*
X57074903Y-111072898D01*
X57298931Y-111165693D01*
X57536757Y-111213000D01*
X57779243Y-111213000D01*
X58017069Y-111165693D01*
X58241097Y-111072898D01*
X58442717Y-110938180D01*
X58522001Y-110858896D01*
X58522001Y-111645104D01*
X58442717Y-111565820D01*
X58241097Y-111431102D01*
X58017069Y-111338307D01*
X57779243Y-111291000D01*
X57536757Y-111291000D01*
X57298931Y-111338307D01*
X57074903Y-111431102D01*
X56873283Y-111565820D01*
X56701820Y-111737283D01*
X56567102Y-111938903D01*
X56474307Y-112162931D01*
X56427000Y-112400757D01*
X56427000Y-112643243D01*
X56474307Y-112881069D01*
X56567102Y-113105097D01*
X56701820Y-113306717D01*
X56873283Y-113478180D01*
X57074903Y-113612898D01*
X57298931Y-113705693D01*
X57536757Y-113753000D01*
X57779243Y-113753000D01*
X58017069Y-113705693D01*
X58241097Y-113612898D01*
X58442717Y-113478180D01*
X58522001Y-113398896D01*
X58522001Y-114185104D01*
X58442717Y-114105820D01*
X58241097Y-113971102D01*
X58017069Y-113878307D01*
X57779243Y-113831000D01*
X57536757Y-113831000D01*
X57298931Y-113878307D01*
X57074903Y-113971102D01*
X56873283Y-114105820D01*
X56701820Y-114277283D01*
X56567102Y-114478903D01*
X56474307Y-114702931D01*
X56427000Y-114940757D01*
X56427000Y-115183243D01*
X56474307Y-115421069D01*
X56567102Y-115645097D01*
X56701820Y-115846717D01*
X56873283Y-116018180D01*
X57074903Y-116152898D01*
X57189168Y-116200228D01*
X57026748Y-116257843D01*
X56776645Y-116406822D01*
X56560412Y-116601731D01*
X56386359Y-116835080D01*
X56261175Y-117097901D01*
X56216524Y-117245110D01*
X56337845Y-117475000D01*
X57531000Y-117475000D01*
X57531000Y-117455000D01*
X57785000Y-117455000D01*
X57785000Y-117475000D01*
X57805000Y-117475000D01*
X57805000Y-117729000D01*
X57785000Y-117729000D01*
X57785000Y-117749000D01*
X57531000Y-117749000D01*
X57531000Y-117729000D01*
X56337845Y-117729000D01*
X56216524Y-117958890D01*
X56261175Y-118106099D01*
X56386359Y-118368920D01*
X56560412Y-118602269D01*
X56776645Y-118797178D01*
X57026748Y-118946157D01*
X57189168Y-119003772D01*
X57074903Y-119051102D01*
X56873283Y-119185820D01*
X56701820Y-119357283D01*
X56567102Y-119558903D01*
X56474307Y-119782931D01*
X56427000Y-120020757D01*
X56427000Y-120263243D01*
X56474307Y-120501069D01*
X56567102Y-120725097D01*
X56701820Y-120926717D01*
X56873283Y-121098180D01*
X57074903Y-121232898D01*
X57298931Y-121325693D01*
X57536757Y-121373000D01*
X57779243Y-121373000D01*
X58017069Y-121325693D01*
X58241097Y-121232898D01*
X58442717Y-121098180D01*
X58522001Y-121018896D01*
X58522001Y-121805104D01*
X58442717Y-121725820D01*
X58241097Y-121591102D01*
X58017069Y-121498307D01*
X57779243Y-121451000D01*
X57536757Y-121451000D01*
X57298931Y-121498307D01*
X57074903Y-121591102D01*
X56873283Y-121725820D01*
X56701820Y-121897283D01*
X56567102Y-122098903D01*
X56474307Y-122322931D01*
X56427000Y-122560757D01*
X56427000Y-122803243D01*
X56474307Y-123041069D01*
X56567102Y-123265097D01*
X56701820Y-123466717D01*
X56873283Y-123638180D01*
X57074903Y-123772898D01*
X57298931Y-123865693D01*
X57536757Y-123913000D01*
X57779243Y-123913000D01*
X58017069Y-123865693D01*
X58241097Y-123772898D01*
X58442717Y-123638180D01*
X58522001Y-123558896D01*
X58522001Y-124345104D01*
X58442717Y-124265820D01*
X58241097Y-124131102D01*
X58017069Y-124038307D01*
X57779243Y-123991000D01*
X57536757Y-123991000D01*
X57298931Y-124038307D01*
X57074903Y-124131102D01*
X56873283Y-124265820D01*
X56701820Y-124437283D01*
X56567102Y-124638903D01*
X56474307Y-124862931D01*
X56427000Y-125100757D01*
X56427000Y-125343243D01*
X56474307Y-125581069D01*
X56567102Y-125805097D01*
X56701820Y-126006717D01*
X56873283Y-126178180D01*
X57074903Y-126312898D01*
X57298931Y-126405693D01*
X57536757Y-126453000D01*
X57779243Y-126453000D01*
X58017069Y-126405693D01*
X58241097Y-126312898D01*
X58442717Y-126178180D01*
X58522001Y-126098896D01*
X58522001Y-127958630D01*
X58398766Y-127728073D01*
X58057609Y-127541997D01*
X56567605Y-129032000D01*
X56581748Y-129046142D01*
X56402142Y-129225748D01*
X56388000Y-129211605D01*
X54897997Y-130701609D01*
X55084073Y-131042766D01*
X55322454Y-131166000D01*
X52898672Y-131166000D01*
X52906415Y-131147987D01*
X52953000Y-130929000D01*
X52953000Y-130429000D01*
X51945000Y-130429000D01*
X51945000Y-130449000D01*
X51691000Y-130449000D01*
X51691000Y-130429000D01*
X50683000Y-130429000D01*
X50683000Y-130929000D01*
X50729585Y-131147987D01*
X50737328Y-131166000D01*
X44258672Y-131166000D01*
X44266415Y-131147987D01*
X44313000Y-130929000D01*
X44313000Y-130429000D01*
X43305000Y-130429000D01*
X43305000Y-130449000D01*
X43051000Y-130449000D01*
X43051000Y-130429000D01*
X42043000Y-130429000D01*
X42043000Y-130929000D01*
X42089585Y-131147987D01*
X42097328Y-131166000D01*
X39681372Y-131166000D01*
X39911927Y-131042766D01*
X40098003Y-130701609D01*
X38608000Y-129211605D01*
X38593858Y-129225748D01*
X38414252Y-129046142D01*
X38428395Y-129032000D01*
X38787605Y-129032000D01*
X40277609Y-130522003D01*
X40618766Y-130335927D01*
X40834513Y-129918591D01*
X40904763Y-129675000D01*
X42043000Y-129675000D01*
X42043000Y-130175000D01*
X43051000Y-130175000D01*
X43051000Y-128834046D01*
X43305000Y-128834046D01*
X43305000Y-130175000D01*
X44313000Y-130175000D01*
X44313000Y-129675000D01*
X50683000Y-129675000D01*
X50683000Y-130175000D01*
X51691000Y-130175000D01*
X51691000Y-128834046D01*
X51945000Y-128834046D01*
X51945000Y-130175000D01*
X52953000Y-130175000D01*
X52953000Y-129675000D01*
X52906415Y-129456013D01*
X52818003Y-129250322D01*
X52691161Y-129065831D01*
X52690253Y-129064946D01*
X53991687Y-129064946D01*
X54044158Y-129531811D01*
X54186703Y-129979468D01*
X54377234Y-130335927D01*
X54718391Y-130522003D01*
X56208395Y-129032000D01*
X54718391Y-127541997D01*
X54377234Y-127728073D01*
X54161487Y-128145409D01*
X54031304Y-128596815D01*
X53991687Y-129064946D01*
X52690253Y-129064946D01*
X52530764Y-128909631D01*
X52342976Y-128787724D01*
X52119874Y-128707881D01*
X51945000Y-128834046D01*
X51691000Y-128834046D01*
X51516126Y-128707881D01*
X51293024Y-128787724D01*
X51105236Y-128909631D01*
X50944839Y-129065831D01*
X50817997Y-129250322D01*
X50729585Y-129456013D01*
X50683000Y-129675000D01*
X44313000Y-129675000D01*
X44266415Y-129456013D01*
X44178003Y-129250322D01*
X44051161Y-129065831D01*
X43890764Y-128909631D01*
X43702976Y-128787724D01*
X43479874Y-128707881D01*
X43305000Y-128834046D01*
X43051000Y-128834046D01*
X42876126Y-128707881D01*
X42653024Y-128787724D01*
X42465236Y-128909631D01*
X42304839Y-129065831D01*
X42177997Y-129250322D01*
X42089585Y-129456013D01*
X42043000Y-129675000D01*
X40904763Y-129675000D01*
X40964696Y-129467185D01*
X41004313Y-128999054D01*
X40951842Y-128532189D01*
X40809297Y-128084532D01*
X40618766Y-127728073D01*
X40277609Y-127541997D01*
X38787605Y-129032000D01*
X38428395Y-129032000D01*
X36938391Y-127541997D01*
X36597234Y-127728073D01*
X36474000Y-127966454D01*
X36474000Y-127362391D01*
X37117997Y-127362391D01*
X38608000Y-128852395D01*
X40098003Y-127362391D01*
X39911927Y-127021234D01*
X39494591Y-126805487D01*
X39043185Y-126675304D01*
X38575054Y-126635687D01*
X38108189Y-126688158D01*
X37660532Y-126830703D01*
X37304073Y-127021234D01*
X37117997Y-127362391D01*
X36474000Y-127362391D01*
X36474000Y-126249000D01*
X42018000Y-126249000D01*
X42018000Y-126774000D01*
X42065066Y-126997865D01*
X42154901Y-127208246D01*
X42284053Y-127397059D01*
X42447559Y-127557047D01*
X42639136Y-127682063D01*
X42872190Y-127765964D01*
X43051000Y-127640163D01*
X43051000Y-126249000D01*
X42018000Y-126249000D01*
X36474000Y-126249000D01*
X36474000Y-125470000D01*
X42018000Y-125470000D01*
X42018000Y-125995000D01*
X43051000Y-125995000D01*
X43051000Y-124603837D01*
X43305000Y-124603837D01*
X43305000Y-125995000D01*
X43325000Y-125995000D01*
X43325000Y-126249000D01*
X43305000Y-126249000D01*
X43305000Y-127640163D01*
X43483810Y-127765964D01*
X43708489Y-127685078D01*
X44939000Y-127685078D01*
X44939000Y-127838922D01*
X44969013Y-127989809D01*
X45027887Y-128131942D01*
X45113358Y-128259859D01*
X45222141Y-128368642D01*
X45350058Y-128454113D01*
X45492191Y-128512987D01*
X45643078Y-128543000D01*
X45796922Y-128543000D01*
X45947809Y-128512987D01*
X46089942Y-128454113D01*
X46217859Y-128368642D01*
X46326642Y-128259859D01*
X46412113Y-128131942D01*
X46470987Y-127989809D01*
X46501000Y-127838922D01*
X46501000Y-127685078D01*
X48495000Y-127685078D01*
X48495000Y-127838922D01*
X48525013Y-127989809D01*
X48583887Y-128131942D01*
X48669358Y-128259859D01*
X48778141Y-128368642D01*
X48906058Y-128454113D01*
X49048191Y-128512987D01*
X49199078Y-128543000D01*
X49352922Y-128543000D01*
X49503809Y-128512987D01*
X49645942Y-128454113D01*
X49773859Y-128368642D01*
X49882642Y-128259859D01*
X49968113Y-128131942D01*
X50026987Y-127989809D01*
X50057000Y-127838922D01*
X50057000Y-127685078D01*
X50026987Y-127534191D01*
X49968113Y-127392058D01*
X49882642Y-127264141D01*
X49773859Y-127155358D01*
X49645942Y-127069887D01*
X49503809Y-127011013D01*
X49352922Y-126981000D01*
X49199078Y-126981000D01*
X49048191Y-127011013D01*
X48906058Y-127069887D01*
X48778141Y-127155358D01*
X48669358Y-127264141D01*
X48583887Y-127392058D01*
X48525013Y-127534191D01*
X48495000Y-127685078D01*
X46501000Y-127685078D01*
X46470987Y-127534191D01*
X46412113Y-127392058D01*
X46326642Y-127264141D01*
X46217859Y-127155358D01*
X46089942Y-127069887D01*
X45947809Y-127011013D01*
X45796922Y-126981000D01*
X45643078Y-126981000D01*
X45492191Y-127011013D01*
X45350058Y-127069887D01*
X45222141Y-127155358D01*
X45113358Y-127264141D01*
X45027887Y-127392058D01*
X44969013Y-127534191D01*
X44939000Y-127685078D01*
X43708489Y-127685078D01*
X43716864Y-127682063D01*
X43908441Y-127557047D01*
X44071947Y-127397059D01*
X44201099Y-127208246D01*
X44204099Y-127201221D01*
X44273584Y-127247649D01*
X44402067Y-127300869D01*
X44538465Y-127328000D01*
X44677535Y-127328000D01*
X44813933Y-127300869D01*
X44942416Y-127247649D01*
X45058049Y-127170386D01*
X45156386Y-127072049D01*
X45233649Y-126956416D01*
X45286869Y-126827933D01*
X45314000Y-126691535D01*
X45314000Y-126552465D01*
X49682000Y-126552465D01*
X49682000Y-126691535D01*
X49709131Y-126827933D01*
X49762351Y-126956416D01*
X49839614Y-127072049D01*
X49937951Y-127170386D01*
X50053584Y-127247649D01*
X50182067Y-127300869D01*
X50318465Y-127328000D01*
X50457535Y-127328000D01*
X50593933Y-127300869D01*
X50722416Y-127247649D01*
X50791901Y-127201221D01*
X50794901Y-127208246D01*
X50924053Y-127397059D01*
X51087559Y-127557047D01*
X51279136Y-127682063D01*
X51512190Y-127765964D01*
X51691000Y-127640163D01*
X51691000Y-126249000D01*
X51945000Y-126249000D01*
X51945000Y-127640163D01*
X52123810Y-127765964D01*
X52356864Y-127682063D01*
X52548441Y-127557047D01*
X52711947Y-127397059D01*
X52735660Y-127362391D01*
X54897997Y-127362391D01*
X56388000Y-128852395D01*
X57878003Y-127362391D01*
X57691927Y-127021234D01*
X57274591Y-126805487D01*
X56823185Y-126675304D01*
X56355054Y-126635687D01*
X55888189Y-126688158D01*
X55440532Y-126830703D01*
X55084073Y-127021234D01*
X54897997Y-127362391D01*
X52735660Y-127362391D01*
X52841099Y-127208246D01*
X52930934Y-126997865D01*
X52978000Y-126774000D01*
X52978000Y-126249000D01*
X51945000Y-126249000D01*
X51691000Y-126249000D01*
X51671000Y-126249000D01*
X51671000Y-125995000D01*
X51691000Y-125995000D01*
X51691000Y-124603837D01*
X51945000Y-124603837D01*
X51945000Y-125995000D01*
X52978000Y-125995000D01*
X52978000Y-125470000D01*
X52930934Y-125246135D01*
X52841099Y-125035754D01*
X52711947Y-124846941D01*
X52548441Y-124686953D01*
X52356864Y-124561937D01*
X52123810Y-124478036D01*
X51945000Y-124603837D01*
X51691000Y-124603837D01*
X51512190Y-124478036D01*
X51279136Y-124561937D01*
X51087559Y-124686953D01*
X50924053Y-124846941D01*
X50794901Y-125035754D01*
X50705066Y-125246135D01*
X50658000Y-125470000D01*
X50658000Y-125969669D01*
X50593933Y-125943131D01*
X50457535Y-125916000D01*
X50318465Y-125916000D01*
X50182067Y-125943131D01*
X50053584Y-125996351D01*
X49937951Y-126073614D01*
X49839614Y-126171951D01*
X49762351Y-126287584D01*
X49709131Y-126416067D01*
X49682000Y-126552465D01*
X45314000Y-126552465D01*
X45286869Y-126416067D01*
X45233649Y-126287584D01*
X45156386Y-126171951D01*
X45058049Y-126073614D01*
X44942416Y-125996351D01*
X44813933Y-125943131D01*
X44677535Y-125916000D01*
X44538465Y-125916000D01*
X44402067Y-125943131D01*
X44338000Y-125969669D01*
X44338000Y-125470000D01*
X44290934Y-125246135D01*
X44201099Y-125035754D01*
X44071947Y-124846941D01*
X43908441Y-124686953D01*
X43716864Y-124561937D01*
X43483810Y-124478036D01*
X43305000Y-124603837D01*
X43051000Y-124603837D01*
X42872190Y-124478036D01*
X42639136Y-124561937D01*
X42447559Y-124686953D01*
X42284053Y-124846941D01*
X42154901Y-125035754D01*
X42065066Y-125246135D01*
X42018000Y-125470000D01*
X36474000Y-125470000D01*
X36474000Y-120585193D01*
X46078000Y-120585193D01*
X46078000Y-120714807D01*
X46103286Y-120841932D01*
X46152888Y-120961680D01*
X46224898Y-121069451D01*
X46316549Y-121161102D01*
X46424320Y-121233112D01*
X46544068Y-121282714D01*
X46671193Y-121308000D01*
X46800807Y-121308000D01*
X46927932Y-121282714D01*
X47047680Y-121233112D01*
X47155451Y-121161102D01*
X47247102Y-121069451D01*
X47319112Y-120961680D01*
X47368714Y-120841932D01*
X47394000Y-120714807D01*
X47394000Y-120585193D01*
X47368714Y-120458068D01*
X47319112Y-120338320D01*
X47247102Y-120230549D01*
X47155451Y-120138898D01*
X47047680Y-120066888D01*
X46927932Y-120017286D01*
X46800807Y-119992000D01*
X46671193Y-119992000D01*
X46544068Y-120017286D01*
X46424320Y-120066888D01*
X46316549Y-120138898D01*
X46224898Y-120230549D01*
X46152888Y-120338320D01*
X46103286Y-120458068D01*
X46078000Y-120585193D01*
X36474000Y-120585193D01*
X36474000Y-119823193D01*
X48364000Y-119823193D01*
X48364000Y-119952807D01*
X48389286Y-120079932D01*
X48438888Y-120199680D01*
X48510898Y-120307451D01*
X48602549Y-120399102D01*
X48710320Y-120471112D01*
X48830068Y-120520714D01*
X48957193Y-120546000D01*
X49086807Y-120546000D01*
X49213932Y-120520714D01*
X49333680Y-120471112D01*
X49441451Y-120399102D01*
X49533102Y-120307451D01*
X49605112Y-120199680D01*
X49654714Y-120079932D01*
X49680000Y-119952807D01*
X49680000Y-119823193D01*
X49654714Y-119696068D01*
X49605112Y-119576320D01*
X49533102Y-119468549D01*
X49441451Y-119376898D01*
X49333680Y-119304888D01*
X49213932Y-119255286D01*
X49086807Y-119230000D01*
X48957193Y-119230000D01*
X48830068Y-119255286D01*
X48710320Y-119304888D01*
X48602549Y-119376898D01*
X48510898Y-119468549D01*
X48438888Y-119576320D01*
X48389286Y-119696068D01*
X48364000Y-119823193D01*
X36474000Y-119823193D01*
X36474000Y-118541078D01*
X42399000Y-118541078D01*
X42399000Y-118694922D01*
X42429013Y-118845809D01*
X42487887Y-118987942D01*
X42573358Y-119115859D01*
X42682141Y-119224642D01*
X42810058Y-119310113D01*
X42952191Y-119368987D01*
X43103078Y-119399000D01*
X43256922Y-119399000D01*
X43407809Y-119368987D01*
X43549942Y-119310113D01*
X43677859Y-119224642D01*
X43786642Y-119115859D01*
X43872113Y-118987942D01*
X43930987Y-118845809D01*
X43961000Y-118694922D01*
X43961000Y-118541078D01*
X43930987Y-118390191D01*
X43872113Y-118248058D01*
X43786642Y-118120141D01*
X43677859Y-118011358D01*
X43549942Y-117925887D01*
X43407809Y-117867013D01*
X43256922Y-117837000D01*
X43103078Y-117837000D01*
X42952191Y-117867013D01*
X42810058Y-117925887D01*
X42682141Y-118011358D01*
X42573358Y-118120141D01*
X42487887Y-118248058D01*
X42429013Y-118390191D01*
X42399000Y-118541078D01*
X36474000Y-118541078D01*
X36474000Y-115938897D01*
X36553283Y-116018180D01*
X36754903Y-116152898D01*
X36978931Y-116245693D01*
X37216757Y-116293000D01*
X37459243Y-116293000D01*
X37697069Y-116245693D01*
X37921097Y-116152898D01*
X38122717Y-116018180D01*
X38294180Y-115846717D01*
X38428898Y-115645097D01*
X38521693Y-115421069D01*
X38532632Y-115366073D01*
X40747995Y-115366073D01*
X40747995Y-115519917D01*
X40778008Y-115670804D01*
X40836882Y-115812937D01*
X40922353Y-115940854D01*
X41031136Y-116049637D01*
X41159053Y-116135108D01*
X41301186Y-116193982D01*
X41452073Y-116223995D01*
X41605917Y-116223995D01*
X41756804Y-116193982D01*
X41898937Y-116135108D01*
X42026854Y-116049637D01*
X42135637Y-115940854D01*
X42221108Y-115812937D01*
X42279982Y-115670804D01*
X42309995Y-115519917D01*
X42309995Y-115493078D01*
X52813000Y-115493078D01*
X52813000Y-115646922D01*
X52843013Y-115797809D01*
X52901887Y-115939942D01*
X52987358Y-116067859D01*
X53096141Y-116176642D01*
X53224058Y-116262113D01*
X53366191Y-116320987D01*
X53517078Y-116351000D01*
X53670922Y-116351000D01*
X53821809Y-116320987D01*
X53963942Y-116262113D01*
X54091859Y-116176642D01*
X54200642Y-116067859D01*
X54286113Y-115939942D01*
X54344987Y-115797809D01*
X54375000Y-115646922D01*
X54375000Y-115493078D01*
X54344987Y-115342191D01*
X54286113Y-115200058D01*
X54200642Y-115072141D01*
X54091859Y-114963358D01*
X53963942Y-114877887D01*
X53821809Y-114819013D01*
X53670922Y-114789000D01*
X53517078Y-114789000D01*
X53366191Y-114819013D01*
X53224058Y-114877887D01*
X53096141Y-114963358D01*
X52987358Y-115072141D01*
X52901887Y-115200058D01*
X52843013Y-115342191D01*
X52813000Y-115493078D01*
X42309995Y-115493078D01*
X42309995Y-115366073D01*
X42279982Y-115215186D01*
X42221108Y-115073053D01*
X42135637Y-114945136D01*
X42026854Y-114836353D01*
X41898937Y-114750882D01*
X41756804Y-114692008D01*
X41605917Y-114661995D01*
X41452073Y-114661995D01*
X41301186Y-114692008D01*
X41159053Y-114750882D01*
X41031136Y-114836353D01*
X40922353Y-114945136D01*
X40836882Y-115073053D01*
X40778008Y-115215186D01*
X40747995Y-115366073D01*
X38532632Y-115366073D01*
X38569000Y-115183243D01*
X38569000Y-114940757D01*
X38521693Y-114702931D01*
X38428898Y-114478903D01*
X38294180Y-114277283D01*
X38122717Y-114105820D01*
X37921097Y-113971102D01*
X37697069Y-113878307D01*
X37459243Y-113831000D01*
X37216757Y-113831000D01*
X36978931Y-113878307D01*
X36754903Y-113971102D01*
X36553283Y-114105820D01*
X36474000Y-114185103D01*
X36474000Y-113398897D01*
X36553283Y-113478180D01*
X36754903Y-113612898D01*
X36978931Y-113705693D01*
X37216757Y-113753000D01*
X37459243Y-113753000D01*
X37697069Y-113705693D01*
X37921097Y-113612898D01*
X38122717Y-113478180D01*
X38294180Y-113306717D01*
X38428898Y-113105097D01*
X38521693Y-112881069D01*
X38555483Y-112711193D01*
X44300000Y-112711193D01*
X44300000Y-112840807D01*
X44325286Y-112967932D01*
X44374888Y-113087680D01*
X44446898Y-113195451D01*
X44538549Y-113287102D01*
X44646320Y-113359112D01*
X44766068Y-113408714D01*
X44893193Y-113434000D01*
X45022807Y-113434000D01*
X45149932Y-113408714D01*
X45269680Y-113359112D01*
X45377451Y-113287102D01*
X45469102Y-113195451D01*
X45541112Y-113087680D01*
X45590714Y-112967932D01*
X45616000Y-112840807D01*
X45616000Y-112711193D01*
X45590714Y-112584068D01*
X45541112Y-112464320D01*
X45469102Y-112356549D01*
X45377451Y-112264898D01*
X45269680Y-112192888D01*
X45149932Y-112143286D01*
X45022807Y-112118000D01*
X44893193Y-112118000D01*
X44766068Y-112143286D01*
X44646320Y-112192888D01*
X44538549Y-112264898D01*
X44446898Y-112356549D01*
X44374888Y-112464320D01*
X44325286Y-112584068D01*
X44300000Y-112711193D01*
X38555483Y-112711193D01*
X38569000Y-112643243D01*
X38569000Y-112400757D01*
X38521693Y-112162931D01*
X38428898Y-111938903D01*
X38294180Y-111737283D01*
X38122717Y-111565820D01*
X37921097Y-111431102D01*
X37697069Y-111338307D01*
X37459243Y-111291000D01*
X37216757Y-111291000D01*
X36978931Y-111338307D01*
X36754903Y-111431102D01*
X36553283Y-111565820D01*
X36474000Y-111645103D01*
X36474000Y-110858897D01*
X36553283Y-110938180D01*
X36754903Y-111072898D01*
X36978931Y-111165693D01*
X37216757Y-111213000D01*
X37459243Y-111213000D01*
X37697069Y-111165693D01*
X37921097Y-111072898D01*
X38122717Y-110938180D01*
X38294180Y-110766717D01*
X38428898Y-110565097D01*
X38486847Y-110425193D01*
X50904000Y-110425193D01*
X50904000Y-110554807D01*
X50929286Y-110681932D01*
X50978888Y-110801680D01*
X51050898Y-110909451D01*
X51142549Y-111001102D01*
X51250320Y-111073112D01*
X51370068Y-111122714D01*
X51497193Y-111148000D01*
X51626807Y-111148000D01*
X51753932Y-111122714D01*
X51873680Y-111073112D01*
X51981451Y-111001102D01*
X52073102Y-110909451D01*
X52145112Y-110801680D01*
X52194714Y-110681932D01*
X52220000Y-110554807D01*
X52220000Y-110425193D01*
X52194714Y-110298068D01*
X52145112Y-110178320D01*
X52073102Y-110070549D01*
X51981451Y-109978898D01*
X51873680Y-109906888D01*
X51753932Y-109857286D01*
X51626807Y-109832000D01*
X51497193Y-109832000D01*
X51370068Y-109857286D01*
X51250320Y-109906888D01*
X51142549Y-109978898D01*
X51050898Y-110070549D01*
X50978888Y-110178320D01*
X50929286Y-110298068D01*
X50904000Y-110425193D01*
X38486847Y-110425193D01*
X38521693Y-110341069D01*
X38569000Y-110103243D01*
X38569000Y-109860757D01*
X38521693Y-109622931D01*
X38428898Y-109398903D01*
X38294180Y-109197283D01*
X38122717Y-109025820D01*
X37921097Y-108891102D01*
X37697069Y-108798307D01*
X37459243Y-108751000D01*
X37216757Y-108751000D01*
X36978931Y-108798307D01*
X36754903Y-108891102D01*
X36553283Y-109025820D01*
X36474000Y-109105103D01*
X36474000Y-108318897D01*
X36553283Y-108398180D01*
X36754903Y-108532898D01*
X36978931Y-108625693D01*
X37216757Y-108673000D01*
X37459243Y-108673000D01*
X37697069Y-108625693D01*
X37921097Y-108532898D01*
X38122717Y-108398180D01*
X38294180Y-108226717D01*
X38360756Y-108127078D01*
X49257000Y-108127078D01*
X49257000Y-108280922D01*
X49287013Y-108431809D01*
X49345887Y-108573942D01*
X49431358Y-108701859D01*
X49540141Y-108810642D01*
X49668058Y-108896113D01*
X49810191Y-108954987D01*
X49961078Y-108985000D01*
X50114922Y-108985000D01*
X50265809Y-108954987D01*
X50407942Y-108896113D01*
X50535859Y-108810642D01*
X50644642Y-108701859D01*
X50730113Y-108573942D01*
X50788987Y-108431809D01*
X50819000Y-108280922D01*
X50819000Y-108127078D01*
X50788987Y-107976191D01*
X50730113Y-107834058D01*
X50644642Y-107706141D01*
X50535859Y-107597358D01*
X50407942Y-107511887D01*
X50265809Y-107453013D01*
X50114922Y-107423000D01*
X49961078Y-107423000D01*
X49810191Y-107453013D01*
X49668058Y-107511887D01*
X49540141Y-107597358D01*
X49431358Y-107706141D01*
X49345887Y-107834058D01*
X49287013Y-107976191D01*
X49257000Y-108127078D01*
X38360756Y-108127078D01*
X38428898Y-108025097D01*
X38521693Y-107801069D01*
X38569000Y-107563243D01*
X38569000Y-107320757D01*
X38521693Y-107082931D01*
X38428898Y-106858903D01*
X38294180Y-106657283D01*
X38122717Y-106485820D01*
X37921097Y-106351102D01*
X37697069Y-106258307D01*
X37459243Y-106211000D01*
X37216757Y-106211000D01*
X36978931Y-106258307D01*
X36754903Y-106351102D01*
X36553283Y-106485820D01*
X36474000Y-106565103D01*
X36474000Y-105778897D01*
X36553283Y-105858180D01*
X36754903Y-105992898D01*
X36978931Y-106085693D01*
X37216757Y-106133000D01*
X37459243Y-106133000D01*
X37697069Y-106085693D01*
X37921097Y-105992898D01*
X38122717Y-105858180D01*
X38294180Y-105686717D01*
X38428898Y-105485097D01*
X38521693Y-105261069D01*
X38569000Y-105023243D01*
X38569000Y-104780757D01*
X38521693Y-104542931D01*
X38428898Y-104318903D01*
X38294180Y-104117283D01*
X38122717Y-103945820D01*
X37921097Y-103811102D01*
X37697069Y-103718307D01*
X37459243Y-103671000D01*
X37216757Y-103671000D01*
X36978931Y-103718307D01*
X36754903Y-103811102D01*
X36553283Y-103945820D01*
X36474000Y-104025103D01*
X36474000Y-103238897D01*
X36553283Y-103318180D01*
X36754903Y-103452898D01*
X36978931Y-103545693D01*
X37216757Y-103593000D01*
X37459243Y-103593000D01*
X37697069Y-103545693D01*
X37921097Y-103452898D01*
X38122717Y-103318180D01*
X38294180Y-103146717D01*
X38428898Y-102945097D01*
X38521693Y-102721069D01*
X38569000Y-102483243D01*
X38569000Y-102240757D01*
X38521693Y-102002931D01*
X38428898Y-101778903D01*
X38294180Y-101577283D01*
X38122717Y-101405820D01*
X37921097Y-101271102D01*
X37697069Y-101178307D01*
X37459243Y-101131000D01*
X37216757Y-101131000D01*
X36978931Y-101178307D01*
X36754903Y-101271102D01*
X36553283Y-101405820D01*
X36474000Y-101485103D01*
X36474000Y-101059707D01*
X53157486Y-101059707D01*
X53157486Y-101189321D01*
X53182772Y-101316446D01*
X53232374Y-101436194D01*
X53304384Y-101543965D01*
X53396035Y-101635616D01*
X53503806Y-101707626D01*
X53623554Y-101757228D01*
X53750679Y-101782514D01*
X53880293Y-101782514D01*
X54007418Y-101757228D01*
X54127166Y-101707626D01*
X54234937Y-101635616D01*
X54326588Y-101543965D01*
X54398598Y-101436194D01*
X54448200Y-101316446D01*
X54473486Y-101189321D01*
X54473486Y-101059707D01*
X54448200Y-100932582D01*
X54398598Y-100812834D01*
X54326588Y-100705063D01*
X54234937Y-100613412D01*
X54127166Y-100541402D01*
X54007418Y-100491800D01*
X53880293Y-100466514D01*
X53750679Y-100466514D01*
X53623554Y-100491800D01*
X53503806Y-100541402D01*
X53396035Y-100613412D01*
X53304384Y-100705063D01*
X53232374Y-100812834D01*
X53182772Y-100932582D01*
X53157486Y-101059707D01*
X36474000Y-101059707D01*
X36474000Y-100698897D01*
X36553283Y-100778180D01*
X36754903Y-100912898D01*
X36978931Y-101005693D01*
X37216757Y-101053000D01*
X37459243Y-101053000D01*
X37697069Y-101005693D01*
X37921097Y-100912898D01*
X38122717Y-100778180D01*
X38294180Y-100606717D01*
X38428898Y-100405097D01*
X38521693Y-100181069D01*
X38569000Y-99943243D01*
X38569000Y-99745078D01*
X42145000Y-99745078D01*
X42145000Y-99898922D01*
X42175013Y-100049809D01*
X42233887Y-100191942D01*
X42319358Y-100319859D01*
X42428141Y-100428642D01*
X42556058Y-100514113D01*
X42698191Y-100572987D01*
X42849078Y-100603000D01*
X43002922Y-100603000D01*
X43153809Y-100572987D01*
X43295942Y-100514113D01*
X43423859Y-100428642D01*
X43532642Y-100319859D01*
X43618113Y-100191942D01*
X43676987Y-100049809D01*
X43707000Y-99898922D01*
X43707000Y-99745078D01*
X44685000Y-99745078D01*
X44685000Y-99898922D01*
X44715013Y-100049809D01*
X44773887Y-100191942D01*
X44859358Y-100319859D01*
X44968141Y-100428642D01*
X45096058Y-100514113D01*
X45238191Y-100572987D01*
X45389078Y-100603000D01*
X45542922Y-100603000D01*
X45693809Y-100572987D01*
X45835942Y-100514113D01*
X45963859Y-100428642D01*
X46072642Y-100319859D01*
X46158113Y-100191942D01*
X46216987Y-100049809D01*
X46247000Y-99898922D01*
X46247000Y-99745078D01*
X46216987Y-99594191D01*
X46158113Y-99452058D01*
X46072642Y-99324141D01*
X45963859Y-99215358D01*
X45835942Y-99129887D01*
X45693809Y-99071013D01*
X45542922Y-99041000D01*
X45389078Y-99041000D01*
X45238191Y-99071013D01*
X45096058Y-99129887D01*
X44968141Y-99215358D01*
X44859358Y-99324141D01*
X44773887Y-99452058D01*
X44715013Y-99594191D01*
X44685000Y-99745078D01*
X43707000Y-99745078D01*
X43676987Y-99594191D01*
X43618113Y-99452058D01*
X43532642Y-99324141D01*
X43423859Y-99215358D01*
X43295942Y-99129887D01*
X43153809Y-99071013D01*
X43002922Y-99041000D01*
X42849078Y-99041000D01*
X42698191Y-99071013D01*
X42556058Y-99129887D01*
X42428141Y-99215358D01*
X42319358Y-99324141D01*
X42233887Y-99452058D01*
X42175013Y-99594191D01*
X42145000Y-99745078D01*
X38569000Y-99745078D01*
X38569000Y-99700757D01*
X38521693Y-99462931D01*
X38428898Y-99238903D01*
X38294180Y-99037283D01*
X38122717Y-98865820D01*
X37921097Y-98731102D01*
X37697069Y-98638307D01*
X37459243Y-98591000D01*
X37216757Y-98591000D01*
X36978931Y-98638307D01*
X36754903Y-98731102D01*
X36553283Y-98865820D01*
X36474000Y-98945103D01*
X36474000Y-98158897D01*
X36553283Y-98238180D01*
X36754903Y-98372898D01*
X36978931Y-98465693D01*
X37216757Y-98513000D01*
X37459243Y-98513000D01*
X37649887Y-98475078D01*
X48749000Y-98475078D01*
X48749000Y-98628922D01*
X48779013Y-98779809D01*
X48837887Y-98921942D01*
X48923358Y-99049859D01*
X49032141Y-99158642D01*
X49160058Y-99244113D01*
X49228913Y-99272634D01*
X49177406Y-99324141D01*
X49091935Y-99452058D01*
X49033061Y-99594191D01*
X49003048Y-99745078D01*
X49003048Y-99898922D01*
X49033061Y-100049809D01*
X49091935Y-100191942D01*
X49177406Y-100319859D01*
X49286189Y-100428642D01*
X49414106Y-100514113D01*
X49556239Y-100572987D01*
X49707126Y-100603000D01*
X49860970Y-100603000D01*
X50011857Y-100572987D01*
X50153990Y-100514113D01*
X50281907Y-100428642D01*
X50390690Y-100319859D01*
X50476161Y-100191942D01*
X50535035Y-100049809D01*
X50565048Y-99898922D01*
X50565048Y-99757193D01*
X53698000Y-99757193D01*
X53698000Y-99886807D01*
X53723286Y-100013932D01*
X53772888Y-100133680D01*
X53844898Y-100241451D01*
X53936549Y-100333102D01*
X54044320Y-100405112D01*
X54164068Y-100454714D01*
X54291193Y-100480000D01*
X54420807Y-100480000D01*
X54547932Y-100454714D01*
X54667680Y-100405112D01*
X54775451Y-100333102D01*
X54867102Y-100241451D01*
X54939112Y-100133680D01*
X54988714Y-100013932D01*
X55014000Y-99886807D01*
X55014000Y-99757193D01*
X54988714Y-99630068D01*
X54939112Y-99510320D01*
X54867102Y-99402549D01*
X54775451Y-99310898D01*
X54667680Y-99238888D01*
X54547932Y-99189286D01*
X54420807Y-99164000D01*
X54291193Y-99164000D01*
X54164068Y-99189286D01*
X54044320Y-99238888D01*
X53936549Y-99310898D01*
X53844898Y-99402549D01*
X53772888Y-99510320D01*
X53723286Y-99630068D01*
X53698000Y-99757193D01*
X50565048Y-99757193D01*
X50565048Y-99745078D01*
X50535035Y-99594191D01*
X50476161Y-99452058D01*
X50390690Y-99324141D01*
X50281907Y-99215358D01*
X50153990Y-99129887D01*
X50085135Y-99101366D01*
X50136642Y-99049859D01*
X50222113Y-98921942D01*
X50280987Y-98779809D01*
X50311000Y-98628922D01*
X50311000Y-98475078D01*
X50280987Y-98324191D01*
X50222113Y-98182058D01*
X50136642Y-98054141D01*
X50027859Y-97945358D01*
X49899942Y-97859887D01*
X49757809Y-97801013D01*
X49606922Y-97771000D01*
X49453078Y-97771000D01*
X49302191Y-97801013D01*
X49160058Y-97859887D01*
X49032141Y-97945358D01*
X48923358Y-98054141D01*
X48837887Y-98182058D01*
X48779013Y-98324191D01*
X48749000Y-98475078D01*
X37649887Y-98475078D01*
X37697069Y-98465693D01*
X37921097Y-98372898D01*
X38122717Y-98238180D01*
X38294180Y-98066717D01*
X38428898Y-97865097D01*
X38521693Y-97641069D01*
X38569000Y-97403243D01*
X38569000Y-97160757D01*
X38521693Y-96922931D01*
X38428898Y-96698903D01*
X38294180Y-96497283D01*
X38239975Y-96443078D01*
X43018934Y-96443078D01*
X43018934Y-96596922D01*
X43048947Y-96747809D01*
X43107821Y-96889942D01*
X43193292Y-97017859D01*
X43302075Y-97126642D01*
X43429992Y-97212113D01*
X43572125Y-97270987D01*
X43723012Y-97301000D01*
X43876856Y-97301000D01*
X44027743Y-97270987D01*
X44169876Y-97212113D01*
X44251967Y-97157262D01*
X44334058Y-97212113D01*
X44476191Y-97270987D01*
X44627078Y-97301000D01*
X44780922Y-97301000D01*
X44931809Y-97270987D01*
X45073942Y-97212113D01*
X45201859Y-97126642D01*
X45310642Y-97017859D01*
X45396113Y-96889942D01*
X45454987Y-96747809D01*
X45485000Y-96596922D01*
X45485000Y-96583678D01*
X46206485Y-96583678D01*
X46206485Y-96713292D01*
X46231771Y-96840417D01*
X46281373Y-96960165D01*
X46353383Y-97067936D01*
X46445034Y-97159587D01*
X46552805Y-97231597D01*
X46672553Y-97281199D01*
X46799678Y-97306485D01*
X46929292Y-97306485D01*
X47056417Y-97281199D01*
X47176165Y-97231597D01*
X47283936Y-97159587D01*
X47375587Y-97067936D01*
X47447597Y-96960165D01*
X47497199Y-96840417D01*
X47522485Y-96713292D01*
X47522485Y-96583678D01*
X47497199Y-96456553D01*
X47447597Y-96336805D01*
X47375587Y-96229034D01*
X47283936Y-96137383D01*
X47176165Y-96065373D01*
X47056417Y-96015771D01*
X46929292Y-95990485D01*
X46799678Y-95990485D01*
X46672553Y-96015771D01*
X46552805Y-96065373D01*
X46445034Y-96137383D01*
X46353383Y-96229034D01*
X46281373Y-96336805D01*
X46231771Y-96456553D01*
X46206485Y-96583678D01*
X45485000Y-96583678D01*
X45485000Y-96443078D01*
X45454987Y-96292191D01*
X45396113Y-96150058D01*
X45310642Y-96022141D01*
X45201859Y-95913358D01*
X45073942Y-95827887D01*
X44931809Y-95769013D01*
X44780922Y-95739000D01*
X44627078Y-95739000D01*
X44476191Y-95769013D01*
X44334058Y-95827887D01*
X44251967Y-95882738D01*
X44169876Y-95827887D01*
X44027743Y-95769013D01*
X43876856Y-95739000D01*
X43723012Y-95739000D01*
X43572125Y-95769013D01*
X43429992Y-95827887D01*
X43302075Y-95913358D01*
X43193292Y-96022141D01*
X43107821Y-96150058D01*
X43048947Y-96292191D01*
X43018934Y-96443078D01*
X38239975Y-96443078D01*
X38122717Y-96325820D01*
X37921097Y-96191102D01*
X37697069Y-96098307D01*
X37459243Y-96051000D01*
X37216757Y-96051000D01*
X36978931Y-96098307D01*
X36754903Y-96191102D01*
X36553283Y-96325820D01*
X36474000Y-96405103D01*
X36474000Y-95618897D01*
X36553283Y-95698180D01*
X36754903Y-95832898D01*
X36978931Y-95925693D01*
X37216757Y-95973000D01*
X37459243Y-95973000D01*
X37697069Y-95925693D01*
X37921097Y-95832898D01*
X38122717Y-95698180D01*
X38294180Y-95526717D01*
X38330939Y-95471703D01*
X47070743Y-95471703D01*
X47070743Y-95601317D01*
X47096029Y-95728442D01*
X47145631Y-95848190D01*
X47217641Y-95955961D01*
X47309292Y-96047612D01*
X47417063Y-96119622D01*
X47536811Y-96169224D01*
X47663936Y-96194510D01*
X47793550Y-96194510D01*
X47920675Y-96169224D01*
X48040423Y-96119622D01*
X48148194Y-96047612D01*
X48239845Y-95955961D01*
X48311855Y-95848190D01*
X48361457Y-95728442D01*
X48386743Y-95601317D01*
X48386743Y-95471703D01*
X48361457Y-95344578D01*
X48311855Y-95224830D01*
X48239845Y-95117059D01*
X48148194Y-95025408D01*
X48040423Y-94953398D01*
X47920675Y-94903796D01*
X47793550Y-94878510D01*
X47663936Y-94878510D01*
X47536811Y-94903796D01*
X47417063Y-94953398D01*
X47309292Y-95025408D01*
X47217641Y-95117059D01*
X47145631Y-95224830D01*
X47096029Y-95344578D01*
X47070743Y-95471703D01*
X38330939Y-95471703D01*
X38428898Y-95325097D01*
X38521693Y-95101069D01*
X38569000Y-94863243D01*
X38569000Y-94620757D01*
X38521693Y-94382931D01*
X38428898Y-94158903D01*
X38294180Y-93957283D01*
X38122717Y-93785820D01*
X37921097Y-93651102D01*
X37697069Y-93558307D01*
X37459243Y-93511000D01*
X37216757Y-93511000D01*
X36978931Y-93558307D01*
X36754903Y-93651102D01*
X36553283Y-93785820D01*
X36474000Y-93865103D01*
X36474000Y-93078897D01*
X36553283Y-93158180D01*
X36754903Y-93292898D01*
X36978931Y-93385693D01*
X37216757Y-93433000D01*
X37459243Y-93433000D01*
X37697069Y-93385693D01*
X37921097Y-93292898D01*
X38122717Y-93158180D01*
X38294180Y-92986717D01*
X38428898Y-92785097D01*
X38445674Y-92744594D01*
X43917077Y-92744594D01*
X43917077Y-92898438D01*
X43947090Y-93049325D01*
X44005964Y-93191458D01*
X44091435Y-93319375D01*
X44200218Y-93428158D01*
X44328135Y-93513629D01*
X44470268Y-93572503D01*
X44621155Y-93602516D01*
X44774999Y-93602516D01*
X44925886Y-93572503D01*
X45068019Y-93513629D01*
X45082426Y-93504003D01*
X45096058Y-93513111D01*
X45238191Y-93571985D01*
X45389078Y-93601998D01*
X45542922Y-93601998D01*
X45693809Y-93571985D01*
X45835942Y-93513111D01*
X45963859Y-93427640D01*
X46072642Y-93318857D01*
X46158113Y-93190940D01*
X46216987Y-93048807D01*
X46247000Y-92897920D01*
X46247000Y-92744076D01*
X46216987Y-92593189D01*
X46158113Y-92451056D01*
X46072642Y-92323139D01*
X45963859Y-92214356D01*
X45835942Y-92128885D01*
X45693809Y-92070011D01*
X45542922Y-92039998D01*
X45389078Y-92039998D01*
X45238191Y-92070011D01*
X45096058Y-92128885D01*
X45081651Y-92138511D01*
X45068019Y-92129403D01*
X44925886Y-92070529D01*
X44774999Y-92040516D01*
X44621155Y-92040516D01*
X44470268Y-92070529D01*
X44328135Y-92129403D01*
X44200218Y-92214874D01*
X44091435Y-92323657D01*
X44005964Y-92451574D01*
X43947090Y-92593707D01*
X43917077Y-92744594D01*
X38445674Y-92744594D01*
X38521693Y-92561069D01*
X38569000Y-92323243D01*
X38569000Y-92080757D01*
X38529702Y-91883193D01*
X46078000Y-91883193D01*
X46078000Y-92012807D01*
X46103286Y-92139932D01*
X46152888Y-92259680D01*
X46224898Y-92367451D01*
X46316549Y-92459102D01*
X46424320Y-92531112D01*
X46544068Y-92580714D01*
X46671193Y-92606000D01*
X46800807Y-92606000D01*
X46927932Y-92580714D01*
X47047680Y-92531112D01*
X47155451Y-92459102D01*
X47244000Y-92370553D01*
X47332549Y-92459102D01*
X47440320Y-92531112D01*
X47560068Y-92580714D01*
X47687193Y-92606000D01*
X47816807Y-92606000D01*
X47943932Y-92580714D01*
X48063680Y-92531112D01*
X48171451Y-92459102D01*
X48263102Y-92367451D01*
X48335112Y-92259680D01*
X48384714Y-92139932D01*
X48410000Y-92012807D01*
X48410000Y-91883193D01*
X48384714Y-91756068D01*
X48335112Y-91636320D01*
X48263102Y-91528549D01*
X48171451Y-91436898D01*
X48063680Y-91364888D01*
X47943932Y-91315286D01*
X47816807Y-91290000D01*
X47687193Y-91290000D01*
X47560068Y-91315286D01*
X47440320Y-91364888D01*
X47332549Y-91436898D01*
X47244000Y-91525447D01*
X47155451Y-91436898D01*
X47047680Y-91364888D01*
X46927932Y-91315286D01*
X46800807Y-91290000D01*
X46671193Y-91290000D01*
X46544068Y-91315286D01*
X46424320Y-91364888D01*
X46316549Y-91436898D01*
X46224898Y-91528549D01*
X46152888Y-91636320D01*
X46103286Y-91756068D01*
X46078000Y-91883193D01*
X38529702Y-91883193D01*
X38521693Y-91842931D01*
X38428898Y-91618903D01*
X38294180Y-91417283D01*
X38122717Y-91245820D01*
X37921097Y-91111102D01*
X37697069Y-91018307D01*
X37459243Y-90971000D01*
X37216757Y-90971000D01*
X36978931Y-91018307D01*
X36754903Y-91111102D01*
X36553283Y-91245820D01*
X36474000Y-91325103D01*
X36474000Y-90538897D01*
X36553283Y-90618180D01*
X36754903Y-90752898D01*
X36978931Y-90845693D01*
X37216757Y-90893000D01*
X37459243Y-90893000D01*
X37697069Y-90845693D01*
X37921097Y-90752898D01*
X38122717Y-90618180D01*
X38294180Y-90446717D01*
X38428898Y-90245097D01*
X38521693Y-90021069D01*
X38569000Y-89783243D01*
X38569000Y-89540757D01*
X38521693Y-89302931D01*
X38428898Y-89078903D01*
X38294180Y-88877283D01*
X38122717Y-88705820D01*
X37921097Y-88571102D01*
X37697069Y-88478307D01*
X37459243Y-88431000D01*
X37216757Y-88431000D01*
X36978931Y-88478307D01*
X36754903Y-88571102D01*
X36553283Y-88705820D01*
X36474000Y-88785103D01*
X36474000Y-88353464D01*
X36488000Y-88354843D01*
X38188000Y-88354843D01*
X38262689Y-88347487D01*
X38329589Y-88327193D01*
X49887988Y-88327193D01*
X49887988Y-88456807D01*
X49913274Y-88583932D01*
X49962876Y-88703680D01*
X50034886Y-88811451D01*
X50126537Y-88903102D01*
X50234308Y-88975112D01*
X50354056Y-89024714D01*
X50481181Y-89050000D01*
X50548167Y-89050000D01*
X50548167Y-89116974D01*
X50573453Y-89244099D01*
X50623055Y-89363847D01*
X50695065Y-89471618D01*
X50786716Y-89563269D01*
X50894487Y-89635279D01*
X50955582Y-89660586D01*
X50929286Y-89724068D01*
X50904000Y-89851193D01*
X50904000Y-89980807D01*
X50929286Y-90107932D01*
X50978888Y-90227680D01*
X51050898Y-90335451D01*
X51142549Y-90427102D01*
X51250320Y-90499112D01*
X51278873Y-90510939D01*
X51260249Y-90604569D01*
X51260249Y-90734183D01*
X51285535Y-90861308D01*
X51335137Y-90981056D01*
X51407147Y-91088827D01*
X51498798Y-91180478D01*
X51539548Y-91207706D01*
X51487876Y-91285040D01*
X51438274Y-91404788D01*
X51412988Y-91531913D01*
X51412988Y-91661527D01*
X51438274Y-91788652D01*
X51487876Y-91908400D01*
X51559886Y-92016171D01*
X51651537Y-92107822D01*
X51759308Y-92179832D01*
X51879056Y-92229434D01*
X52006181Y-92254720D01*
X52135795Y-92254720D01*
X52262920Y-92229434D01*
X52382668Y-92179832D01*
X52490439Y-92107822D01*
X52582090Y-92016171D01*
X52654100Y-91908400D01*
X52703702Y-91788652D01*
X52728988Y-91661527D01*
X52728988Y-91531913D01*
X52703702Y-91404788D01*
X52654100Y-91285040D01*
X52582090Y-91177269D01*
X52490439Y-91085618D01*
X52449689Y-91058390D01*
X52501361Y-90981056D01*
X52550963Y-90861308D01*
X52576249Y-90734183D01*
X52576249Y-90604569D01*
X52550963Y-90477444D01*
X52501361Y-90357696D01*
X52429351Y-90249925D01*
X52337700Y-90158274D01*
X52229929Y-90086264D01*
X52201376Y-90074437D01*
X52220000Y-89980807D01*
X52220000Y-89851193D01*
X52194714Y-89724068D01*
X52145112Y-89604320D01*
X52073102Y-89496549D01*
X51981451Y-89404898D01*
X51873680Y-89332888D01*
X51812585Y-89307581D01*
X51838881Y-89244099D01*
X51864167Y-89116974D01*
X51864167Y-88987360D01*
X51838881Y-88860235D01*
X51789279Y-88740487D01*
X51717269Y-88632716D01*
X51625618Y-88541065D01*
X51517847Y-88469055D01*
X51398099Y-88419453D01*
X51270974Y-88394167D01*
X51203988Y-88394167D01*
X51203988Y-88327193D01*
X51178702Y-88200068D01*
X51158765Y-88151937D01*
X51250320Y-88213112D01*
X51370068Y-88262714D01*
X51497193Y-88288000D01*
X51626807Y-88288000D01*
X51753932Y-88262714D01*
X51873680Y-88213112D01*
X51981451Y-88141102D01*
X52073102Y-88049451D01*
X52145112Y-87941680D01*
X52194714Y-87821932D01*
X52220000Y-87694807D01*
X52220000Y-87565193D01*
X52194714Y-87438068D01*
X52145112Y-87318320D01*
X52073102Y-87210549D01*
X51984553Y-87122000D01*
X52074301Y-87032252D01*
X52146311Y-86924481D01*
X52195913Y-86804733D01*
X52221199Y-86677608D01*
X52221199Y-86547994D01*
X52195913Y-86420869D01*
X52146311Y-86301121D01*
X52074301Y-86193350D01*
X51982650Y-86101699D01*
X51874879Y-86029689D01*
X51755131Y-85980087D01*
X51628006Y-85954801D01*
X51498392Y-85954801D01*
X51371267Y-85980087D01*
X51251519Y-86029689D01*
X51143748Y-86101699D01*
X51052097Y-86193350D01*
X50980087Y-86301121D01*
X50930485Y-86420869D01*
X50905199Y-86547994D01*
X50905199Y-86677608D01*
X50930485Y-86804733D01*
X50980087Y-86924481D01*
X51052097Y-87032252D01*
X51140646Y-87120801D01*
X51050898Y-87210549D01*
X50978888Y-87318320D01*
X50929286Y-87438068D01*
X50904000Y-87565193D01*
X50904000Y-87694807D01*
X50929286Y-87821932D01*
X50949223Y-87870063D01*
X50857668Y-87808888D01*
X50737920Y-87759286D01*
X50610795Y-87734000D01*
X50481181Y-87734000D01*
X50354056Y-87759286D01*
X50234308Y-87808888D01*
X50126537Y-87880898D01*
X50034886Y-87972549D01*
X49962876Y-88080320D01*
X49913274Y-88200068D01*
X49887988Y-88327193D01*
X38329589Y-88327193D01*
X38334508Y-88325701D01*
X38400696Y-88290322D01*
X38458711Y-88242711D01*
X38506322Y-88184696D01*
X38541701Y-88118508D01*
X38563487Y-88046689D01*
X38570843Y-87972000D01*
X38570843Y-86272000D01*
X38563487Y-86197311D01*
X38541701Y-86125492D01*
X38506322Y-86059304D01*
X38458711Y-86001289D01*
X38400696Y-85953678D01*
X38334508Y-85918299D01*
X38262689Y-85896513D01*
X38188000Y-85889157D01*
X36488000Y-85889157D01*
X36474000Y-85890536D01*
X36474000Y-84981609D01*
X37117997Y-84981609D01*
X37304073Y-85322766D01*
X37721409Y-85538513D01*
X38172815Y-85668696D01*
X38640946Y-85708313D01*
X39107811Y-85655842D01*
X39555468Y-85513297D01*
X39911927Y-85322766D01*
X40098003Y-84981609D01*
X54897997Y-84981609D01*
X55084073Y-85322766D01*
X55501409Y-85538513D01*
X55952815Y-85668696D01*
X56420946Y-85708313D01*
X56887811Y-85655842D01*
X57335468Y-85513297D01*
X57691927Y-85322766D01*
X57878003Y-84981609D01*
X56388000Y-83491605D01*
X54897997Y-84981609D01*
X40098003Y-84981609D01*
X38608000Y-83491605D01*
X37117997Y-84981609D01*
X36474000Y-84981609D01*
X36474000Y-84385372D01*
X36597234Y-84615927D01*
X36938391Y-84802003D01*
X38428395Y-83312000D01*
X38787605Y-83312000D01*
X40277609Y-84802003D01*
X40618766Y-84615927D01*
X40834513Y-84198591D01*
X40964696Y-83747185D01*
X40998736Y-83344946D01*
X53991687Y-83344946D01*
X54044158Y-83811811D01*
X54186703Y-84259468D01*
X54377234Y-84615927D01*
X54718391Y-84802003D01*
X56208395Y-83312000D01*
X54718391Y-81821997D01*
X54377234Y-82008073D01*
X54161487Y-82425409D01*
X54031304Y-82876815D01*
X53991687Y-83344946D01*
X40998736Y-83344946D01*
X41004313Y-83279054D01*
X40951842Y-82812189D01*
X40809297Y-82364532D01*
X40618766Y-82008073D01*
X40277609Y-81821997D01*
X38787605Y-83312000D01*
X38428395Y-83312000D01*
X38414252Y-83297858D01*
X38593858Y-83118252D01*
X38608000Y-83132395D01*
X40098003Y-81642391D01*
X39911927Y-81301234D01*
X39673546Y-81178000D01*
X55314628Y-81178000D01*
X55084073Y-81301234D01*
%TA.AperFunction,Conductor*%
D18*
G36*
X55084073Y-81301234D02*
G01*
X54897997Y-81642391D01*
X56388000Y-83132395D01*
X56402142Y-83118252D01*
X56581748Y-83297858D01*
X56567605Y-83312000D01*
X58057609Y-84802003D01*
X58398766Y-84615927D01*
X58522000Y-84377546D01*
X58522000Y-85890536D01*
X58508000Y-85889157D01*
X56808000Y-85889157D01*
X56733311Y-85896513D01*
X56661492Y-85918299D01*
X56595304Y-85953678D01*
X56537289Y-86001289D01*
X56489678Y-86059304D01*
X56454299Y-86125492D01*
X56432513Y-86197311D01*
X56425157Y-86272000D01*
X56425157Y-87972000D01*
X56432513Y-88046689D01*
X56454299Y-88118508D01*
X56489678Y-88184696D01*
X56537289Y-88242711D01*
X56595304Y-88290322D01*
X56661492Y-88325701D01*
X56733311Y-88347487D01*
X56808000Y-88354843D01*
X58508000Y-88354843D01*
X58522000Y-88353464D01*
X58522000Y-88785103D01*
X58442717Y-88705820D01*
X58241097Y-88571102D01*
X58017069Y-88478307D01*
X57779243Y-88431000D01*
X57536757Y-88431000D01*
X57298931Y-88478307D01*
X57074903Y-88571102D01*
X56873283Y-88705820D01*
X56701820Y-88877283D01*
X56567102Y-89078903D01*
X56474307Y-89302931D01*
X56427000Y-89540757D01*
X56427000Y-89783243D01*
X56474307Y-90021069D01*
X56567102Y-90245097D01*
X56701820Y-90446717D01*
X56873283Y-90618180D01*
X57074903Y-90752898D01*
X57298931Y-90845693D01*
X57536757Y-90893000D01*
X57779243Y-90893000D01*
X58017069Y-90845693D01*
X58241097Y-90752898D01*
X58442717Y-90618180D01*
X58522000Y-90538897D01*
X58522000Y-91325103D01*
X58442717Y-91245820D01*
X58241097Y-91111102D01*
X58017069Y-91018307D01*
X57779243Y-90971000D01*
X57536757Y-90971000D01*
X57298931Y-91018307D01*
X57074903Y-91111102D01*
X56873283Y-91245820D01*
X56701820Y-91417283D01*
X56567102Y-91618903D01*
X56474307Y-91842931D01*
X56427000Y-92080757D01*
X56427000Y-92323243D01*
X56474307Y-92561069D01*
X56567102Y-92785097D01*
X56701820Y-92986717D01*
X56873283Y-93158180D01*
X57074903Y-93292898D01*
X57298931Y-93385693D01*
X57536757Y-93433000D01*
X57779243Y-93433000D01*
X58017069Y-93385693D01*
X58241097Y-93292898D01*
X58442717Y-93158180D01*
X58522000Y-93078897D01*
X58522000Y-93865103D01*
X58442717Y-93785820D01*
X58241097Y-93651102D01*
X58017069Y-93558307D01*
X57779243Y-93511000D01*
X57536757Y-93511000D01*
X57298931Y-93558307D01*
X57074903Y-93651102D01*
X56873283Y-93785820D01*
X56701820Y-93957283D01*
X56567102Y-94158903D01*
X56474307Y-94382931D01*
X56427000Y-94620757D01*
X56427000Y-94863243D01*
X56474307Y-95101069D01*
X56567102Y-95325097D01*
X56701820Y-95526717D01*
X56873283Y-95698180D01*
X57074903Y-95832898D01*
X57298931Y-95925693D01*
X57536757Y-95973000D01*
X57779243Y-95973000D01*
X58017069Y-95925693D01*
X58241097Y-95832898D01*
X58442717Y-95698180D01*
X58522000Y-95618897D01*
X58522000Y-96405103D01*
X58442717Y-96325820D01*
X58241097Y-96191102D01*
X58017069Y-96098307D01*
X57779243Y-96051000D01*
X57536757Y-96051000D01*
X57298931Y-96098307D01*
X57074903Y-96191102D01*
X56873283Y-96325820D01*
X56701820Y-96497283D01*
X56567102Y-96698903D01*
X56474307Y-96922931D01*
X56427000Y-97160757D01*
X56427000Y-97403243D01*
X56474307Y-97641069D01*
X56567102Y-97865097D01*
X56701820Y-98066717D01*
X56873283Y-98238180D01*
X57074903Y-98372898D01*
X57298931Y-98465693D01*
X57536757Y-98513000D01*
X57779243Y-98513000D01*
X58017069Y-98465693D01*
X58241097Y-98372898D01*
X58442717Y-98238180D01*
X58522000Y-98158897D01*
X58522000Y-98945103D01*
X58442717Y-98865820D01*
X58241097Y-98731102D01*
X58017069Y-98638307D01*
X57779243Y-98591000D01*
X57536757Y-98591000D01*
X57298931Y-98638307D01*
X57074903Y-98731102D01*
X56873283Y-98865820D01*
X56701820Y-99037283D01*
X56567102Y-99238903D01*
X56474307Y-99462931D01*
X56427000Y-99700757D01*
X56427000Y-99943243D01*
X56474307Y-100181069D01*
X56567102Y-100405097D01*
X56701820Y-100606717D01*
X56873283Y-100778180D01*
X57074903Y-100912898D01*
X57298931Y-101005693D01*
X57536757Y-101053000D01*
X57779243Y-101053000D01*
X58017069Y-101005693D01*
X58241097Y-100912898D01*
X58442717Y-100778180D01*
X58522000Y-100698897D01*
X58522000Y-101485103D01*
X58442717Y-101405820D01*
X58241097Y-101271102D01*
X58017069Y-101178307D01*
X57779243Y-101131000D01*
X57536757Y-101131000D01*
X57298931Y-101178307D01*
X57074903Y-101271102D01*
X56873283Y-101405820D01*
X56701820Y-101577283D01*
X56567102Y-101778903D01*
X56474307Y-102002931D01*
X56427000Y-102240757D01*
X56427000Y-102483243D01*
X56474307Y-102721069D01*
X56567102Y-102945097D01*
X56701820Y-103146717D01*
X56873283Y-103318180D01*
X57074903Y-103452898D01*
X57298931Y-103545693D01*
X57536757Y-103593000D01*
X57779243Y-103593000D01*
X58017069Y-103545693D01*
X58241097Y-103452898D01*
X58442717Y-103318180D01*
X58522000Y-103238897D01*
X58522000Y-104025103D01*
X58442717Y-103945820D01*
X58241097Y-103811102D01*
X58017069Y-103718307D01*
X57779243Y-103671000D01*
X57536757Y-103671000D01*
X57298931Y-103718307D01*
X57074903Y-103811102D01*
X56873283Y-103945820D01*
X56701820Y-104117283D01*
X56567102Y-104318903D01*
X56474307Y-104542931D01*
X56427000Y-104780757D01*
X56427000Y-105023243D01*
X56474307Y-105261069D01*
X56567102Y-105485097D01*
X56701820Y-105686717D01*
X56873283Y-105858180D01*
X57074903Y-105992898D01*
X57298931Y-106085693D01*
X57536757Y-106133000D01*
X57779243Y-106133000D01*
X58017069Y-106085693D01*
X58241097Y-105992898D01*
X58442717Y-105858180D01*
X58522000Y-105778897D01*
X58522001Y-106565104D01*
X58442717Y-106485820D01*
X58241097Y-106351102D01*
X58017069Y-106258307D01*
X57779243Y-106211000D01*
X57536757Y-106211000D01*
X57298931Y-106258307D01*
X57074903Y-106351102D01*
X56873283Y-106485820D01*
X56701820Y-106657283D01*
X56567102Y-106858903D01*
X56474307Y-107082931D01*
X56427000Y-107320757D01*
X56427000Y-107563243D01*
X56474307Y-107801069D01*
X56567102Y-108025097D01*
X56701820Y-108226717D01*
X56873283Y-108398180D01*
X57074903Y-108532898D01*
X57298931Y-108625693D01*
X57536757Y-108673000D01*
X57779243Y-108673000D01*
X58017069Y-108625693D01*
X58241097Y-108532898D01*
X58442717Y-108398180D01*
X58522001Y-108318896D01*
X58522001Y-109105104D01*
X58442717Y-109025820D01*
X58241097Y-108891102D01*
X58017069Y-108798307D01*
X57779243Y-108751000D01*
X57536757Y-108751000D01*
X57298931Y-108798307D01*
X57074903Y-108891102D01*
X56873283Y-109025820D01*
X56701820Y-109197283D01*
X56567102Y-109398903D01*
X56474307Y-109622931D01*
X56427000Y-109860757D01*
X56427000Y-110103243D01*
X56474307Y-110341069D01*
X56567102Y-110565097D01*
X56701820Y-110766717D01*
X56873283Y-110938180D01*
X57074903Y-111072898D01*
X57298931Y-111165693D01*
X57536757Y-111213000D01*
X57779243Y-111213000D01*
X58017069Y-111165693D01*
X58241097Y-111072898D01*
X58442717Y-110938180D01*
X58522001Y-110858896D01*
X58522001Y-111645104D01*
X58442717Y-111565820D01*
X58241097Y-111431102D01*
X58017069Y-111338307D01*
X57779243Y-111291000D01*
X57536757Y-111291000D01*
X57298931Y-111338307D01*
X57074903Y-111431102D01*
X56873283Y-111565820D01*
X56701820Y-111737283D01*
X56567102Y-111938903D01*
X56474307Y-112162931D01*
X56427000Y-112400757D01*
X56427000Y-112643243D01*
X56474307Y-112881069D01*
X56567102Y-113105097D01*
X56701820Y-113306717D01*
X56873283Y-113478180D01*
X57074903Y-113612898D01*
X57298931Y-113705693D01*
X57536757Y-113753000D01*
X57779243Y-113753000D01*
X58017069Y-113705693D01*
X58241097Y-113612898D01*
X58442717Y-113478180D01*
X58522001Y-113398896D01*
X58522001Y-114185104D01*
X58442717Y-114105820D01*
X58241097Y-113971102D01*
X58017069Y-113878307D01*
X57779243Y-113831000D01*
X57536757Y-113831000D01*
X57298931Y-113878307D01*
X57074903Y-113971102D01*
X56873283Y-114105820D01*
X56701820Y-114277283D01*
X56567102Y-114478903D01*
X56474307Y-114702931D01*
X56427000Y-114940757D01*
X56427000Y-115183243D01*
X56474307Y-115421069D01*
X56567102Y-115645097D01*
X56701820Y-115846717D01*
X56873283Y-116018180D01*
X57074903Y-116152898D01*
X57189168Y-116200228D01*
X57026748Y-116257843D01*
X56776645Y-116406822D01*
X56560412Y-116601731D01*
X56386359Y-116835080D01*
X56261175Y-117097901D01*
X56216524Y-117245110D01*
X56337845Y-117475000D01*
X57531000Y-117475000D01*
X57531000Y-117455000D01*
X57785000Y-117455000D01*
X57785000Y-117475000D01*
X57805000Y-117475000D01*
X57805000Y-117729000D01*
X57785000Y-117729000D01*
X57785000Y-117749000D01*
X57531000Y-117749000D01*
X57531000Y-117729000D01*
X56337845Y-117729000D01*
X56216524Y-117958890D01*
X56261175Y-118106099D01*
X56386359Y-118368920D01*
X56560412Y-118602269D01*
X56776645Y-118797178D01*
X57026748Y-118946157D01*
X57189168Y-119003772D01*
X57074903Y-119051102D01*
X56873283Y-119185820D01*
X56701820Y-119357283D01*
X56567102Y-119558903D01*
X56474307Y-119782931D01*
X56427000Y-120020757D01*
X56427000Y-120263243D01*
X56474307Y-120501069D01*
X56567102Y-120725097D01*
X56701820Y-120926717D01*
X56873283Y-121098180D01*
X57074903Y-121232898D01*
X57298931Y-121325693D01*
X57536757Y-121373000D01*
X57779243Y-121373000D01*
X58017069Y-121325693D01*
X58241097Y-121232898D01*
X58442717Y-121098180D01*
X58522001Y-121018896D01*
X58522001Y-121805104D01*
X58442717Y-121725820D01*
X58241097Y-121591102D01*
X58017069Y-121498307D01*
X57779243Y-121451000D01*
X57536757Y-121451000D01*
X57298931Y-121498307D01*
X57074903Y-121591102D01*
X56873283Y-121725820D01*
X56701820Y-121897283D01*
X56567102Y-122098903D01*
X56474307Y-122322931D01*
X56427000Y-122560757D01*
X56427000Y-122803243D01*
X56474307Y-123041069D01*
X56567102Y-123265097D01*
X56701820Y-123466717D01*
X56873283Y-123638180D01*
X57074903Y-123772898D01*
X57298931Y-123865693D01*
X57536757Y-123913000D01*
X57779243Y-123913000D01*
X58017069Y-123865693D01*
X58241097Y-123772898D01*
X58442717Y-123638180D01*
X58522001Y-123558896D01*
X58522001Y-124345104D01*
X58442717Y-124265820D01*
X58241097Y-124131102D01*
X58017069Y-124038307D01*
X57779243Y-123991000D01*
X57536757Y-123991000D01*
X57298931Y-124038307D01*
X57074903Y-124131102D01*
X56873283Y-124265820D01*
X56701820Y-124437283D01*
X56567102Y-124638903D01*
X56474307Y-124862931D01*
X56427000Y-125100757D01*
X56427000Y-125343243D01*
X56474307Y-125581069D01*
X56567102Y-125805097D01*
X56701820Y-126006717D01*
X56873283Y-126178180D01*
X57074903Y-126312898D01*
X57298931Y-126405693D01*
X57536757Y-126453000D01*
X57779243Y-126453000D01*
X58017069Y-126405693D01*
X58241097Y-126312898D01*
X58442717Y-126178180D01*
X58522001Y-126098896D01*
X58522001Y-127958630D01*
X58398766Y-127728073D01*
X58057609Y-127541997D01*
X56567605Y-129032000D01*
X56581748Y-129046142D01*
X56402142Y-129225748D01*
X56388000Y-129211605D01*
X54897997Y-130701609D01*
X55084073Y-131042766D01*
X55322454Y-131166000D01*
X52898672Y-131166000D01*
X52906415Y-131147987D01*
X52953000Y-130929000D01*
X52953000Y-130429000D01*
X51945000Y-130429000D01*
X51945000Y-130449000D01*
X51691000Y-130449000D01*
X51691000Y-130429000D01*
X50683000Y-130429000D01*
X50683000Y-130929000D01*
X50729585Y-131147987D01*
X50737328Y-131166000D01*
X44258672Y-131166000D01*
X44266415Y-131147987D01*
X44313000Y-130929000D01*
X44313000Y-130429000D01*
X43305000Y-130429000D01*
X43305000Y-130449000D01*
X43051000Y-130449000D01*
X43051000Y-130429000D01*
X42043000Y-130429000D01*
X42043000Y-130929000D01*
X42089585Y-131147987D01*
X42097328Y-131166000D01*
X39681372Y-131166000D01*
X39911927Y-131042766D01*
X40098003Y-130701609D01*
X38608000Y-129211605D01*
X38593858Y-129225748D01*
X38414252Y-129046142D01*
X38428395Y-129032000D01*
X38787605Y-129032000D01*
X40277609Y-130522003D01*
X40618766Y-130335927D01*
X40834513Y-129918591D01*
X40904763Y-129675000D01*
X42043000Y-129675000D01*
X42043000Y-130175000D01*
X43051000Y-130175000D01*
X43051000Y-128834046D01*
X43305000Y-128834046D01*
X43305000Y-130175000D01*
X44313000Y-130175000D01*
X44313000Y-129675000D01*
X50683000Y-129675000D01*
X50683000Y-130175000D01*
X51691000Y-130175000D01*
X51691000Y-128834046D01*
X51945000Y-128834046D01*
X51945000Y-130175000D01*
X52953000Y-130175000D01*
X52953000Y-129675000D01*
X52906415Y-129456013D01*
X52818003Y-129250322D01*
X52691161Y-129065831D01*
X52690253Y-129064946D01*
X53991687Y-129064946D01*
X54044158Y-129531811D01*
X54186703Y-129979468D01*
X54377234Y-130335927D01*
X54718391Y-130522003D01*
X56208395Y-129032000D01*
X54718391Y-127541997D01*
X54377234Y-127728073D01*
X54161487Y-128145409D01*
X54031304Y-128596815D01*
X53991687Y-129064946D01*
X52690253Y-129064946D01*
X52530764Y-128909631D01*
X52342976Y-128787724D01*
X52119874Y-128707881D01*
X51945000Y-128834046D01*
X51691000Y-128834046D01*
X51516126Y-128707881D01*
X51293024Y-128787724D01*
X51105236Y-128909631D01*
X50944839Y-129065831D01*
X50817997Y-129250322D01*
X50729585Y-129456013D01*
X50683000Y-129675000D01*
X44313000Y-129675000D01*
X44266415Y-129456013D01*
X44178003Y-129250322D01*
X44051161Y-129065831D01*
X43890764Y-128909631D01*
X43702976Y-128787724D01*
X43479874Y-128707881D01*
X43305000Y-128834046D01*
X43051000Y-128834046D01*
X42876126Y-128707881D01*
X42653024Y-128787724D01*
X42465236Y-128909631D01*
X42304839Y-129065831D01*
X42177997Y-129250322D01*
X42089585Y-129456013D01*
X42043000Y-129675000D01*
X40904763Y-129675000D01*
X40964696Y-129467185D01*
X41004313Y-128999054D01*
X40951842Y-128532189D01*
X40809297Y-128084532D01*
X40618766Y-127728073D01*
X40277609Y-127541997D01*
X38787605Y-129032000D01*
X38428395Y-129032000D01*
X36938391Y-127541997D01*
X36597234Y-127728073D01*
X36474000Y-127966454D01*
X36474000Y-127362391D01*
X37117997Y-127362391D01*
X38608000Y-128852395D01*
X40098003Y-127362391D01*
X39911927Y-127021234D01*
X39494591Y-126805487D01*
X39043185Y-126675304D01*
X38575054Y-126635687D01*
X38108189Y-126688158D01*
X37660532Y-126830703D01*
X37304073Y-127021234D01*
X37117997Y-127362391D01*
X36474000Y-127362391D01*
X36474000Y-126249000D01*
X42018000Y-126249000D01*
X42018000Y-126774000D01*
X42065066Y-126997865D01*
X42154901Y-127208246D01*
X42284053Y-127397059D01*
X42447559Y-127557047D01*
X42639136Y-127682063D01*
X42872190Y-127765964D01*
X43051000Y-127640163D01*
X43051000Y-126249000D01*
X42018000Y-126249000D01*
X36474000Y-126249000D01*
X36474000Y-125470000D01*
X42018000Y-125470000D01*
X42018000Y-125995000D01*
X43051000Y-125995000D01*
X43051000Y-124603837D01*
X43305000Y-124603837D01*
X43305000Y-125995000D01*
X43325000Y-125995000D01*
X43325000Y-126249000D01*
X43305000Y-126249000D01*
X43305000Y-127640163D01*
X43483810Y-127765964D01*
X43708489Y-127685078D01*
X44939000Y-127685078D01*
X44939000Y-127838922D01*
X44969013Y-127989809D01*
X45027887Y-128131942D01*
X45113358Y-128259859D01*
X45222141Y-128368642D01*
X45350058Y-128454113D01*
X45492191Y-128512987D01*
X45643078Y-128543000D01*
X45796922Y-128543000D01*
X45947809Y-128512987D01*
X46089942Y-128454113D01*
X46217859Y-128368642D01*
X46326642Y-128259859D01*
X46412113Y-128131942D01*
X46470987Y-127989809D01*
X46501000Y-127838922D01*
X46501000Y-127685078D01*
X48495000Y-127685078D01*
X48495000Y-127838922D01*
X48525013Y-127989809D01*
X48583887Y-128131942D01*
X48669358Y-128259859D01*
X48778141Y-128368642D01*
X48906058Y-128454113D01*
X49048191Y-128512987D01*
X49199078Y-128543000D01*
X49352922Y-128543000D01*
X49503809Y-128512987D01*
X49645942Y-128454113D01*
X49773859Y-128368642D01*
X49882642Y-128259859D01*
X49968113Y-128131942D01*
X50026987Y-127989809D01*
X50057000Y-127838922D01*
X50057000Y-127685078D01*
X50026987Y-127534191D01*
X49968113Y-127392058D01*
X49882642Y-127264141D01*
X49773859Y-127155358D01*
X49645942Y-127069887D01*
X49503809Y-127011013D01*
X49352922Y-126981000D01*
X49199078Y-126981000D01*
X49048191Y-127011013D01*
X48906058Y-127069887D01*
X48778141Y-127155358D01*
X48669358Y-127264141D01*
X48583887Y-127392058D01*
X48525013Y-127534191D01*
X48495000Y-127685078D01*
X46501000Y-127685078D01*
X46470987Y-127534191D01*
X46412113Y-127392058D01*
X46326642Y-127264141D01*
X46217859Y-127155358D01*
X46089942Y-127069887D01*
X45947809Y-127011013D01*
X45796922Y-126981000D01*
X45643078Y-126981000D01*
X45492191Y-127011013D01*
X45350058Y-127069887D01*
X45222141Y-127155358D01*
X45113358Y-127264141D01*
X45027887Y-127392058D01*
X44969013Y-127534191D01*
X44939000Y-127685078D01*
X43708489Y-127685078D01*
X43716864Y-127682063D01*
X43908441Y-127557047D01*
X44071947Y-127397059D01*
X44201099Y-127208246D01*
X44204099Y-127201221D01*
X44273584Y-127247649D01*
X44402067Y-127300869D01*
X44538465Y-127328000D01*
X44677535Y-127328000D01*
X44813933Y-127300869D01*
X44942416Y-127247649D01*
X45058049Y-127170386D01*
X45156386Y-127072049D01*
X45233649Y-126956416D01*
X45286869Y-126827933D01*
X45314000Y-126691535D01*
X45314000Y-126552465D01*
X49682000Y-126552465D01*
X49682000Y-126691535D01*
X49709131Y-126827933D01*
X49762351Y-126956416D01*
X49839614Y-127072049D01*
X49937951Y-127170386D01*
X50053584Y-127247649D01*
X50182067Y-127300869D01*
X50318465Y-127328000D01*
X50457535Y-127328000D01*
X50593933Y-127300869D01*
X50722416Y-127247649D01*
X50791901Y-127201221D01*
X50794901Y-127208246D01*
X50924053Y-127397059D01*
X51087559Y-127557047D01*
X51279136Y-127682063D01*
X51512190Y-127765964D01*
X51691000Y-127640163D01*
X51691000Y-126249000D01*
X51945000Y-126249000D01*
X51945000Y-127640163D01*
X52123810Y-127765964D01*
X52356864Y-127682063D01*
X52548441Y-127557047D01*
X52711947Y-127397059D01*
X52735660Y-127362391D01*
X54897997Y-127362391D01*
X56388000Y-128852395D01*
X57878003Y-127362391D01*
X57691927Y-127021234D01*
X57274591Y-126805487D01*
X56823185Y-126675304D01*
X56355054Y-126635687D01*
X55888189Y-126688158D01*
X55440532Y-126830703D01*
X55084073Y-127021234D01*
X54897997Y-127362391D01*
X52735660Y-127362391D01*
X52841099Y-127208246D01*
X52930934Y-126997865D01*
X52978000Y-126774000D01*
X52978000Y-126249000D01*
X51945000Y-126249000D01*
X51691000Y-126249000D01*
X51671000Y-126249000D01*
X51671000Y-125995000D01*
X51691000Y-125995000D01*
X51691000Y-124603837D01*
X51945000Y-124603837D01*
X51945000Y-125995000D01*
X52978000Y-125995000D01*
X52978000Y-125470000D01*
X52930934Y-125246135D01*
X52841099Y-125035754D01*
X52711947Y-124846941D01*
X52548441Y-124686953D01*
X52356864Y-124561937D01*
X52123810Y-124478036D01*
X51945000Y-124603837D01*
X51691000Y-124603837D01*
X51512190Y-124478036D01*
X51279136Y-124561937D01*
X51087559Y-124686953D01*
X50924053Y-124846941D01*
X50794901Y-125035754D01*
X50705066Y-125246135D01*
X50658000Y-125470000D01*
X50658000Y-125969669D01*
X50593933Y-125943131D01*
X50457535Y-125916000D01*
X50318465Y-125916000D01*
X50182067Y-125943131D01*
X50053584Y-125996351D01*
X49937951Y-126073614D01*
X49839614Y-126171951D01*
X49762351Y-126287584D01*
X49709131Y-126416067D01*
X49682000Y-126552465D01*
X45314000Y-126552465D01*
X45286869Y-126416067D01*
X45233649Y-126287584D01*
X45156386Y-126171951D01*
X45058049Y-126073614D01*
X44942416Y-125996351D01*
X44813933Y-125943131D01*
X44677535Y-125916000D01*
X44538465Y-125916000D01*
X44402067Y-125943131D01*
X44338000Y-125969669D01*
X44338000Y-125470000D01*
X44290934Y-125246135D01*
X44201099Y-125035754D01*
X44071947Y-124846941D01*
X43908441Y-124686953D01*
X43716864Y-124561937D01*
X43483810Y-124478036D01*
X43305000Y-124603837D01*
X43051000Y-124603837D01*
X42872190Y-124478036D01*
X42639136Y-124561937D01*
X42447559Y-124686953D01*
X42284053Y-124846941D01*
X42154901Y-125035754D01*
X42065066Y-125246135D01*
X42018000Y-125470000D01*
X36474000Y-125470000D01*
X36474000Y-120585193D01*
X46078000Y-120585193D01*
X46078000Y-120714807D01*
X46103286Y-120841932D01*
X46152888Y-120961680D01*
X46224898Y-121069451D01*
X46316549Y-121161102D01*
X46424320Y-121233112D01*
X46544068Y-121282714D01*
X46671193Y-121308000D01*
X46800807Y-121308000D01*
X46927932Y-121282714D01*
X47047680Y-121233112D01*
X47155451Y-121161102D01*
X47247102Y-121069451D01*
X47319112Y-120961680D01*
X47368714Y-120841932D01*
X47394000Y-120714807D01*
X47394000Y-120585193D01*
X47368714Y-120458068D01*
X47319112Y-120338320D01*
X47247102Y-120230549D01*
X47155451Y-120138898D01*
X47047680Y-120066888D01*
X46927932Y-120017286D01*
X46800807Y-119992000D01*
X46671193Y-119992000D01*
X46544068Y-120017286D01*
X46424320Y-120066888D01*
X46316549Y-120138898D01*
X46224898Y-120230549D01*
X46152888Y-120338320D01*
X46103286Y-120458068D01*
X46078000Y-120585193D01*
X36474000Y-120585193D01*
X36474000Y-119823193D01*
X48364000Y-119823193D01*
X48364000Y-119952807D01*
X48389286Y-120079932D01*
X48438888Y-120199680D01*
X48510898Y-120307451D01*
X48602549Y-120399102D01*
X48710320Y-120471112D01*
X48830068Y-120520714D01*
X48957193Y-120546000D01*
X49086807Y-120546000D01*
X49213932Y-120520714D01*
X49333680Y-120471112D01*
X49441451Y-120399102D01*
X49533102Y-120307451D01*
X49605112Y-120199680D01*
X49654714Y-120079932D01*
X49680000Y-119952807D01*
X49680000Y-119823193D01*
X49654714Y-119696068D01*
X49605112Y-119576320D01*
X49533102Y-119468549D01*
X49441451Y-119376898D01*
X49333680Y-119304888D01*
X49213932Y-119255286D01*
X49086807Y-119230000D01*
X48957193Y-119230000D01*
X48830068Y-119255286D01*
X48710320Y-119304888D01*
X48602549Y-119376898D01*
X48510898Y-119468549D01*
X48438888Y-119576320D01*
X48389286Y-119696068D01*
X48364000Y-119823193D01*
X36474000Y-119823193D01*
X36474000Y-118541078D01*
X42399000Y-118541078D01*
X42399000Y-118694922D01*
X42429013Y-118845809D01*
X42487887Y-118987942D01*
X42573358Y-119115859D01*
X42682141Y-119224642D01*
X42810058Y-119310113D01*
X42952191Y-119368987D01*
X43103078Y-119399000D01*
X43256922Y-119399000D01*
X43407809Y-119368987D01*
X43549942Y-119310113D01*
X43677859Y-119224642D01*
X43786642Y-119115859D01*
X43872113Y-118987942D01*
X43930987Y-118845809D01*
X43961000Y-118694922D01*
X43961000Y-118541078D01*
X43930987Y-118390191D01*
X43872113Y-118248058D01*
X43786642Y-118120141D01*
X43677859Y-118011358D01*
X43549942Y-117925887D01*
X43407809Y-117867013D01*
X43256922Y-117837000D01*
X43103078Y-117837000D01*
X42952191Y-117867013D01*
X42810058Y-117925887D01*
X42682141Y-118011358D01*
X42573358Y-118120141D01*
X42487887Y-118248058D01*
X42429013Y-118390191D01*
X42399000Y-118541078D01*
X36474000Y-118541078D01*
X36474000Y-115938897D01*
X36553283Y-116018180D01*
X36754903Y-116152898D01*
X36978931Y-116245693D01*
X37216757Y-116293000D01*
X37459243Y-116293000D01*
X37697069Y-116245693D01*
X37921097Y-116152898D01*
X38122717Y-116018180D01*
X38294180Y-115846717D01*
X38428898Y-115645097D01*
X38521693Y-115421069D01*
X38532632Y-115366073D01*
X40747995Y-115366073D01*
X40747995Y-115519917D01*
X40778008Y-115670804D01*
X40836882Y-115812937D01*
X40922353Y-115940854D01*
X41031136Y-116049637D01*
X41159053Y-116135108D01*
X41301186Y-116193982D01*
X41452073Y-116223995D01*
X41605917Y-116223995D01*
X41756804Y-116193982D01*
X41898937Y-116135108D01*
X42026854Y-116049637D01*
X42135637Y-115940854D01*
X42221108Y-115812937D01*
X42279982Y-115670804D01*
X42309995Y-115519917D01*
X42309995Y-115493078D01*
X52813000Y-115493078D01*
X52813000Y-115646922D01*
X52843013Y-115797809D01*
X52901887Y-115939942D01*
X52987358Y-116067859D01*
X53096141Y-116176642D01*
X53224058Y-116262113D01*
X53366191Y-116320987D01*
X53517078Y-116351000D01*
X53670922Y-116351000D01*
X53821809Y-116320987D01*
X53963942Y-116262113D01*
X54091859Y-116176642D01*
X54200642Y-116067859D01*
X54286113Y-115939942D01*
X54344987Y-115797809D01*
X54375000Y-115646922D01*
X54375000Y-115493078D01*
X54344987Y-115342191D01*
X54286113Y-115200058D01*
X54200642Y-115072141D01*
X54091859Y-114963358D01*
X53963942Y-114877887D01*
X53821809Y-114819013D01*
X53670922Y-114789000D01*
X53517078Y-114789000D01*
X53366191Y-114819013D01*
X53224058Y-114877887D01*
X53096141Y-114963358D01*
X52987358Y-115072141D01*
X52901887Y-115200058D01*
X52843013Y-115342191D01*
X52813000Y-115493078D01*
X42309995Y-115493078D01*
X42309995Y-115366073D01*
X42279982Y-115215186D01*
X42221108Y-115073053D01*
X42135637Y-114945136D01*
X42026854Y-114836353D01*
X41898937Y-114750882D01*
X41756804Y-114692008D01*
X41605917Y-114661995D01*
X41452073Y-114661995D01*
X41301186Y-114692008D01*
X41159053Y-114750882D01*
X41031136Y-114836353D01*
X40922353Y-114945136D01*
X40836882Y-115073053D01*
X40778008Y-115215186D01*
X40747995Y-115366073D01*
X38532632Y-115366073D01*
X38569000Y-115183243D01*
X38569000Y-114940757D01*
X38521693Y-114702931D01*
X38428898Y-114478903D01*
X38294180Y-114277283D01*
X38122717Y-114105820D01*
X37921097Y-113971102D01*
X37697069Y-113878307D01*
X37459243Y-113831000D01*
X37216757Y-113831000D01*
X36978931Y-113878307D01*
X36754903Y-113971102D01*
X36553283Y-114105820D01*
X36474000Y-114185103D01*
X36474000Y-113398897D01*
X36553283Y-113478180D01*
X36754903Y-113612898D01*
X36978931Y-113705693D01*
X37216757Y-113753000D01*
X37459243Y-113753000D01*
X37697069Y-113705693D01*
X37921097Y-113612898D01*
X38122717Y-113478180D01*
X38294180Y-113306717D01*
X38428898Y-113105097D01*
X38521693Y-112881069D01*
X38555483Y-112711193D01*
X44300000Y-112711193D01*
X44300000Y-112840807D01*
X44325286Y-112967932D01*
X44374888Y-113087680D01*
X44446898Y-113195451D01*
X44538549Y-113287102D01*
X44646320Y-113359112D01*
X44766068Y-113408714D01*
X44893193Y-113434000D01*
X45022807Y-113434000D01*
X45149932Y-113408714D01*
X45269680Y-113359112D01*
X45377451Y-113287102D01*
X45469102Y-113195451D01*
X45541112Y-113087680D01*
X45590714Y-112967932D01*
X45616000Y-112840807D01*
X45616000Y-112711193D01*
X45590714Y-112584068D01*
X45541112Y-112464320D01*
X45469102Y-112356549D01*
X45377451Y-112264898D01*
X45269680Y-112192888D01*
X45149932Y-112143286D01*
X45022807Y-112118000D01*
X44893193Y-112118000D01*
X44766068Y-112143286D01*
X44646320Y-112192888D01*
X44538549Y-112264898D01*
X44446898Y-112356549D01*
X44374888Y-112464320D01*
X44325286Y-112584068D01*
X44300000Y-112711193D01*
X38555483Y-112711193D01*
X38569000Y-112643243D01*
X38569000Y-112400757D01*
X38521693Y-112162931D01*
X38428898Y-111938903D01*
X38294180Y-111737283D01*
X38122717Y-111565820D01*
X37921097Y-111431102D01*
X37697069Y-111338307D01*
X37459243Y-111291000D01*
X37216757Y-111291000D01*
X36978931Y-111338307D01*
X36754903Y-111431102D01*
X36553283Y-111565820D01*
X36474000Y-111645103D01*
X36474000Y-110858897D01*
X36553283Y-110938180D01*
X36754903Y-111072898D01*
X36978931Y-111165693D01*
X37216757Y-111213000D01*
X37459243Y-111213000D01*
X37697069Y-111165693D01*
X37921097Y-111072898D01*
X38122717Y-110938180D01*
X38294180Y-110766717D01*
X38428898Y-110565097D01*
X38486847Y-110425193D01*
X50904000Y-110425193D01*
X50904000Y-110554807D01*
X50929286Y-110681932D01*
X50978888Y-110801680D01*
X51050898Y-110909451D01*
X51142549Y-111001102D01*
X51250320Y-111073112D01*
X51370068Y-111122714D01*
X51497193Y-111148000D01*
X51626807Y-111148000D01*
X51753932Y-111122714D01*
X51873680Y-111073112D01*
X51981451Y-111001102D01*
X52073102Y-110909451D01*
X52145112Y-110801680D01*
X52194714Y-110681932D01*
X52220000Y-110554807D01*
X52220000Y-110425193D01*
X52194714Y-110298068D01*
X52145112Y-110178320D01*
X52073102Y-110070549D01*
X51981451Y-109978898D01*
X51873680Y-109906888D01*
X51753932Y-109857286D01*
X51626807Y-109832000D01*
X51497193Y-109832000D01*
X51370068Y-109857286D01*
X51250320Y-109906888D01*
X51142549Y-109978898D01*
X51050898Y-110070549D01*
X50978888Y-110178320D01*
X50929286Y-110298068D01*
X50904000Y-110425193D01*
X38486847Y-110425193D01*
X38521693Y-110341069D01*
X38569000Y-110103243D01*
X38569000Y-109860757D01*
X38521693Y-109622931D01*
X38428898Y-109398903D01*
X38294180Y-109197283D01*
X38122717Y-109025820D01*
X37921097Y-108891102D01*
X37697069Y-108798307D01*
X37459243Y-108751000D01*
X37216757Y-108751000D01*
X36978931Y-108798307D01*
X36754903Y-108891102D01*
X36553283Y-109025820D01*
X36474000Y-109105103D01*
X36474000Y-108318897D01*
X36553283Y-108398180D01*
X36754903Y-108532898D01*
X36978931Y-108625693D01*
X37216757Y-108673000D01*
X37459243Y-108673000D01*
X37697069Y-108625693D01*
X37921097Y-108532898D01*
X38122717Y-108398180D01*
X38294180Y-108226717D01*
X38360756Y-108127078D01*
X49257000Y-108127078D01*
X49257000Y-108280922D01*
X49287013Y-108431809D01*
X49345887Y-108573942D01*
X49431358Y-108701859D01*
X49540141Y-108810642D01*
X49668058Y-108896113D01*
X49810191Y-108954987D01*
X49961078Y-108985000D01*
X50114922Y-108985000D01*
X50265809Y-108954987D01*
X50407942Y-108896113D01*
X50535859Y-108810642D01*
X50644642Y-108701859D01*
X50730113Y-108573942D01*
X50788987Y-108431809D01*
X50819000Y-108280922D01*
X50819000Y-108127078D01*
X50788987Y-107976191D01*
X50730113Y-107834058D01*
X50644642Y-107706141D01*
X50535859Y-107597358D01*
X50407942Y-107511887D01*
X50265809Y-107453013D01*
X50114922Y-107423000D01*
X49961078Y-107423000D01*
X49810191Y-107453013D01*
X49668058Y-107511887D01*
X49540141Y-107597358D01*
X49431358Y-107706141D01*
X49345887Y-107834058D01*
X49287013Y-107976191D01*
X49257000Y-108127078D01*
X38360756Y-108127078D01*
X38428898Y-108025097D01*
X38521693Y-107801069D01*
X38569000Y-107563243D01*
X38569000Y-107320757D01*
X38521693Y-107082931D01*
X38428898Y-106858903D01*
X38294180Y-106657283D01*
X38122717Y-106485820D01*
X37921097Y-106351102D01*
X37697069Y-106258307D01*
X37459243Y-106211000D01*
X37216757Y-106211000D01*
X36978931Y-106258307D01*
X36754903Y-106351102D01*
X36553283Y-106485820D01*
X36474000Y-106565103D01*
X36474000Y-105778897D01*
X36553283Y-105858180D01*
X36754903Y-105992898D01*
X36978931Y-106085693D01*
X37216757Y-106133000D01*
X37459243Y-106133000D01*
X37697069Y-106085693D01*
X37921097Y-105992898D01*
X38122717Y-105858180D01*
X38294180Y-105686717D01*
X38428898Y-105485097D01*
X38521693Y-105261069D01*
X38569000Y-105023243D01*
X38569000Y-104780757D01*
X38521693Y-104542931D01*
X38428898Y-104318903D01*
X38294180Y-104117283D01*
X38122717Y-103945820D01*
X37921097Y-103811102D01*
X37697069Y-103718307D01*
X37459243Y-103671000D01*
X37216757Y-103671000D01*
X36978931Y-103718307D01*
X36754903Y-103811102D01*
X36553283Y-103945820D01*
X36474000Y-104025103D01*
X36474000Y-103238897D01*
X36553283Y-103318180D01*
X36754903Y-103452898D01*
X36978931Y-103545693D01*
X37216757Y-103593000D01*
X37459243Y-103593000D01*
X37697069Y-103545693D01*
X37921097Y-103452898D01*
X38122717Y-103318180D01*
X38294180Y-103146717D01*
X38428898Y-102945097D01*
X38521693Y-102721069D01*
X38569000Y-102483243D01*
X38569000Y-102240757D01*
X38521693Y-102002931D01*
X38428898Y-101778903D01*
X38294180Y-101577283D01*
X38122717Y-101405820D01*
X37921097Y-101271102D01*
X37697069Y-101178307D01*
X37459243Y-101131000D01*
X37216757Y-101131000D01*
X36978931Y-101178307D01*
X36754903Y-101271102D01*
X36553283Y-101405820D01*
X36474000Y-101485103D01*
X36474000Y-101059707D01*
X53157486Y-101059707D01*
X53157486Y-101189321D01*
X53182772Y-101316446D01*
X53232374Y-101436194D01*
X53304384Y-101543965D01*
X53396035Y-101635616D01*
X53503806Y-101707626D01*
X53623554Y-101757228D01*
X53750679Y-101782514D01*
X53880293Y-101782514D01*
X54007418Y-101757228D01*
X54127166Y-101707626D01*
X54234937Y-101635616D01*
X54326588Y-101543965D01*
X54398598Y-101436194D01*
X54448200Y-101316446D01*
X54473486Y-101189321D01*
X54473486Y-101059707D01*
X54448200Y-100932582D01*
X54398598Y-100812834D01*
X54326588Y-100705063D01*
X54234937Y-100613412D01*
X54127166Y-100541402D01*
X54007418Y-100491800D01*
X53880293Y-100466514D01*
X53750679Y-100466514D01*
X53623554Y-100491800D01*
X53503806Y-100541402D01*
X53396035Y-100613412D01*
X53304384Y-100705063D01*
X53232374Y-100812834D01*
X53182772Y-100932582D01*
X53157486Y-101059707D01*
X36474000Y-101059707D01*
X36474000Y-100698897D01*
X36553283Y-100778180D01*
X36754903Y-100912898D01*
X36978931Y-101005693D01*
X37216757Y-101053000D01*
X37459243Y-101053000D01*
X37697069Y-101005693D01*
X37921097Y-100912898D01*
X38122717Y-100778180D01*
X38294180Y-100606717D01*
X38428898Y-100405097D01*
X38521693Y-100181069D01*
X38569000Y-99943243D01*
X38569000Y-99745078D01*
X42145000Y-99745078D01*
X42145000Y-99898922D01*
X42175013Y-100049809D01*
X42233887Y-100191942D01*
X42319358Y-100319859D01*
X42428141Y-100428642D01*
X42556058Y-100514113D01*
X42698191Y-100572987D01*
X42849078Y-100603000D01*
X43002922Y-100603000D01*
X43153809Y-100572987D01*
X43295942Y-100514113D01*
X43423859Y-100428642D01*
X43532642Y-100319859D01*
X43618113Y-100191942D01*
X43676987Y-100049809D01*
X43707000Y-99898922D01*
X43707000Y-99745078D01*
X44685000Y-99745078D01*
X44685000Y-99898922D01*
X44715013Y-100049809D01*
X44773887Y-100191942D01*
X44859358Y-100319859D01*
X44968141Y-100428642D01*
X45096058Y-100514113D01*
X45238191Y-100572987D01*
X45389078Y-100603000D01*
X45542922Y-100603000D01*
X45693809Y-100572987D01*
X45835942Y-100514113D01*
X45963859Y-100428642D01*
X46072642Y-100319859D01*
X46158113Y-100191942D01*
X46216987Y-100049809D01*
X46247000Y-99898922D01*
X46247000Y-99745078D01*
X46216987Y-99594191D01*
X46158113Y-99452058D01*
X46072642Y-99324141D01*
X45963859Y-99215358D01*
X45835942Y-99129887D01*
X45693809Y-99071013D01*
X45542922Y-99041000D01*
X45389078Y-99041000D01*
X45238191Y-99071013D01*
X45096058Y-99129887D01*
X44968141Y-99215358D01*
X44859358Y-99324141D01*
X44773887Y-99452058D01*
X44715013Y-99594191D01*
X44685000Y-99745078D01*
X43707000Y-99745078D01*
X43676987Y-99594191D01*
X43618113Y-99452058D01*
X43532642Y-99324141D01*
X43423859Y-99215358D01*
X43295942Y-99129887D01*
X43153809Y-99071013D01*
X43002922Y-99041000D01*
X42849078Y-99041000D01*
X42698191Y-99071013D01*
X42556058Y-99129887D01*
X42428141Y-99215358D01*
X42319358Y-99324141D01*
X42233887Y-99452058D01*
X42175013Y-99594191D01*
X42145000Y-99745078D01*
X38569000Y-99745078D01*
X38569000Y-99700757D01*
X38521693Y-99462931D01*
X38428898Y-99238903D01*
X38294180Y-99037283D01*
X38122717Y-98865820D01*
X37921097Y-98731102D01*
X37697069Y-98638307D01*
X37459243Y-98591000D01*
X37216757Y-98591000D01*
X36978931Y-98638307D01*
X36754903Y-98731102D01*
X36553283Y-98865820D01*
X36474000Y-98945103D01*
X36474000Y-98158897D01*
X36553283Y-98238180D01*
X36754903Y-98372898D01*
X36978931Y-98465693D01*
X37216757Y-98513000D01*
X37459243Y-98513000D01*
X37649887Y-98475078D01*
X48749000Y-98475078D01*
X48749000Y-98628922D01*
X48779013Y-98779809D01*
X48837887Y-98921942D01*
X48923358Y-99049859D01*
X49032141Y-99158642D01*
X49160058Y-99244113D01*
X49228913Y-99272634D01*
X49177406Y-99324141D01*
X49091935Y-99452058D01*
X49033061Y-99594191D01*
X49003048Y-99745078D01*
X49003048Y-99898922D01*
X49033061Y-100049809D01*
X49091935Y-100191942D01*
X49177406Y-100319859D01*
X49286189Y-100428642D01*
X49414106Y-100514113D01*
X49556239Y-100572987D01*
X49707126Y-100603000D01*
X49860970Y-100603000D01*
X50011857Y-100572987D01*
X50153990Y-100514113D01*
X50281907Y-100428642D01*
X50390690Y-100319859D01*
X50476161Y-100191942D01*
X50535035Y-100049809D01*
X50565048Y-99898922D01*
X50565048Y-99757193D01*
X53698000Y-99757193D01*
X53698000Y-99886807D01*
X53723286Y-100013932D01*
X53772888Y-100133680D01*
X53844898Y-100241451D01*
X53936549Y-100333102D01*
X54044320Y-100405112D01*
X54164068Y-100454714D01*
X54291193Y-100480000D01*
X54420807Y-100480000D01*
X54547932Y-100454714D01*
X54667680Y-100405112D01*
X54775451Y-100333102D01*
X54867102Y-100241451D01*
X54939112Y-100133680D01*
X54988714Y-100013932D01*
X55014000Y-99886807D01*
X55014000Y-99757193D01*
X54988714Y-99630068D01*
X54939112Y-99510320D01*
X54867102Y-99402549D01*
X54775451Y-99310898D01*
X54667680Y-99238888D01*
X54547932Y-99189286D01*
X54420807Y-99164000D01*
X54291193Y-99164000D01*
X54164068Y-99189286D01*
X54044320Y-99238888D01*
X53936549Y-99310898D01*
X53844898Y-99402549D01*
X53772888Y-99510320D01*
X53723286Y-99630068D01*
X53698000Y-99757193D01*
X50565048Y-99757193D01*
X50565048Y-99745078D01*
X50535035Y-99594191D01*
X50476161Y-99452058D01*
X50390690Y-99324141D01*
X50281907Y-99215358D01*
X50153990Y-99129887D01*
X50085135Y-99101366D01*
X50136642Y-99049859D01*
X50222113Y-98921942D01*
X50280987Y-98779809D01*
X50311000Y-98628922D01*
X50311000Y-98475078D01*
X50280987Y-98324191D01*
X50222113Y-98182058D01*
X50136642Y-98054141D01*
X50027859Y-97945358D01*
X49899942Y-97859887D01*
X49757809Y-97801013D01*
X49606922Y-97771000D01*
X49453078Y-97771000D01*
X49302191Y-97801013D01*
X49160058Y-97859887D01*
X49032141Y-97945358D01*
X48923358Y-98054141D01*
X48837887Y-98182058D01*
X48779013Y-98324191D01*
X48749000Y-98475078D01*
X37649887Y-98475078D01*
X37697069Y-98465693D01*
X37921097Y-98372898D01*
X38122717Y-98238180D01*
X38294180Y-98066717D01*
X38428898Y-97865097D01*
X38521693Y-97641069D01*
X38569000Y-97403243D01*
X38569000Y-97160757D01*
X38521693Y-96922931D01*
X38428898Y-96698903D01*
X38294180Y-96497283D01*
X38239975Y-96443078D01*
X43018934Y-96443078D01*
X43018934Y-96596922D01*
X43048947Y-96747809D01*
X43107821Y-96889942D01*
X43193292Y-97017859D01*
X43302075Y-97126642D01*
X43429992Y-97212113D01*
X43572125Y-97270987D01*
X43723012Y-97301000D01*
X43876856Y-97301000D01*
X44027743Y-97270987D01*
X44169876Y-97212113D01*
X44251967Y-97157262D01*
X44334058Y-97212113D01*
X44476191Y-97270987D01*
X44627078Y-97301000D01*
X44780922Y-97301000D01*
X44931809Y-97270987D01*
X45073942Y-97212113D01*
X45201859Y-97126642D01*
X45310642Y-97017859D01*
X45396113Y-96889942D01*
X45454987Y-96747809D01*
X45485000Y-96596922D01*
X45485000Y-96583678D01*
X46206485Y-96583678D01*
X46206485Y-96713292D01*
X46231771Y-96840417D01*
X46281373Y-96960165D01*
X46353383Y-97067936D01*
X46445034Y-97159587D01*
X46552805Y-97231597D01*
X46672553Y-97281199D01*
X46799678Y-97306485D01*
X46929292Y-97306485D01*
X47056417Y-97281199D01*
X47176165Y-97231597D01*
X47283936Y-97159587D01*
X47375587Y-97067936D01*
X47447597Y-96960165D01*
X47497199Y-96840417D01*
X47522485Y-96713292D01*
X47522485Y-96583678D01*
X47497199Y-96456553D01*
X47447597Y-96336805D01*
X47375587Y-96229034D01*
X47283936Y-96137383D01*
X47176165Y-96065373D01*
X47056417Y-96015771D01*
X46929292Y-95990485D01*
X46799678Y-95990485D01*
X46672553Y-96015771D01*
X46552805Y-96065373D01*
X46445034Y-96137383D01*
X46353383Y-96229034D01*
X46281373Y-96336805D01*
X46231771Y-96456553D01*
X46206485Y-96583678D01*
X45485000Y-96583678D01*
X45485000Y-96443078D01*
X45454987Y-96292191D01*
X45396113Y-96150058D01*
X45310642Y-96022141D01*
X45201859Y-95913358D01*
X45073942Y-95827887D01*
X44931809Y-95769013D01*
X44780922Y-95739000D01*
X44627078Y-95739000D01*
X44476191Y-95769013D01*
X44334058Y-95827887D01*
X44251967Y-95882738D01*
X44169876Y-95827887D01*
X44027743Y-95769013D01*
X43876856Y-95739000D01*
X43723012Y-95739000D01*
X43572125Y-95769013D01*
X43429992Y-95827887D01*
X43302075Y-95913358D01*
X43193292Y-96022141D01*
X43107821Y-96150058D01*
X43048947Y-96292191D01*
X43018934Y-96443078D01*
X38239975Y-96443078D01*
X38122717Y-96325820D01*
X37921097Y-96191102D01*
X37697069Y-96098307D01*
X37459243Y-96051000D01*
X37216757Y-96051000D01*
X36978931Y-96098307D01*
X36754903Y-96191102D01*
X36553283Y-96325820D01*
X36474000Y-96405103D01*
X36474000Y-95618897D01*
X36553283Y-95698180D01*
X36754903Y-95832898D01*
X36978931Y-95925693D01*
X37216757Y-95973000D01*
X37459243Y-95973000D01*
X37697069Y-95925693D01*
X37921097Y-95832898D01*
X38122717Y-95698180D01*
X38294180Y-95526717D01*
X38330939Y-95471703D01*
X47070743Y-95471703D01*
X47070743Y-95601317D01*
X47096029Y-95728442D01*
X47145631Y-95848190D01*
X47217641Y-95955961D01*
X47309292Y-96047612D01*
X47417063Y-96119622D01*
X47536811Y-96169224D01*
X47663936Y-96194510D01*
X47793550Y-96194510D01*
X47920675Y-96169224D01*
X48040423Y-96119622D01*
X48148194Y-96047612D01*
X48239845Y-95955961D01*
X48311855Y-95848190D01*
X48361457Y-95728442D01*
X48386743Y-95601317D01*
X48386743Y-95471703D01*
X48361457Y-95344578D01*
X48311855Y-95224830D01*
X48239845Y-95117059D01*
X48148194Y-95025408D01*
X48040423Y-94953398D01*
X47920675Y-94903796D01*
X47793550Y-94878510D01*
X47663936Y-94878510D01*
X47536811Y-94903796D01*
X47417063Y-94953398D01*
X47309292Y-95025408D01*
X47217641Y-95117059D01*
X47145631Y-95224830D01*
X47096029Y-95344578D01*
X47070743Y-95471703D01*
X38330939Y-95471703D01*
X38428898Y-95325097D01*
X38521693Y-95101069D01*
X38569000Y-94863243D01*
X38569000Y-94620757D01*
X38521693Y-94382931D01*
X38428898Y-94158903D01*
X38294180Y-93957283D01*
X38122717Y-93785820D01*
X37921097Y-93651102D01*
X37697069Y-93558307D01*
X37459243Y-93511000D01*
X37216757Y-93511000D01*
X36978931Y-93558307D01*
X36754903Y-93651102D01*
X36553283Y-93785820D01*
X36474000Y-93865103D01*
X36474000Y-93078897D01*
X36553283Y-93158180D01*
X36754903Y-93292898D01*
X36978931Y-93385693D01*
X37216757Y-93433000D01*
X37459243Y-93433000D01*
X37697069Y-93385693D01*
X37921097Y-93292898D01*
X38122717Y-93158180D01*
X38294180Y-92986717D01*
X38428898Y-92785097D01*
X38445674Y-92744594D01*
X43917077Y-92744594D01*
X43917077Y-92898438D01*
X43947090Y-93049325D01*
X44005964Y-93191458D01*
X44091435Y-93319375D01*
X44200218Y-93428158D01*
X44328135Y-93513629D01*
X44470268Y-93572503D01*
X44621155Y-93602516D01*
X44774999Y-93602516D01*
X44925886Y-93572503D01*
X45068019Y-93513629D01*
X45082426Y-93504003D01*
X45096058Y-93513111D01*
X45238191Y-93571985D01*
X45389078Y-93601998D01*
X45542922Y-93601998D01*
X45693809Y-93571985D01*
X45835942Y-93513111D01*
X45963859Y-93427640D01*
X46072642Y-93318857D01*
X46158113Y-93190940D01*
X46216987Y-93048807D01*
X46247000Y-92897920D01*
X46247000Y-92744076D01*
X46216987Y-92593189D01*
X46158113Y-92451056D01*
X46072642Y-92323139D01*
X45963859Y-92214356D01*
X45835942Y-92128885D01*
X45693809Y-92070011D01*
X45542922Y-92039998D01*
X45389078Y-92039998D01*
X45238191Y-92070011D01*
X45096058Y-92128885D01*
X45081651Y-92138511D01*
X45068019Y-92129403D01*
X44925886Y-92070529D01*
X44774999Y-92040516D01*
X44621155Y-92040516D01*
X44470268Y-92070529D01*
X44328135Y-92129403D01*
X44200218Y-92214874D01*
X44091435Y-92323657D01*
X44005964Y-92451574D01*
X43947090Y-92593707D01*
X43917077Y-92744594D01*
X38445674Y-92744594D01*
X38521693Y-92561069D01*
X38569000Y-92323243D01*
X38569000Y-92080757D01*
X38529702Y-91883193D01*
X46078000Y-91883193D01*
X46078000Y-92012807D01*
X46103286Y-92139932D01*
X46152888Y-92259680D01*
X46224898Y-92367451D01*
X46316549Y-92459102D01*
X46424320Y-92531112D01*
X46544068Y-92580714D01*
X46671193Y-92606000D01*
X46800807Y-92606000D01*
X46927932Y-92580714D01*
X47047680Y-92531112D01*
X47155451Y-92459102D01*
X47244000Y-92370553D01*
X47332549Y-92459102D01*
X47440320Y-92531112D01*
X47560068Y-92580714D01*
X47687193Y-92606000D01*
X47816807Y-92606000D01*
X47943932Y-92580714D01*
X48063680Y-92531112D01*
X48171451Y-92459102D01*
X48263102Y-92367451D01*
X48335112Y-92259680D01*
X48384714Y-92139932D01*
X48410000Y-92012807D01*
X48410000Y-91883193D01*
X48384714Y-91756068D01*
X48335112Y-91636320D01*
X48263102Y-91528549D01*
X48171451Y-91436898D01*
X48063680Y-91364888D01*
X47943932Y-91315286D01*
X47816807Y-91290000D01*
X47687193Y-91290000D01*
X47560068Y-91315286D01*
X47440320Y-91364888D01*
X47332549Y-91436898D01*
X47244000Y-91525447D01*
X47155451Y-91436898D01*
X47047680Y-91364888D01*
X46927932Y-91315286D01*
X46800807Y-91290000D01*
X46671193Y-91290000D01*
X46544068Y-91315286D01*
X46424320Y-91364888D01*
X46316549Y-91436898D01*
X46224898Y-91528549D01*
X46152888Y-91636320D01*
X46103286Y-91756068D01*
X46078000Y-91883193D01*
X38529702Y-91883193D01*
X38521693Y-91842931D01*
X38428898Y-91618903D01*
X38294180Y-91417283D01*
X38122717Y-91245820D01*
X37921097Y-91111102D01*
X37697069Y-91018307D01*
X37459243Y-90971000D01*
X37216757Y-90971000D01*
X36978931Y-91018307D01*
X36754903Y-91111102D01*
X36553283Y-91245820D01*
X36474000Y-91325103D01*
X36474000Y-90538897D01*
X36553283Y-90618180D01*
X36754903Y-90752898D01*
X36978931Y-90845693D01*
X37216757Y-90893000D01*
X37459243Y-90893000D01*
X37697069Y-90845693D01*
X37921097Y-90752898D01*
X38122717Y-90618180D01*
X38294180Y-90446717D01*
X38428898Y-90245097D01*
X38521693Y-90021069D01*
X38569000Y-89783243D01*
X38569000Y-89540757D01*
X38521693Y-89302931D01*
X38428898Y-89078903D01*
X38294180Y-88877283D01*
X38122717Y-88705820D01*
X37921097Y-88571102D01*
X37697069Y-88478307D01*
X37459243Y-88431000D01*
X37216757Y-88431000D01*
X36978931Y-88478307D01*
X36754903Y-88571102D01*
X36553283Y-88705820D01*
X36474000Y-88785103D01*
X36474000Y-88353464D01*
X36488000Y-88354843D01*
X38188000Y-88354843D01*
X38262689Y-88347487D01*
X38329589Y-88327193D01*
X49887988Y-88327193D01*
X49887988Y-88456807D01*
X49913274Y-88583932D01*
X49962876Y-88703680D01*
X50034886Y-88811451D01*
X50126537Y-88903102D01*
X50234308Y-88975112D01*
X50354056Y-89024714D01*
X50481181Y-89050000D01*
X50548167Y-89050000D01*
X50548167Y-89116974D01*
X50573453Y-89244099D01*
X50623055Y-89363847D01*
X50695065Y-89471618D01*
X50786716Y-89563269D01*
X50894487Y-89635279D01*
X50955582Y-89660586D01*
X50929286Y-89724068D01*
X50904000Y-89851193D01*
X50904000Y-89980807D01*
X50929286Y-90107932D01*
X50978888Y-90227680D01*
X51050898Y-90335451D01*
X51142549Y-90427102D01*
X51250320Y-90499112D01*
X51278873Y-90510939D01*
X51260249Y-90604569D01*
X51260249Y-90734183D01*
X51285535Y-90861308D01*
X51335137Y-90981056D01*
X51407147Y-91088827D01*
X51498798Y-91180478D01*
X51539548Y-91207706D01*
X51487876Y-91285040D01*
X51438274Y-91404788D01*
X51412988Y-91531913D01*
X51412988Y-91661527D01*
X51438274Y-91788652D01*
X51487876Y-91908400D01*
X51559886Y-92016171D01*
X51651537Y-92107822D01*
X51759308Y-92179832D01*
X51879056Y-92229434D01*
X52006181Y-92254720D01*
X52135795Y-92254720D01*
X52262920Y-92229434D01*
X52382668Y-92179832D01*
X52490439Y-92107822D01*
X52582090Y-92016171D01*
X52654100Y-91908400D01*
X52703702Y-91788652D01*
X52728988Y-91661527D01*
X52728988Y-91531913D01*
X52703702Y-91404788D01*
X52654100Y-91285040D01*
X52582090Y-91177269D01*
X52490439Y-91085618D01*
X52449689Y-91058390D01*
X52501361Y-90981056D01*
X52550963Y-90861308D01*
X52576249Y-90734183D01*
X52576249Y-90604569D01*
X52550963Y-90477444D01*
X52501361Y-90357696D01*
X52429351Y-90249925D01*
X52337700Y-90158274D01*
X52229929Y-90086264D01*
X52201376Y-90074437D01*
X52220000Y-89980807D01*
X52220000Y-89851193D01*
X52194714Y-89724068D01*
X52145112Y-89604320D01*
X52073102Y-89496549D01*
X51981451Y-89404898D01*
X51873680Y-89332888D01*
X51812585Y-89307581D01*
X51838881Y-89244099D01*
X51864167Y-89116974D01*
X51864167Y-88987360D01*
X51838881Y-88860235D01*
X51789279Y-88740487D01*
X51717269Y-88632716D01*
X51625618Y-88541065D01*
X51517847Y-88469055D01*
X51398099Y-88419453D01*
X51270974Y-88394167D01*
X51203988Y-88394167D01*
X51203988Y-88327193D01*
X51178702Y-88200068D01*
X51158765Y-88151937D01*
X51250320Y-88213112D01*
X51370068Y-88262714D01*
X51497193Y-88288000D01*
X51626807Y-88288000D01*
X51753932Y-88262714D01*
X51873680Y-88213112D01*
X51981451Y-88141102D01*
X52073102Y-88049451D01*
X52145112Y-87941680D01*
X52194714Y-87821932D01*
X52220000Y-87694807D01*
X52220000Y-87565193D01*
X52194714Y-87438068D01*
X52145112Y-87318320D01*
X52073102Y-87210549D01*
X51984553Y-87122000D01*
X52074301Y-87032252D01*
X52146311Y-86924481D01*
X52195913Y-86804733D01*
X52221199Y-86677608D01*
X52221199Y-86547994D01*
X52195913Y-86420869D01*
X52146311Y-86301121D01*
X52074301Y-86193350D01*
X51982650Y-86101699D01*
X51874879Y-86029689D01*
X51755131Y-85980087D01*
X51628006Y-85954801D01*
X51498392Y-85954801D01*
X51371267Y-85980087D01*
X51251519Y-86029689D01*
X51143748Y-86101699D01*
X51052097Y-86193350D01*
X50980087Y-86301121D01*
X50930485Y-86420869D01*
X50905199Y-86547994D01*
X50905199Y-86677608D01*
X50930485Y-86804733D01*
X50980087Y-86924481D01*
X51052097Y-87032252D01*
X51140646Y-87120801D01*
X51050898Y-87210549D01*
X50978888Y-87318320D01*
X50929286Y-87438068D01*
X50904000Y-87565193D01*
X50904000Y-87694807D01*
X50929286Y-87821932D01*
X50949223Y-87870063D01*
X50857668Y-87808888D01*
X50737920Y-87759286D01*
X50610795Y-87734000D01*
X50481181Y-87734000D01*
X50354056Y-87759286D01*
X50234308Y-87808888D01*
X50126537Y-87880898D01*
X50034886Y-87972549D01*
X49962876Y-88080320D01*
X49913274Y-88200068D01*
X49887988Y-88327193D01*
X38329589Y-88327193D01*
X38334508Y-88325701D01*
X38400696Y-88290322D01*
X38458711Y-88242711D01*
X38506322Y-88184696D01*
X38541701Y-88118508D01*
X38563487Y-88046689D01*
X38570843Y-87972000D01*
X38570843Y-86272000D01*
X38563487Y-86197311D01*
X38541701Y-86125492D01*
X38506322Y-86059304D01*
X38458711Y-86001289D01*
X38400696Y-85953678D01*
X38334508Y-85918299D01*
X38262689Y-85896513D01*
X38188000Y-85889157D01*
X36488000Y-85889157D01*
X36474000Y-85890536D01*
X36474000Y-84981609D01*
X37117997Y-84981609D01*
X37304073Y-85322766D01*
X37721409Y-85538513D01*
X38172815Y-85668696D01*
X38640946Y-85708313D01*
X39107811Y-85655842D01*
X39555468Y-85513297D01*
X39911927Y-85322766D01*
X40098003Y-84981609D01*
X54897997Y-84981609D01*
X55084073Y-85322766D01*
X55501409Y-85538513D01*
X55952815Y-85668696D01*
X56420946Y-85708313D01*
X56887811Y-85655842D01*
X57335468Y-85513297D01*
X57691927Y-85322766D01*
X57878003Y-84981609D01*
X56388000Y-83491605D01*
X54897997Y-84981609D01*
X40098003Y-84981609D01*
X38608000Y-83491605D01*
X37117997Y-84981609D01*
X36474000Y-84981609D01*
X36474000Y-84385372D01*
X36597234Y-84615927D01*
X36938391Y-84802003D01*
X38428395Y-83312000D01*
X38787605Y-83312000D01*
X40277609Y-84802003D01*
X40618766Y-84615927D01*
X40834513Y-84198591D01*
X40964696Y-83747185D01*
X40998736Y-83344946D01*
X53991687Y-83344946D01*
X54044158Y-83811811D01*
X54186703Y-84259468D01*
X54377234Y-84615927D01*
X54718391Y-84802003D01*
X56208395Y-83312000D01*
X54718391Y-81821997D01*
X54377234Y-82008073D01*
X54161487Y-82425409D01*
X54031304Y-82876815D01*
X53991687Y-83344946D01*
X40998736Y-83344946D01*
X41004313Y-83279054D01*
X40951842Y-82812189D01*
X40809297Y-82364532D01*
X40618766Y-82008073D01*
X40277609Y-81821997D01*
X38787605Y-83312000D01*
X38428395Y-83312000D01*
X38414252Y-83297858D01*
X38593858Y-83118252D01*
X38608000Y-83132395D01*
X40098003Y-81642391D01*
X39911927Y-81301234D01*
X39673546Y-81178000D01*
X55314628Y-81178000D01*
X55084073Y-81301234D01*
G37*
%TD.AperFunction*%
%TD*%
M02*
