%TF.GenerationSoftware,KiCad,Pcbnew,5.1.7-a382d34a8~88~ubuntu18.04.1*%
%TF.CreationDate,2022-09-03T09:09:10-04:00*%
%TF.ProjectId,project-MS88SF3-breakout,70726f6a-6563-4742-9d4d-533838534633,rev?*%
%TF.SameCoordinates,Original*%
%TF.FileFunction,Legend,Bot*%
%TF.FilePolarity,Positive*%
%FSLAX46Y46*%
G04 Gerber Fmt 4.6, Leading zero omitted, Abs format (unit mm)*
G04 Created by KiCad (PCBNEW 5.1.7-a382d34a8~88~ubuntu18.04.1) date 2022-09-03 09:09:10*
%MOMM*%
%LPD*%
G01*
G04 APERTURE LIST*
%ADD10C,0.150000*%
%ADD11C,0.010000*%
%ADD12O,1.700000X1.700000*%
%ADD13R,1.700000X1.700000*%
%ADD14C,0.650000*%
%ADD15O,1.050000X2.100000*%
%ADD16O,1.000000X2.000000*%
%ADD17C,3.500000*%
G04 APERTURE END LIST*
D10*
X56046476Y-92654380D02*
X56046476Y-91654380D01*
X55475047Y-92654380D01*
X55475047Y-91654380D01*
X54665523Y-92130571D02*
X54998857Y-92130571D01*
X54998857Y-92654380D02*
X54998857Y-91654380D01*
X54522666Y-91654380D01*
X53570285Y-92559142D02*
X53617904Y-92606761D01*
X53760761Y-92654380D01*
X53856000Y-92654380D01*
X53998857Y-92606761D01*
X54094095Y-92511523D01*
X54141714Y-92416285D01*
X54189333Y-92225809D01*
X54189333Y-92082952D01*
X54141714Y-91892476D01*
X54094095Y-91797238D01*
X53998857Y-91702000D01*
X53856000Y-91654380D01*
X53760761Y-91654380D01*
X53617904Y-91702000D01*
X53570285Y-91749619D01*
X53189333Y-91749619D02*
X53141714Y-91702000D01*
X53046476Y-91654380D01*
X52808380Y-91654380D01*
X52713142Y-91702000D01*
X52665523Y-91749619D01*
X52617904Y-91844857D01*
X52617904Y-91940095D01*
X52665523Y-92082952D01*
X53236952Y-92654380D01*
X52617904Y-92654380D01*
X56046476Y-90114380D02*
X56046476Y-89114380D01*
X55475047Y-90114380D01*
X55475047Y-89114380D01*
X54665523Y-89590571D02*
X54998857Y-89590571D01*
X54998857Y-90114380D02*
X54998857Y-89114380D01*
X54522666Y-89114380D01*
X53570285Y-90019142D02*
X53617904Y-90066761D01*
X53760761Y-90114380D01*
X53856000Y-90114380D01*
X53998857Y-90066761D01*
X54094095Y-89971523D01*
X54141714Y-89876285D01*
X54189333Y-89685809D01*
X54189333Y-89542952D01*
X54141714Y-89352476D01*
X54094095Y-89257238D01*
X53998857Y-89162000D01*
X53856000Y-89114380D01*
X53760761Y-89114380D01*
X53617904Y-89162000D01*
X53570285Y-89209619D01*
X52617904Y-90114380D02*
X53189333Y-90114380D01*
X52903619Y-90114380D02*
X52903619Y-89114380D01*
X52998857Y-89257238D01*
X53094095Y-89352476D01*
X53189333Y-89400095D01*
X53687071Y-82098571D02*
X54020404Y-82098571D01*
X54020404Y-82622380D02*
X54020404Y-81622380D01*
X53544214Y-81622380D01*
X53163261Y-82622380D02*
X53163261Y-81955714D01*
X53163261Y-82146190D02*
X53115642Y-82050952D01*
X53068023Y-82003333D01*
X52972785Y-81955714D01*
X52877547Y-81955714D01*
X52115642Y-82622380D02*
X52115642Y-82098571D01*
X52163261Y-82003333D01*
X52258500Y-81955714D01*
X52448976Y-81955714D01*
X52544214Y-82003333D01*
X52115642Y-82574761D02*
X52210880Y-82622380D01*
X52448976Y-82622380D01*
X52544214Y-82574761D01*
X52591833Y-82479523D01*
X52591833Y-82384285D01*
X52544214Y-82289047D01*
X52448976Y-82241428D01*
X52210880Y-82241428D01*
X52115642Y-82193809D01*
X51639452Y-81955714D02*
X51639452Y-82622380D01*
X51639452Y-82050952D02*
X51591833Y-82003333D01*
X51496595Y-81955714D01*
X51353738Y-81955714D01*
X51258500Y-82003333D01*
X51210880Y-82098571D01*
X51210880Y-82622380D01*
X50306119Y-82574761D02*
X50401357Y-82622380D01*
X50591833Y-82622380D01*
X50687071Y-82574761D01*
X50734690Y-82527142D01*
X50782309Y-82431904D01*
X50782309Y-82146190D01*
X50734690Y-82050952D01*
X50687071Y-82003333D01*
X50591833Y-81955714D01*
X50401357Y-81955714D01*
X50306119Y-82003333D01*
X50496595Y-82670000D02*
X50401357Y-82717619D01*
X50353738Y-82812857D01*
X50401357Y-82908095D01*
X50496595Y-82955714D01*
X50639452Y-82955714D01*
X49734690Y-82622380D02*
X49829928Y-82574761D01*
X49877547Y-82527142D01*
X49925166Y-82431904D01*
X49925166Y-82146190D01*
X49877547Y-82050952D01*
X49829928Y-82003333D01*
X49734690Y-81955714D01*
X49591833Y-81955714D01*
X49496595Y-82003333D01*
X49448976Y-82050952D01*
X49401357Y-82146190D01*
X49401357Y-82431904D01*
X49448976Y-82527142D01*
X49496595Y-82574761D01*
X49591833Y-82622380D01*
X49734690Y-82622380D01*
X48972785Y-82622380D02*
X48972785Y-81955714D01*
X48972785Y-81622380D02*
X49020404Y-81670000D01*
X48972785Y-81717619D01*
X48925166Y-81670000D01*
X48972785Y-81622380D01*
X48972785Y-81717619D01*
X48544214Y-82574761D02*
X48448976Y-82622380D01*
X48258500Y-82622380D01*
X48163261Y-82574761D01*
X48115642Y-82479523D01*
X48115642Y-82431904D01*
X48163261Y-82336666D01*
X48258500Y-82289047D01*
X48401357Y-82289047D01*
X48496595Y-82241428D01*
X48544214Y-82146190D01*
X48544214Y-82098571D01*
X48496595Y-82003333D01*
X48401357Y-81955714D01*
X48258500Y-81955714D01*
X48163261Y-82003333D01*
X46401357Y-81670000D02*
X46496595Y-81622380D01*
X46639452Y-81622380D01*
X46782309Y-81670000D01*
X46877547Y-81765238D01*
X46925166Y-81860476D01*
X46972785Y-82050952D01*
X46972785Y-82193809D01*
X46925166Y-82384285D01*
X46877547Y-82479523D01*
X46782309Y-82574761D01*
X46639452Y-82622380D01*
X46544214Y-82622380D01*
X46401357Y-82574761D01*
X46353738Y-82527142D01*
X46353738Y-82193809D01*
X46544214Y-82193809D01*
X45544214Y-82574761D02*
X45639452Y-82622380D01*
X45829928Y-82622380D01*
X45925166Y-82574761D01*
X45972785Y-82479523D01*
X45972785Y-82098571D01*
X45925166Y-82003333D01*
X45829928Y-81955714D01*
X45639452Y-81955714D01*
X45544214Y-82003333D01*
X45496595Y-82098571D01*
X45496595Y-82193809D01*
X45972785Y-82289047D01*
X45068023Y-82622380D02*
X45068023Y-81955714D01*
X45068023Y-82146190D02*
X45020404Y-82050952D01*
X44972785Y-82003333D01*
X44877547Y-81955714D01*
X44782309Y-81955714D01*
X44544214Y-81955714D02*
X44306119Y-82622380D01*
X44068023Y-81955714D01*
X43258500Y-82622380D02*
X43258500Y-82098571D01*
X43306119Y-82003333D01*
X43401357Y-81955714D01*
X43591833Y-81955714D01*
X43687071Y-82003333D01*
X43258500Y-82574761D02*
X43353738Y-82622380D01*
X43591833Y-82622380D01*
X43687071Y-82574761D01*
X43734690Y-82479523D01*
X43734690Y-82384285D01*
X43687071Y-82289047D01*
X43591833Y-82241428D01*
X43353738Y-82241428D01*
X43258500Y-82193809D01*
X42782309Y-82622380D02*
X42782309Y-81955714D01*
X42782309Y-81622380D02*
X42829928Y-81670000D01*
X42782309Y-81717619D01*
X42734690Y-81670000D01*
X42782309Y-81622380D01*
X42782309Y-81717619D01*
X42353738Y-82574761D02*
X42258500Y-82622380D01*
X42068023Y-82622380D01*
X41972785Y-82574761D01*
X41925166Y-82479523D01*
X41925166Y-82431904D01*
X41972785Y-82336666D01*
X42068023Y-82289047D01*
X42210880Y-82289047D01*
X42306119Y-82241428D01*
X42353738Y-82146190D01*
X42353738Y-82098571D01*
X42306119Y-82003333D01*
X42210880Y-81955714D01*
X42068023Y-81955714D01*
X41972785Y-82003333D01*
X54068023Y-83367619D02*
X54020404Y-83320000D01*
X53925166Y-83272380D01*
X53687071Y-83272380D01*
X53591833Y-83320000D01*
X53544214Y-83367619D01*
X53496595Y-83462857D01*
X53496595Y-83558095D01*
X53544214Y-83700952D01*
X54115642Y-84272380D01*
X53496595Y-84272380D01*
X53163261Y-83272380D02*
X52496595Y-83272380D01*
X52925166Y-84272380D01*
X50925166Y-84272380D02*
X50925166Y-83748571D01*
X50972785Y-83653333D01*
X51068023Y-83605714D01*
X51258500Y-83605714D01*
X51353738Y-83653333D01*
X50925166Y-84224761D02*
X51020404Y-84272380D01*
X51258500Y-84272380D01*
X51353738Y-84224761D01*
X51401357Y-84129523D01*
X51401357Y-84034285D01*
X51353738Y-83939047D01*
X51258500Y-83891428D01*
X51020404Y-83891428D01*
X50925166Y-83843809D01*
X50306119Y-84272380D02*
X50401357Y-84224761D01*
X50448976Y-84177142D01*
X50496595Y-84081904D01*
X50496595Y-83796190D01*
X50448976Y-83700952D01*
X50401357Y-83653333D01*
X50306119Y-83605714D01*
X50163261Y-83605714D01*
X50068023Y-83653333D01*
X50020404Y-83700952D01*
X49972785Y-83796190D01*
X49972785Y-84081904D01*
X50020404Y-84177142D01*
X50068023Y-84224761D01*
X50163261Y-84272380D01*
X50306119Y-84272380D01*
X49115642Y-83605714D02*
X49115642Y-84272380D01*
X49544214Y-83605714D02*
X49544214Y-84129523D01*
X49496595Y-84224761D01*
X49401357Y-84272380D01*
X49258500Y-84272380D01*
X49163261Y-84224761D01*
X49115642Y-84177142D01*
X49496595Y-83367619D02*
X49306119Y-83224761D01*
X49115642Y-83367619D01*
X48782309Y-83605714D02*
X48401357Y-83605714D01*
X48639452Y-83272380D02*
X48639452Y-84129523D01*
X48591833Y-84224761D01*
X48496595Y-84272380D01*
X48401357Y-84272380D01*
X47353738Y-83367619D02*
X47306119Y-83320000D01*
X47210880Y-83272380D01*
X46972785Y-83272380D01*
X46877547Y-83320000D01*
X46829928Y-83367619D01*
X46782309Y-83462857D01*
X46782309Y-83558095D01*
X46829928Y-83700952D01*
X47401357Y-84272380D01*
X46782309Y-84272380D01*
X46163261Y-83272380D02*
X46068023Y-83272380D01*
X45972785Y-83320000D01*
X45925166Y-83367619D01*
X45877547Y-83462857D01*
X45829928Y-83653333D01*
X45829928Y-83891428D01*
X45877547Y-84081904D01*
X45925166Y-84177142D01*
X45972785Y-84224761D01*
X46068023Y-84272380D01*
X46163261Y-84272380D01*
X46258500Y-84224761D01*
X46306119Y-84177142D01*
X46353738Y-84081904D01*
X46401357Y-83891428D01*
X46401357Y-83653333D01*
X46353738Y-83462857D01*
X46306119Y-83367619D01*
X46258500Y-83320000D01*
X46163261Y-83272380D01*
X45448976Y-83367619D02*
X45401357Y-83320000D01*
X45306119Y-83272380D01*
X45068023Y-83272380D01*
X44972785Y-83320000D01*
X44925166Y-83367619D01*
X44877547Y-83462857D01*
X44877547Y-83558095D01*
X44925166Y-83700952D01*
X45496595Y-84272380D01*
X44877547Y-84272380D01*
X44496595Y-83367619D02*
X44448976Y-83320000D01*
X44353738Y-83272380D01*
X44115642Y-83272380D01*
X44020404Y-83320000D01*
X43972785Y-83367619D01*
X43925166Y-83462857D01*
X43925166Y-83558095D01*
X43972785Y-83700952D01*
X44544214Y-84272380D01*
X43925166Y-84272380D01*
X54115642Y-85255714D02*
X53877547Y-85922380D01*
X53639452Y-85255714D01*
X52734690Y-85922380D02*
X53306119Y-85922380D01*
X53020404Y-85922380D02*
X53020404Y-84922380D01*
X53115642Y-85065238D01*
X53210880Y-85160476D01*
X53306119Y-85208095D01*
X52306119Y-85827142D02*
X52258500Y-85874761D01*
X52306119Y-85922380D01*
X52353738Y-85874761D01*
X52306119Y-85827142D01*
X52306119Y-85922380D01*
X51639452Y-84922380D02*
X51544214Y-84922380D01*
X51448976Y-84970000D01*
X51401357Y-85017619D01*
X51353738Y-85112857D01*
X51306119Y-85303333D01*
X51306119Y-85541428D01*
X51353738Y-85731904D01*
X51401357Y-85827142D01*
X51448976Y-85874761D01*
X51544214Y-85922380D01*
X51639452Y-85922380D01*
X51734690Y-85874761D01*
X51782309Y-85827142D01*
X51829928Y-85731904D01*
X51877547Y-85541428D01*
X51877547Y-85303333D01*
X51829928Y-85112857D01*
X51782309Y-85017619D01*
X51734690Y-84970000D01*
X51639452Y-84922380D01*
X50877547Y-85827142D02*
X50829928Y-85874761D01*
X50877547Y-85922380D01*
X50925166Y-85874761D01*
X50877547Y-85827142D01*
X50877547Y-85922380D01*
X50210880Y-84922380D02*
X50115642Y-84922380D01*
X50020404Y-84970000D01*
X49972785Y-85017619D01*
X49925166Y-85112857D01*
X49877547Y-85303333D01*
X49877547Y-85541428D01*
X49925166Y-85731904D01*
X49972785Y-85827142D01*
X50020404Y-85874761D01*
X50115642Y-85922380D01*
X50210880Y-85922380D01*
X50306119Y-85874761D01*
X50353738Y-85827142D01*
X50401357Y-85731904D01*
X50448976Y-85541428D01*
X50448976Y-85303333D01*
X50401357Y-85112857D01*
X50353738Y-85017619D01*
X50306119Y-84970000D01*
X50210880Y-84922380D01*
X56030571Y-100274380D02*
X56030571Y-99274380D01*
X55649619Y-99274380D01*
X55554380Y-99322000D01*
X55506761Y-99369619D01*
X55459142Y-99464857D01*
X55459142Y-99607714D01*
X55506761Y-99702952D01*
X55554380Y-99750571D01*
X55649619Y-99798190D01*
X56030571Y-99798190D01*
X54840095Y-99274380D02*
X54744857Y-99274380D01*
X54649619Y-99322000D01*
X54602000Y-99369619D01*
X54554380Y-99464857D01*
X54506761Y-99655333D01*
X54506761Y-99893428D01*
X54554380Y-100083904D01*
X54602000Y-100179142D01*
X54649619Y-100226761D01*
X54744857Y-100274380D01*
X54840095Y-100274380D01*
X54935333Y-100226761D01*
X54982952Y-100179142D01*
X55030571Y-100083904D01*
X55078190Y-99893428D01*
X55078190Y-99655333D01*
X55030571Y-99464857D01*
X54982952Y-99369619D01*
X54935333Y-99322000D01*
X54840095Y-99274380D01*
X54078190Y-100179142D02*
X54030571Y-100226761D01*
X54078190Y-100274380D01*
X54125809Y-100226761D01*
X54078190Y-100179142D01*
X54078190Y-100274380D01*
X53649619Y-99369619D02*
X53602000Y-99322000D01*
X53506761Y-99274380D01*
X53268666Y-99274380D01*
X53173428Y-99322000D01*
X53125809Y-99369619D01*
X53078190Y-99464857D01*
X53078190Y-99560095D01*
X53125809Y-99702952D01*
X53697238Y-100274380D01*
X53078190Y-100274380D01*
X52459142Y-99274380D02*
X52363904Y-99274380D01*
X52268666Y-99322000D01*
X52221047Y-99369619D01*
X52173428Y-99464857D01*
X52125809Y-99655333D01*
X52125809Y-99893428D01*
X52173428Y-100083904D01*
X52221047Y-100179142D01*
X52268666Y-100226761D01*
X52363904Y-100274380D01*
X52459142Y-100274380D01*
X52554380Y-100226761D01*
X52602000Y-100179142D01*
X52649619Y-100083904D01*
X52697238Y-99893428D01*
X52697238Y-99655333D01*
X52649619Y-99464857D01*
X52602000Y-99369619D01*
X52554380Y-99322000D01*
X52459142Y-99274380D01*
X56030571Y-95194380D02*
X56030571Y-94194380D01*
X55649619Y-94194380D01*
X55554380Y-94242000D01*
X55506761Y-94289619D01*
X55459142Y-94384857D01*
X55459142Y-94527714D01*
X55506761Y-94622952D01*
X55554380Y-94670571D01*
X55649619Y-94718190D01*
X56030571Y-94718190D01*
X54840095Y-94194380D02*
X54744857Y-94194380D01*
X54649619Y-94242000D01*
X54602000Y-94289619D01*
X54554380Y-94384857D01*
X54506761Y-94575333D01*
X54506761Y-94813428D01*
X54554380Y-95003904D01*
X54602000Y-95099142D01*
X54649619Y-95146761D01*
X54744857Y-95194380D01*
X54840095Y-95194380D01*
X54935333Y-95146761D01*
X54982952Y-95099142D01*
X55030571Y-95003904D01*
X55078190Y-94813428D01*
X55078190Y-94575333D01*
X55030571Y-94384857D01*
X54982952Y-94289619D01*
X54935333Y-94242000D01*
X54840095Y-94194380D01*
X54078190Y-95099142D02*
X54030571Y-95146761D01*
X54078190Y-95194380D01*
X54125809Y-95146761D01*
X54078190Y-95099142D01*
X54078190Y-95194380D01*
X53649619Y-94289619D02*
X53602000Y-94242000D01*
X53506761Y-94194380D01*
X53268666Y-94194380D01*
X53173428Y-94242000D01*
X53125809Y-94289619D01*
X53078190Y-94384857D01*
X53078190Y-94480095D01*
X53125809Y-94622952D01*
X53697238Y-95194380D01*
X53078190Y-95194380D01*
X52221047Y-94527714D02*
X52221047Y-95194380D01*
X52459142Y-94146761D02*
X52697238Y-94861047D01*
X52078190Y-94861047D01*
D11*
%TO.C,Ref\u002A\u002A*%
G36*
X43947363Y-110417139D02*
G01*
X43723041Y-110419593D01*
X43526198Y-110424258D01*
X43349414Y-110431683D01*
X43185269Y-110442416D01*
X43026344Y-110457007D01*
X42865219Y-110476005D01*
X42694473Y-110499959D01*
X42506688Y-110529417D01*
X42368536Y-110552357D01*
X41701585Y-110686091D01*
X41047589Y-110859854D01*
X40407861Y-111072974D01*
X39783712Y-111324779D01*
X39176454Y-111614599D01*
X38587397Y-111941762D01*
X38017853Y-112305596D01*
X37469134Y-112705430D01*
X36942551Y-113140592D01*
X36486042Y-113564432D01*
X36388954Y-113660223D01*
X36318322Y-113732073D01*
X36269982Y-113785275D01*
X36239770Y-113825120D01*
X36223522Y-113856901D01*
X36217077Y-113885910D01*
X36216167Y-113907479D01*
X36216167Y-113985912D01*
X36325750Y-113866010D01*
X36529220Y-113671701D01*
X36764951Y-113496029D01*
X37025414Y-113343175D01*
X37303083Y-113217320D01*
X37590430Y-113122644D01*
X37720405Y-113091428D01*
X37926814Y-113059399D01*
X38155545Y-113043819D01*
X38390735Y-113044704D01*
X38616520Y-113062068D01*
X38791905Y-113090370D01*
X39059175Y-113157840D01*
X39308383Y-113244582D01*
X39547455Y-113354561D01*
X39784318Y-113491741D01*
X40026900Y-113660088D01*
X40198667Y-113793985D01*
X40254751Y-113839427D01*
X40547917Y-113691125D01*
X40926385Y-113514251D01*
X41312391Y-113363612D01*
X41711247Y-113237864D01*
X42128261Y-113135659D01*
X42568744Y-113055652D01*
X43038007Y-112996497D01*
X43412833Y-112964951D01*
X43568503Y-112957026D01*
X43755894Y-112951844D01*
X43967069Y-112949277D01*
X44194093Y-112949199D01*
X44429027Y-112951483D01*
X44663935Y-112956000D01*
X44890881Y-112962624D01*
X45101927Y-112971228D01*
X45289137Y-112981684D01*
X45444574Y-112993865D01*
X45487167Y-112998201D01*
X45930309Y-113055374D01*
X46340366Y-113127065D01*
X46724691Y-113215277D01*
X47090640Y-113322015D01*
X47445568Y-113449283D01*
X47796831Y-113599083D01*
X47938697Y-113666121D01*
X48284143Y-113833753D01*
X48425530Y-113720840D01*
X48721084Y-113508885D01*
X49027551Y-113335475D01*
X49342689Y-113201064D01*
X49664257Y-113106103D01*
X49990011Y-113051042D01*
X50317710Y-113036335D01*
X50645112Y-113062433D01*
X50969974Y-113129787D01*
X51124788Y-113177053D01*
X51431374Y-113302552D01*
X51717102Y-113463591D01*
X51979777Y-113657709D01*
X52217204Y-113882448D01*
X52427184Y-114135348D01*
X52607524Y-114413949D01*
X52756026Y-114715793D01*
X52870494Y-115038419D01*
X52906035Y-115171809D01*
X52969877Y-115523737D01*
X52992872Y-115878367D01*
X52976065Y-116232307D01*
X52920502Y-116582168D01*
X52827228Y-116924557D01*
X52697288Y-117256085D01*
X52531729Y-117573359D01*
X52331595Y-117872990D01*
X52097931Y-118151587D01*
X51938285Y-118310772D01*
X51835683Y-118400179D01*
X51715192Y-118495444D01*
X51587100Y-118589239D01*
X51461693Y-118674238D01*
X51349260Y-118743114D01*
X51280055Y-118779585D01*
X51229139Y-118807212D01*
X51208619Y-118833889D01*
X51209183Y-118873346D01*
X51210636Y-118881921D01*
X51218830Y-118946523D01*
X51227221Y-119045537D01*
X51235467Y-119171043D01*
X51243226Y-119315124D01*
X51250158Y-119469860D01*
X51255921Y-119627334D01*
X51260174Y-119779627D01*
X51262575Y-119918820D01*
X51262783Y-120036995D01*
X51262160Y-120077336D01*
X51255292Y-120385417D01*
X51333414Y-120554750D01*
X51443754Y-120839829D01*
X51524287Y-121147633D01*
X51574499Y-121470329D01*
X51593881Y-121800083D01*
X51581920Y-122129061D01*
X51538104Y-122449430D01*
X51474334Y-122712837D01*
X51365781Y-123004327D01*
X51217441Y-123283126D01*
X51030087Y-123548666D01*
X50804492Y-123800378D01*
X50541431Y-124037694D01*
X50241676Y-124260044D01*
X49906002Y-124466859D01*
X49535181Y-124657571D01*
X49129988Y-124831610D01*
X48691196Y-124988409D01*
X48219578Y-125127397D01*
X48175333Y-125139069D01*
X48075981Y-125165193D01*
X47992759Y-125187379D01*
X47933515Y-125203511D01*
X47906100Y-125211476D01*
X47905179Y-125211859D01*
X47911184Y-125231250D01*
X47931785Y-125280797D01*
X47963503Y-125352376D01*
X47992369Y-125415366D01*
X48143684Y-125766238D01*
X48281941Y-126136259D01*
X48404116Y-126515270D01*
X48507185Y-126893113D01*
X48588123Y-127259628D01*
X48643726Y-127603250D01*
X48657646Y-127748489D01*
X48666339Y-127917796D01*
X48669907Y-128100324D01*
X48668448Y-128285225D01*
X48662064Y-128461650D01*
X48650853Y-128618753D01*
X48634916Y-128745684D01*
X48633105Y-128756083D01*
X48554543Y-129126748D01*
X48452883Y-129498655D01*
X48330875Y-129865045D01*
X48191269Y-130219158D01*
X48036813Y-130554235D01*
X47870259Y-130863516D01*
X47694355Y-131140241D01*
X47623252Y-131238625D01*
X47499963Y-131402667D01*
X48850035Y-131402667D01*
X49174142Y-131237540D01*
X49780817Y-130905891D01*
X50358900Y-130543516D01*
X50910037Y-130149316D01*
X51403250Y-129750277D01*
X51549075Y-129620901D01*
X51713740Y-129467466D01*
X51889154Y-129298069D01*
X52067223Y-129120803D01*
X52239854Y-128943767D01*
X52398956Y-128775054D01*
X52536435Y-128622760D01*
X52576167Y-128576917D01*
X53007688Y-128040595D01*
X53402581Y-127483393D01*
X53760374Y-126906448D01*
X54080597Y-126310894D01*
X54362780Y-125697868D01*
X54606453Y-125068505D01*
X54811145Y-124423940D01*
X54976386Y-123765308D01*
X55101705Y-123093747D01*
X55186633Y-122410390D01*
X55201442Y-122238561D01*
X55209763Y-122100625D01*
X55216079Y-121929976D01*
X55220385Y-121735813D01*
X55222677Y-121527333D01*
X55222949Y-121313734D01*
X55221196Y-121104215D01*
X55217414Y-120907974D01*
X55211596Y-120734209D01*
X55203739Y-120592118D01*
X55202353Y-120573699D01*
X55127743Y-119890152D01*
X55012841Y-119218026D01*
X54858410Y-118558718D01*
X54665216Y-117913627D01*
X54434025Y-117284151D01*
X54165600Y-116671688D01*
X53860708Y-116077636D01*
X53520114Y-115503394D01*
X53144582Y-114950359D01*
X52734878Y-114419929D01*
X52291767Y-113913504D01*
X51816013Y-113432480D01*
X51308383Y-112978256D01*
X50842418Y-112606730D01*
X50291538Y-112217143D01*
X49718303Y-111863058D01*
X49124588Y-111545262D01*
X48512268Y-111264544D01*
X47883219Y-111021693D01*
X47239315Y-110817496D01*
X46582431Y-110652743D01*
X45914444Y-110528222D01*
X45889333Y-110524365D01*
X45709055Y-110497476D01*
X45549786Y-110475382D01*
X45404400Y-110457626D01*
X45265771Y-110443750D01*
X45126773Y-110433297D01*
X44980280Y-110425809D01*
X44819166Y-110420830D01*
X44636306Y-110417901D01*
X44424572Y-110416565D01*
X44206583Y-110416346D01*
X43947363Y-110417139D01*
G37*
X43947363Y-110417139D02*
X43723041Y-110419593D01*
X43526198Y-110424258D01*
X43349414Y-110431683D01*
X43185269Y-110442416D01*
X43026344Y-110457007D01*
X42865219Y-110476005D01*
X42694473Y-110499959D01*
X42506688Y-110529417D01*
X42368536Y-110552357D01*
X41701585Y-110686091D01*
X41047589Y-110859854D01*
X40407861Y-111072974D01*
X39783712Y-111324779D01*
X39176454Y-111614599D01*
X38587397Y-111941762D01*
X38017853Y-112305596D01*
X37469134Y-112705430D01*
X36942551Y-113140592D01*
X36486042Y-113564432D01*
X36388954Y-113660223D01*
X36318322Y-113732073D01*
X36269982Y-113785275D01*
X36239770Y-113825120D01*
X36223522Y-113856901D01*
X36217077Y-113885910D01*
X36216167Y-113907479D01*
X36216167Y-113985912D01*
X36325750Y-113866010D01*
X36529220Y-113671701D01*
X36764951Y-113496029D01*
X37025414Y-113343175D01*
X37303083Y-113217320D01*
X37590430Y-113122644D01*
X37720405Y-113091428D01*
X37926814Y-113059399D01*
X38155545Y-113043819D01*
X38390735Y-113044704D01*
X38616520Y-113062068D01*
X38791905Y-113090370D01*
X39059175Y-113157840D01*
X39308383Y-113244582D01*
X39547455Y-113354561D01*
X39784318Y-113491741D01*
X40026900Y-113660088D01*
X40198667Y-113793985D01*
X40254751Y-113839427D01*
X40547917Y-113691125D01*
X40926385Y-113514251D01*
X41312391Y-113363612D01*
X41711247Y-113237864D01*
X42128261Y-113135659D01*
X42568744Y-113055652D01*
X43038007Y-112996497D01*
X43412833Y-112964951D01*
X43568503Y-112957026D01*
X43755894Y-112951844D01*
X43967069Y-112949277D01*
X44194093Y-112949199D01*
X44429027Y-112951483D01*
X44663935Y-112956000D01*
X44890881Y-112962624D01*
X45101927Y-112971228D01*
X45289137Y-112981684D01*
X45444574Y-112993865D01*
X45487167Y-112998201D01*
X45930309Y-113055374D01*
X46340366Y-113127065D01*
X46724691Y-113215277D01*
X47090640Y-113322015D01*
X47445568Y-113449283D01*
X47796831Y-113599083D01*
X47938697Y-113666121D01*
X48284143Y-113833753D01*
X48425530Y-113720840D01*
X48721084Y-113508885D01*
X49027551Y-113335475D01*
X49342689Y-113201064D01*
X49664257Y-113106103D01*
X49990011Y-113051042D01*
X50317710Y-113036335D01*
X50645112Y-113062433D01*
X50969974Y-113129787D01*
X51124788Y-113177053D01*
X51431374Y-113302552D01*
X51717102Y-113463591D01*
X51979777Y-113657709D01*
X52217204Y-113882448D01*
X52427184Y-114135348D01*
X52607524Y-114413949D01*
X52756026Y-114715793D01*
X52870494Y-115038419D01*
X52906035Y-115171809D01*
X52969877Y-115523737D01*
X52992872Y-115878367D01*
X52976065Y-116232307D01*
X52920502Y-116582168D01*
X52827228Y-116924557D01*
X52697288Y-117256085D01*
X52531729Y-117573359D01*
X52331595Y-117872990D01*
X52097931Y-118151587D01*
X51938285Y-118310772D01*
X51835683Y-118400179D01*
X51715192Y-118495444D01*
X51587100Y-118589239D01*
X51461693Y-118674238D01*
X51349260Y-118743114D01*
X51280055Y-118779585D01*
X51229139Y-118807212D01*
X51208619Y-118833889D01*
X51209183Y-118873346D01*
X51210636Y-118881921D01*
X51218830Y-118946523D01*
X51227221Y-119045537D01*
X51235467Y-119171043D01*
X51243226Y-119315124D01*
X51250158Y-119469860D01*
X51255921Y-119627334D01*
X51260174Y-119779627D01*
X51262575Y-119918820D01*
X51262783Y-120036995D01*
X51262160Y-120077336D01*
X51255292Y-120385417D01*
X51333414Y-120554750D01*
X51443754Y-120839829D01*
X51524287Y-121147633D01*
X51574499Y-121470329D01*
X51593881Y-121800083D01*
X51581920Y-122129061D01*
X51538104Y-122449430D01*
X51474334Y-122712837D01*
X51365781Y-123004327D01*
X51217441Y-123283126D01*
X51030087Y-123548666D01*
X50804492Y-123800378D01*
X50541431Y-124037694D01*
X50241676Y-124260044D01*
X49906002Y-124466859D01*
X49535181Y-124657571D01*
X49129988Y-124831610D01*
X48691196Y-124988409D01*
X48219578Y-125127397D01*
X48175333Y-125139069D01*
X48075981Y-125165193D01*
X47992759Y-125187379D01*
X47933515Y-125203511D01*
X47906100Y-125211476D01*
X47905179Y-125211859D01*
X47911184Y-125231250D01*
X47931785Y-125280797D01*
X47963503Y-125352376D01*
X47992369Y-125415366D01*
X48143684Y-125766238D01*
X48281941Y-126136259D01*
X48404116Y-126515270D01*
X48507185Y-126893113D01*
X48588123Y-127259628D01*
X48643726Y-127603250D01*
X48657646Y-127748489D01*
X48666339Y-127917796D01*
X48669907Y-128100324D01*
X48668448Y-128285225D01*
X48662064Y-128461650D01*
X48650853Y-128618753D01*
X48634916Y-128745684D01*
X48633105Y-128756083D01*
X48554543Y-129126748D01*
X48452883Y-129498655D01*
X48330875Y-129865045D01*
X48191269Y-130219158D01*
X48036813Y-130554235D01*
X47870259Y-130863516D01*
X47694355Y-131140241D01*
X47623252Y-131238625D01*
X47499963Y-131402667D01*
X48850035Y-131402667D01*
X49174142Y-131237540D01*
X49780817Y-130905891D01*
X50358900Y-130543516D01*
X50910037Y-130149316D01*
X51403250Y-129750277D01*
X51549075Y-129620901D01*
X51713740Y-129467466D01*
X51889154Y-129298069D01*
X52067223Y-129120803D01*
X52239854Y-128943767D01*
X52398956Y-128775054D01*
X52536435Y-128622760D01*
X52576167Y-128576917D01*
X53007688Y-128040595D01*
X53402581Y-127483393D01*
X53760374Y-126906448D01*
X54080597Y-126310894D01*
X54362780Y-125697868D01*
X54606453Y-125068505D01*
X54811145Y-124423940D01*
X54976386Y-123765308D01*
X55101705Y-123093747D01*
X55186633Y-122410390D01*
X55201442Y-122238561D01*
X55209763Y-122100625D01*
X55216079Y-121929976D01*
X55220385Y-121735813D01*
X55222677Y-121527333D01*
X55222949Y-121313734D01*
X55221196Y-121104215D01*
X55217414Y-120907974D01*
X55211596Y-120734209D01*
X55203739Y-120592118D01*
X55202353Y-120573699D01*
X55127743Y-119890152D01*
X55012841Y-119218026D01*
X54858410Y-118558718D01*
X54665216Y-117913627D01*
X54434025Y-117284151D01*
X54165600Y-116671688D01*
X53860708Y-116077636D01*
X53520114Y-115503394D01*
X53144582Y-114950359D01*
X52734878Y-114419929D01*
X52291767Y-113913504D01*
X51816013Y-113432480D01*
X51308383Y-112978256D01*
X50842418Y-112606730D01*
X50291538Y-112217143D01*
X49718303Y-111863058D01*
X49124588Y-111545262D01*
X48512268Y-111264544D01*
X47883219Y-111021693D01*
X47239315Y-110817496D01*
X46582431Y-110652743D01*
X45914444Y-110528222D01*
X45889333Y-110524365D01*
X45709055Y-110497476D01*
X45549786Y-110475382D01*
X45404400Y-110457626D01*
X45265771Y-110443750D01*
X45126773Y-110433297D01*
X44980280Y-110425809D01*
X44819166Y-110420830D01*
X44636306Y-110417901D01*
X44424572Y-110416565D01*
X44206583Y-110416346D01*
X43947363Y-110417139D01*
G36*
X43793972Y-113420207D02*
G01*
X43431691Y-113435997D01*
X43091272Y-113461671D01*
X42851917Y-113487969D01*
X42359846Y-113567584D01*
X41886129Y-113678059D01*
X41434040Y-113818289D01*
X41006853Y-113987169D01*
X40607839Y-114183594D01*
X40357932Y-114330033D01*
X40177964Y-114443020D01*
X40081114Y-114330840D01*
X39937858Y-114185016D01*
X39763630Y-114040261D01*
X39569280Y-113904223D01*
X39365655Y-113784549D01*
X39180581Y-113695952D01*
X38887333Y-113593613D01*
X38591794Y-113531310D01*
X38297204Y-113507901D01*
X38006807Y-113522244D01*
X37723843Y-113573200D01*
X37451554Y-113659626D01*
X37193183Y-113780382D01*
X36951971Y-113934325D01*
X36731159Y-114120315D01*
X36533991Y-114337210D01*
X36363707Y-114583869D01*
X36292345Y-114712750D01*
X36216374Y-114860917D01*
X36216270Y-115920193D01*
X36216167Y-116979469D01*
X36306237Y-117158443D01*
X36418151Y-117362700D01*
X36539327Y-117545038D01*
X36679797Y-117719270D01*
X36829854Y-117879400D01*
X37076654Y-118103543D01*
X37334064Y-118287852D01*
X37604696Y-118434065D01*
X37762059Y-118499599D01*
X37858035Y-118535597D01*
X37831822Y-118740840D01*
X37804400Y-118995662D01*
X37783214Y-119275316D01*
X37769193Y-119562637D01*
X37763267Y-119840458D01*
X37763958Y-119993834D01*
X37769847Y-120364250D01*
X37700941Y-120498215D01*
X37607677Y-120704752D01*
X37523875Y-120940843D01*
X37462808Y-121158000D01*
X37444906Y-121234417D01*
X37431841Y-121304382D01*
X37422898Y-121376830D01*
X37417362Y-121460698D01*
X37414519Y-121564923D01*
X37413654Y-121698440D01*
X37413723Y-121771834D01*
X37414405Y-121917024D01*
X37416235Y-122028259D01*
X37420024Y-122113915D01*
X37426585Y-122182368D01*
X37436728Y-122241995D01*
X37451267Y-122301172D01*
X37471013Y-122368277D01*
X37471779Y-122370778D01*
X37572471Y-122636085D01*
X37707755Y-122886582D01*
X37878707Y-123123359D01*
X38086403Y-123347507D01*
X38331916Y-123560115D01*
X38616324Y-123762273D01*
X38940700Y-123955072D01*
X39135216Y-124056856D01*
X39572088Y-124257519D01*
X40043487Y-124439189D01*
X40545407Y-124600403D01*
X40868454Y-124689001D01*
X40979443Y-124717996D01*
X41075310Y-124743883D01*
X41148851Y-124764650D01*
X41192861Y-124778285D01*
X41202089Y-124782200D01*
X41196121Y-124803275D01*
X41173521Y-124855862D01*
X41137126Y-124933881D01*
X41089769Y-125031252D01*
X41035576Y-125139357D01*
X40809366Y-125612488D01*
X40615668Y-126076960D01*
X40455447Y-126529945D01*
X40329670Y-126968615D01*
X40239301Y-127390141D01*
X40214711Y-127543409D01*
X40197558Y-127669967D01*
X40185869Y-127780814D01*
X40179053Y-127888275D01*
X40176518Y-128004674D01*
X40177672Y-128142336D01*
X40180371Y-128258442D01*
X40186500Y-128430808D01*
X40195916Y-128578249D01*
X40210404Y-128711306D01*
X40231750Y-128840524D01*
X40261741Y-128976445D01*
X40302162Y-129129612D01*
X40354799Y-129310569D01*
X40363538Y-129339696D01*
X40502632Y-129759721D01*
X40655685Y-130141861D01*
X40822420Y-130485587D01*
X41002561Y-130790368D01*
X41195832Y-131055674D01*
X41348145Y-131227307D01*
X41518987Y-131403220D01*
X43017849Y-131392084D01*
X43132364Y-131243917D01*
X43182988Y-131170918D01*
X43244915Y-131070085D01*
X43311938Y-130952126D01*
X43377853Y-130827749D01*
X43405398Y-130772748D01*
X43469752Y-130644288D01*
X43520397Y-130549912D01*
X43560302Y-130484795D01*
X43592433Y-130444108D01*
X43619757Y-130423027D01*
X43620666Y-130422583D01*
X43660025Y-130414134D01*
X43734065Y-130407502D01*
X43835457Y-130402652D01*
X43956873Y-130399545D01*
X44090984Y-130398148D01*
X44230461Y-130398422D01*
X44367975Y-130400332D01*
X44496198Y-130403842D01*
X44607801Y-130408915D01*
X44695456Y-130415515D01*
X44751834Y-130423606D01*
X44766099Y-130428250D01*
X44794881Y-130458650D01*
X44836707Y-130524018D01*
X44889009Y-130619971D01*
X44945843Y-130735009D01*
X45023091Y-130892727D01*
X45091675Y-131020708D01*
X45157613Y-131128920D01*
X45226923Y-131227333D01*
X45294625Y-131312709D01*
X45369131Y-131402667D01*
X46844368Y-131402667D01*
X46962226Y-131291542D01*
X47063384Y-131187036D01*
X47174077Y-131057394D01*
X47284420Y-130915098D01*
X47384531Y-130772629D01*
X47431642Y-130698732D01*
X47573443Y-130445169D01*
X47708056Y-130163802D01*
X47832516Y-129863434D01*
X47943861Y-129552870D01*
X48039127Y-129240913D01*
X48115351Y-128936369D01*
X48169568Y-128648040D01*
X48195584Y-128429188D01*
X48205378Y-128088387D01*
X48181566Y-127724911D01*
X48124729Y-127341049D01*
X48035450Y-126939091D01*
X47914311Y-126521326D01*
X47761893Y-126090043D01*
X47578780Y-125647534D01*
X47482999Y-125443823D01*
X47166646Y-125443823D01*
X47136964Y-125520643D01*
X47099770Y-125563316D01*
X47037585Y-125607565D01*
X46977292Y-125620856D01*
X46907381Y-125603505D01*
X46841506Y-125570460D01*
X46596763Y-125439119D01*
X46358523Y-125325103D01*
X46131820Y-125230326D01*
X45921687Y-125156702D01*
X45733158Y-125106145D01*
X45571267Y-125080569D01*
X45549030Y-125078972D01*
X45423083Y-125076652D01*
X45329475Y-125089234D01*
X45259656Y-125120655D01*
X45205078Y-125174850D01*
X45157190Y-125255756D01*
X45154880Y-125260446D01*
X45128354Y-125318515D01*
X45111569Y-125369899D01*
X45102522Y-125426981D01*
X45099206Y-125502144D01*
X45099548Y-125602226D01*
X45104840Y-125738119D01*
X45118826Y-125852489D01*
X45144386Y-125965743D01*
X45157301Y-126011270D01*
X45252906Y-126271669D01*
X45379117Y-126514693D01*
X45532252Y-126735659D01*
X45708629Y-126929884D01*
X45904568Y-127092683D01*
X46100859Y-127211648D01*
X46195764Y-127265932D01*
X46257340Y-127318304D01*
X46293550Y-127376178D01*
X46301502Y-127398436D01*
X46303863Y-127471679D01*
X46272431Y-127540954D01*
X46215371Y-127596673D01*
X46140849Y-127629250D01*
X46101000Y-127633855D01*
X46058135Y-127624218D01*
X45991398Y-127598144D01*
X45913369Y-127560716D01*
X45892324Y-127549502D01*
X45649944Y-127394700D01*
X45428704Y-127208160D01*
X45231480Y-126994613D01*
X45061149Y-126758791D01*
X44920589Y-126505423D01*
X44812676Y-126239240D01*
X44740287Y-125964973D01*
X44706299Y-125687353D01*
X44705041Y-125637054D01*
X43728431Y-125637054D01*
X43708423Y-125856849D01*
X43698330Y-125915201D01*
X43623308Y-126206068D01*
X43512391Y-126485413D01*
X43368854Y-126748679D01*
X43195976Y-126991305D01*
X42997033Y-127208732D01*
X42775303Y-127396402D01*
X42534062Y-127549755D01*
X42516784Y-127558953D01*
X42411308Y-127608499D01*
X42330079Y-127630908D01*
X42265139Y-127626518D01*
X42208529Y-127595668D01*
X42183539Y-127573128D01*
X42134054Y-127497841D01*
X42121048Y-127413707D01*
X42142438Y-127339405D01*
X42170007Y-127311409D01*
X42224765Y-127271543D01*
X42296229Y-127227248D01*
X42317063Y-127215474D01*
X42437275Y-127146024D01*
X42533972Y-127081747D01*
X42622572Y-127011194D01*
X42718492Y-126922910D01*
X42743056Y-126899044D01*
X42925721Y-126691680D01*
X43079962Y-126457024D01*
X43201468Y-126202579D01*
X43277825Y-125968510D01*
X43309169Y-125812197D01*
X43324827Y-125654342D01*
X43324894Y-125504736D01*
X43309461Y-125373169D01*
X43278620Y-125269433D01*
X43271065Y-125253750D01*
X43231290Y-125183514D01*
X43192490Y-125135912D01*
X43145424Y-125106679D01*
X43080852Y-125091552D01*
X42989531Y-125086267D01*
X42907797Y-125086115D01*
X42788476Y-125089240D01*
X42694012Y-125098274D01*
X42607060Y-125115809D01*
X42510273Y-125144440D01*
X42503907Y-125146524D01*
X42211674Y-125256485D01*
X41908829Y-125396850D01*
X41717650Y-125498664D01*
X41627127Y-125547551D01*
X41546964Y-125587525D01*
X41485939Y-125614423D01*
X41453066Y-125624088D01*
X41393116Y-125608854D01*
X41330333Y-125571126D01*
X41280926Y-125522555D01*
X41262690Y-125487240D01*
X41260321Y-125395968D01*
X41297739Y-125311521D01*
X41331722Y-125273244D01*
X41372966Y-125243995D01*
X41445936Y-125201237D01*
X41543574Y-125148428D01*
X41658822Y-125089026D01*
X41784620Y-125026488D01*
X41913910Y-124964272D01*
X42039635Y-124905836D01*
X42154735Y-124854638D01*
X42252152Y-124814136D01*
X42318693Y-124789746D01*
X42562228Y-124721995D01*
X42785057Y-124683568D01*
X42984741Y-124674606D01*
X43158842Y-124695252D01*
X43279775Y-124733925D01*
X43415339Y-124815448D01*
X43528432Y-124929775D01*
X43617671Y-125073002D01*
X43681672Y-125241227D01*
X43719053Y-125430545D01*
X43728431Y-125637054D01*
X44705041Y-125637054D01*
X44704000Y-125595480D01*
X44718238Y-125369423D01*
X44760598Y-125174751D01*
X44830550Y-125011686D01*
X44927563Y-124880451D01*
X45051106Y-124781268D01*
X45200650Y-124714359D01*
X45375663Y-124679946D01*
X45575615Y-124678252D01*
X45799976Y-124709498D01*
X46048214Y-124773907D01*
X46319800Y-124871701D01*
X46376328Y-124895056D01*
X46491337Y-124946205D01*
X46615625Y-125005989D01*
X46741485Y-125070230D01*
X46861208Y-125134748D01*
X46967086Y-125195365D01*
X47051410Y-125247901D01*
X47106472Y-125288179D01*
X47113724Y-125294814D01*
X47159071Y-125365243D01*
X47166646Y-125443823D01*
X47482999Y-125443823D01*
X47382278Y-125229606D01*
X47321584Y-125106763D01*
X47278221Y-125016464D01*
X47250317Y-124953527D01*
X47236002Y-124912770D01*
X47233404Y-124889007D01*
X47240651Y-124877058D01*
X47253272Y-124872290D01*
X47290392Y-124864206D01*
X47359100Y-124849499D01*
X47449559Y-124830268D01*
X47550917Y-124808822D01*
X48003571Y-124702485D01*
X48432333Y-124580017D01*
X48835049Y-124442469D01*
X49209564Y-124290895D01*
X49553725Y-124126345D01*
X49865378Y-123949872D01*
X50142368Y-123762529D01*
X50382542Y-123565366D01*
X50583745Y-123359437D01*
X50628492Y-123305729D01*
X50791428Y-123080661D01*
X50919083Y-122851930D01*
X51013578Y-122613198D01*
X51077029Y-122358134D01*
X51111557Y-122080401D01*
X51119777Y-121836874D01*
X51101077Y-121491111D01*
X51045567Y-121160376D01*
X50953946Y-120847787D01*
X50836852Y-120575917D01*
X50772708Y-120448917D01*
X50785953Y-120096288D01*
X50789723Y-119886999D01*
X50787106Y-119650306D01*
X50778708Y-119400559D01*
X50771602Y-119270436D01*
X49062088Y-119270436D01*
X49055294Y-119506264D01*
X49013601Y-119739086D01*
X48936921Y-119964280D01*
X48825165Y-120177226D01*
X48678244Y-120373302D01*
X48618529Y-120437056D01*
X48444634Y-120584400D01*
X48253594Y-120694311D01*
X48048498Y-120765472D01*
X47832435Y-120796560D01*
X47774011Y-120797916D01*
X47555431Y-120776803D01*
X47346062Y-120715429D01*
X47151482Y-120615691D01*
X47069192Y-120558001D01*
X47014071Y-120516938D01*
X46973291Y-120488895D01*
X46957801Y-120480667D01*
X46961557Y-120497968D01*
X46980977Y-120543940D01*
X47012213Y-120609686D01*
X47022708Y-120630736D01*
X47091229Y-120783377D01*
X47155690Y-120957253D01*
X47210946Y-121136364D01*
X47251852Y-121304711D01*
X47266799Y-121389874D01*
X47278246Y-121511318D01*
X47282689Y-121656725D01*
X47280610Y-121813692D01*
X47272493Y-121969814D01*
X47258819Y-122112687D01*
X47240071Y-122229906D01*
X47232947Y-122260480D01*
X47154383Y-122480891D01*
X47037482Y-122690054D01*
X46885097Y-122886482D01*
X46700085Y-123068686D01*
X46485300Y-123235177D01*
X46243598Y-123384467D01*
X45977834Y-123515067D01*
X45690862Y-123625487D01*
X45385539Y-123714241D01*
X45064719Y-123779838D01*
X44731258Y-123820791D01*
X44388010Y-123835610D01*
X44217167Y-123832882D01*
X44083178Y-123826117D01*
X43937654Y-123815515D01*
X43799386Y-123802606D01*
X43700011Y-123790746D01*
X43362976Y-123729810D01*
X43041845Y-123643299D01*
X42739799Y-123533083D01*
X42460016Y-123401034D01*
X42205677Y-123249023D01*
X41979961Y-123078922D01*
X41786048Y-122892602D01*
X41627117Y-122691934D01*
X41520124Y-122507846D01*
X41472739Y-122404939D01*
X41437220Y-122310796D01*
X41411948Y-122216362D01*
X41395308Y-122112580D01*
X41385682Y-121990397D01*
X41381454Y-121840756D01*
X41380833Y-121727767D01*
X41384477Y-121525364D01*
X41396883Y-121353247D01*
X41420269Y-121199878D01*
X41456848Y-121053719D01*
X41508838Y-120903232D01*
X41565437Y-120766417D01*
X41704425Y-120491020D01*
X41878791Y-120215852D01*
X42082257Y-119948687D01*
X42308546Y-119697301D01*
X42551380Y-119469467D01*
X42603871Y-119427386D01*
X42070222Y-119427386D01*
X42039230Y-119651336D01*
X41978736Y-119872714D01*
X41891878Y-120078921D01*
X41823412Y-120197866D01*
X41696461Y-120362260D01*
X41543951Y-120509483D01*
X41374688Y-120632784D01*
X41197484Y-120725412D01*
X41082123Y-120766000D01*
X40956617Y-120788178D01*
X40807704Y-120794386D01*
X40650824Y-120785481D01*
X40501415Y-120762319D01*
X40378011Y-120726955D01*
X40175521Y-120626862D01*
X39992977Y-120491186D01*
X39833230Y-120323067D01*
X39699128Y-120125650D01*
X39593520Y-119902075D01*
X39569400Y-119835084D01*
X39524230Y-119653452D01*
X39500880Y-119450590D01*
X39499938Y-119241887D01*
X39521991Y-119042738D01*
X39536494Y-118972887D01*
X39613405Y-118733735D01*
X39723579Y-118515423D01*
X39864310Y-118321919D01*
X40032889Y-118157190D01*
X40153510Y-118069104D01*
X40345833Y-117967459D01*
X40542736Y-117905452D01*
X40740941Y-117881126D01*
X40937171Y-117892520D01*
X41128147Y-117937677D01*
X41310591Y-118014638D01*
X41481226Y-118121443D01*
X41636773Y-118256134D01*
X41773954Y-118416752D01*
X41889491Y-118601339D01*
X41980107Y-118807935D01*
X42042523Y-119034582D01*
X42068573Y-119213464D01*
X42070222Y-119427386D01*
X42603871Y-119427386D01*
X42724917Y-119330347D01*
X42931497Y-119192092D01*
X43162305Y-119065286D01*
X43405869Y-118954928D01*
X43650715Y-118866017D01*
X43885372Y-118803554D01*
X43970198Y-118787675D01*
X44077932Y-118775762D01*
X44212800Y-118768978D01*
X44359915Y-118767323D01*
X44504388Y-118770798D01*
X44631333Y-118779402D01*
X44696969Y-118787675D01*
X45015138Y-118860631D01*
X45324722Y-118974856D01*
X45625844Y-119130418D01*
X45918624Y-119327382D01*
X46203186Y-119565816D01*
X46307375Y-119665510D01*
X46395390Y-119752332D01*
X46472089Y-119827393D01*
X46532826Y-119886194D01*
X46572954Y-119924237D01*
X46587825Y-119937026D01*
X46587833Y-119936986D01*
X46582403Y-119915234D01*
X46567969Y-119862883D01*
X46547320Y-119789995D01*
X46540589Y-119766528D01*
X46518275Y-119678523D01*
X46504024Y-119592105D01*
X46496349Y-119493670D01*
X46493766Y-119369615D01*
X46493733Y-119337667D01*
X46498467Y-119167252D01*
X46514342Y-119023747D01*
X46544696Y-118892454D01*
X46592864Y-118758676D01*
X46657135Y-118618000D01*
X46741411Y-118475402D01*
X46851186Y-118333733D01*
X46977039Y-118202750D01*
X47109551Y-118092208D01*
X47239300Y-118011864D01*
X47245120Y-118009021D01*
X47460767Y-117926583D01*
X47676771Y-117885902D01*
X47890243Y-117886544D01*
X48098292Y-117928078D01*
X48298030Y-118010073D01*
X48486568Y-118132095D01*
X48575688Y-118207940D01*
X48742055Y-118389483D01*
X48873967Y-118591125D01*
X48971336Y-118808245D01*
X49034072Y-119036222D01*
X49062088Y-119270436D01*
X50771602Y-119270436D01*
X50765139Y-119152107D01*
X50747005Y-118919298D01*
X50728844Y-118747588D01*
X50701938Y-118527926D01*
X50777427Y-118497373D01*
X51042204Y-118376895D01*
X51277043Y-118239966D01*
X51493390Y-118079038D01*
X51700177Y-117889096D01*
X51927284Y-117633500D01*
X52117903Y-117358508D01*
X52273138Y-117062042D01*
X52394094Y-116742023D01*
X52474750Y-116431238D01*
X52493582Y-116312566D01*
X51964167Y-116312566D01*
X51943471Y-116579810D01*
X51883236Y-116843872D01*
X51786239Y-117100411D01*
X51655257Y-117345083D01*
X51493069Y-117573546D01*
X51302453Y-117781454D01*
X51086186Y-117964467D01*
X50847045Y-118118239D01*
X50789913Y-118148599D01*
X50725356Y-118180246D01*
X50677542Y-118201105D01*
X50656790Y-118206678D01*
X50656776Y-118206665D01*
X50649970Y-118184846D01*
X50635487Y-118128906D01*
X50615098Y-118045992D01*
X50590572Y-117943247D01*
X50574491Y-117874558D01*
X50464934Y-117460879D01*
X50331714Y-117057090D01*
X50177799Y-116670476D01*
X50006153Y-116308325D01*
X49819745Y-115977921D01*
X49770940Y-115900758D01*
X49720647Y-115823387D01*
X49688109Y-115766375D01*
X49677607Y-115728750D01*
X38905638Y-115728750D01*
X38768852Y-115947079D01*
X38582190Y-116272896D01*
X38409031Y-116630627D01*
X38253017Y-117011014D01*
X38117791Y-117404802D01*
X38006999Y-117802734D01*
X37963335Y-117993584D01*
X37945507Y-118076065D01*
X37930165Y-118144122D01*
X37920025Y-118185797D01*
X37918575Y-118190835D01*
X37902090Y-118207264D01*
X37865794Y-118204473D01*
X37805062Y-118181038D01*
X37715274Y-118135538D01*
X37684767Y-118118910D01*
X37460385Y-117974717D01*
X37255201Y-117802169D01*
X37071718Y-117605949D01*
X36912440Y-117390739D01*
X36779871Y-117161220D01*
X36676514Y-116922075D01*
X36604872Y-116677984D01*
X36567449Y-116433631D01*
X36566749Y-116193697D01*
X36583865Y-116060013D01*
X36641355Y-115843747D01*
X36729243Y-115654307D01*
X36844346Y-115492743D01*
X36983481Y-115360105D01*
X37143464Y-115257444D01*
X37321112Y-115185810D01*
X37513242Y-115146252D01*
X37716671Y-115139821D01*
X37928214Y-115167567D01*
X38144689Y-115230540D01*
X38362913Y-115329791D01*
X38516536Y-115422434D01*
X38608159Y-115485961D01*
X38698945Y-115552866D01*
X38775072Y-115612805D01*
X38804444Y-115637936D01*
X38905638Y-115728750D01*
X49677607Y-115728750D01*
X49675745Y-115722080D01*
X49685974Y-115682859D01*
X49721216Y-115641072D01*
X49783890Y-115589075D01*
X49876415Y-115519227D01*
X49896523Y-115504097D01*
X50114175Y-115360149D01*
X50336223Y-115251740D01*
X50559221Y-115179269D01*
X50779721Y-115143134D01*
X50994277Y-115143735D01*
X51199443Y-115181470D01*
X51391772Y-115256739D01*
X51497639Y-115318787D01*
X51656857Y-115449359D01*
X51782982Y-115606314D01*
X51875994Y-115789614D01*
X51935877Y-115999221D01*
X51962612Y-116235098D01*
X51964167Y-116312566D01*
X52493582Y-116312566D01*
X52498007Y-116284684D01*
X52513438Y-116112725D01*
X52520722Y-115929417D01*
X52519543Y-115748817D01*
X52509581Y-115584980D01*
X52496263Y-115482195D01*
X52422449Y-115166421D01*
X52313532Y-114868088D01*
X52171390Y-114590926D01*
X51997898Y-114338671D01*
X51822424Y-114141882D01*
X51597070Y-113946361D01*
X51353349Y-113787037D01*
X51094589Y-113663756D01*
X50824115Y-113576362D01*
X50545253Y-113524700D01*
X50261330Y-113508614D01*
X49975673Y-113527950D01*
X49691606Y-113582552D01*
X49412456Y-113672263D01*
X49141550Y-113796931D01*
X48882213Y-113956397D01*
X48637773Y-114150508D01*
X48486043Y-114297708D01*
X48429200Y-114356503D01*
X48384324Y-114401314D01*
X48358618Y-114425011D01*
X48355428Y-114427000D01*
X48335475Y-114416555D01*
X48287753Y-114388438D01*
X48220350Y-114347474D01*
X48171718Y-114317425D01*
X47866650Y-114145629D01*
X47527680Y-113987116D01*
X47161836Y-113844357D01*
X46776145Y-113719820D01*
X46377635Y-113615974D01*
X45973332Y-113535288D01*
X45921083Y-113526688D01*
X45617258Y-113485557D01*
X45281115Y-113453627D01*
X44921685Y-113431014D01*
X44547998Y-113417830D01*
X44169084Y-113414190D01*
X43793972Y-113420207D01*
G37*
X43793972Y-113420207D02*
X43431691Y-113435997D01*
X43091272Y-113461671D01*
X42851917Y-113487969D01*
X42359846Y-113567584D01*
X41886129Y-113678059D01*
X41434040Y-113818289D01*
X41006853Y-113987169D01*
X40607839Y-114183594D01*
X40357932Y-114330033D01*
X40177964Y-114443020D01*
X40081114Y-114330840D01*
X39937858Y-114185016D01*
X39763630Y-114040261D01*
X39569280Y-113904223D01*
X39365655Y-113784549D01*
X39180581Y-113695952D01*
X38887333Y-113593613D01*
X38591794Y-113531310D01*
X38297204Y-113507901D01*
X38006807Y-113522244D01*
X37723843Y-113573200D01*
X37451554Y-113659626D01*
X37193183Y-113780382D01*
X36951971Y-113934325D01*
X36731159Y-114120315D01*
X36533991Y-114337210D01*
X36363707Y-114583869D01*
X36292345Y-114712750D01*
X36216374Y-114860917D01*
X36216270Y-115920193D01*
X36216167Y-116979469D01*
X36306237Y-117158443D01*
X36418151Y-117362700D01*
X36539327Y-117545038D01*
X36679797Y-117719270D01*
X36829854Y-117879400D01*
X37076654Y-118103543D01*
X37334064Y-118287852D01*
X37604696Y-118434065D01*
X37762059Y-118499599D01*
X37858035Y-118535597D01*
X37831822Y-118740840D01*
X37804400Y-118995662D01*
X37783214Y-119275316D01*
X37769193Y-119562637D01*
X37763267Y-119840458D01*
X37763958Y-119993834D01*
X37769847Y-120364250D01*
X37700941Y-120498215D01*
X37607677Y-120704752D01*
X37523875Y-120940843D01*
X37462808Y-121158000D01*
X37444906Y-121234417D01*
X37431841Y-121304382D01*
X37422898Y-121376830D01*
X37417362Y-121460698D01*
X37414519Y-121564923D01*
X37413654Y-121698440D01*
X37413723Y-121771834D01*
X37414405Y-121917024D01*
X37416235Y-122028259D01*
X37420024Y-122113915D01*
X37426585Y-122182368D01*
X37436728Y-122241995D01*
X37451267Y-122301172D01*
X37471013Y-122368277D01*
X37471779Y-122370778D01*
X37572471Y-122636085D01*
X37707755Y-122886582D01*
X37878707Y-123123359D01*
X38086403Y-123347507D01*
X38331916Y-123560115D01*
X38616324Y-123762273D01*
X38940700Y-123955072D01*
X39135216Y-124056856D01*
X39572088Y-124257519D01*
X40043487Y-124439189D01*
X40545407Y-124600403D01*
X40868454Y-124689001D01*
X40979443Y-124717996D01*
X41075310Y-124743883D01*
X41148851Y-124764650D01*
X41192861Y-124778285D01*
X41202089Y-124782200D01*
X41196121Y-124803275D01*
X41173521Y-124855862D01*
X41137126Y-124933881D01*
X41089769Y-125031252D01*
X41035576Y-125139357D01*
X40809366Y-125612488D01*
X40615668Y-126076960D01*
X40455447Y-126529945D01*
X40329670Y-126968615D01*
X40239301Y-127390141D01*
X40214711Y-127543409D01*
X40197558Y-127669967D01*
X40185869Y-127780814D01*
X40179053Y-127888275D01*
X40176518Y-128004674D01*
X40177672Y-128142336D01*
X40180371Y-128258442D01*
X40186500Y-128430808D01*
X40195916Y-128578249D01*
X40210404Y-128711306D01*
X40231750Y-128840524D01*
X40261741Y-128976445D01*
X40302162Y-129129612D01*
X40354799Y-129310569D01*
X40363538Y-129339696D01*
X40502632Y-129759721D01*
X40655685Y-130141861D01*
X40822420Y-130485587D01*
X41002561Y-130790368D01*
X41195832Y-131055674D01*
X41348145Y-131227307D01*
X41518987Y-131403220D01*
X43017849Y-131392084D01*
X43132364Y-131243917D01*
X43182988Y-131170918D01*
X43244915Y-131070085D01*
X43311938Y-130952126D01*
X43377853Y-130827749D01*
X43405398Y-130772748D01*
X43469752Y-130644288D01*
X43520397Y-130549912D01*
X43560302Y-130484795D01*
X43592433Y-130444108D01*
X43619757Y-130423027D01*
X43620666Y-130422583D01*
X43660025Y-130414134D01*
X43734065Y-130407502D01*
X43835457Y-130402652D01*
X43956873Y-130399545D01*
X44090984Y-130398148D01*
X44230461Y-130398422D01*
X44367975Y-130400332D01*
X44496198Y-130403842D01*
X44607801Y-130408915D01*
X44695456Y-130415515D01*
X44751834Y-130423606D01*
X44766099Y-130428250D01*
X44794881Y-130458650D01*
X44836707Y-130524018D01*
X44889009Y-130619971D01*
X44945843Y-130735009D01*
X45023091Y-130892727D01*
X45091675Y-131020708D01*
X45157613Y-131128920D01*
X45226923Y-131227333D01*
X45294625Y-131312709D01*
X45369131Y-131402667D01*
X46844368Y-131402667D01*
X46962226Y-131291542D01*
X47063384Y-131187036D01*
X47174077Y-131057394D01*
X47284420Y-130915098D01*
X47384531Y-130772629D01*
X47431642Y-130698732D01*
X47573443Y-130445169D01*
X47708056Y-130163802D01*
X47832516Y-129863434D01*
X47943861Y-129552870D01*
X48039127Y-129240913D01*
X48115351Y-128936369D01*
X48169568Y-128648040D01*
X48195584Y-128429188D01*
X48205378Y-128088387D01*
X48181566Y-127724911D01*
X48124729Y-127341049D01*
X48035450Y-126939091D01*
X47914311Y-126521326D01*
X47761893Y-126090043D01*
X47578780Y-125647534D01*
X47482999Y-125443823D01*
X47166646Y-125443823D01*
X47136964Y-125520643D01*
X47099770Y-125563316D01*
X47037585Y-125607565D01*
X46977292Y-125620856D01*
X46907381Y-125603505D01*
X46841506Y-125570460D01*
X46596763Y-125439119D01*
X46358523Y-125325103D01*
X46131820Y-125230326D01*
X45921687Y-125156702D01*
X45733158Y-125106145D01*
X45571267Y-125080569D01*
X45549030Y-125078972D01*
X45423083Y-125076652D01*
X45329475Y-125089234D01*
X45259656Y-125120655D01*
X45205078Y-125174850D01*
X45157190Y-125255756D01*
X45154880Y-125260446D01*
X45128354Y-125318515D01*
X45111569Y-125369899D01*
X45102522Y-125426981D01*
X45099206Y-125502144D01*
X45099548Y-125602226D01*
X45104840Y-125738119D01*
X45118826Y-125852489D01*
X45144386Y-125965743D01*
X45157301Y-126011270D01*
X45252906Y-126271669D01*
X45379117Y-126514693D01*
X45532252Y-126735659D01*
X45708629Y-126929884D01*
X45904568Y-127092683D01*
X46100859Y-127211648D01*
X46195764Y-127265932D01*
X46257340Y-127318304D01*
X46293550Y-127376178D01*
X46301502Y-127398436D01*
X46303863Y-127471679D01*
X46272431Y-127540954D01*
X46215371Y-127596673D01*
X46140849Y-127629250D01*
X46101000Y-127633855D01*
X46058135Y-127624218D01*
X45991398Y-127598144D01*
X45913369Y-127560716D01*
X45892324Y-127549502D01*
X45649944Y-127394700D01*
X45428704Y-127208160D01*
X45231480Y-126994613D01*
X45061149Y-126758791D01*
X44920589Y-126505423D01*
X44812676Y-126239240D01*
X44740287Y-125964973D01*
X44706299Y-125687353D01*
X44705041Y-125637054D01*
X43728431Y-125637054D01*
X43708423Y-125856849D01*
X43698330Y-125915201D01*
X43623308Y-126206068D01*
X43512391Y-126485413D01*
X43368854Y-126748679D01*
X43195976Y-126991305D01*
X42997033Y-127208732D01*
X42775303Y-127396402D01*
X42534062Y-127549755D01*
X42516784Y-127558953D01*
X42411308Y-127608499D01*
X42330079Y-127630908D01*
X42265139Y-127626518D01*
X42208529Y-127595668D01*
X42183539Y-127573128D01*
X42134054Y-127497841D01*
X42121048Y-127413707D01*
X42142438Y-127339405D01*
X42170007Y-127311409D01*
X42224765Y-127271543D01*
X42296229Y-127227248D01*
X42317063Y-127215474D01*
X42437275Y-127146024D01*
X42533972Y-127081747D01*
X42622572Y-127011194D01*
X42718492Y-126922910D01*
X42743056Y-126899044D01*
X42925721Y-126691680D01*
X43079962Y-126457024D01*
X43201468Y-126202579D01*
X43277825Y-125968510D01*
X43309169Y-125812197D01*
X43324827Y-125654342D01*
X43324894Y-125504736D01*
X43309461Y-125373169D01*
X43278620Y-125269433D01*
X43271065Y-125253750D01*
X43231290Y-125183514D01*
X43192490Y-125135912D01*
X43145424Y-125106679D01*
X43080852Y-125091552D01*
X42989531Y-125086267D01*
X42907797Y-125086115D01*
X42788476Y-125089240D01*
X42694012Y-125098274D01*
X42607060Y-125115809D01*
X42510273Y-125144440D01*
X42503907Y-125146524D01*
X42211674Y-125256485D01*
X41908829Y-125396850D01*
X41717650Y-125498664D01*
X41627127Y-125547551D01*
X41546964Y-125587525D01*
X41485939Y-125614423D01*
X41453066Y-125624088D01*
X41393116Y-125608854D01*
X41330333Y-125571126D01*
X41280926Y-125522555D01*
X41262690Y-125487240D01*
X41260321Y-125395968D01*
X41297739Y-125311521D01*
X41331722Y-125273244D01*
X41372966Y-125243995D01*
X41445936Y-125201237D01*
X41543574Y-125148428D01*
X41658822Y-125089026D01*
X41784620Y-125026488D01*
X41913910Y-124964272D01*
X42039635Y-124905836D01*
X42154735Y-124854638D01*
X42252152Y-124814136D01*
X42318693Y-124789746D01*
X42562228Y-124721995D01*
X42785057Y-124683568D01*
X42984741Y-124674606D01*
X43158842Y-124695252D01*
X43279775Y-124733925D01*
X43415339Y-124815448D01*
X43528432Y-124929775D01*
X43617671Y-125073002D01*
X43681672Y-125241227D01*
X43719053Y-125430545D01*
X43728431Y-125637054D01*
X44705041Y-125637054D01*
X44704000Y-125595480D01*
X44718238Y-125369423D01*
X44760598Y-125174751D01*
X44830550Y-125011686D01*
X44927563Y-124880451D01*
X45051106Y-124781268D01*
X45200650Y-124714359D01*
X45375663Y-124679946D01*
X45575615Y-124678252D01*
X45799976Y-124709498D01*
X46048214Y-124773907D01*
X46319800Y-124871701D01*
X46376328Y-124895056D01*
X46491337Y-124946205D01*
X46615625Y-125005989D01*
X46741485Y-125070230D01*
X46861208Y-125134748D01*
X46967086Y-125195365D01*
X47051410Y-125247901D01*
X47106472Y-125288179D01*
X47113724Y-125294814D01*
X47159071Y-125365243D01*
X47166646Y-125443823D01*
X47482999Y-125443823D01*
X47382278Y-125229606D01*
X47321584Y-125106763D01*
X47278221Y-125016464D01*
X47250317Y-124953527D01*
X47236002Y-124912770D01*
X47233404Y-124889007D01*
X47240651Y-124877058D01*
X47253272Y-124872290D01*
X47290392Y-124864206D01*
X47359100Y-124849499D01*
X47449559Y-124830268D01*
X47550917Y-124808822D01*
X48003571Y-124702485D01*
X48432333Y-124580017D01*
X48835049Y-124442469D01*
X49209564Y-124290895D01*
X49553725Y-124126345D01*
X49865378Y-123949872D01*
X50142368Y-123762529D01*
X50382542Y-123565366D01*
X50583745Y-123359437D01*
X50628492Y-123305729D01*
X50791428Y-123080661D01*
X50919083Y-122851930D01*
X51013578Y-122613198D01*
X51077029Y-122358134D01*
X51111557Y-122080401D01*
X51119777Y-121836874D01*
X51101077Y-121491111D01*
X51045567Y-121160376D01*
X50953946Y-120847787D01*
X50836852Y-120575917D01*
X50772708Y-120448917D01*
X50785953Y-120096288D01*
X50789723Y-119886999D01*
X50787106Y-119650306D01*
X50778708Y-119400559D01*
X50771602Y-119270436D01*
X49062088Y-119270436D01*
X49055294Y-119506264D01*
X49013601Y-119739086D01*
X48936921Y-119964280D01*
X48825165Y-120177226D01*
X48678244Y-120373302D01*
X48618529Y-120437056D01*
X48444634Y-120584400D01*
X48253594Y-120694311D01*
X48048498Y-120765472D01*
X47832435Y-120796560D01*
X47774011Y-120797916D01*
X47555431Y-120776803D01*
X47346062Y-120715429D01*
X47151482Y-120615691D01*
X47069192Y-120558001D01*
X47014071Y-120516938D01*
X46973291Y-120488895D01*
X46957801Y-120480667D01*
X46961557Y-120497968D01*
X46980977Y-120543940D01*
X47012213Y-120609686D01*
X47022708Y-120630736D01*
X47091229Y-120783377D01*
X47155690Y-120957253D01*
X47210946Y-121136364D01*
X47251852Y-121304711D01*
X47266799Y-121389874D01*
X47278246Y-121511318D01*
X47282689Y-121656725D01*
X47280610Y-121813692D01*
X47272493Y-121969814D01*
X47258819Y-122112687D01*
X47240071Y-122229906D01*
X47232947Y-122260480D01*
X47154383Y-122480891D01*
X47037482Y-122690054D01*
X46885097Y-122886482D01*
X46700085Y-123068686D01*
X46485300Y-123235177D01*
X46243598Y-123384467D01*
X45977834Y-123515067D01*
X45690862Y-123625487D01*
X45385539Y-123714241D01*
X45064719Y-123779838D01*
X44731258Y-123820791D01*
X44388010Y-123835610D01*
X44217167Y-123832882D01*
X44083178Y-123826117D01*
X43937654Y-123815515D01*
X43799386Y-123802606D01*
X43700011Y-123790746D01*
X43362976Y-123729810D01*
X43041845Y-123643299D01*
X42739799Y-123533083D01*
X42460016Y-123401034D01*
X42205677Y-123249023D01*
X41979961Y-123078922D01*
X41786048Y-122892602D01*
X41627117Y-122691934D01*
X41520124Y-122507846D01*
X41472739Y-122404939D01*
X41437220Y-122310796D01*
X41411948Y-122216362D01*
X41395308Y-122112580D01*
X41385682Y-121990397D01*
X41381454Y-121840756D01*
X41380833Y-121727767D01*
X41384477Y-121525364D01*
X41396883Y-121353247D01*
X41420269Y-121199878D01*
X41456848Y-121053719D01*
X41508838Y-120903232D01*
X41565437Y-120766417D01*
X41704425Y-120491020D01*
X41878791Y-120215852D01*
X42082257Y-119948687D01*
X42308546Y-119697301D01*
X42551380Y-119469467D01*
X42603871Y-119427386D01*
X42070222Y-119427386D01*
X42039230Y-119651336D01*
X41978736Y-119872714D01*
X41891878Y-120078921D01*
X41823412Y-120197866D01*
X41696461Y-120362260D01*
X41543951Y-120509483D01*
X41374688Y-120632784D01*
X41197484Y-120725412D01*
X41082123Y-120766000D01*
X40956617Y-120788178D01*
X40807704Y-120794386D01*
X40650824Y-120785481D01*
X40501415Y-120762319D01*
X40378011Y-120726955D01*
X40175521Y-120626862D01*
X39992977Y-120491186D01*
X39833230Y-120323067D01*
X39699128Y-120125650D01*
X39593520Y-119902075D01*
X39569400Y-119835084D01*
X39524230Y-119653452D01*
X39500880Y-119450590D01*
X39499938Y-119241887D01*
X39521991Y-119042738D01*
X39536494Y-118972887D01*
X39613405Y-118733735D01*
X39723579Y-118515423D01*
X39864310Y-118321919D01*
X40032889Y-118157190D01*
X40153510Y-118069104D01*
X40345833Y-117967459D01*
X40542736Y-117905452D01*
X40740941Y-117881126D01*
X40937171Y-117892520D01*
X41128147Y-117937677D01*
X41310591Y-118014638D01*
X41481226Y-118121443D01*
X41636773Y-118256134D01*
X41773954Y-118416752D01*
X41889491Y-118601339D01*
X41980107Y-118807935D01*
X42042523Y-119034582D01*
X42068573Y-119213464D01*
X42070222Y-119427386D01*
X42603871Y-119427386D01*
X42724917Y-119330347D01*
X42931497Y-119192092D01*
X43162305Y-119065286D01*
X43405869Y-118954928D01*
X43650715Y-118866017D01*
X43885372Y-118803554D01*
X43970198Y-118787675D01*
X44077932Y-118775762D01*
X44212800Y-118768978D01*
X44359915Y-118767323D01*
X44504388Y-118770798D01*
X44631333Y-118779402D01*
X44696969Y-118787675D01*
X45015138Y-118860631D01*
X45324722Y-118974856D01*
X45625844Y-119130418D01*
X45918624Y-119327382D01*
X46203186Y-119565816D01*
X46307375Y-119665510D01*
X46395390Y-119752332D01*
X46472089Y-119827393D01*
X46532826Y-119886194D01*
X46572954Y-119924237D01*
X46587825Y-119937026D01*
X46587833Y-119936986D01*
X46582403Y-119915234D01*
X46567969Y-119862883D01*
X46547320Y-119789995D01*
X46540589Y-119766528D01*
X46518275Y-119678523D01*
X46504024Y-119592105D01*
X46496349Y-119493670D01*
X46493766Y-119369615D01*
X46493733Y-119337667D01*
X46498467Y-119167252D01*
X46514342Y-119023747D01*
X46544696Y-118892454D01*
X46592864Y-118758676D01*
X46657135Y-118618000D01*
X46741411Y-118475402D01*
X46851186Y-118333733D01*
X46977039Y-118202750D01*
X47109551Y-118092208D01*
X47239300Y-118011864D01*
X47245120Y-118009021D01*
X47460767Y-117926583D01*
X47676771Y-117885902D01*
X47890243Y-117886544D01*
X48098292Y-117928078D01*
X48298030Y-118010073D01*
X48486568Y-118132095D01*
X48575688Y-118207940D01*
X48742055Y-118389483D01*
X48873967Y-118591125D01*
X48971336Y-118808245D01*
X49034072Y-119036222D01*
X49062088Y-119270436D01*
X50771602Y-119270436D01*
X50765139Y-119152107D01*
X50747005Y-118919298D01*
X50728844Y-118747588D01*
X50701938Y-118527926D01*
X50777427Y-118497373D01*
X51042204Y-118376895D01*
X51277043Y-118239966D01*
X51493390Y-118079038D01*
X51700177Y-117889096D01*
X51927284Y-117633500D01*
X52117903Y-117358508D01*
X52273138Y-117062042D01*
X52394094Y-116742023D01*
X52474750Y-116431238D01*
X52493582Y-116312566D01*
X51964167Y-116312566D01*
X51943471Y-116579810D01*
X51883236Y-116843872D01*
X51786239Y-117100411D01*
X51655257Y-117345083D01*
X51493069Y-117573546D01*
X51302453Y-117781454D01*
X51086186Y-117964467D01*
X50847045Y-118118239D01*
X50789913Y-118148599D01*
X50725356Y-118180246D01*
X50677542Y-118201105D01*
X50656790Y-118206678D01*
X50656776Y-118206665D01*
X50649970Y-118184846D01*
X50635487Y-118128906D01*
X50615098Y-118045992D01*
X50590572Y-117943247D01*
X50574491Y-117874558D01*
X50464934Y-117460879D01*
X50331714Y-117057090D01*
X50177799Y-116670476D01*
X50006153Y-116308325D01*
X49819745Y-115977921D01*
X49770940Y-115900758D01*
X49720647Y-115823387D01*
X49688109Y-115766375D01*
X49677607Y-115728750D01*
X38905638Y-115728750D01*
X38768852Y-115947079D01*
X38582190Y-116272896D01*
X38409031Y-116630627D01*
X38253017Y-117011014D01*
X38117791Y-117404802D01*
X38006999Y-117802734D01*
X37963335Y-117993584D01*
X37945507Y-118076065D01*
X37930165Y-118144122D01*
X37920025Y-118185797D01*
X37918575Y-118190835D01*
X37902090Y-118207264D01*
X37865794Y-118204473D01*
X37805062Y-118181038D01*
X37715274Y-118135538D01*
X37684767Y-118118910D01*
X37460385Y-117974717D01*
X37255201Y-117802169D01*
X37071718Y-117605949D01*
X36912440Y-117390739D01*
X36779871Y-117161220D01*
X36676514Y-116922075D01*
X36604872Y-116677984D01*
X36567449Y-116433631D01*
X36566749Y-116193697D01*
X36583865Y-116060013D01*
X36641355Y-115843747D01*
X36729243Y-115654307D01*
X36844346Y-115492743D01*
X36983481Y-115360105D01*
X37143464Y-115257444D01*
X37321112Y-115185810D01*
X37513242Y-115146252D01*
X37716671Y-115139821D01*
X37928214Y-115167567D01*
X38144689Y-115230540D01*
X38362913Y-115329791D01*
X38516536Y-115422434D01*
X38608159Y-115485961D01*
X38698945Y-115552866D01*
X38775072Y-115612805D01*
X38804444Y-115637936D01*
X38905638Y-115728750D01*
X49677607Y-115728750D01*
X49675745Y-115722080D01*
X49685974Y-115682859D01*
X49721216Y-115641072D01*
X49783890Y-115589075D01*
X49876415Y-115519227D01*
X49896523Y-115504097D01*
X50114175Y-115360149D01*
X50336223Y-115251740D01*
X50559221Y-115179269D01*
X50779721Y-115143134D01*
X50994277Y-115143735D01*
X51199443Y-115181470D01*
X51391772Y-115256739D01*
X51497639Y-115318787D01*
X51656857Y-115449359D01*
X51782982Y-115606314D01*
X51875994Y-115789614D01*
X51935877Y-115999221D01*
X51962612Y-116235098D01*
X51964167Y-116312566D01*
X52493582Y-116312566D01*
X52498007Y-116284684D01*
X52513438Y-116112725D01*
X52520722Y-115929417D01*
X52519543Y-115748817D01*
X52509581Y-115584980D01*
X52496263Y-115482195D01*
X52422449Y-115166421D01*
X52313532Y-114868088D01*
X52171390Y-114590926D01*
X51997898Y-114338671D01*
X51822424Y-114141882D01*
X51597070Y-113946361D01*
X51353349Y-113787037D01*
X51094589Y-113663756D01*
X50824115Y-113576362D01*
X50545253Y-113524700D01*
X50261330Y-113508614D01*
X49975673Y-113527950D01*
X49691606Y-113582552D01*
X49412456Y-113672263D01*
X49141550Y-113796931D01*
X48882213Y-113956397D01*
X48637773Y-114150508D01*
X48486043Y-114297708D01*
X48429200Y-114356503D01*
X48384324Y-114401314D01*
X48358618Y-114425011D01*
X48355428Y-114427000D01*
X48335475Y-114416555D01*
X48287753Y-114388438D01*
X48220350Y-114347474D01*
X48171718Y-114317425D01*
X47866650Y-114145629D01*
X47527680Y-113987116D01*
X47161836Y-113844357D01*
X46776145Y-113719820D01*
X46377635Y-113615974D01*
X45973332Y-113535288D01*
X45921083Y-113526688D01*
X45617258Y-113485557D01*
X45281115Y-113453627D01*
X44921685Y-113431014D01*
X44547998Y-113417830D01*
X44169084Y-113414190D01*
X43793972Y-113420207D01*
G36*
X43806540Y-131026959D02*
G01*
X43760553Y-131119387D01*
X43710315Y-131214359D01*
X43666679Y-131291358D01*
X43666568Y-131291542D01*
X43599839Y-131402667D01*
X44183670Y-131402667D01*
X44335931Y-131402229D01*
X44473390Y-131400994D01*
X44590649Y-131399077D01*
X44682315Y-131396596D01*
X44742990Y-131393667D01*
X44767280Y-131390407D01*
X44767500Y-131390059D01*
X44756457Y-131365732D01*
X44729687Y-131323965D01*
X44727790Y-131321268D01*
X44701382Y-131278410D01*
X44662611Y-131208777D01*
X44617649Y-131123651D01*
X44589995Y-131069292D01*
X44491909Y-130873500D01*
X43879782Y-130873500D01*
X43806540Y-131026959D01*
G37*
X43806540Y-131026959D02*
X43760553Y-131119387D01*
X43710315Y-131214359D01*
X43666679Y-131291358D01*
X43666568Y-131291542D01*
X43599839Y-131402667D01*
X44183670Y-131402667D01*
X44335931Y-131402229D01*
X44473390Y-131400994D01*
X44590649Y-131399077D01*
X44682315Y-131396596D01*
X44742990Y-131393667D01*
X44767280Y-131390407D01*
X44767500Y-131390059D01*
X44756457Y-131365732D01*
X44729687Y-131323965D01*
X44727790Y-131321268D01*
X44701382Y-131278410D01*
X44662611Y-131208777D01*
X44617649Y-131123651D01*
X44589995Y-131069292D01*
X44491909Y-130873500D01*
X43879782Y-130873500D01*
X43806540Y-131026959D01*
G36*
X36216167Y-128985157D02*
G01*
X36494045Y-129252866D01*
X36928356Y-129653942D01*
X37362450Y-130019010D01*
X37803888Y-130353674D01*
X38260227Y-130663540D01*
X38739026Y-130954213D01*
X38943090Y-131068872D01*
X39063487Y-131134056D01*
X39186969Y-131199185D01*
X39301962Y-131258267D01*
X39396896Y-131305312D01*
X39430316Y-131321110D01*
X39607049Y-131402667D01*
X40877933Y-131402667D01*
X40804308Y-131312709D01*
X40655296Y-131110904D01*
X40507577Y-130873332D01*
X40363900Y-130606533D01*
X40227015Y-130317048D01*
X40099669Y-130011417D01*
X39984614Y-129696181D01*
X39884598Y-129377881D01*
X39802369Y-129063057D01*
X39747813Y-128799167D01*
X39720725Y-128596828D01*
X39705331Y-128365899D01*
X39701621Y-128118471D01*
X39709583Y-127866637D01*
X39729205Y-127622490D01*
X39749067Y-127467928D01*
X39823476Y-127069878D01*
X39927951Y-126653949D01*
X40059706Y-126228966D01*
X40215958Y-125803753D01*
X40393922Y-125387133D01*
X40430168Y-125309233D01*
X40470705Y-125222142D01*
X40502916Y-125150722D01*
X40523426Y-125102612D01*
X40529005Y-125085458D01*
X40507956Y-125078625D01*
X40453679Y-125061668D01*
X40373431Y-125036838D01*
X40274468Y-125006384D01*
X40227250Y-124991900D01*
X39798754Y-124848928D01*
X39392209Y-124689863D01*
X39010477Y-124516332D01*
X38656423Y-124329959D01*
X38332909Y-124132372D01*
X38042799Y-123925195D01*
X37788957Y-123710056D01*
X37574245Y-123488580D01*
X37568726Y-123482190D01*
X37493616Y-123389906D01*
X37411649Y-123281356D01*
X37337800Y-123176544D01*
X37321827Y-123152449D01*
X37170110Y-122881449D01*
X37054772Y-122591730D01*
X36975927Y-122286420D01*
X36933692Y-121968644D01*
X36928183Y-121641527D01*
X36959516Y-121308197D01*
X37027806Y-120971778D01*
X37133170Y-120635398D01*
X37220547Y-120420599D01*
X37292644Y-120258417D01*
X37304802Y-119697500D01*
X37308609Y-119537593D01*
X37312924Y-119382723D01*
X37317482Y-119240675D01*
X37322019Y-119119233D01*
X37326271Y-119026179D01*
X37329256Y-118977834D01*
X37341551Y-118819084D01*
X37181528Y-118736119D01*
X36959448Y-118601861D01*
X36731965Y-118426788D01*
X36500332Y-118211891D01*
X36441837Y-118151971D01*
X36216167Y-117916465D01*
X36216167Y-128985157D01*
G37*
X36216167Y-128985157D02*
X36494045Y-129252866D01*
X36928356Y-129653942D01*
X37362450Y-130019010D01*
X37803888Y-130353674D01*
X38260227Y-130663540D01*
X38739026Y-130954213D01*
X38943090Y-131068872D01*
X39063487Y-131134056D01*
X39186969Y-131199185D01*
X39301962Y-131258267D01*
X39396896Y-131305312D01*
X39430316Y-131321110D01*
X39607049Y-131402667D01*
X40877933Y-131402667D01*
X40804308Y-131312709D01*
X40655296Y-131110904D01*
X40507577Y-130873332D01*
X40363900Y-130606533D01*
X40227015Y-130317048D01*
X40099669Y-130011417D01*
X39984614Y-129696181D01*
X39884598Y-129377881D01*
X39802369Y-129063057D01*
X39747813Y-128799167D01*
X39720725Y-128596828D01*
X39705331Y-128365899D01*
X39701621Y-128118471D01*
X39709583Y-127866637D01*
X39729205Y-127622490D01*
X39749067Y-127467928D01*
X39823476Y-127069878D01*
X39927951Y-126653949D01*
X40059706Y-126228966D01*
X40215958Y-125803753D01*
X40393922Y-125387133D01*
X40430168Y-125309233D01*
X40470705Y-125222142D01*
X40502916Y-125150722D01*
X40523426Y-125102612D01*
X40529005Y-125085458D01*
X40507956Y-125078625D01*
X40453679Y-125061668D01*
X40373431Y-125036838D01*
X40274468Y-125006384D01*
X40227250Y-124991900D01*
X39798754Y-124848928D01*
X39392209Y-124689863D01*
X39010477Y-124516332D01*
X38656423Y-124329959D01*
X38332909Y-124132372D01*
X38042799Y-123925195D01*
X37788957Y-123710056D01*
X37574245Y-123488580D01*
X37568726Y-123482190D01*
X37493616Y-123389906D01*
X37411649Y-123281356D01*
X37337800Y-123176544D01*
X37321827Y-123152449D01*
X37170110Y-122881449D01*
X37054772Y-122591730D01*
X36975927Y-122286420D01*
X36933692Y-121968644D01*
X36928183Y-121641527D01*
X36959516Y-121308197D01*
X37027806Y-120971778D01*
X37133170Y-120635398D01*
X37220547Y-120420599D01*
X37292644Y-120258417D01*
X37304802Y-119697500D01*
X37308609Y-119537593D01*
X37312924Y-119382723D01*
X37317482Y-119240675D01*
X37322019Y-119119233D01*
X37326271Y-119026179D01*
X37329256Y-118977834D01*
X37341551Y-118819084D01*
X37181528Y-118736119D01*
X36959448Y-118601861D01*
X36731965Y-118426788D01*
X36500332Y-118211891D01*
X36441837Y-118151971D01*
X36216167Y-117916465D01*
X36216167Y-128985157D01*
G36*
X44197808Y-119034791D02*
G01*
X44093230Y-119037835D01*
X44008728Y-119044307D01*
X43933180Y-119055352D01*
X43855466Y-119072115D01*
X43783250Y-119090682D01*
X43600818Y-119150131D01*
X43403296Y-119232797D01*
X43205243Y-119331676D01*
X43021217Y-119439770D01*
X42932273Y-119499885D01*
X42684755Y-119695367D01*
X42454748Y-119913382D01*
X42245880Y-120148828D01*
X42061782Y-120396597D01*
X41906081Y-120651586D01*
X41782408Y-120908690D01*
X41694392Y-121162803D01*
X41666175Y-121280736D01*
X41649423Y-121395093D01*
X41639229Y-121532940D01*
X41635352Y-121684204D01*
X41637550Y-121838815D01*
X41645579Y-121986702D01*
X41659200Y-122117793D01*
X41678168Y-122222018D01*
X41689738Y-122261345D01*
X41783640Y-122462555D01*
X41915985Y-122652721D01*
X42083916Y-122830086D01*
X42284575Y-122992893D01*
X42515103Y-123139384D01*
X42772643Y-123267803D01*
X43054335Y-123376392D01*
X43357322Y-123463394D01*
X43678746Y-123527050D01*
X43769781Y-123540202D01*
X43884446Y-123551549D01*
X44028656Y-123559909D01*
X44191541Y-123565204D01*
X44362231Y-123567358D01*
X44529859Y-123566296D01*
X44683554Y-123561941D01*
X44812448Y-123554217D01*
X44873333Y-123547937D01*
X45200211Y-123492516D01*
X45508809Y-123413586D01*
X45796428Y-123312838D01*
X46060369Y-123191964D01*
X46297935Y-123052656D01*
X46506425Y-122896606D01*
X46683142Y-122725507D01*
X46825386Y-122541049D01*
X46930458Y-122344924D01*
X46971466Y-122232565D01*
X46986849Y-122178181D01*
X46997887Y-122125651D01*
X47005086Y-122067114D01*
X47008955Y-121994708D01*
X47010002Y-121900573D01*
X47008734Y-121776847D01*
X47007016Y-121682232D01*
X47004199Y-121551756D01*
X46099929Y-121551756D01*
X46092099Y-121610448D01*
X46063958Y-121648555D01*
X46002358Y-121691728D01*
X45913116Y-121742667D01*
X45808433Y-121794834D01*
X45712203Y-121836985D01*
X45636191Y-121872380D01*
X45582965Y-121912273D01*
X45535865Y-121970714D01*
X45513816Y-122004309D01*
X45368681Y-122200808D01*
X45200377Y-122372900D01*
X45014776Y-122515994D01*
X44817750Y-122625497D01*
X44634690Y-122691757D01*
X44521371Y-122712013D01*
X44384513Y-122721186D01*
X44241432Y-122719268D01*
X44109448Y-122706253D01*
X44038357Y-122691983D01*
X43846539Y-122622243D01*
X43657409Y-122516284D01*
X43478296Y-122379962D01*
X43316526Y-122219136D01*
X43179426Y-122039665D01*
X43137675Y-121971887D01*
X43094571Y-121906145D01*
X43048538Y-121862565D01*
X42983332Y-121827275D01*
X42953343Y-121814466D01*
X42851489Y-121768739D01*
X42754139Y-121718475D01*
X42671047Y-121669273D01*
X42611970Y-121626733D01*
X42592625Y-121607413D01*
X42568653Y-121547250D01*
X42578495Y-121486247D01*
X42615892Y-121437171D01*
X42674589Y-121412790D01*
X42688387Y-121412000D01*
X42733329Y-121422751D01*
X42798292Y-121450749D01*
X42859935Y-121484525D01*
X43031892Y-121571717D01*
X43210976Y-121631121D01*
X43388833Y-121661284D01*
X43557108Y-121660752D01*
X43700105Y-121630623D01*
X43796573Y-121581330D01*
X43898066Y-121501219D01*
X43995560Y-121399408D01*
X44080031Y-121285013D01*
X44128998Y-121197307D01*
X44168499Y-121104783D01*
X44189066Y-121025665D01*
X44195846Y-120938545D01*
X44196000Y-120918603D01*
X44196000Y-120780508D01*
X44092038Y-120758212D01*
X43888315Y-120695405D01*
X43701340Y-120599997D01*
X43536661Y-120476239D01*
X43399824Y-120328384D01*
X43296376Y-120160681D01*
X43287461Y-120141616D01*
X43249730Y-120016970D01*
X43253012Y-119901044D01*
X43296765Y-119794487D01*
X43380444Y-119697951D01*
X43503506Y-119612083D01*
X43665408Y-119537534D01*
X43839431Y-119481850D01*
X43983014Y-119453758D01*
X44153558Y-119437198D01*
X44337295Y-119432156D01*
X44520457Y-119438619D01*
X44689275Y-119456574D01*
X44818519Y-119482803D01*
X45009095Y-119545089D01*
X45167065Y-119619057D01*
X45290683Y-119703063D01*
X45378203Y-119795465D01*
X45427881Y-119894620D01*
X45437970Y-119998885D01*
X45426761Y-120055353D01*
X45371786Y-120176145D01*
X45282177Y-120298935D01*
X45164935Y-120418057D01*
X45027060Y-120527845D01*
X44875554Y-120622633D01*
X44717416Y-120696757D01*
X44581163Y-120739723D01*
X44471167Y-120765852D01*
X44471167Y-120906558D01*
X44473891Y-120983661D01*
X44484910Y-121048226D01*
X44508493Y-121115953D01*
X44548909Y-121202541D01*
X44554957Y-121214673D01*
X44657060Y-121385253D01*
X44773379Y-121516479D01*
X44905064Y-121609268D01*
X45053266Y-121664532D01*
X45139528Y-121678986D01*
X45292966Y-121678188D01*
X45461988Y-121648319D01*
X45634809Y-121592607D01*
X45799644Y-121514276D01*
X45849118Y-121484747D01*
X45909413Y-121452950D01*
X45963071Y-121434797D01*
X45977205Y-121433167D01*
X46037415Y-121450536D01*
X46080012Y-121494259D01*
X46099929Y-121551756D01*
X47004199Y-121551756D01*
X47003938Y-121539709D01*
X47000396Y-121431015D01*
X46995311Y-121347653D01*
X46987601Y-121281123D01*
X46976187Y-121222926D01*
X46959988Y-121164563D01*
X46937924Y-121097535D01*
X46929625Y-121073379D01*
X46802758Y-120767791D01*
X46636273Y-120469495D01*
X46432751Y-120182398D01*
X46194770Y-119910408D01*
X46098017Y-119813917D01*
X45830880Y-119581220D01*
X45553990Y-119387029D01*
X45269201Y-119232445D01*
X44978368Y-119118569D01*
X44879204Y-119089526D01*
X44793030Y-119067692D01*
X44717150Y-119052392D01*
X44640521Y-119042502D01*
X44552100Y-119036899D01*
X44440844Y-119034460D01*
X44333583Y-119034031D01*
X44197808Y-119034791D01*
G37*
X44197808Y-119034791D02*
X44093230Y-119037835D01*
X44008728Y-119044307D01*
X43933180Y-119055352D01*
X43855466Y-119072115D01*
X43783250Y-119090682D01*
X43600818Y-119150131D01*
X43403296Y-119232797D01*
X43205243Y-119331676D01*
X43021217Y-119439770D01*
X42932273Y-119499885D01*
X42684755Y-119695367D01*
X42454748Y-119913382D01*
X42245880Y-120148828D01*
X42061782Y-120396597D01*
X41906081Y-120651586D01*
X41782408Y-120908690D01*
X41694392Y-121162803D01*
X41666175Y-121280736D01*
X41649423Y-121395093D01*
X41639229Y-121532940D01*
X41635352Y-121684204D01*
X41637550Y-121838815D01*
X41645579Y-121986702D01*
X41659200Y-122117793D01*
X41678168Y-122222018D01*
X41689738Y-122261345D01*
X41783640Y-122462555D01*
X41915985Y-122652721D01*
X42083916Y-122830086D01*
X42284575Y-122992893D01*
X42515103Y-123139384D01*
X42772643Y-123267803D01*
X43054335Y-123376392D01*
X43357322Y-123463394D01*
X43678746Y-123527050D01*
X43769781Y-123540202D01*
X43884446Y-123551549D01*
X44028656Y-123559909D01*
X44191541Y-123565204D01*
X44362231Y-123567358D01*
X44529859Y-123566296D01*
X44683554Y-123561941D01*
X44812448Y-123554217D01*
X44873333Y-123547937D01*
X45200211Y-123492516D01*
X45508809Y-123413586D01*
X45796428Y-123312838D01*
X46060369Y-123191964D01*
X46297935Y-123052656D01*
X46506425Y-122896606D01*
X46683142Y-122725507D01*
X46825386Y-122541049D01*
X46930458Y-122344924D01*
X46971466Y-122232565D01*
X46986849Y-122178181D01*
X46997887Y-122125651D01*
X47005086Y-122067114D01*
X47008955Y-121994708D01*
X47010002Y-121900573D01*
X47008734Y-121776847D01*
X47007016Y-121682232D01*
X47004199Y-121551756D01*
X46099929Y-121551756D01*
X46092099Y-121610448D01*
X46063958Y-121648555D01*
X46002358Y-121691728D01*
X45913116Y-121742667D01*
X45808433Y-121794834D01*
X45712203Y-121836985D01*
X45636191Y-121872380D01*
X45582965Y-121912273D01*
X45535865Y-121970714D01*
X45513816Y-122004309D01*
X45368681Y-122200808D01*
X45200377Y-122372900D01*
X45014776Y-122515994D01*
X44817750Y-122625497D01*
X44634690Y-122691757D01*
X44521371Y-122712013D01*
X44384513Y-122721186D01*
X44241432Y-122719268D01*
X44109448Y-122706253D01*
X44038357Y-122691983D01*
X43846539Y-122622243D01*
X43657409Y-122516284D01*
X43478296Y-122379962D01*
X43316526Y-122219136D01*
X43179426Y-122039665D01*
X43137675Y-121971887D01*
X43094571Y-121906145D01*
X43048538Y-121862565D01*
X42983332Y-121827275D01*
X42953343Y-121814466D01*
X42851489Y-121768739D01*
X42754139Y-121718475D01*
X42671047Y-121669273D01*
X42611970Y-121626733D01*
X42592625Y-121607413D01*
X42568653Y-121547250D01*
X42578495Y-121486247D01*
X42615892Y-121437171D01*
X42674589Y-121412790D01*
X42688387Y-121412000D01*
X42733329Y-121422751D01*
X42798292Y-121450749D01*
X42859935Y-121484525D01*
X43031892Y-121571717D01*
X43210976Y-121631121D01*
X43388833Y-121661284D01*
X43557108Y-121660752D01*
X43700105Y-121630623D01*
X43796573Y-121581330D01*
X43898066Y-121501219D01*
X43995560Y-121399408D01*
X44080031Y-121285013D01*
X44128998Y-121197307D01*
X44168499Y-121104783D01*
X44189066Y-121025665D01*
X44195846Y-120938545D01*
X44196000Y-120918603D01*
X44196000Y-120780508D01*
X44092038Y-120758212D01*
X43888315Y-120695405D01*
X43701340Y-120599997D01*
X43536661Y-120476239D01*
X43399824Y-120328384D01*
X43296376Y-120160681D01*
X43287461Y-120141616D01*
X43249730Y-120016970D01*
X43253012Y-119901044D01*
X43296765Y-119794487D01*
X43380444Y-119697951D01*
X43503506Y-119612083D01*
X43665408Y-119537534D01*
X43839431Y-119481850D01*
X43983014Y-119453758D01*
X44153558Y-119437198D01*
X44337295Y-119432156D01*
X44520457Y-119438619D01*
X44689275Y-119456574D01*
X44818519Y-119482803D01*
X45009095Y-119545089D01*
X45167065Y-119619057D01*
X45290683Y-119703063D01*
X45378203Y-119795465D01*
X45427881Y-119894620D01*
X45437970Y-119998885D01*
X45426761Y-120055353D01*
X45371786Y-120176145D01*
X45282177Y-120298935D01*
X45164935Y-120418057D01*
X45027060Y-120527845D01*
X44875554Y-120622633D01*
X44717416Y-120696757D01*
X44581163Y-120739723D01*
X44471167Y-120765852D01*
X44471167Y-120906558D01*
X44473891Y-120983661D01*
X44484910Y-121048226D01*
X44508493Y-121115953D01*
X44548909Y-121202541D01*
X44554957Y-121214673D01*
X44657060Y-121385253D01*
X44773379Y-121516479D01*
X44905064Y-121609268D01*
X45053266Y-121664532D01*
X45139528Y-121678986D01*
X45292966Y-121678188D01*
X45461988Y-121648319D01*
X45634809Y-121592607D01*
X45799644Y-121514276D01*
X45849118Y-121484747D01*
X45909413Y-121452950D01*
X45963071Y-121434797D01*
X45977205Y-121433167D01*
X46037415Y-121450536D01*
X46080012Y-121494259D01*
X46099929Y-121551756D01*
X47004199Y-121551756D01*
X47003938Y-121539709D01*
X47000396Y-121431015D01*
X46995311Y-121347653D01*
X46987601Y-121281123D01*
X46976187Y-121222926D01*
X46959988Y-121164563D01*
X46937924Y-121097535D01*
X46929625Y-121073379D01*
X46802758Y-120767791D01*
X46636273Y-120469495D01*
X46432751Y-120182398D01*
X46194770Y-119910408D01*
X46098017Y-119813917D01*
X45830880Y-119581220D01*
X45553990Y-119387029D01*
X45269201Y-119232445D01*
X44978368Y-119118569D01*
X44879204Y-119089526D01*
X44793030Y-119067692D01*
X44717150Y-119052392D01*
X44640521Y-119042502D01*
X44552100Y-119036899D01*
X44440844Y-119034460D01*
X44333583Y-119034031D01*
X44197808Y-119034791D01*
G36*
X47235011Y-118524051D02*
G01*
X47095635Y-118566416D01*
X46980567Y-118640433D01*
X46893800Y-118741474D01*
X46839329Y-118864911D01*
X46821132Y-119003612D01*
X46841017Y-119137791D01*
X46895367Y-119256479D01*
X46977978Y-119355049D01*
X47082643Y-119428874D01*
X47203156Y-119473324D01*
X47333313Y-119483773D01*
X47439495Y-119464758D01*
X47562384Y-119406235D01*
X47663798Y-119313194D01*
X47710330Y-119245449D01*
X47758446Y-119125343D01*
X47775599Y-118995166D01*
X47761153Y-118868581D01*
X47731564Y-118788765D01*
X47656070Y-118682211D01*
X47554576Y-118598361D01*
X47436732Y-118542359D01*
X47312191Y-118519352D01*
X47235011Y-118524051D01*
G37*
X47235011Y-118524051D02*
X47095635Y-118566416D01*
X46980567Y-118640433D01*
X46893800Y-118741474D01*
X46839329Y-118864911D01*
X46821132Y-119003612D01*
X46841017Y-119137791D01*
X46895367Y-119256479D01*
X46977978Y-119355049D01*
X47082643Y-119428874D01*
X47203156Y-119473324D01*
X47333313Y-119483773D01*
X47439495Y-119464758D01*
X47562384Y-119406235D01*
X47663798Y-119313194D01*
X47710330Y-119245449D01*
X47758446Y-119125343D01*
X47775599Y-118995166D01*
X47761153Y-118868581D01*
X47731564Y-118788765D01*
X47656070Y-118682211D01*
X47554576Y-118598361D01*
X47436732Y-118542359D01*
X47312191Y-118519352D01*
X47235011Y-118524051D01*
G36*
X41122688Y-118541127D02*
G01*
X41010387Y-118588524D01*
X40912867Y-118663632D01*
X40837021Y-118765577D01*
X40798217Y-118860118D01*
X40775427Y-119001855D01*
X40793339Y-119134279D01*
X40852358Y-119261265D01*
X40936980Y-119358156D01*
X41046281Y-119429153D01*
X41170161Y-119470745D01*
X41298520Y-119479422D01*
X41411360Y-119455514D01*
X41538136Y-119388146D01*
X41635565Y-119294808D01*
X41701343Y-119181911D01*
X41733167Y-119055868D01*
X41728735Y-118923087D01*
X41685744Y-118789981D01*
X41664643Y-118750363D01*
X41581836Y-118646109D01*
X41479344Y-118573931D01*
X41364059Y-118532957D01*
X41242876Y-118522313D01*
X41122688Y-118541127D01*
G37*
X41122688Y-118541127D02*
X41010387Y-118588524D01*
X40912867Y-118663632D01*
X40837021Y-118765577D01*
X40798217Y-118860118D01*
X40775427Y-119001855D01*
X40793339Y-119134279D01*
X40852358Y-119261265D01*
X40936980Y-119358156D01*
X41046281Y-119429153D01*
X41170161Y-119470745D01*
X41298520Y-119479422D01*
X41411360Y-119455514D01*
X41538136Y-119388146D01*
X41635565Y-119294808D01*
X41701343Y-119181911D01*
X41733167Y-119055868D01*
X41728735Y-118923087D01*
X41685744Y-118789981D01*
X41664643Y-118750363D01*
X41581836Y-118646109D01*
X41479344Y-118573931D01*
X41364059Y-118532957D01*
X41242876Y-118522313D01*
X41122688Y-118541127D01*
G36*
X44323623Y-121407165D02*
G01*
X44288080Y-121448245D01*
X44242273Y-121506817D01*
X44235839Y-121515415D01*
X44096356Y-121674646D01*
X43943972Y-121794151D01*
X43776926Y-121875046D01*
X43601956Y-121917302D01*
X43529567Y-121925710D01*
X43474448Y-121929034D01*
X43449875Y-121926877D01*
X43436258Y-121935279D01*
X43434000Y-121951231D01*
X43448243Y-121980024D01*
X43486505Y-122029683D01*
X43542087Y-122091947D01*
X43578688Y-122129647D01*
X43694358Y-122233939D01*
X43814622Y-122315873D01*
X43905619Y-122364640D01*
X43996088Y-122407922D01*
X44065758Y-122435197D01*
X44131022Y-122450676D01*
X44208272Y-122458574D01*
X44284806Y-122462087D01*
X44413095Y-122462095D01*
X44520750Y-122452940D01*
X44578867Y-122441098D01*
X44742104Y-122376501D01*
X44906518Y-122279647D01*
X45059420Y-122158278D01*
X45090175Y-122129133D01*
X45152203Y-122066261D01*
X45200658Y-122013170D01*
X45228795Y-121977457D01*
X45233167Y-121968031D01*
X45213998Y-121954964D01*
X45164351Y-121942691D01*
X45111458Y-121935633D01*
X44930113Y-121898011D01*
X44758886Y-121822651D01*
X44605101Y-121714057D01*
X44476084Y-121576731D01*
X44437005Y-121520961D01*
X44395011Y-121458200D01*
X44361236Y-121412245D01*
X44342434Y-121392231D01*
X44341672Y-121392011D01*
X44323623Y-121407165D01*
G37*
X44323623Y-121407165D02*
X44288080Y-121448245D01*
X44242273Y-121506817D01*
X44235839Y-121515415D01*
X44096356Y-121674646D01*
X43943972Y-121794151D01*
X43776926Y-121875046D01*
X43601956Y-121917302D01*
X43529567Y-121925710D01*
X43474448Y-121929034D01*
X43449875Y-121926877D01*
X43436258Y-121935279D01*
X43434000Y-121951231D01*
X43448243Y-121980024D01*
X43486505Y-122029683D01*
X43542087Y-122091947D01*
X43578688Y-122129647D01*
X43694358Y-122233939D01*
X43814622Y-122315873D01*
X43905619Y-122364640D01*
X43996088Y-122407922D01*
X44065758Y-122435197D01*
X44131022Y-122450676D01*
X44208272Y-122458574D01*
X44284806Y-122462087D01*
X44413095Y-122462095D01*
X44520750Y-122452940D01*
X44578867Y-122441098D01*
X44742104Y-122376501D01*
X44906518Y-122279647D01*
X45059420Y-122158278D01*
X45090175Y-122129133D01*
X45152203Y-122066261D01*
X45200658Y-122013170D01*
X45228795Y-121977457D01*
X45233167Y-121968031D01*
X45213998Y-121954964D01*
X45164351Y-121942691D01*
X45111458Y-121935633D01*
X44930113Y-121898011D01*
X44758886Y-121822651D01*
X44605101Y-121714057D01*
X44476084Y-121576731D01*
X44437005Y-121520961D01*
X44395011Y-121458200D01*
X44361236Y-121412245D01*
X44342434Y-121392231D01*
X44341672Y-121392011D01*
X44323623Y-121407165D01*
%TD*%
%LPC*%
D12*
%TO.C,J4*%
X37338000Y-115062000D03*
X37338000Y-112522000D03*
X37338000Y-109982000D03*
X37338000Y-107442000D03*
X37338000Y-104902000D03*
X37338000Y-102362000D03*
X37338000Y-99822000D03*
X37338000Y-97282000D03*
X37338000Y-94742000D03*
X37338000Y-92202000D03*
X37338000Y-89662000D03*
D13*
X37338000Y-87122000D03*
%TD*%
D14*
%TO.C,J3*%
X44608000Y-126622000D03*
X50388000Y-126622000D03*
D15*
X51818000Y-126122000D03*
X43178000Y-126122000D03*
D16*
X51818000Y-130302000D03*
X43178000Y-130302000D03*
%TD*%
D12*
%TO.C,J5*%
X57658000Y-125222000D03*
X57658000Y-122682000D03*
X57658000Y-120142000D03*
X57658000Y-117602000D03*
X57658000Y-115062000D03*
X57658000Y-112522000D03*
X57658000Y-109982000D03*
X57658000Y-107442000D03*
X57658000Y-104902000D03*
X57658000Y-102362000D03*
X57658000Y-99822000D03*
X57658000Y-97282000D03*
X57658000Y-94742000D03*
X57658000Y-92202000D03*
X57658000Y-89662000D03*
D13*
X57658000Y-87122000D03*
%TD*%
D17*
%TO.C,H2*%
X56388000Y-83312000D03*
%TD*%
%TO.C,H1*%
X38608000Y-83312000D03*
%TD*%
%TO.C,H4*%
X56388000Y-129032000D03*
%TD*%
%TO.C,H3*%
X38608000Y-129032000D03*
%TD*%
M02*
